%
M48
M72
T01C0.0130
T02C0.0157
T03C0.0160
T04C0.0197
T05C0.0200
T06C0.0236
T07C0.0320
T08C0.0350
T09C0.0374
T10C0.0394
T11C0.0400
T12C0.1260
%
T01
X24887Y3816
X7437Y4716
X10487Y4716
X16687Y5116
X18587Y4716
X18587Y6016
X16787Y7716
X15787Y7716
X15474Y6903
X14356Y7998
X13337Y7466
X13787Y7066
X12637Y7466
X11937Y7466
X10487Y8316
X10137Y8616
X9837Y9066
X10037Y9316
X9637Y9716
X10037Y10066
X10637Y10466
X11387Y10216
X11937Y9666
X12587Y9216
X13237Y9716
X14687Y10416
X15235Y10016
X15666Y10470
X15991Y10357
X16457Y10117
X17815Y9421
X18160Y9363
X18219Y10240
X18220Y11030
X17457Y11737
X16837Y12916
X15437Y11966
X13187Y12916
X12687Y13166
X12087Y12966
X12087Y13616
X12537Y14116
X13287Y13666
X12987Y14566
X12037Y15266
X10387Y16066
X7387Y16366
X7237Y15696
X7172Y15096
X6537Y15116
X5587Y15016
X4687Y14966
X7137Y12166
X6752Y11911
X4652Y10691
X7837Y8816
X8287Y8516
X9187Y8516
X6952Y8051
X5787Y6416
X4787Y6416
X16431Y8946
X19256Y8786
X19661Y8786
X20755Y10216
X20382Y10974
X20382Y11420
X20646Y11794
X20382Y11991
X20646Y12254
X21064Y12736
X20242Y13866
X19907Y13926
X19337Y13916
X18618Y13961
X19571Y13316
X19437Y14916
X20187Y15166
X16787Y13916
X16187Y14616
X11187Y11366
X10737Y10916
X10487Y11516
X8637Y10166
X22378Y10455
X22730Y10509
X22641Y10161
X23482Y10569
X22707Y11275
X22417Y11146
X23906Y12206
X24082Y12566
X24987Y14666
X26387Y14916
X27587Y14816
X24987Y17616
X27187Y10216
X27687Y10216
X26387Y9216
X24287Y9216
X23987Y9516
X23887Y8116
X24157Y7206
X24987Y6316
X26487Y6416
X27587Y6416
T02
X15987Y5216
X15087Y5216
T03
X23801Y7524
X15717Y8986
X14898Y7998
T04
X10837Y5616
X9187Y4716
X8737Y4716
T05
X12556Y9738
X12556Y11660
T06
X19168Y10118
X19168Y10868
X12287Y5866
X11387Y5516
X11237Y4716
X6387Y7696
X6387Y11916
X9587Y13016
X10487Y13166
X9387Y15916
T07
X14487Y12416
X14487Y13416
T08
X9013Y16253
X12163Y16253
T09
X13139Y3916
X12234Y3916
X9439Y3916
X8534Y3916
T10
X23087Y4716
X22087Y4716
X21087Y4716
X20087Y4716
X19087Y4716
X18087Y4716
X17087Y4716
X16087Y4716
X16087Y5716
X17087Y5716
X18087Y5716
X19087Y5716
X20087Y5716
X21087Y5716
X22087Y5716
X23087Y5716
X25287Y7716
X26287Y7716
X26287Y8716
X25287Y8716
X25287Y9716
X26287Y9716
X26287Y10716
X25287Y10716
X25287Y11716
X26287Y11716
X26287Y12716
X25287Y12716
X24087Y14416
X23087Y14416
X22087Y14416
X21087Y14416
X20087Y14416
X19087Y14416
X19087Y15716
X20087Y15716
X21087Y15716
X22087Y15716
X23087Y15716
X23087Y16716
X22087Y16716
X21087Y16716
X20087Y16716
X19087Y16716
X18087Y16716
X17087Y16716
X16087Y16716
X16087Y15716
X17087Y15716
X18087Y15716
X8687Y7466
X9687Y7466
X9687Y6466
X8687Y6466
T11
X24087Y16716
X24087Y15716
X24088Y4718
X24087Y5716
X15087Y5716
X15087Y4716
X25287Y13716
X26287Y13716
X15087Y16716
X15087Y15716
T12
X26434Y4990
X26434Y16408
X5961Y16408
X5961Y4990
M30
