G75*
%MOIN*%
%OFA0B0*%
%FSLAX24Y24*%
%IPPOS*%
%LPD*%
%AMOC8*
5,1,8,0,0,1.08239X$1,22.5*
%
%ADD10OC8,0.0600*%
%ADD11OC8,0.0320*%
%ADD12R,0.0591X0.0591*%
%ADD13C,0.0591*%
%ADD14C,0.0000*%
%ADD15C,0.0660*%
%ADD16OC8,0.0591*%
%ADD17R,0.0300X0.0600*%
%ADD18R,0.0400X0.0600*%
%ADD19R,0.0600X0.0800*%
%ADD20R,0.0600X0.0600*%
%ADD21R,0.0200X0.0300*%
%ADD22C,0.0280*%
%ADD23C,0.0160*%
%ADD24C,0.0240*%
%ADD25C,0.0317*%
%ADD26C,0.0320*%
%ADD27C,0.0356*%
%ADD28C,0.0120*%
%ADD29C,0.0250*%
%ADD30C,0.0100*%
%ADD31C,0.0320*%
%ADD32C,0.0080*%
%ADD33C,0.0090*%
%ADD34C,0.0277*%
D10*
X015087Y004716D03*
X015087Y005716D03*
X024087Y005716D03*
X024088Y004718D03*
X025287Y013716D03*
X026287Y013716D03*
X024087Y015716D03*
X024087Y016716D03*
X015087Y016716D03*
X015087Y015716D03*
D11*
X012556Y011660D03*
X012556Y009738D03*
D12*
X019087Y014416D03*
X016087Y015716D03*
X025287Y012716D03*
X026287Y007716D03*
X016087Y004716D03*
D13*
X017087Y004716D03*
X018087Y004716D03*
X019087Y004716D03*
X020087Y004716D03*
X021087Y004716D03*
X022087Y004716D03*
X023087Y004716D03*
X023087Y005716D03*
X022087Y005716D03*
X021087Y005716D03*
X020087Y005716D03*
X019087Y005716D03*
X018087Y005716D03*
X017087Y005716D03*
X016087Y005716D03*
X025287Y007716D03*
X025287Y008716D03*
X026287Y008716D03*
X026287Y009716D03*
X025287Y009716D03*
X025287Y010716D03*
X026287Y010716D03*
X026287Y011716D03*
X025287Y011716D03*
X026287Y012716D03*
X024087Y014416D03*
X023087Y014416D03*
X022087Y014416D03*
X021087Y014416D03*
X020087Y014416D03*
X020087Y015716D03*
X019087Y015716D03*
X018087Y015716D03*
X017087Y015716D03*
X017087Y016716D03*
X018087Y016716D03*
X019087Y016716D03*
X020087Y016716D03*
X021087Y016716D03*
X022087Y016716D03*
X023087Y016716D03*
X023087Y015716D03*
X022087Y015716D03*
X021087Y015716D03*
X016087Y016716D03*
D14*
X005961Y003416D02*
X026434Y003416D01*
X025804Y004990D02*
X025806Y005040D01*
X025812Y005090D01*
X025822Y005139D01*
X025836Y005187D01*
X025853Y005234D01*
X025874Y005279D01*
X025899Y005323D01*
X025927Y005364D01*
X025959Y005403D01*
X025993Y005440D01*
X026030Y005474D01*
X026070Y005504D01*
X026112Y005531D01*
X026156Y005555D01*
X026202Y005576D01*
X026249Y005592D01*
X026297Y005605D01*
X026347Y005614D01*
X026396Y005619D01*
X026447Y005620D01*
X026497Y005617D01*
X026546Y005610D01*
X026595Y005599D01*
X026643Y005584D01*
X026689Y005566D01*
X026734Y005544D01*
X026777Y005518D01*
X026818Y005489D01*
X026857Y005457D01*
X026893Y005422D01*
X026925Y005384D01*
X026955Y005344D01*
X026982Y005301D01*
X027005Y005257D01*
X027024Y005211D01*
X027040Y005163D01*
X027052Y005114D01*
X027060Y005065D01*
X027064Y005015D01*
X027064Y004965D01*
X027060Y004915D01*
X027052Y004866D01*
X027040Y004817D01*
X027024Y004769D01*
X027005Y004723D01*
X026982Y004679D01*
X026955Y004636D01*
X026925Y004596D01*
X026893Y004558D01*
X026857Y004523D01*
X026818Y004491D01*
X026777Y004462D01*
X026734Y004436D01*
X026689Y004414D01*
X026643Y004396D01*
X026595Y004381D01*
X026546Y004370D01*
X026497Y004363D01*
X026447Y004360D01*
X026396Y004361D01*
X026347Y004366D01*
X026297Y004375D01*
X026249Y004388D01*
X026202Y004404D01*
X026156Y004425D01*
X026112Y004449D01*
X026070Y004476D01*
X026030Y004506D01*
X025993Y004540D01*
X025959Y004577D01*
X025927Y004616D01*
X025899Y004657D01*
X025874Y004701D01*
X025853Y004746D01*
X025836Y004793D01*
X025822Y004841D01*
X025812Y004890D01*
X025806Y004940D01*
X025804Y004990D01*
X026434Y003415D02*
X026511Y003417D01*
X026588Y003423D01*
X026665Y003432D01*
X026741Y003445D01*
X026817Y003462D01*
X026891Y003483D01*
X026965Y003507D01*
X027037Y003535D01*
X027107Y003566D01*
X027176Y003601D01*
X027244Y003639D01*
X027309Y003680D01*
X027372Y003725D01*
X027433Y003773D01*
X027492Y003823D01*
X027548Y003876D01*
X027601Y003932D01*
X027651Y003991D01*
X027699Y004052D01*
X027744Y004115D01*
X027785Y004180D01*
X027823Y004248D01*
X027858Y004317D01*
X027889Y004387D01*
X027917Y004459D01*
X027941Y004533D01*
X027962Y004607D01*
X027979Y004683D01*
X027992Y004759D01*
X028001Y004836D01*
X028007Y004913D01*
X028009Y004990D01*
X028009Y016408D01*
X025804Y016408D02*
X025806Y016458D01*
X025812Y016508D01*
X025822Y016557D01*
X025836Y016605D01*
X025853Y016652D01*
X025874Y016697D01*
X025899Y016741D01*
X025927Y016782D01*
X025959Y016821D01*
X025993Y016858D01*
X026030Y016892D01*
X026070Y016922D01*
X026112Y016949D01*
X026156Y016973D01*
X026202Y016994D01*
X026249Y017010D01*
X026297Y017023D01*
X026347Y017032D01*
X026396Y017037D01*
X026447Y017038D01*
X026497Y017035D01*
X026546Y017028D01*
X026595Y017017D01*
X026643Y017002D01*
X026689Y016984D01*
X026734Y016962D01*
X026777Y016936D01*
X026818Y016907D01*
X026857Y016875D01*
X026893Y016840D01*
X026925Y016802D01*
X026955Y016762D01*
X026982Y016719D01*
X027005Y016675D01*
X027024Y016629D01*
X027040Y016581D01*
X027052Y016532D01*
X027060Y016483D01*
X027064Y016433D01*
X027064Y016383D01*
X027060Y016333D01*
X027052Y016284D01*
X027040Y016235D01*
X027024Y016187D01*
X027005Y016141D01*
X026982Y016097D01*
X026955Y016054D01*
X026925Y016014D01*
X026893Y015976D01*
X026857Y015941D01*
X026818Y015909D01*
X026777Y015880D01*
X026734Y015854D01*
X026689Y015832D01*
X026643Y015814D01*
X026595Y015799D01*
X026546Y015788D01*
X026497Y015781D01*
X026447Y015778D01*
X026396Y015779D01*
X026347Y015784D01*
X026297Y015793D01*
X026249Y015806D01*
X026202Y015822D01*
X026156Y015843D01*
X026112Y015867D01*
X026070Y015894D01*
X026030Y015924D01*
X025993Y015958D01*
X025959Y015995D01*
X025927Y016034D01*
X025899Y016075D01*
X025874Y016119D01*
X025853Y016164D01*
X025836Y016211D01*
X025822Y016259D01*
X025812Y016308D01*
X025806Y016358D01*
X025804Y016408D01*
X026434Y017983D02*
X026511Y017981D01*
X026588Y017975D01*
X026665Y017966D01*
X026741Y017953D01*
X026817Y017936D01*
X026891Y017915D01*
X026965Y017891D01*
X027037Y017863D01*
X027107Y017832D01*
X027176Y017797D01*
X027244Y017759D01*
X027309Y017718D01*
X027372Y017673D01*
X027433Y017625D01*
X027492Y017575D01*
X027548Y017522D01*
X027601Y017466D01*
X027651Y017407D01*
X027699Y017346D01*
X027744Y017283D01*
X027785Y017218D01*
X027823Y017150D01*
X027858Y017081D01*
X027889Y017011D01*
X027917Y016939D01*
X027941Y016865D01*
X027962Y016791D01*
X027979Y016715D01*
X027992Y016639D01*
X028001Y016562D01*
X028007Y016485D01*
X028009Y016408D01*
X028007Y016485D01*
X028001Y016562D01*
X027992Y016639D01*
X027979Y016715D01*
X027962Y016791D01*
X027941Y016865D01*
X027917Y016939D01*
X027889Y017011D01*
X027858Y017081D01*
X027823Y017150D01*
X027785Y017218D01*
X027744Y017283D01*
X027699Y017346D01*
X027651Y017407D01*
X027601Y017466D01*
X027548Y017522D01*
X027492Y017575D01*
X027433Y017625D01*
X027372Y017673D01*
X027309Y017718D01*
X027244Y017759D01*
X027176Y017797D01*
X027107Y017832D01*
X027037Y017863D01*
X026965Y017891D01*
X026891Y017915D01*
X026817Y017936D01*
X026741Y017953D01*
X026665Y017966D01*
X026588Y017975D01*
X026511Y017981D01*
X026434Y017983D01*
X005961Y017983D01*
X005331Y016408D02*
X005333Y016458D01*
X005339Y016508D01*
X005349Y016557D01*
X005363Y016605D01*
X005380Y016652D01*
X005401Y016697D01*
X005426Y016741D01*
X005454Y016782D01*
X005486Y016821D01*
X005520Y016858D01*
X005557Y016892D01*
X005597Y016922D01*
X005639Y016949D01*
X005683Y016973D01*
X005729Y016994D01*
X005776Y017010D01*
X005824Y017023D01*
X005874Y017032D01*
X005923Y017037D01*
X005974Y017038D01*
X006024Y017035D01*
X006073Y017028D01*
X006122Y017017D01*
X006170Y017002D01*
X006216Y016984D01*
X006261Y016962D01*
X006304Y016936D01*
X006345Y016907D01*
X006384Y016875D01*
X006420Y016840D01*
X006452Y016802D01*
X006482Y016762D01*
X006509Y016719D01*
X006532Y016675D01*
X006551Y016629D01*
X006567Y016581D01*
X006579Y016532D01*
X006587Y016483D01*
X006591Y016433D01*
X006591Y016383D01*
X006587Y016333D01*
X006579Y016284D01*
X006567Y016235D01*
X006551Y016187D01*
X006532Y016141D01*
X006509Y016097D01*
X006482Y016054D01*
X006452Y016014D01*
X006420Y015976D01*
X006384Y015941D01*
X006345Y015909D01*
X006304Y015880D01*
X006261Y015854D01*
X006216Y015832D01*
X006170Y015814D01*
X006122Y015799D01*
X006073Y015788D01*
X006024Y015781D01*
X005974Y015778D01*
X005923Y015779D01*
X005874Y015784D01*
X005824Y015793D01*
X005776Y015806D01*
X005729Y015822D01*
X005683Y015843D01*
X005639Y015867D01*
X005597Y015894D01*
X005557Y015924D01*
X005520Y015958D01*
X005486Y015995D01*
X005454Y016034D01*
X005426Y016075D01*
X005401Y016119D01*
X005380Y016164D01*
X005363Y016211D01*
X005349Y016259D01*
X005339Y016308D01*
X005333Y016358D01*
X005331Y016408D01*
X004386Y016408D02*
X004388Y016485D01*
X004394Y016562D01*
X004403Y016639D01*
X004416Y016715D01*
X004433Y016791D01*
X004454Y016865D01*
X004478Y016939D01*
X004506Y017011D01*
X004537Y017081D01*
X004572Y017150D01*
X004610Y017218D01*
X004651Y017283D01*
X004696Y017346D01*
X004744Y017407D01*
X004794Y017466D01*
X004847Y017522D01*
X004903Y017575D01*
X004962Y017625D01*
X005023Y017673D01*
X005086Y017718D01*
X005151Y017759D01*
X005219Y017797D01*
X005288Y017832D01*
X005358Y017863D01*
X005430Y017891D01*
X005504Y017915D01*
X005578Y017936D01*
X005654Y017953D01*
X005730Y017966D01*
X005807Y017975D01*
X005884Y017981D01*
X005961Y017983D01*
X005884Y017981D01*
X005807Y017975D01*
X005730Y017966D01*
X005654Y017953D01*
X005578Y017936D01*
X005504Y017915D01*
X005430Y017891D01*
X005358Y017863D01*
X005288Y017832D01*
X005219Y017797D01*
X005151Y017759D01*
X005086Y017718D01*
X005023Y017673D01*
X004962Y017625D01*
X004903Y017575D01*
X004847Y017522D01*
X004794Y017466D01*
X004744Y017407D01*
X004696Y017346D01*
X004651Y017283D01*
X004610Y017218D01*
X004572Y017150D01*
X004537Y017081D01*
X004506Y017011D01*
X004478Y016939D01*
X004454Y016865D01*
X004433Y016791D01*
X004416Y016715D01*
X004403Y016639D01*
X004394Y016562D01*
X004388Y016485D01*
X004386Y016408D01*
X004387Y016408D02*
X004387Y004990D01*
X005331Y004990D02*
X005333Y005040D01*
X005339Y005090D01*
X005349Y005139D01*
X005363Y005187D01*
X005380Y005234D01*
X005401Y005279D01*
X005426Y005323D01*
X005454Y005364D01*
X005486Y005403D01*
X005520Y005440D01*
X005557Y005474D01*
X005597Y005504D01*
X005639Y005531D01*
X005683Y005555D01*
X005729Y005576D01*
X005776Y005592D01*
X005824Y005605D01*
X005874Y005614D01*
X005923Y005619D01*
X005974Y005620D01*
X006024Y005617D01*
X006073Y005610D01*
X006122Y005599D01*
X006170Y005584D01*
X006216Y005566D01*
X006261Y005544D01*
X006304Y005518D01*
X006345Y005489D01*
X006384Y005457D01*
X006420Y005422D01*
X006452Y005384D01*
X006482Y005344D01*
X006509Y005301D01*
X006532Y005257D01*
X006551Y005211D01*
X006567Y005163D01*
X006579Y005114D01*
X006587Y005065D01*
X006591Y005015D01*
X006591Y004965D01*
X006587Y004915D01*
X006579Y004866D01*
X006567Y004817D01*
X006551Y004769D01*
X006532Y004723D01*
X006509Y004679D01*
X006482Y004636D01*
X006452Y004596D01*
X006420Y004558D01*
X006384Y004523D01*
X006345Y004491D01*
X006304Y004462D01*
X006261Y004436D01*
X006216Y004414D01*
X006170Y004396D01*
X006122Y004381D01*
X006073Y004370D01*
X006024Y004363D01*
X005974Y004360D01*
X005923Y004361D01*
X005874Y004366D01*
X005824Y004375D01*
X005776Y004388D01*
X005729Y004404D01*
X005683Y004425D01*
X005639Y004449D01*
X005597Y004476D01*
X005557Y004506D01*
X005520Y004540D01*
X005486Y004577D01*
X005454Y004616D01*
X005426Y004657D01*
X005401Y004701D01*
X005380Y004746D01*
X005363Y004793D01*
X005349Y004841D01*
X005339Y004890D01*
X005333Y004940D01*
X005331Y004990D01*
X004386Y004990D02*
X004388Y004913D01*
X004394Y004836D01*
X004403Y004759D01*
X004416Y004683D01*
X004433Y004607D01*
X004454Y004533D01*
X004478Y004459D01*
X004506Y004387D01*
X004537Y004317D01*
X004572Y004248D01*
X004610Y004180D01*
X004651Y004115D01*
X004696Y004052D01*
X004744Y003991D01*
X004794Y003932D01*
X004847Y003876D01*
X004903Y003823D01*
X004962Y003773D01*
X005023Y003725D01*
X005086Y003680D01*
X005151Y003639D01*
X005219Y003601D01*
X005288Y003566D01*
X005358Y003535D01*
X005430Y003507D01*
X005504Y003483D01*
X005578Y003462D01*
X005654Y003445D01*
X005730Y003432D01*
X005807Y003423D01*
X005884Y003417D01*
X005961Y003415D01*
X005884Y003417D01*
X005807Y003423D01*
X005730Y003432D01*
X005654Y003445D01*
X005578Y003462D01*
X005504Y003483D01*
X005430Y003507D01*
X005358Y003535D01*
X005288Y003566D01*
X005219Y003601D01*
X005151Y003639D01*
X005086Y003680D01*
X005023Y003725D01*
X004962Y003773D01*
X004903Y003823D01*
X004847Y003876D01*
X004794Y003932D01*
X004744Y003991D01*
X004696Y004052D01*
X004651Y004115D01*
X004610Y004180D01*
X004572Y004248D01*
X004537Y004317D01*
X004506Y004387D01*
X004478Y004459D01*
X004454Y004533D01*
X004433Y004607D01*
X004416Y004683D01*
X004403Y004759D01*
X004394Y004836D01*
X004388Y004913D01*
X004386Y004990D01*
X008347Y003916D02*
X008349Y003943D01*
X008355Y003969D01*
X008364Y003994D01*
X008377Y004017D01*
X008393Y004038D01*
X008412Y004057D01*
X008433Y004073D01*
X008456Y004086D01*
X008481Y004095D01*
X008507Y004101D01*
X008534Y004103D01*
X008561Y004101D01*
X008587Y004095D01*
X008612Y004086D01*
X008635Y004073D01*
X008656Y004057D01*
X008675Y004038D01*
X008691Y004017D01*
X008704Y003994D01*
X008713Y003969D01*
X008719Y003943D01*
X008721Y003916D01*
X008719Y003889D01*
X008713Y003863D01*
X008704Y003838D01*
X008691Y003815D01*
X008675Y003794D01*
X008656Y003775D01*
X008635Y003759D01*
X008612Y003746D01*
X008587Y003737D01*
X008561Y003731D01*
X008534Y003729D01*
X008507Y003731D01*
X008481Y003737D01*
X008456Y003746D01*
X008433Y003759D01*
X008412Y003775D01*
X008393Y003794D01*
X008377Y003815D01*
X008364Y003838D01*
X008355Y003863D01*
X008349Y003889D01*
X008347Y003916D01*
X009252Y003916D02*
X009254Y003943D01*
X009260Y003969D01*
X009269Y003994D01*
X009282Y004017D01*
X009298Y004038D01*
X009317Y004057D01*
X009338Y004073D01*
X009361Y004086D01*
X009386Y004095D01*
X009412Y004101D01*
X009439Y004103D01*
X009466Y004101D01*
X009492Y004095D01*
X009517Y004086D01*
X009540Y004073D01*
X009561Y004057D01*
X009580Y004038D01*
X009596Y004017D01*
X009609Y003994D01*
X009618Y003969D01*
X009624Y003943D01*
X009626Y003916D01*
X009624Y003889D01*
X009618Y003863D01*
X009609Y003838D01*
X009596Y003815D01*
X009580Y003794D01*
X009561Y003775D01*
X009540Y003759D01*
X009517Y003746D01*
X009492Y003737D01*
X009466Y003731D01*
X009439Y003729D01*
X009412Y003731D01*
X009386Y003737D01*
X009361Y003746D01*
X009338Y003759D01*
X009317Y003775D01*
X009298Y003794D01*
X009282Y003815D01*
X009269Y003838D01*
X009260Y003863D01*
X009254Y003889D01*
X009252Y003916D01*
X012047Y003916D02*
X012049Y003943D01*
X012055Y003969D01*
X012064Y003994D01*
X012077Y004017D01*
X012093Y004038D01*
X012112Y004057D01*
X012133Y004073D01*
X012156Y004086D01*
X012181Y004095D01*
X012207Y004101D01*
X012234Y004103D01*
X012261Y004101D01*
X012287Y004095D01*
X012312Y004086D01*
X012335Y004073D01*
X012356Y004057D01*
X012375Y004038D01*
X012391Y004017D01*
X012404Y003994D01*
X012413Y003969D01*
X012419Y003943D01*
X012421Y003916D01*
X012419Y003889D01*
X012413Y003863D01*
X012404Y003838D01*
X012391Y003815D01*
X012375Y003794D01*
X012356Y003775D01*
X012335Y003759D01*
X012312Y003746D01*
X012287Y003737D01*
X012261Y003731D01*
X012234Y003729D01*
X012207Y003731D01*
X012181Y003737D01*
X012156Y003746D01*
X012133Y003759D01*
X012112Y003775D01*
X012093Y003794D01*
X012077Y003815D01*
X012064Y003838D01*
X012055Y003863D01*
X012049Y003889D01*
X012047Y003916D01*
X012952Y003916D02*
X012954Y003943D01*
X012960Y003969D01*
X012969Y003994D01*
X012982Y004017D01*
X012998Y004038D01*
X013017Y004057D01*
X013038Y004073D01*
X013061Y004086D01*
X013086Y004095D01*
X013112Y004101D01*
X013139Y004103D01*
X013166Y004101D01*
X013192Y004095D01*
X013217Y004086D01*
X013240Y004073D01*
X013261Y004057D01*
X013280Y004038D01*
X013296Y004017D01*
X013309Y003994D01*
X013318Y003969D01*
X013324Y003943D01*
X013326Y003916D01*
X013324Y003889D01*
X013318Y003863D01*
X013309Y003838D01*
X013296Y003815D01*
X013280Y003794D01*
X013261Y003775D01*
X013240Y003759D01*
X013217Y003746D01*
X013192Y003737D01*
X013166Y003731D01*
X013139Y003729D01*
X013112Y003731D01*
X013086Y003737D01*
X013061Y003746D01*
X013038Y003759D01*
X013017Y003775D01*
X012998Y003794D01*
X012982Y003815D01*
X012969Y003838D01*
X012960Y003863D01*
X012954Y003889D01*
X012952Y003916D01*
X026434Y003415D02*
X026511Y003417D01*
X026588Y003423D01*
X026665Y003432D01*
X026741Y003445D01*
X026817Y003462D01*
X026891Y003483D01*
X026965Y003507D01*
X027037Y003535D01*
X027107Y003566D01*
X027176Y003601D01*
X027244Y003639D01*
X027309Y003680D01*
X027372Y003725D01*
X027433Y003773D01*
X027492Y003823D01*
X027548Y003876D01*
X027601Y003932D01*
X027651Y003991D01*
X027699Y004052D01*
X027744Y004115D01*
X027785Y004180D01*
X027823Y004248D01*
X027858Y004317D01*
X027889Y004387D01*
X027917Y004459D01*
X027941Y004533D01*
X027962Y004607D01*
X027979Y004683D01*
X027992Y004759D01*
X028001Y004836D01*
X028007Y004913D01*
X028009Y004990D01*
X011988Y016253D02*
X011990Y016279D01*
X011996Y016305D01*
X012005Y016329D01*
X012018Y016352D01*
X012035Y016372D01*
X012054Y016390D01*
X012076Y016405D01*
X012099Y016416D01*
X012124Y016424D01*
X012150Y016428D01*
X012176Y016428D01*
X012202Y016424D01*
X012227Y016416D01*
X012251Y016405D01*
X012272Y016390D01*
X012291Y016372D01*
X012308Y016352D01*
X012321Y016329D01*
X012330Y016305D01*
X012336Y016279D01*
X012338Y016253D01*
X012336Y016227D01*
X012330Y016201D01*
X012321Y016177D01*
X012308Y016154D01*
X012291Y016134D01*
X012272Y016116D01*
X012250Y016101D01*
X012227Y016090D01*
X012202Y016082D01*
X012176Y016078D01*
X012150Y016078D01*
X012124Y016082D01*
X012099Y016090D01*
X012075Y016101D01*
X012054Y016116D01*
X012035Y016134D01*
X012018Y016154D01*
X012005Y016177D01*
X011996Y016201D01*
X011990Y016227D01*
X011988Y016253D01*
X008838Y016253D02*
X008840Y016279D01*
X008846Y016305D01*
X008855Y016329D01*
X008868Y016352D01*
X008885Y016372D01*
X008904Y016390D01*
X008926Y016405D01*
X008949Y016416D01*
X008974Y016424D01*
X009000Y016428D01*
X009026Y016428D01*
X009052Y016424D01*
X009077Y016416D01*
X009101Y016405D01*
X009122Y016390D01*
X009141Y016372D01*
X009158Y016352D01*
X009171Y016329D01*
X009180Y016305D01*
X009186Y016279D01*
X009188Y016253D01*
X009186Y016227D01*
X009180Y016201D01*
X009171Y016177D01*
X009158Y016154D01*
X009141Y016134D01*
X009122Y016116D01*
X009100Y016101D01*
X009077Y016090D01*
X009052Y016082D01*
X009026Y016078D01*
X009000Y016078D01*
X008974Y016082D01*
X008949Y016090D01*
X008925Y016101D01*
X008904Y016116D01*
X008885Y016134D01*
X008868Y016154D01*
X008855Y016177D01*
X008846Y016201D01*
X008840Y016227D01*
X008838Y016253D01*
D15*
X014487Y013416D03*
X014487Y012416D03*
D16*
X009687Y007466D03*
X008687Y007466D03*
X008687Y006466D03*
X009687Y006466D03*
D17*
X009604Y011962D03*
X010037Y011962D03*
X010470Y011962D03*
X010903Y011962D03*
X011336Y011962D03*
X011769Y011962D03*
X009170Y011962D03*
X008737Y011962D03*
X008304Y011962D03*
D18*
X007774Y012198D03*
D19*
X007911Y016046D03*
X013974Y016046D03*
D20*
X013651Y012116D03*
D21*
X010212Y011216D03*
X009887Y011216D03*
X009587Y011216D03*
X009262Y011216D03*
X009262Y010616D03*
X009587Y010616D03*
X009887Y010616D03*
X010212Y010616D03*
D22*
X014898Y007998D03*
X015717Y008986D03*
X023801Y007524D03*
D23*
X024679Y007524D01*
X025787Y006416D01*
X026837Y007416D02*
X026837Y013366D01*
X026487Y013716D01*
X026287Y013716D01*
X026387Y009216D02*
X024287Y009216D01*
X017468Y011737D02*
X017457Y011737D01*
X015775Y010551D02*
X015666Y010470D01*
X015775Y010551D02*
X015775Y014907D01*
X016087Y015218D01*
X016087Y015716D01*
X017937Y015566D02*
X018087Y015716D01*
X010487Y013166D02*
X010470Y013149D01*
X010470Y011962D01*
X009604Y011962D02*
X009604Y013016D01*
X009587Y013016D01*
X009587Y010616D02*
X009587Y010416D01*
X009587Y010366D01*
X009837Y010366D01*
X009887Y010416D01*
X009887Y010616D01*
X009887Y010366D01*
X010137Y010366D01*
X010187Y010416D01*
X010237Y010466D01*
X010637Y010466D01*
X010212Y010616D02*
X010187Y010591D01*
X010187Y010416D01*
X009587Y010416D02*
X009537Y010366D01*
X009337Y010366D01*
X009262Y010441D01*
X009262Y010616D01*
X014356Y009137D02*
X014356Y007998D01*
X014898Y007998D02*
X014898Y008167D01*
X015717Y008986D01*
X015235Y010016D02*
X014356Y009137D01*
D24*
X024088Y004718D02*
X024089Y004718D01*
X025787Y006416D01*
X026687Y007266D01*
X026837Y007416D01*
X026287Y014366D02*
X024087Y016566D01*
D25*
X010837Y005616D03*
X009187Y004716D03*
X008737Y004716D03*
D26*
X009387Y015916D02*
X010187Y016716D01*
X015087Y016716D01*
X024087Y016716D02*
X024087Y016566D01*
X026287Y014366D02*
X026287Y013716D01*
D27*
X019168Y010868D03*
X019168Y010118D03*
X012287Y005866D03*
X011387Y005516D03*
X011237Y004716D03*
X006387Y007696D03*
X006387Y011916D03*
X009587Y013016D03*
X010487Y013166D03*
X009387Y015916D03*
D28*
X009637Y017366D02*
X021037Y017366D01*
X021237Y017566D02*
X009537Y017566D01*
X014487Y013416D02*
X014587Y013416D01*
X015187Y012816D01*
X015187Y012216D01*
X015437Y011966D01*
X018317Y013726D02*
X018317Y013759D01*
X018618Y013961D01*
X016431Y008946D02*
X016531Y008846D01*
X016531Y005527D01*
X015987Y005216D02*
X015954Y005216D01*
X016087Y005083D01*
X015087Y005216D02*
X014587Y005216D01*
X013287Y006466D01*
X009687Y006466D01*
X009637Y006466D01*
X009187Y006166D02*
X009387Y005966D01*
X010087Y005966D01*
X010337Y006216D01*
X013187Y006216D01*
X014587Y004866D01*
X014587Y004616D01*
X012287Y005866D02*
X011237Y004766D01*
X011237Y004716D01*
X011087Y005216D02*
X011387Y005516D01*
X011087Y005216D02*
X009387Y005216D01*
X009187Y005016D01*
X009187Y004716D01*
X008737Y004716D02*
X008737Y004966D01*
X009237Y005466D01*
X010687Y005466D01*
X010837Y005616D01*
X009187Y006166D02*
X009187Y006816D01*
X009687Y007316D01*
X009687Y007466D01*
D29*
X009837Y009066D03*
X010037Y009316D03*
X010037Y010066D03*
X010637Y010466D03*
X010737Y010916D03*
X011187Y011366D03*
X010487Y011516D03*
X007137Y012166D03*
X014356Y007998D03*
X015787Y007716D03*
X016787Y007716D03*
X016431Y008946D03*
X017815Y009421D03*
X018160Y009363D03*
X018219Y010240D03*
X018220Y011030D03*
X017457Y011737D03*
X015437Y011966D03*
X015666Y010470D03*
X015991Y010357D03*
X016457Y010117D03*
X015235Y010016D03*
X019256Y008786D03*
X019661Y008786D03*
X020755Y010216D03*
X020382Y010974D03*
X020382Y011420D03*
X020646Y011794D03*
X020382Y011991D03*
X020646Y012254D03*
X021064Y012736D03*
X020242Y013866D03*
X019907Y013926D03*
X019337Y013916D03*
X018618Y013961D03*
X019571Y013316D03*
X019437Y014916D03*
X020187Y015166D03*
X023906Y012206D03*
X022707Y011275D03*
X022417Y011146D03*
X022730Y010509D03*
X022378Y010455D03*
X022641Y010161D03*
X023482Y010569D03*
X023987Y009516D03*
X024287Y009216D03*
X023887Y008116D03*
X024157Y007206D03*
X026387Y009216D03*
X018587Y006016D03*
X018587Y004716D03*
D30*
X018661Y004696D02*
X018512Y004696D01*
X018512Y004631D02*
X018512Y004800D01*
X018447Y004957D01*
X018328Y005076D01*
X018171Y005141D01*
X018002Y005141D01*
X017936Y005114D01*
X017834Y005216D01*
X017834Y005367D01*
X017846Y005355D01*
X018002Y005290D01*
X018171Y005290D01*
X018328Y005355D01*
X018447Y005475D01*
X018512Y005631D01*
X018512Y005800D01*
X018447Y005957D01*
X018328Y006076D01*
X018267Y006101D01*
X018267Y008791D01*
X018611Y009136D01*
X018717Y009241D01*
X018717Y010441D01*
X018817Y010542D01*
X018820Y010542D01*
X018870Y010594D01*
X018921Y010645D01*
X018921Y010648D01*
X018923Y010650D01*
X018921Y010722D01*
X018921Y010794D01*
X018919Y010796D01*
X018917Y010868D01*
X018917Y012408D01*
X019570Y013061D01*
X019621Y013061D01*
X019715Y013100D01*
X019787Y013172D01*
X019826Y013265D01*
X019826Y013367D01*
X019793Y013446D01*
X020061Y013446D01*
X020227Y013611D01*
X020292Y013611D01*
X020317Y013621D01*
X020317Y013600D01*
X019662Y012946D01*
X019662Y009446D01*
X019257Y009041D01*
X019206Y009041D01*
X019112Y009002D01*
X019040Y008930D01*
X019001Y008836D01*
X019001Y008735D01*
X019040Y008641D01*
X019112Y008569D01*
X019206Y008531D01*
X019307Y008531D01*
X019401Y008569D01*
X019459Y008627D01*
X019516Y008569D01*
X019576Y008545D01*
X019347Y008315D01*
X019347Y006057D01*
X019328Y006076D01*
X019171Y006141D01*
X019002Y006141D01*
X018846Y006076D01*
X018726Y005957D01*
X018661Y005800D01*
X018661Y005631D01*
X018726Y005475D01*
X018846Y005355D01*
X019002Y005290D01*
X019171Y005290D01*
X019328Y005355D01*
X019347Y005374D01*
X019347Y005057D01*
X019328Y005076D01*
X019171Y005141D01*
X019002Y005141D01*
X018846Y005076D01*
X018726Y004957D01*
X018661Y004800D01*
X018661Y004631D01*
X018726Y004475D01*
X018846Y004355D01*
X019002Y004290D01*
X019171Y004290D01*
X019258Y004326D01*
X019187Y004256D01*
X016036Y004256D01*
X016001Y004290D01*
X016436Y004290D01*
X016512Y004366D01*
X016512Y005065D01*
X016436Y005141D01*
X016399Y005141D01*
X016595Y005337D01*
X016609Y005337D01*
X016721Y005448D01*
X016721Y005488D01*
X016726Y005475D01*
X016846Y005355D01*
X017002Y005290D01*
X017171Y005290D01*
X017328Y005355D01*
X017329Y005357D01*
X017329Y005206D01*
X017237Y005114D01*
X017171Y005141D01*
X017002Y005141D01*
X016846Y005076D01*
X016726Y004957D01*
X016661Y004800D01*
X016661Y004631D01*
X016726Y004475D01*
X016846Y004355D01*
X017002Y004290D01*
X017171Y004290D01*
X017328Y004355D01*
X017447Y004475D01*
X017512Y004631D01*
X017512Y004800D01*
X017485Y004866D01*
X017577Y004958D01*
X017587Y004968D01*
X017689Y004866D01*
X017661Y004800D01*
X017661Y004631D01*
X017726Y004475D01*
X017846Y004355D01*
X018002Y004290D01*
X018171Y004290D01*
X018328Y004355D01*
X018447Y004475D01*
X018512Y004631D01*
X018498Y004598D02*
X018675Y004598D01*
X018716Y004499D02*
X018457Y004499D01*
X018373Y004401D02*
X018800Y004401D01*
X018974Y004302D02*
X018200Y004302D01*
X017974Y004302D02*
X017200Y004302D01*
X017373Y004401D02*
X017800Y004401D01*
X017716Y004499D02*
X017457Y004499D01*
X017498Y004598D02*
X017675Y004598D01*
X017661Y004696D02*
X017512Y004696D01*
X017512Y004795D02*
X017661Y004795D01*
X017662Y004893D02*
X017512Y004893D01*
X017312Y005189D02*
X016447Y005189D01*
X016487Y005090D02*
X016879Y005090D01*
X016761Y004992D02*
X016512Y004992D01*
X016512Y004893D02*
X016700Y004893D01*
X016661Y004795D02*
X016512Y004795D01*
X016512Y004696D02*
X016661Y004696D01*
X016675Y004598D02*
X016512Y004598D01*
X016512Y004499D02*
X016716Y004499D01*
X016800Y004401D02*
X016512Y004401D01*
X016448Y004302D02*
X016974Y004302D01*
X016087Y004716D02*
X016087Y005083D01*
X016531Y005527D01*
X016658Y005386D02*
X016815Y005386D01*
X016721Y005484D02*
X016722Y005484D01*
X016545Y005287D02*
X017329Y005287D01*
X017834Y005287D02*
X019347Y005287D01*
X019347Y005189D02*
X017861Y005189D01*
X018294Y005090D02*
X018879Y005090D01*
X018761Y004992D02*
X018412Y004992D01*
X018473Y004893D02*
X018700Y004893D01*
X018661Y004795D02*
X018512Y004795D01*
X019294Y005090D02*
X019347Y005090D01*
X019827Y005090D02*
X019879Y005090D01*
X019846Y005076D02*
X019827Y005057D01*
X019827Y005374D01*
X019846Y005355D01*
X020002Y005290D01*
X020171Y005290D01*
X020328Y005355D01*
X020447Y005475D01*
X020512Y005631D01*
X020512Y005800D01*
X020447Y005957D01*
X020328Y006076D01*
X020171Y006141D01*
X020002Y006141D01*
X019846Y006076D01*
X019827Y006057D01*
X019827Y008116D01*
X020527Y008817D01*
X020627Y008916D01*
X020627Y009993D01*
X020704Y009961D01*
X020806Y009961D01*
X020899Y009999D01*
X020971Y010071D01*
X021010Y010165D01*
X021010Y010221D01*
X021520Y010696D01*
X022293Y010696D01*
X022234Y010671D01*
X022162Y010600D01*
X022123Y010506D01*
X022123Y010455D01*
X021907Y010238D01*
X021907Y006101D01*
X021846Y006076D01*
X021726Y005957D01*
X021661Y005800D01*
X021661Y005631D01*
X021726Y005475D01*
X021775Y005426D01*
X021587Y005426D01*
X021478Y005548D01*
X021512Y005631D01*
X021512Y005800D01*
X021447Y005957D01*
X021328Y006076D01*
X021171Y006141D01*
X021002Y006141D01*
X020846Y006076D01*
X020726Y005957D01*
X020661Y005800D01*
X020661Y005631D01*
X020726Y005475D01*
X020846Y005355D01*
X021002Y005290D01*
X021171Y005290D01*
X021211Y005307D01*
X021327Y005177D01*
X021327Y005171D01*
X021376Y005122D01*
X021422Y005070D01*
X021428Y005070D01*
X021432Y005066D01*
X021502Y005066D01*
X021571Y005062D01*
X021575Y005066D01*
X021835Y005066D01*
X021726Y004957D01*
X021661Y004800D01*
X021661Y004631D01*
X021726Y004475D01*
X021846Y004355D01*
X022002Y004290D01*
X022171Y004290D01*
X022328Y004355D01*
X022447Y004475D01*
X022512Y004631D01*
X022512Y004800D01*
X022447Y004957D01*
X022338Y005066D01*
X022835Y005066D01*
X022726Y004957D01*
X022661Y004800D01*
X022661Y004631D01*
X022726Y004475D01*
X022846Y004355D01*
X023002Y004290D01*
X023171Y004290D01*
X023328Y004355D01*
X023447Y004475D01*
X023512Y004631D01*
X023512Y004800D01*
X023447Y004957D01*
X023328Y005076D01*
X023293Y005091D01*
X023315Y005113D01*
X023575Y005332D01*
X023584Y005332D01*
X023631Y005379D01*
X023682Y005422D01*
X023683Y005431D01*
X023689Y005437D01*
X023689Y005477D01*
X023900Y005266D01*
X024037Y005266D01*
X024037Y005666D01*
X024137Y005666D01*
X024137Y005766D01*
X024037Y005766D01*
X024037Y006166D01*
X023900Y006166D01*
X023689Y005954D01*
X023689Y007278D01*
X023748Y007254D01*
X023855Y007254D01*
X023954Y007295D01*
X023973Y007314D01*
X024592Y007314D01*
X025461Y006444D01*
X024165Y005148D01*
X023910Y005148D01*
X023658Y004896D01*
X023658Y004540D01*
X023910Y004288D01*
X024266Y004288D01*
X024518Y004540D01*
X024518Y004793D01*
X025220Y005495D01*
X025223Y005486D01*
X025194Y005409D01*
X025185Y005403D01*
X025176Y005360D01*
X025160Y005318D01*
X025164Y005309D01*
X025147Y005228D01*
X025139Y005221D01*
X025136Y005177D01*
X025126Y005134D01*
X025132Y005125D01*
X025127Y005048D01*
X025123Y005044D01*
X025123Y004995D01*
X025119Y004946D01*
X025123Y004942D01*
X025123Y003566D01*
X019481Y003566D01*
X019511Y003599D01*
X019557Y003645D01*
X019557Y003652D01*
X020115Y004290D01*
X020171Y004290D01*
X020328Y004355D01*
X020447Y004475D01*
X020512Y004631D01*
X020512Y004800D01*
X020447Y004957D01*
X020328Y005076D01*
X020171Y005141D01*
X020002Y005141D01*
X019846Y005076D01*
X019827Y005189D02*
X021316Y005189D01*
X021294Y005090D02*
X021404Y005090D01*
X021328Y005076D02*
X021447Y004957D01*
X021512Y004800D01*
X021512Y004631D01*
X021447Y004475D01*
X021328Y004355D01*
X021171Y004290D01*
X021002Y004290D01*
X020846Y004355D01*
X020726Y004475D01*
X020661Y004631D01*
X020661Y004800D01*
X020726Y004957D01*
X020846Y005076D01*
X021002Y005141D01*
X021171Y005141D01*
X021328Y005076D01*
X021412Y004992D02*
X021761Y004992D01*
X021700Y004893D02*
X021473Y004893D01*
X021512Y004795D02*
X021661Y004795D01*
X021661Y004696D02*
X021512Y004696D01*
X021498Y004598D02*
X021675Y004598D01*
X021716Y004499D02*
X021457Y004499D01*
X021373Y004401D02*
X021800Y004401D01*
X021974Y004302D02*
X021200Y004302D01*
X020974Y004302D02*
X020200Y004302D01*
X020040Y004204D02*
X025123Y004204D01*
X025123Y004302D02*
X024280Y004302D01*
X024379Y004401D02*
X025123Y004401D01*
X025123Y004499D02*
X024477Y004499D01*
X024518Y004598D02*
X025123Y004598D01*
X025123Y004696D02*
X024518Y004696D01*
X024519Y004795D02*
X025123Y004795D01*
X025123Y004893D02*
X024618Y004893D01*
X024716Y004992D02*
X025123Y004992D01*
X025130Y005090D02*
X024815Y005090D01*
X024913Y005189D02*
X025137Y005189D01*
X025160Y005287D02*
X025012Y005287D01*
X025110Y005386D02*
X025181Y005386D01*
X025209Y005484D02*
X025222Y005484D01*
X024896Y005878D02*
X024537Y005878D01*
X024537Y005902D02*
X024273Y006166D01*
X024137Y006166D01*
X024137Y005766D01*
X024537Y005766D01*
X024537Y005902D01*
X024462Y005977D02*
X024994Y005977D01*
X025093Y006075D02*
X024364Y006075D01*
X024137Y006075D02*
X024037Y006075D01*
X024037Y005977D02*
X024137Y005977D01*
X024137Y005878D02*
X024037Y005878D01*
X024037Y005780D02*
X024137Y005780D01*
X024137Y005681D02*
X024699Y005681D01*
X024797Y005780D02*
X024537Y005780D01*
X024537Y005666D02*
X024137Y005666D01*
X024137Y005266D01*
X024273Y005266D01*
X024537Y005529D01*
X024537Y005666D01*
X024537Y005583D02*
X024600Y005583D01*
X024502Y005484D02*
X024492Y005484D01*
X024403Y005386D02*
X024393Y005386D01*
X024305Y005287D02*
X024295Y005287D01*
X024206Y005189D02*
X023405Y005189D01*
X023294Y005090D02*
X023852Y005090D01*
X023753Y004992D02*
X023412Y004992D01*
X023473Y004893D02*
X023658Y004893D01*
X023658Y004795D02*
X023512Y004795D01*
X023512Y004696D02*
X023658Y004696D01*
X023658Y004598D02*
X023498Y004598D01*
X023457Y004499D02*
X023699Y004499D01*
X023797Y004401D02*
X023373Y004401D01*
X023200Y004302D02*
X023896Y004302D01*
X022974Y004302D02*
X022200Y004302D01*
X022373Y004401D02*
X022800Y004401D01*
X022716Y004499D02*
X022457Y004499D01*
X022498Y004598D02*
X022675Y004598D01*
X022661Y004696D02*
X022512Y004696D01*
X022512Y004795D02*
X022661Y004795D01*
X022700Y004893D02*
X022473Y004893D01*
X022412Y004992D02*
X022761Y004992D01*
X023193Y005246D02*
X023509Y005512D01*
X023509Y009740D01*
X022730Y010509D01*
X022985Y010511D02*
X022985Y010560D01*
X022946Y010654D01*
X022905Y010696D01*
X024058Y010696D01*
X024888Y009865D01*
X024861Y009800D01*
X024861Y009631D01*
X024926Y009475D01*
X024975Y009426D01*
X024437Y009426D01*
X024431Y009432D01*
X024337Y009471D01*
X024236Y009471D01*
X024142Y009432D01*
X024070Y009360D01*
X024032Y009266D01*
X024032Y009165D01*
X024070Y009071D01*
X024142Y008999D01*
X024236Y008961D01*
X024337Y008961D01*
X024431Y008999D01*
X024437Y009006D01*
X024975Y009006D01*
X024926Y008957D01*
X024861Y008800D01*
X024861Y008631D01*
X024926Y008475D01*
X025046Y008355D01*
X025202Y008290D01*
X025371Y008290D01*
X025528Y008355D01*
X025647Y008475D01*
X025712Y008631D01*
X025712Y008800D01*
X025647Y008957D01*
X025598Y009006D01*
X025975Y009006D01*
X025926Y008957D01*
X025861Y008800D01*
X025861Y008631D01*
X025926Y008475D01*
X026046Y008355D01*
X026202Y008290D01*
X026371Y008290D01*
X026528Y008355D01*
X026627Y008454D01*
X026627Y008141D01*
X025937Y008141D01*
X025861Y008065D01*
X025861Y007366D01*
X025937Y007290D01*
X026349Y007290D01*
X025763Y006737D01*
X025209Y007290D01*
X025371Y007290D01*
X025528Y007355D01*
X025647Y007475D01*
X025712Y007631D01*
X025712Y007800D01*
X025647Y007957D01*
X025528Y008076D01*
X025371Y008141D01*
X025202Y008141D01*
X025046Y008076D01*
X024926Y007957D01*
X024861Y007800D01*
X024861Y007638D01*
X024766Y007734D01*
X023973Y007734D01*
X023954Y007753D01*
X023855Y007794D01*
X023748Y007794D01*
X023689Y007769D01*
X023689Y009667D01*
X023690Y009667D01*
X023689Y009741D01*
X023689Y009815D01*
X023689Y009815D01*
X023689Y009816D01*
X023636Y009868D01*
X023584Y009920D01*
X023583Y009920D01*
X022985Y010511D01*
X022988Y010508D02*
X024246Y010508D01*
X024148Y010606D02*
X022966Y010606D01*
X023088Y010409D02*
X024345Y010409D01*
X024443Y010311D02*
X023188Y010311D01*
X023287Y010212D02*
X024542Y010212D01*
X024640Y010114D02*
X023387Y010114D01*
X023487Y010015D02*
X024739Y010015D01*
X024837Y009917D02*
X023587Y009917D01*
X023687Y009818D02*
X024869Y009818D01*
X024861Y009720D02*
X023689Y009720D01*
X023689Y009621D02*
X024865Y009621D01*
X024906Y009523D02*
X023689Y009523D01*
X023689Y009424D02*
X024135Y009424D01*
X024056Y009326D02*
X023689Y009326D01*
X023689Y009227D02*
X024032Y009227D01*
X024047Y009129D02*
X023689Y009129D01*
X023689Y009030D02*
X024111Y009030D01*
X023689Y008932D02*
X024916Y008932D01*
X024875Y008833D02*
X023689Y008833D01*
X023689Y008735D02*
X024861Y008735D01*
X024861Y008636D02*
X023689Y008636D01*
X023689Y008538D02*
X024900Y008538D01*
X024962Y008439D02*
X023689Y008439D01*
X023689Y008341D02*
X025081Y008341D01*
X025493Y008341D02*
X026081Y008341D01*
X025962Y008439D02*
X025612Y008439D01*
X025673Y008538D02*
X025900Y008538D01*
X025861Y008636D02*
X025712Y008636D01*
X025712Y008735D02*
X025861Y008735D01*
X025875Y008833D02*
X025698Y008833D01*
X025657Y008932D02*
X025916Y008932D01*
X026493Y008341D02*
X026627Y008341D01*
X026627Y008439D02*
X026612Y008439D01*
X026627Y008242D02*
X023689Y008242D01*
X023689Y008144D02*
X026627Y008144D01*
X027047Y008144D02*
X027859Y008144D01*
X027859Y008242D02*
X027047Y008242D01*
X027047Y008341D02*
X027859Y008341D01*
X027859Y008439D02*
X027047Y008439D01*
X027047Y008538D02*
X027859Y008538D01*
X027859Y008636D02*
X027047Y008636D01*
X027047Y008735D02*
X027859Y008735D01*
X027859Y008833D02*
X027047Y008833D01*
X027047Y008932D02*
X027859Y008932D01*
X027859Y009030D02*
X027047Y009030D01*
X027047Y009129D02*
X027859Y009129D01*
X027859Y009227D02*
X027047Y009227D01*
X027047Y009326D02*
X027859Y009326D01*
X027859Y009424D02*
X027047Y009424D01*
X027047Y009523D02*
X027859Y009523D01*
X027859Y009621D02*
X027047Y009621D01*
X027047Y009720D02*
X027859Y009720D01*
X027859Y009818D02*
X027047Y009818D01*
X027047Y009917D02*
X027859Y009917D01*
X027859Y010015D02*
X027047Y010015D01*
X027047Y010114D02*
X027859Y010114D01*
X027859Y010212D02*
X027047Y010212D01*
X027047Y010311D02*
X027859Y010311D01*
X027859Y010409D02*
X027047Y010409D01*
X027047Y010508D02*
X027859Y010508D01*
X027859Y010606D02*
X027047Y010606D01*
X027047Y010705D02*
X027859Y010705D01*
X027859Y010803D02*
X027047Y010803D01*
X027047Y010902D02*
X027859Y010902D01*
X027859Y011000D02*
X027047Y011000D01*
X027047Y011099D02*
X027859Y011099D01*
X027859Y011197D02*
X027047Y011197D01*
X027047Y011296D02*
X027859Y011296D01*
X027859Y011394D02*
X027047Y011394D01*
X027047Y011493D02*
X027859Y011493D01*
X027859Y011591D02*
X027047Y011591D01*
X027047Y011690D02*
X027859Y011690D01*
X027859Y011788D02*
X027047Y011788D01*
X027047Y011887D02*
X027859Y011887D01*
X027859Y011985D02*
X027047Y011985D01*
X027047Y012084D02*
X027859Y012084D01*
X027859Y012182D02*
X027047Y012182D01*
X027047Y012281D02*
X027859Y012281D01*
X027859Y012379D02*
X027047Y012379D01*
X027047Y012478D02*
X027859Y012478D01*
X027859Y012576D02*
X027047Y012576D01*
X027047Y012675D02*
X027859Y012675D01*
X027859Y012773D02*
X027047Y012773D01*
X027047Y012872D02*
X027859Y012872D01*
X027859Y012970D02*
X027047Y012970D01*
X027047Y013069D02*
X027859Y013069D01*
X027859Y013167D02*
X027047Y013167D01*
X027047Y013266D02*
X027859Y013266D01*
X027859Y013364D02*
X027047Y013364D01*
X027047Y013453D02*
X026924Y013576D01*
X026924Y013576D01*
X026717Y013783D01*
X026717Y013894D01*
X026577Y014034D01*
X026577Y014423D01*
X026532Y014530D01*
X026451Y014611D01*
X026354Y014651D01*
X025631Y015375D01*
X025683Y015336D01*
X025686Y015326D01*
X025725Y015304D01*
X025761Y015278D01*
X025771Y015279D01*
X025843Y015240D01*
X025847Y015230D01*
X025889Y015215D01*
X025928Y015193D01*
X025938Y015196D01*
X026015Y015168D01*
X026021Y015159D01*
X026064Y015149D01*
X026106Y015134D01*
X026116Y015138D01*
X026196Y015121D01*
X026203Y015113D01*
X026247Y015110D01*
X026291Y015100D01*
X026300Y015106D01*
X026376Y015100D01*
X026380Y015097D01*
X026429Y015097D01*
X026478Y015093D01*
X026482Y015097D01*
X027859Y015097D01*
X027859Y006302D01*
X026482Y006302D01*
X026478Y006305D01*
X026429Y006302D01*
X026380Y006302D01*
X026376Y006298D01*
X026300Y006292D01*
X026291Y006298D01*
X026247Y006289D01*
X026203Y006285D01*
X026196Y006277D01*
X026116Y006260D01*
X026106Y006264D01*
X026064Y006249D01*
X026021Y006239D01*
X026015Y006230D01*
X025938Y006202D01*
X025929Y006204D01*
X025961Y006236D01*
X026825Y007052D01*
X026828Y007054D01*
X026861Y007086D01*
X026894Y007118D01*
X026896Y007121D01*
X027049Y007274D01*
X027087Y007366D01*
X027087Y007465D01*
X027049Y007557D01*
X027047Y007559D01*
X027047Y013453D01*
X027037Y013463D02*
X027859Y013463D01*
X027859Y013561D02*
X026938Y013561D01*
X026840Y013660D02*
X027859Y013660D01*
X027859Y013758D02*
X026741Y013758D01*
X026717Y013857D02*
X027859Y013857D01*
X027859Y013955D02*
X026655Y013955D01*
X026577Y014054D02*
X027859Y014054D01*
X027859Y014152D02*
X026577Y014152D01*
X026577Y014251D02*
X027859Y014251D01*
X027859Y014349D02*
X026577Y014349D01*
X026567Y014448D02*
X027859Y014448D01*
X027859Y014546D02*
X026516Y014546D01*
X026371Y014645D02*
X027859Y014645D01*
X027859Y014743D02*
X026263Y014743D01*
X026164Y014842D02*
X027859Y014842D01*
X027859Y014940D02*
X026066Y014940D01*
X025967Y015039D02*
X027859Y015039D01*
X026121Y015137D02*
X026113Y015137D01*
X026097Y015137D02*
X025869Y015137D01*
X025845Y015236D02*
X025770Y015236D01*
X025683Y015334D02*
X025672Y015334D01*
X025260Y015039D02*
X022354Y015039D01*
X022255Y015137D02*
X025162Y015137D01*
X025063Y015236D02*
X022157Y015236D01*
X022171Y015290D02*
X022328Y015355D01*
X022447Y015475D01*
X022512Y015631D01*
X022512Y015800D01*
X022447Y015957D01*
X022328Y016076D01*
X022305Y016086D01*
X022711Y016086D01*
X022941Y016316D01*
X023002Y016290D01*
X023171Y016290D01*
X023328Y016355D01*
X023447Y016475D01*
X023512Y016631D01*
X023512Y016800D01*
X023447Y016957D01*
X023328Y017076D01*
X023171Y017141D01*
X023002Y017141D01*
X022846Y017076D01*
X022726Y016957D01*
X022661Y016800D01*
X022661Y016631D01*
X022687Y016570D01*
X022562Y016446D01*
X022418Y016446D01*
X022447Y016475D01*
X022512Y016631D01*
X022512Y016800D01*
X022447Y016957D01*
X022328Y017076D01*
X022171Y017141D01*
X022002Y017141D01*
X021941Y017116D01*
X021427Y017630D01*
X021427Y017644D01*
X021315Y017756D01*
X009458Y017756D01*
X009347Y017644D01*
X009347Y017630D01*
X008290Y016573D01*
X008269Y016585D01*
X008230Y016596D01*
X007961Y016596D01*
X007961Y016096D01*
X007861Y016096D01*
X007861Y016596D01*
X007591Y016596D01*
X007553Y016585D01*
X007519Y016566D01*
X007491Y016538D01*
X007471Y016503D01*
X007461Y016465D01*
X007461Y016096D01*
X007861Y016096D01*
X007861Y015996D01*
X007461Y015996D01*
X007461Y015626D01*
X007471Y015588D01*
X007491Y015553D01*
X007519Y015526D01*
X007553Y015506D01*
X007591Y015496D01*
X007861Y015496D01*
X007861Y015996D01*
X007961Y015996D01*
X007961Y015496D01*
X008230Y015496D01*
X008269Y015506D01*
X008303Y015526D01*
X008331Y015553D01*
X008350Y015588D01*
X008361Y015626D01*
X008361Y015737D01*
X008557Y015540D01*
X008557Y012392D01*
X008534Y012392D01*
X008521Y012379D01*
X008508Y012392D01*
X008124Y012392D01*
X008124Y012518D01*
X008114Y012556D01*
X008094Y012590D01*
X008067Y012618D01*
X008032Y012638D01*
X007994Y012648D01*
X007824Y012648D01*
X007824Y012248D01*
X007724Y012248D01*
X007724Y012148D01*
X007424Y012148D01*
X007424Y012132D01*
X007392Y012165D01*
X007392Y012216D01*
X007353Y012310D01*
X007281Y012382D01*
X007187Y012421D01*
X007086Y012421D01*
X006992Y012382D01*
X006920Y012310D01*
X006882Y012216D01*
X006882Y012115D01*
X006920Y012021D01*
X006992Y011949D01*
X007086Y011911D01*
X007137Y011911D01*
X009057Y009991D01*
X009162Y009886D01*
X009856Y009886D01*
X009892Y009849D01*
X009986Y009811D01*
X010087Y009811D01*
X010181Y009849D01*
X010253Y009921D01*
X010292Y010015D01*
X010292Y010116D01*
X010260Y010192D01*
X010274Y010206D01*
X010324Y010256D01*
X010486Y010256D01*
X010492Y010249D01*
X010586Y010211D01*
X010687Y010211D01*
X010781Y010249D01*
X010853Y010321D01*
X010892Y010415D01*
X010892Y010516D01*
X010853Y010610D01*
X010798Y010665D01*
X010881Y010699D01*
X010907Y010725D01*
X010907Y009991D01*
X012162Y008736D01*
X012311Y008736D01*
X013212Y008736D01*
X013907Y008041D01*
X013907Y007935D01*
X013836Y008006D01*
X013736Y008106D01*
X011636Y008106D01*
X011373Y008368D01*
X011373Y008397D01*
X010380Y009390D01*
X010274Y009496D01*
X010217Y009496D01*
X010181Y009532D01*
X010087Y009571D01*
X009986Y009571D01*
X009892Y009532D01*
X009820Y009460D01*
X009782Y009366D01*
X009782Y009319D01*
X009692Y009282D01*
X009620Y009210D01*
X009582Y009116D01*
X009582Y009015D01*
X009620Y008921D01*
X009692Y008849D01*
X009786Y008811D01*
X009887Y008811D01*
X009981Y008849D01*
X010017Y008886D01*
X010149Y008886D01*
X011005Y008029D01*
X011034Y008029D01*
X011437Y007626D01*
X013537Y007626D01*
X014997Y006166D01*
X014900Y006166D01*
X014637Y005902D01*
X014637Y005766D01*
X015037Y005766D01*
X015037Y005666D01*
X014637Y005666D01*
X014637Y005529D01*
X014760Y005406D01*
X014663Y005406D01*
X013420Y006601D01*
X013365Y006656D01*
X013363Y006656D01*
X013362Y006657D01*
X013285Y006656D01*
X010098Y006656D01*
X009863Y006891D01*
X009531Y006891D01*
X009680Y007040D01*
X009863Y007040D01*
X010112Y007289D01*
X010112Y007642D01*
X009863Y007891D01*
X009510Y007891D01*
X009261Y007642D01*
X009261Y007289D01*
X009327Y007224D01*
X009108Y007006D01*
X008997Y006894D01*
X008997Y006757D01*
X008863Y006891D01*
X008510Y006891D01*
X008261Y006642D01*
X008261Y006289D01*
X008510Y006040D01*
X008863Y006040D01*
X008997Y006174D01*
X008997Y006087D01*
X009197Y005887D01*
X009308Y005776D01*
X010165Y005776D01*
X010415Y006026D01*
X012019Y006026D01*
X011979Y005927D01*
X011979Y005818D01*
X011695Y005521D01*
X011695Y005577D01*
X011648Y005690D01*
X011561Y005777D01*
X011448Y005824D01*
X011325Y005824D01*
X011212Y005777D01*
X011125Y005690D01*
X011122Y005681D01*
X011122Y005681D01*
X011081Y005779D01*
X011000Y005860D01*
X010894Y005904D01*
X010779Y005904D01*
X010673Y005860D01*
X010592Y005779D01*
X010548Y005673D01*
X010548Y005656D01*
X009158Y005656D01*
X009047Y005544D01*
X008547Y005044D01*
X008547Y004934D01*
X008492Y004879D01*
X008448Y004773D01*
X008448Y004658D01*
X008492Y004552D01*
X008573Y004471D01*
X008679Y004427D01*
X008794Y004427D01*
X008900Y004471D01*
X008962Y004533D01*
X009023Y004471D01*
X009129Y004427D01*
X009244Y004427D01*
X009350Y004471D01*
X009431Y004552D01*
X009475Y004658D01*
X009475Y004773D01*
X009431Y004879D01*
X009377Y004934D01*
X009377Y004937D01*
X009465Y005026D01*
X011165Y005026D01*
X011347Y005208D01*
X011396Y005208D01*
X011220Y005024D01*
X011175Y005024D01*
X011062Y004977D01*
X010975Y004890D01*
X010929Y004777D01*
X010929Y004654D01*
X010975Y004541D01*
X011062Y004454D01*
X011175Y004408D01*
X011298Y004408D01*
X011411Y004454D01*
X011498Y004541D01*
X011545Y004654D01*
X011545Y004777D01*
X011534Y004802D01*
X012255Y005558D01*
X012348Y005558D01*
X012461Y005604D01*
X012548Y005691D01*
X012595Y005804D01*
X012595Y005927D01*
X012554Y006026D01*
X013110Y006026D01*
X014397Y004785D01*
X014397Y004537D01*
X014417Y004517D01*
X014417Y004445D01*
X015296Y003566D01*
X007273Y003566D01*
X007273Y004942D01*
X007276Y004946D01*
X007273Y004995D01*
X007273Y005044D01*
X007269Y005048D01*
X007263Y005125D01*
X007269Y005134D01*
X007260Y005177D01*
X007256Y005221D01*
X007248Y005228D01*
X007231Y005309D01*
X007235Y005318D01*
X007220Y005360D01*
X007210Y005403D01*
X007201Y005409D01*
X007173Y005486D01*
X007176Y005496D01*
X007154Y005535D01*
X007139Y005577D01*
X007129Y005581D01*
X007090Y005653D01*
X007091Y005664D01*
X007065Y005699D01*
X007043Y005739D01*
X007033Y005742D01*
X006984Y005807D01*
X006984Y005818D01*
X006953Y005849D01*
X006926Y005885D01*
X006915Y005886D01*
X006857Y005944D01*
X006856Y005955D01*
X006820Y005982D01*
X006789Y006013D01*
X006778Y006013D01*
X006713Y006062D01*
X006710Y006072D01*
X006670Y006094D01*
X006635Y006120D01*
X006624Y006119D01*
X006552Y006158D01*
X006548Y006168D01*
X006506Y006183D01*
X006467Y006205D01*
X006457Y006202D01*
X006380Y006230D01*
X006374Y006239D01*
X006331Y006249D01*
X006289Y006264D01*
X006280Y006260D01*
X006199Y006277D01*
X006192Y006285D01*
X006148Y006289D01*
X006105Y006298D01*
X006096Y006292D01*
X006019Y006298D01*
X006015Y006302D01*
X005966Y006302D01*
X005917Y006305D01*
X005913Y006302D01*
X004537Y006302D01*
X004537Y015097D01*
X005913Y015097D01*
X005917Y015093D01*
X005966Y015097D01*
X006015Y015097D01*
X006019Y015100D01*
X006096Y015106D01*
X006105Y015100D01*
X006148Y015110D01*
X006192Y015113D01*
X006199Y015121D01*
X006280Y015138D01*
X006289Y015134D01*
X006331Y015149D01*
X006374Y015159D01*
X006380Y015168D01*
X006457Y015196D01*
X006467Y015193D01*
X006506Y015215D01*
X006548Y015230D01*
X006552Y015240D01*
X006624Y015279D01*
X006635Y015278D01*
X006670Y015304D01*
X006710Y015326D01*
X006713Y015336D01*
X006778Y015385D01*
X006789Y015385D01*
X006820Y015417D01*
X006856Y015443D01*
X006857Y015454D01*
X006915Y015512D01*
X006926Y015513D01*
X006953Y015549D01*
X006984Y015580D01*
X006984Y015591D01*
X007033Y015657D01*
X007043Y015660D01*
X007065Y015699D01*
X007091Y015734D01*
X007090Y015745D01*
X007129Y015817D01*
X007139Y015821D01*
X007154Y015863D01*
X007176Y015902D01*
X007173Y015912D01*
X007201Y015989D01*
X007210Y015995D01*
X007220Y016038D01*
X007235Y016080D01*
X007231Y016090D01*
X007248Y016170D01*
X007256Y016177D01*
X007260Y016221D01*
X007269Y016265D01*
X007263Y016274D01*
X007269Y016350D01*
X007273Y016354D01*
X007273Y016403D01*
X007276Y016452D01*
X007273Y016456D01*
X007273Y017833D01*
X025123Y017833D01*
X025123Y016456D01*
X025119Y016452D01*
X025123Y016403D01*
X025123Y016354D01*
X025127Y016350D01*
X025132Y016274D01*
X025126Y016265D01*
X025136Y016221D01*
X025139Y016177D01*
X025147Y016170D01*
X025164Y016090D01*
X025160Y016080D01*
X025176Y016038D01*
X025185Y015995D01*
X025194Y015989D01*
X025223Y015912D01*
X025220Y015902D01*
X025241Y015863D01*
X025257Y015821D01*
X025266Y015817D01*
X025305Y015745D01*
X025304Y015734D01*
X025331Y015699D01*
X025352Y015660D01*
X025362Y015657D01*
X025401Y015605D01*
X024492Y016513D01*
X024517Y016538D01*
X024517Y016894D01*
X024265Y017146D01*
X023909Y017146D01*
X023657Y016894D01*
X023657Y016538D01*
X023909Y016286D01*
X024005Y016286D01*
X024019Y016280D01*
X024137Y016162D01*
X024137Y015766D01*
X024533Y015766D01*
X025997Y014302D01*
X025997Y014034D01*
X025857Y013894D01*
X025857Y013538D01*
X026109Y013286D01*
X026465Y013286D01*
X026542Y013363D01*
X026627Y013279D01*
X026627Y012977D01*
X026528Y013076D01*
X026371Y013141D01*
X026202Y013141D01*
X026131Y013112D01*
X025857Y013386D01*
X025757Y013486D01*
X025693Y013486D01*
X025737Y013529D01*
X025737Y013666D01*
X025337Y013666D01*
X025337Y013766D01*
X025237Y013766D01*
X025237Y014166D01*
X025100Y014166D01*
X024837Y013902D01*
X024837Y013766D01*
X025237Y013766D01*
X025237Y013666D01*
X024837Y013666D01*
X024837Y013529D01*
X024880Y013486D01*
X021116Y013486D01*
X021017Y013386D01*
X020267Y012636D01*
X020267Y012691D01*
X020867Y013291D01*
X020867Y013440D01*
X020857Y013450D01*
X020857Y014033D01*
X020916Y014003D01*
X020982Y013981D01*
X021038Y013972D01*
X021038Y014367D01*
X021135Y014367D01*
X021135Y013972D01*
X021191Y013981D01*
X021258Y014003D01*
X021320Y014035D01*
X021377Y014076D01*
X021426Y014126D01*
X021467Y014182D01*
X021499Y014245D01*
X021521Y014311D01*
X021530Y014367D01*
X021135Y014367D01*
X021135Y014464D01*
X021530Y014464D01*
X021521Y014520D01*
X021499Y014587D01*
X021467Y014649D01*
X021426Y014706D01*
X021377Y014755D01*
X021320Y014796D01*
X021258Y014828D01*
X021191Y014850D01*
X021135Y014859D01*
X021135Y014464D01*
X021038Y014464D01*
X021038Y014859D01*
X020982Y014850D01*
X020916Y014828D01*
X020857Y014798D01*
X020857Y015188D01*
X020971Y015303D01*
X021002Y015290D01*
X021171Y015290D01*
X021328Y015355D01*
X021442Y015470D01*
X021516Y015396D01*
X022071Y014841D01*
X022002Y014841D01*
X021846Y014776D01*
X021726Y014657D01*
X021661Y014500D01*
X021661Y014331D01*
X021726Y014175D01*
X021846Y014055D01*
X022002Y013990D01*
X022171Y013990D01*
X022328Y014055D01*
X022447Y014175D01*
X022512Y014331D01*
X022512Y014400D01*
X022567Y014345D01*
X022666Y014246D01*
X022697Y014246D01*
X022726Y014175D01*
X022846Y014055D01*
X023002Y013990D01*
X023171Y013990D01*
X023328Y014055D01*
X023447Y014175D01*
X023512Y014331D01*
X023512Y014500D01*
X023447Y014657D01*
X023328Y014776D01*
X023171Y014841D01*
X023002Y014841D01*
X022846Y014776D01*
X022731Y014662D01*
X022102Y015290D01*
X022171Y015290D01*
X022277Y015334D02*
X022896Y015334D01*
X022846Y015355D02*
X023002Y015290D01*
X023171Y015290D01*
X023328Y015355D01*
X023447Y015475D01*
X023512Y015631D01*
X023512Y015800D01*
X023447Y015957D01*
X023328Y016076D01*
X023171Y016141D01*
X023002Y016141D01*
X022846Y016076D01*
X022726Y015957D01*
X022661Y015800D01*
X022661Y015631D01*
X022726Y015475D01*
X022846Y015355D01*
X022768Y015433D02*
X022405Y015433D01*
X022471Y015531D02*
X022703Y015531D01*
X022662Y015630D02*
X022511Y015630D01*
X022512Y015728D02*
X022661Y015728D01*
X022672Y015827D02*
X022501Y015827D01*
X022460Y015925D02*
X022713Y015925D01*
X022793Y016024D02*
X022380Y016024D01*
X022637Y016266D02*
X023087Y016716D01*
X023512Y016713D02*
X023657Y016713D01*
X023657Y016615D02*
X023505Y016615D01*
X023464Y016516D02*
X023678Y016516D01*
X023776Y016418D02*
X023390Y016418D01*
X023241Y016319D02*
X023875Y016319D01*
X023900Y016166D02*
X023637Y015902D01*
X023637Y015766D01*
X024037Y015766D01*
X024037Y016166D01*
X023900Y016166D01*
X023857Y016122D02*
X023216Y016122D01*
X023380Y016024D02*
X023758Y016024D01*
X023660Y015925D02*
X023460Y015925D01*
X023501Y015827D02*
X023637Y015827D01*
X023512Y015728D02*
X024037Y015728D01*
X024037Y015766D02*
X024037Y015666D01*
X024137Y015666D01*
X024137Y015766D01*
X024037Y015766D01*
X024037Y015827D02*
X024137Y015827D01*
X024137Y015925D02*
X024037Y015925D01*
X024037Y016024D02*
X024137Y016024D01*
X024137Y016122D02*
X024037Y016122D01*
X024078Y016221D02*
X022846Y016221D01*
X022748Y016122D02*
X022957Y016122D01*
X022637Y016266D02*
X021937Y016266D01*
X021587Y016616D01*
X021587Y016816D01*
X021037Y017366D01*
X021237Y017566D02*
X022087Y016716D01*
X022512Y016713D02*
X022661Y016713D01*
X022668Y016615D02*
X022505Y016615D01*
X022464Y016516D02*
X022633Y016516D01*
X022666Y016812D02*
X022507Y016812D01*
X022466Y016910D02*
X022707Y016910D01*
X022778Y017009D02*
X022395Y017009D01*
X022253Y017107D02*
X022921Y017107D01*
X023253Y017107D02*
X023870Y017107D01*
X023772Y017009D02*
X023395Y017009D01*
X023466Y016910D02*
X023673Y016910D01*
X023657Y016812D02*
X023507Y016812D01*
X024303Y017107D02*
X025123Y017107D01*
X025123Y017009D02*
X024402Y017009D01*
X024500Y016910D02*
X025123Y016910D01*
X025123Y016812D02*
X024517Y016812D01*
X024517Y016713D02*
X025123Y016713D01*
X025123Y016615D02*
X024517Y016615D01*
X024495Y016516D02*
X025123Y016516D01*
X025122Y016418D02*
X024588Y016418D01*
X024687Y016319D02*
X025129Y016319D01*
X025136Y016221D02*
X024785Y016221D01*
X024884Y016122D02*
X025157Y016122D01*
X025179Y016024D02*
X024982Y016024D01*
X025081Y015925D02*
X025218Y015925D01*
X025254Y015827D02*
X025179Y015827D01*
X025278Y015728D02*
X025309Y015728D01*
X025376Y015630D02*
X025382Y015630D01*
X024965Y015334D02*
X024342Y015334D01*
X024273Y015266D02*
X024537Y015529D01*
X024537Y015666D01*
X024137Y015666D01*
X024137Y015266D01*
X024273Y015266D01*
X024137Y015334D02*
X024037Y015334D01*
X024037Y015266D02*
X024037Y015666D01*
X023637Y015666D01*
X023637Y015529D01*
X023900Y015266D01*
X024037Y015266D01*
X024037Y015433D02*
X024137Y015433D01*
X024137Y015531D02*
X024037Y015531D01*
X024037Y015630D02*
X024137Y015630D01*
X024137Y015728D02*
X024571Y015728D01*
X024537Y015630D02*
X024669Y015630D01*
X024768Y015531D02*
X024537Y015531D01*
X024440Y015433D02*
X024866Y015433D01*
X025359Y014940D02*
X022453Y014940D01*
X022551Y014842D02*
X025457Y014842D01*
X025556Y014743D02*
X024361Y014743D01*
X024328Y014776D02*
X024171Y014841D01*
X024002Y014841D01*
X023846Y014776D01*
X023726Y014657D01*
X023661Y014500D01*
X023661Y014331D01*
X023726Y014175D01*
X023846Y014055D01*
X024002Y013990D01*
X024171Y013990D01*
X024328Y014055D01*
X024447Y014175D01*
X024512Y014331D01*
X024512Y014500D01*
X024447Y014657D01*
X024328Y014776D01*
X024452Y014645D02*
X025654Y014645D01*
X025753Y014546D02*
X024493Y014546D01*
X024512Y014448D02*
X025851Y014448D01*
X025950Y014349D02*
X024512Y014349D01*
X024479Y014251D02*
X025997Y014251D01*
X025997Y014152D02*
X025486Y014152D01*
X025473Y014166D02*
X025337Y014166D01*
X025337Y013766D01*
X025737Y013766D01*
X025737Y013902D01*
X025473Y014166D01*
X025337Y014152D02*
X025237Y014152D01*
X025237Y014054D02*
X025337Y014054D01*
X025337Y013955D02*
X025237Y013955D01*
X025237Y013857D02*
X025337Y013857D01*
X025337Y013758D02*
X025857Y013758D01*
X025857Y013660D02*
X025737Y013660D01*
X025737Y013561D02*
X025857Y013561D01*
X025931Y013463D02*
X025780Y013463D01*
X025879Y013364D02*
X026030Y013364D01*
X025977Y013266D02*
X026627Y013266D01*
X026627Y013167D02*
X026076Y013167D01*
X026535Y013069D02*
X026627Y013069D01*
X025857Y013857D02*
X025737Y013857D01*
X025683Y013955D02*
X025918Y013955D01*
X025997Y014054D02*
X025585Y014054D01*
X025237Y013758D02*
X020857Y013758D01*
X020857Y013660D02*
X024837Y013660D01*
X024837Y013561D02*
X020857Y013561D01*
X020857Y013463D02*
X021093Y013463D01*
X020995Y013364D02*
X020867Y013364D01*
X020841Y013266D02*
X020896Y013266D01*
X020798Y013167D02*
X020743Y013167D01*
X020699Y013069D02*
X020644Y013069D01*
X020601Y012970D02*
X020546Y012970D01*
X020502Y012872D02*
X020447Y012872D01*
X020404Y012773D02*
X020349Y012773D01*
X020305Y012675D02*
X020267Y012675D01*
X020087Y012766D02*
X020687Y013366D01*
X020487Y013516D02*
X019842Y012871D01*
X019842Y009372D01*
X019257Y008786D01*
X019257Y008786D01*
X019256Y008786D01*
X019180Y009030D02*
X018506Y009030D01*
X018604Y009129D02*
X019345Y009129D01*
X019443Y009227D02*
X018703Y009227D01*
X018717Y009326D02*
X019542Y009326D01*
X019640Y009424D02*
X018717Y009424D01*
X018717Y009523D02*
X019662Y009523D01*
X019662Y009621D02*
X018717Y009621D01*
X018717Y009720D02*
X019662Y009720D01*
X019662Y009818D02*
X018717Y009818D01*
X018717Y009917D02*
X019662Y009917D01*
X019662Y010015D02*
X018717Y010015D01*
X018717Y010114D02*
X019662Y010114D01*
X019662Y010212D02*
X018717Y010212D01*
X018717Y010311D02*
X019662Y010311D01*
X019662Y010409D02*
X018717Y010409D01*
X018783Y010508D02*
X019662Y010508D01*
X019662Y010606D02*
X018882Y010606D01*
X018921Y010705D02*
X019662Y010705D01*
X019662Y010803D02*
X018918Y010803D01*
X018917Y010902D02*
X019662Y010902D01*
X019662Y011000D02*
X018917Y011000D01*
X018917Y011099D02*
X019662Y011099D01*
X019662Y011197D02*
X018917Y011197D01*
X018917Y011296D02*
X019662Y011296D01*
X019662Y011394D02*
X018917Y011394D01*
X018917Y011493D02*
X019662Y011493D01*
X019662Y011591D02*
X018917Y011591D01*
X018917Y011690D02*
X019662Y011690D01*
X019662Y011788D02*
X018917Y011788D01*
X018917Y011887D02*
X019662Y011887D01*
X019662Y011985D02*
X018917Y011985D01*
X018917Y012084D02*
X019662Y012084D01*
X019662Y012182D02*
X018917Y012182D01*
X018917Y012281D02*
X019662Y012281D01*
X019662Y012379D02*
X018917Y012379D01*
X018987Y012478D02*
X019662Y012478D01*
X019662Y012576D02*
X019085Y012576D01*
X019184Y012675D02*
X019662Y012675D01*
X019662Y012773D02*
X019282Y012773D01*
X019381Y012872D02*
X019662Y012872D01*
X019687Y012970D02*
X019479Y012970D01*
X019639Y013069D02*
X019785Y013069D01*
X019782Y013167D02*
X019884Y013167D01*
X019826Y013266D02*
X019982Y013266D01*
X020081Y013364D02*
X019826Y013364D01*
X019571Y013316D02*
X018747Y012492D01*
X018737Y012492D01*
X018737Y010866D01*
X018741Y010720D01*
X018537Y010516D01*
X018537Y009316D01*
X018087Y008866D01*
X018087Y005716D01*
X018480Y005878D02*
X018694Y005878D01*
X018661Y005780D02*
X018512Y005780D01*
X018512Y005681D02*
X018661Y005681D01*
X018681Y005583D02*
X018492Y005583D01*
X018451Y005484D02*
X018722Y005484D01*
X018815Y005386D02*
X018358Y005386D01*
X018427Y005977D02*
X018746Y005977D01*
X018845Y006075D02*
X018329Y006075D01*
X018267Y006174D02*
X019347Y006174D01*
X019347Y006272D02*
X018267Y006272D01*
X018267Y006371D02*
X019347Y006371D01*
X019347Y006469D02*
X018267Y006469D01*
X018267Y006568D02*
X019347Y006568D01*
X019347Y006666D02*
X018267Y006666D01*
X018267Y006765D02*
X019347Y006765D01*
X019347Y006863D02*
X018267Y006863D01*
X018267Y006962D02*
X019347Y006962D01*
X019347Y007060D02*
X018267Y007060D01*
X018267Y007159D02*
X019347Y007159D01*
X019347Y007257D02*
X018267Y007257D01*
X018267Y007356D02*
X019347Y007356D01*
X019347Y007454D02*
X018267Y007454D01*
X018267Y007553D02*
X019347Y007553D01*
X019347Y007651D02*
X018267Y007651D01*
X018267Y007750D02*
X019347Y007750D01*
X019347Y007848D02*
X018267Y007848D01*
X018267Y007947D02*
X019347Y007947D01*
X019347Y008045D02*
X018267Y008045D01*
X018267Y008144D02*
X019347Y008144D01*
X019347Y008242D02*
X018267Y008242D01*
X018267Y008341D02*
X019372Y008341D01*
X019471Y008439D02*
X018267Y008439D01*
X018267Y008538D02*
X019189Y008538D01*
X019324Y008538D02*
X019569Y008538D01*
X019661Y008786D02*
X019661Y008790D01*
X020087Y009216D01*
X020087Y012766D01*
X020621Y012509D02*
X020809Y012698D01*
X020809Y012685D01*
X020848Y012592D01*
X020920Y012520D01*
X021013Y012481D01*
X021115Y012481D01*
X021209Y012520D01*
X021280Y012592D01*
X021319Y012685D01*
X021319Y012751D01*
X021539Y012971D01*
X024861Y012971D01*
X024861Y012896D01*
X024845Y012896D01*
X024739Y012790D01*
X024739Y012770D01*
X024161Y012192D01*
X024161Y012257D01*
X024122Y012350D01*
X024050Y012422D01*
X023956Y012461D01*
X023855Y012461D01*
X023766Y012424D01*
X020837Y012424D01*
X020791Y012470D01*
X020697Y012509D01*
X020621Y012509D01*
X020688Y012576D02*
X020864Y012576D01*
X020814Y012675D02*
X020786Y012675D01*
X020773Y012478D02*
X024447Y012478D01*
X024545Y012576D02*
X021265Y012576D01*
X021315Y012675D02*
X024644Y012675D01*
X024739Y012773D02*
X021341Y012773D01*
X021440Y012872D02*
X024821Y012872D01*
X024861Y012970D02*
X021538Y012970D01*
X020857Y013857D02*
X024837Y013857D01*
X024890Y013955D02*
X020857Y013955D01*
X021038Y014054D02*
X021135Y014054D01*
X021135Y014152D02*
X021038Y014152D01*
X021038Y014251D02*
X021135Y014251D01*
X021135Y014349D02*
X021038Y014349D01*
X021135Y014448D02*
X021661Y014448D01*
X021661Y014349D02*
X021527Y014349D01*
X021501Y014251D02*
X021695Y014251D01*
X021749Y014152D02*
X021446Y014152D01*
X021346Y014054D02*
X021849Y014054D01*
X022324Y014054D02*
X022849Y014054D01*
X022749Y014152D02*
X022425Y014152D01*
X022479Y014251D02*
X022661Y014251D01*
X022567Y014345D02*
X022567Y014345D01*
X022563Y014349D02*
X022512Y014349D01*
X022650Y014743D02*
X022813Y014743D01*
X023361Y014743D02*
X023813Y014743D01*
X023721Y014645D02*
X023452Y014645D01*
X023493Y014546D02*
X023680Y014546D01*
X023661Y014448D02*
X023512Y014448D01*
X023512Y014349D02*
X023661Y014349D01*
X023695Y014251D02*
X023479Y014251D01*
X023425Y014152D02*
X023749Y014152D01*
X023849Y014054D02*
X023324Y014054D01*
X024324Y014054D02*
X024988Y014054D01*
X025087Y014152D02*
X024425Y014152D01*
X023832Y015334D02*
X023277Y015334D01*
X023405Y015433D02*
X023733Y015433D01*
X023637Y015531D02*
X023471Y015531D01*
X023511Y015630D02*
X023637Y015630D01*
X022070Y014842D02*
X021216Y014842D01*
X021135Y014842D02*
X021038Y014842D01*
X020957Y014842D02*
X020857Y014842D01*
X020857Y014940D02*
X021972Y014940D01*
X021873Y015039D02*
X020857Y015039D01*
X020857Y015137D02*
X021775Y015137D01*
X021676Y015236D02*
X020904Y015236D01*
X020687Y015273D02*
X021087Y015673D01*
X021087Y015716D01*
X021405Y015433D02*
X021479Y015433D01*
X021578Y015334D02*
X021277Y015334D01*
X021389Y014743D02*
X021813Y014743D01*
X021721Y014645D02*
X021470Y014645D01*
X021512Y014546D02*
X021680Y014546D01*
X021135Y014546D02*
X021038Y014546D01*
X021038Y014645D02*
X021135Y014645D01*
X021135Y014743D02*
X021038Y014743D01*
X020487Y015316D02*
X020087Y015716D01*
X019787Y016016D02*
X019537Y015766D01*
X019537Y015466D01*
X019237Y015166D01*
X018937Y015166D01*
X018137Y014366D01*
X018137Y011416D01*
X016537Y009816D01*
X015435Y009816D01*
X015235Y010016D01*
X015000Y010114D02*
X011293Y010114D01*
X011267Y010140D02*
X011267Y011040D01*
X011196Y011111D01*
X011237Y011111D01*
X011331Y011149D01*
X011367Y011186D01*
X011511Y011186D01*
X011857Y011532D01*
X011973Y011532D01*
X012049Y011608D01*
X012049Y012316D01*
X011973Y012392D01*
X011949Y012392D01*
X011949Y013723D01*
X013111Y014886D01*
X015111Y014886D01*
X015661Y015436D01*
X015661Y015366D01*
X015737Y015290D01*
X015862Y015290D01*
X015688Y015117D01*
X015565Y014994D01*
X015565Y012188D01*
X015487Y012221D01*
X015450Y012221D01*
X015377Y012294D01*
X015377Y012894D01*
X015265Y013006D01*
X014947Y013324D01*
X014947Y013507D01*
X014877Y013676D01*
X014747Y013806D01*
X014578Y013876D01*
X014395Y013876D01*
X014226Y013806D01*
X014097Y013676D01*
X014027Y013507D01*
X014027Y013324D01*
X014097Y013155D01*
X014226Y013026D01*
X014395Y012956D01*
X014578Y012956D01*
X014719Y013014D01*
X014997Y012737D01*
X014997Y012137D01*
X015182Y011952D01*
X015182Y011915D01*
X015220Y011821D01*
X015292Y011749D01*
X015386Y011711D01*
X015487Y011711D01*
X015565Y011743D01*
X015565Y010704D01*
X015522Y010686D01*
X015450Y010614D01*
X015411Y010521D01*
X015411Y010419D01*
X015450Y010325D01*
X015522Y010254D01*
X015616Y010215D01*
X015717Y010215D01*
X015765Y010235D01*
X015775Y010213D01*
X015846Y010141D01*
X015940Y010102D01*
X016042Y010102D01*
X016135Y010141D01*
X016207Y010213D01*
X016246Y010306D01*
X016246Y010357D01*
X017267Y011378D01*
X017267Y011557D01*
X017257Y011567D01*
X017257Y011577D01*
X017313Y011521D01*
X017406Y011482D01*
X017508Y011482D01*
X017601Y011521D01*
X017673Y011593D01*
X017712Y011687D01*
X017712Y011788D01*
X017673Y011882D01*
X017648Y011907D01*
X017648Y015023D01*
X017941Y015316D01*
X018002Y015290D01*
X018171Y015290D01*
X018328Y015355D01*
X018447Y015475D01*
X018512Y015631D01*
X018512Y015800D01*
X018447Y015957D01*
X018408Y015996D01*
X018765Y015996D01*
X018726Y015957D01*
X018661Y015800D01*
X018661Y015631D01*
X018687Y015570D01*
X017862Y014746D01*
X017757Y014640D01*
X017757Y011622D01*
X016462Y010372D01*
X016407Y010372D01*
X016313Y010333D01*
X016241Y010261D01*
X016202Y010168D01*
X016202Y010066D01*
X016232Y009996D01*
X015510Y009996D01*
X015490Y010015D01*
X015490Y010066D01*
X015451Y010160D01*
X015380Y010232D01*
X015286Y010271D01*
X015185Y010271D01*
X015091Y010232D01*
X015019Y010160D01*
X014980Y010066D01*
X014980Y010058D01*
X014269Y009347D01*
X014146Y009224D01*
X014146Y008311D01*
X013361Y009096D01*
X012311Y009096D01*
X011267Y010140D01*
X011267Y010212D02*
X015071Y010212D01*
X014938Y010015D02*
X012689Y010015D01*
X012676Y010028D02*
X012436Y010028D01*
X012266Y009859D01*
X012266Y009618D01*
X012436Y009448D01*
X012676Y009448D01*
X012846Y009618D01*
X012846Y009859D01*
X012676Y010028D01*
X012788Y009917D02*
X014839Y009917D01*
X014741Y009818D02*
X012846Y009818D01*
X012846Y009720D02*
X014642Y009720D01*
X014544Y009621D02*
X012846Y009621D01*
X012750Y009523D02*
X014445Y009523D01*
X014347Y009424D02*
X011983Y009424D01*
X012081Y009326D02*
X014248Y009326D01*
X014269Y009347D02*
X014269Y009347D01*
X014150Y009227D02*
X012180Y009227D01*
X012278Y009129D02*
X014146Y009129D01*
X014146Y009030D02*
X013427Y009030D01*
X013525Y008932D02*
X014146Y008932D01*
X014146Y008833D02*
X013624Y008833D01*
X013722Y008735D02*
X014146Y008735D01*
X014146Y008636D02*
X013821Y008636D01*
X013919Y008538D02*
X014146Y008538D01*
X014146Y008439D02*
X014018Y008439D01*
X014116Y008341D02*
X014146Y008341D01*
X014087Y008116D02*
X013287Y008916D01*
X012237Y008916D01*
X011087Y010066D01*
X011087Y010966D01*
X010903Y011149D01*
X010903Y011266D01*
X010853Y011216D01*
X010212Y011216D01*
X009937Y011166D02*
X009937Y011016D01*
X010037Y010916D01*
X010737Y010916D01*
X010886Y010705D02*
X010907Y010705D01*
X010907Y010606D02*
X010854Y010606D01*
X010892Y010508D02*
X010907Y010508D01*
X010907Y010409D02*
X010889Y010409D01*
X010907Y010311D02*
X010842Y010311D01*
X010907Y010212D02*
X010691Y010212D01*
X010582Y010212D02*
X010280Y010212D01*
X010274Y010206D02*
X010274Y010206D01*
X010292Y010114D02*
X010907Y010114D01*
X010907Y010015D02*
X010292Y010015D01*
X010248Y009917D02*
X010981Y009917D01*
X011080Y009818D02*
X010105Y009818D01*
X009968Y009818D02*
X004537Y009818D01*
X004537Y009720D02*
X011178Y009720D01*
X011277Y009621D02*
X004537Y009621D01*
X004537Y009523D02*
X009883Y009523D01*
X009806Y009424D02*
X004537Y009424D01*
X004537Y009326D02*
X009782Y009326D01*
X009638Y009227D02*
X004537Y009227D01*
X004537Y009129D02*
X009587Y009129D01*
X009582Y009030D02*
X004537Y009030D01*
X004537Y008932D02*
X009616Y008932D01*
X009732Y008833D02*
X004537Y008833D01*
X004537Y008735D02*
X010300Y008735D01*
X010201Y008833D02*
X009942Y008833D01*
X009837Y009066D02*
X010223Y009066D01*
X011080Y008209D01*
X011193Y008322D02*
X010200Y009316D01*
X010037Y009316D01*
X010190Y009523D02*
X011375Y009523D01*
X011474Y009424D02*
X010346Y009424D01*
X010444Y009326D02*
X011572Y009326D01*
X011671Y009227D02*
X010543Y009227D01*
X010641Y009129D02*
X011769Y009129D01*
X011868Y009030D02*
X010740Y009030D01*
X010838Y008932D02*
X011966Y008932D01*
X012065Y008833D02*
X010937Y008833D01*
X011035Y008735D02*
X013213Y008735D01*
X013312Y008636D02*
X011134Y008636D01*
X011232Y008538D02*
X013410Y008538D01*
X013509Y008439D02*
X011331Y008439D01*
X011401Y008341D02*
X013607Y008341D01*
X013706Y008242D02*
X011500Y008242D01*
X011598Y008144D02*
X013804Y008144D01*
X013797Y008045D02*
X013903Y008045D01*
X013895Y007947D02*
X013907Y007947D01*
X014087Y007916D02*
X014287Y007716D01*
X015787Y007716D01*
X015606Y007536D02*
X015642Y007499D01*
X015736Y007461D01*
X015837Y007461D01*
X015907Y007489D01*
X015907Y006101D01*
X015846Y006076D01*
X015806Y006036D01*
X015777Y006064D01*
X015127Y006725D01*
X015127Y006726D01*
X015077Y006775D01*
X015028Y006825D01*
X015028Y006825D01*
X014467Y007386D01*
X014367Y007486D01*
X014356Y007486D01*
X014306Y007536D01*
X015606Y007536D01*
X015907Y007454D02*
X014399Y007454D01*
X014497Y007356D02*
X015907Y007356D01*
X015907Y007257D02*
X014596Y007257D01*
X014694Y007159D02*
X015907Y007159D01*
X015907Y007060D02*
X014793Y007060D01*
X014891Y006962D02*
X015907Y006962D01*
X015907Y006863D02*
X014990Y006863D01*
X015088Y006765D02*
X015907Y006765D01*
X015907Y006666D02*
X015185Y006666D01*
X015282Y006568D02*
X015907Y006568D01*
X015907Y006469D02*
X015379Y006469D01*
X015476Y006371D02*
X015907Y006371D01*
X015907Y006272D02*
X015573Y006272D01*
X015670Y006174D02*
X015907Y006174D01*
X015845Y006075D02*
X015767Y006075D01*
X016087Y005716D02*
X016087Y008972D01*
X016787Y009216D02*
X018087Y010516D01*
X018537Y010516D01*
X018219Y010240D02*
X017090Y009111D01*
X017090Y009011D01*
X017087Y009011D01*
X017087Y005716D01*
X015037Y005681D02*
X014377Y005681D01*
X014479Y005583D02*
X014637Y005583D01*
X014682Y005484D02*
X014581Y005484D01*
X014637Y005780D02*
X014274Y005780D01*
X014172Y005878D02*
X014637Y005878D01*
X014711Y005977D02*
X014069Y005977D01*
X013967Y006075D02*
X014810Y006075D01*
X014989Y006174D02*
X013864Y006174D01*
X013762Y006272D02*
X014891Y006272D01*
X014792Y006371D02*
X013660Y006371D01*
X013557Y006469D02*
X014694Y006469D01*
X014595Y006568D02*
X013455Y006568D01*
X014103Y007060D02*
X009883Y007060D01*
X009981Y007159D02*
X014004Y007159D01*
X013906Y007257D02*
X010080Y007257D01*
X010112Y007356D02*
X013807Y007356D01*
X013709Y007454D02*
X010112Y007454D01*
X010112Y007553D02*
X013610Y007553D01*
X014087Y007916D02*
X014087Y008116D01*
X014201Y006962D02*
X009601Y006962D01*
X009891Y006863D02*
X014300Y006863D01*
X014398Y006765D02*
X009989Y006765D01*
X010088Y006666D02*
X014497Y006666D01*
X013263Y005878D02*
X012595Y005878D01*
X012584Y005780D02*
X013365Y005780D01*
X013467Y005681D02*
X012538Y005681D01*
X012409Y005583D02*
X013569Y005583D01*
X013671Y005484D02*
X012185Y005484D01*
X012091Y005386D02*
X013774Y005386D01*
X013876Y005287D02*
X011997Y005287D01*
X011903Y005189D02*
X013978Y005189D01*
X014080Y005090D02*
X011809Y005090D01*
X011715Y004992D02*
X014182Y004992D01*
X014284Y004893D02*
X011621Y004893D01*
X011537Y004795D02*
X014387Y004795D01*
X014397Y004696D02*
X011545Y004696D01*
X011521Y004598D02*
X014397Y004598D01*
X014417Y004499D02*
X011456Y004499D01*
X011017Y004499D02*
X009378Y004499D01*
X009450Y004598D02*
X010952Y004598D01*
X010929Y004696D02*
X009475Y004696D01*
X009466Y004795D02*
X010936Y004795D01*
X010978Y004893D02*
X009417Y004893D01*
X009431Y004992D02*
X011098Y004992D01*
X011230Y005090D02*
X011284Y005090D01*
X011328Y005189D02*
X011378Y005189D01*
X011692Y005583D02*
X011754Y005583D01*
X011848Y005681D02*
X011652Y005681D01*
X011554Y005780D02*
X011942Y005780D01*
X011979Y005878D02*
X010957Y005878D01*
X011081Y005780D02*
X011219Y005780D01*
X010717Y005878D02*
X010268Y005878D01*
X010366Y005977D02*
X011999Y005977D01*
X012574Y005977D02*
X013161Y005977D01*
X013206Y004253D02*
X013072Y004253D01*
X012948Y004201D01*
X012854Y004107D01*
X012802Y003983D01*
X012802Y003849D01*
X012854Y003725D01*
X012948Y003630D01*
X013072Y003579D01*
X013206Y003579D01*
X013330Y003630D01*
X013425Y003725D01*
X013476Y003849D01*
X013476Y003983D01*
X013425Y004107D01*
X013330Y004201D01*
X013206Y004253D01*
X013325Y004204D02*
X014658Y004204D01*
X014560Y004302D02*
X007273Y004302D01*
X007273Y004204D02*
X008349Y004204D01*
X008343Y004201D02*
X008248Y004107D01*
X008197Y003983D01*
X008197Y003849D01*
X008248Y003725D01*
X008343Y003630D01*
X008467Y003579D01*
X008601Y003579D01*
X008725Y003630D01*
X008820Y003725D01*
X008871Y003849D01*
X008871Y003983D01*
X008820Y004107D01*
X008725Y004201D01*
X008601Y004253D01*
X008467Y004253D01*
X008343Y004201D01*
X008248Y004105D02*
X007273Y004105D01*
X007273Y004007D02*
X008207Y004007D01*
X008197Y003908D02*
X007273Y003908D01*
X007273Y003810D02*
X008213Y003810D01*
X008262Y003711D02*
X007273Y003711D01*
X007273Y003613D02*
X008385Y003613D01*
X008683Y003613D02*
X009290Y003613D01*
X009248Y003630D02*
X009372Y003579D01*
X009506Y003579D01*
X009630Y003630D01*
X009725Y003725D01*
X009776Y003849D01*
X009776Y003983D01*
X009725Y004107D01*
X009630Y004201D01*
X009506Y004253D01*
X009372Y004253D01*
X009248Y004201D01*
X009154Y004107D01*
X009102Y003983D01*
X009102Y003849D01*
X009154Y003725D01*
X009248Y003630D01*
X009167Y003711D02*
X008806Y003711D01*
X008855Y003810D02*
X009119Y003810D01*
X009102Y003908D02*
X008871Y003908D01*
X008861Y004007D02*
X009112Y004007D01*
X009153Y004105D02*
X008820Y004105D01*
X008719Y004204D02*
X009254Y004204D01*
X009625Y004204D02*
X012049Y004204D01*
X012043Y004201D02*
X011948Y004107D01*
X011897Y003983D01*
X011897Y003849D01*
X011948Y003725D01*
X012043Y003630D01*
X012167Y003579D01*
X012301Y003579D01*
X012425Y003630D01*
X012520Y003725D01*
X012571Y003849D01*
X012571Y003983D01*
X012520Y004107D01*
X012425Y004201D01*
X012301Y004253D01*
X012167Y004253D01*
X012043Y004201D01*
X011948Y004105D02*
X009726Y004105D01*
X009766Y004007D02*
X011907Y004007D01*
X011897Y003908D02*
X009776Y003908D01*
X009760Y003810D02*
X011913Y003810D01*
X011962Y003711D02*
X009711Y003711D01*
X009589Y003613D02*
X012085Y003613D01*
X012383Y003613D02*
X012990Y003613D01*
X012867Y003711D02*
X012506Y003711D01*
X012555Y003810D02*
X012819Y003810D01*
X012802Y003908D02*
X012571Y003908D01*
X012561Y004007D02*
X012812Y004007D01*
X012853Y004105D02*
X012520Y004105D01*
X012419Y004204D02*
X012954Y004204D01*
X013426Y004105D02*
X014757Y004105D01*
X014855Y004007D02*
X013466Y004007D01*
X013476Y003908D02*
X014954Y003908D01*
X015052Y003810D02*
X013460Y003810D01*
X013411Y003711D02*
X015151Y003711D01*
X015249Y003613D02*
X013289Y003613D01*
X014461Y004401D02*
X007273Y004401D01*
X007273Y004499D02*
X008545Y004499D01*
X008473Y004598D02*
X007273Y004598D01*
X007273Y004696D02*
X008448Y004696D01*
X008457Y004795D02*
X007273Y004795D01*
X007273Y004893D02*
X008506Y004893D01*
X008547Y004992D02*
X007273Y004992D01*
X007266Y005090D02*
X008592Y005090D01*
X008691Y005189D02*
X007259Y005189D01*
X007236Y005287D02*
X008789Y005287D01*
X008888Y005386D02*
X007214Y005386D01*
X007173Y005484D02*
X008986Y005484D01*
X009085Y005583D02*
X007128Y005583D01*
X007078Y005681D02*
X010552Y005681D01*
X010593Y005780D02*
X010169Y005780D01*
X009304Y005780D02*
X007005Y005780D01*
X006931Y005878D02*
X009205Y005878D01*
X009107Y005977D02*
X006827Y005977D01*
X006704Y006075D02*
X008476Y006075D01*
X008377Y006174D02*
X006532Y006174D01*
X006223Y006272D02*
X008279Y006272D01*
X008261Y006371D02*
X004537Y006371D01*
X004537Y006469D02*
X008261Y006469D01*
X008261Y006568D02*
X004537Y006568D01*
X004537Y006666D02*
X008286Y006666D01*
X008384Y006765D02*
X004537Y006765D01*
X004537Y006863D02*
X008483Y006863D01*
X008510Y007040D02*
X008863Y007040D01*
X009112Y007289D01*
X009112Y007642D01*
X008863Y007891D01*
X008510Y007891D01*
X008261Y007642D01*
X008261Y007289D01*
X008510Y007040D01*
X008491Y007060D02*
X004537Y007060D01*
X004537Y006962D02*
X009064Y006962D01*
X008997Y006863D02*
X008891Y006863D01*
X008989Y006765D02*
X008997Y006765D01*
X008883Y007060D02*
X009162Y007060D01*
X009261Y007159D02*
X008981Y007159D01*
X009080Y007257D02*
X009294Y007257D01*
X009261Y007356D02*
X009112Y007356D01*
X009112Y007454D02*
X009261Y007454D01*
X009261Y007553D02*
X009112Y007553D01*
X009103Y007651D02*
X009271Y007651D01*
X009369Y007750D02*
X009004Y007750D01*
X008906Y007848D02*
X009468Y007848D01*
X009906Y007848D02*
X011215Y007848D01*
X011313Y007750D02*
X010004Y007750D01*
X010103Y007651D02*
X011412Y007651D01*
X011116Y007947D02*
X004537Y007947D01*
X004537Y008045D02*
X010989Y008045D01*
X010891Y008144D02*
X004537Y008144D01*
X004537Y008242D02*
X010792Y008242D01*
X010694Y008341D02*
X004537Y008341D01*
X004537Y008439D02*
X010595Y008439D01*
X010497Y008538D02*
X004537Y008538D01*
X004537Y008636D02*
X010398Y008636D01*
X011786Y009621D02*
X012266Y009621D01*
X012266Y009720D02*
X011687Y009720D01*
X011589Y009818D02*
X012266Y009818D01*
X012324Y009917D02*
X011490Y009917D01*
X011392Y010015D02*
X012422Y010015D01*
X012362Y009523D02*
X011884Y009523D01*
X011267Y010311D02*
X015465Y010311D01*
X015416Y010409D02*
X011267Y010409D01*
X011267Y010508D02*
X015411Y010508D01*
X015447Y010606D02*
X011267Y010606D01*
X011267Y010705D02*
X015565Y010705D01*
X015565Y010803D02*
X011267Y010803D01*
X011267Y010902D02*
X015565Y010902D01*
X015565Y011000D02*
X011267Y011000D01*
X011208Y011099D02*
X015565Y011099D01*
X015565Y011197D02*
X011523Y011197D01*
X011621Y011296D02*
X015565Y011296D01*
X015565Y011394D02*
X012700Y011394D01*
X012676Y011370D02*
X012846Y011540D01*
X012846Y011780D01*
X012676Y011950D01*
X012436Y011950D01*
X012266Y011780D01*
X012266Y011540D01*
X012436Y011370D01*
X012676Y011370D01*
X012799Y011493D02*
X015565Y011493D01*
X015565Y011591D02*
X012846Y011591D01*
X012846Y011690D02*
X013270Y011690D01*
X013259Y011696D02*
X013293Y011676D01*
X013331Y011666D01*
X013601Y011666D01*
X013601Y012066D01*
X013201Y012066D01*
X013201Y011796D01*
X013211Y011758D01*
X013231Y011724D01*
X013259Y011696D01*
X013203Y011788D02*
X012838Y011788D01*
X012739Y011887D02*
X013201Y011887D01*
X013201Y011985D02*
X012049Y011985D01*
X012049Y011887D02*
X012373Y011887D01*
X012274Y011788D02*
X012049Y011788D01*
X012049Y011690D02*
X012266Y011690D01*
X012266Y011591D02*
X012032Y011591D01*
X011818Y011493D02*
X012313Y011493D01*
X012411Y011394D02*
X011720Y011394D01*
X011437Y011366D02*
X011787Y011716D01*
X011787Y011948D01*
X011769Y011962D01*
X011769Y013798D01*
X013037Y015066D01*
X015037Y015066D01*
X015587Y015616D01*
X015587Y016016D01*
X014787Y016116D02*
X014637Y015966D01*
X014637Y015466D01*
X014437Y015266D01*
X012887Y015266D01*
X011336Y013715D01*
X011336Y011962D01*
X010903Y011962D02*
X010903Y011266D01*
X011187Y011366D02*
X011437Y011366D01*
X012049Y012084D02*
X013601Y012084D01*
X013601Y012066D02*
X013601Y012166D01*
X013201Y012166D01*
X013201Y012436D01*
X013211Y012474D01*
X013231Y012508D01*
X013259Y012536D01*
X013293Y012556D01*
X013331Y012566D01*
X013601Y012566D01*
X013601Y012166D01*
X013701Y012166D01*
X013701Y012566D01*
X013971Y012566D01*
X014009Y012556D01*
X014039Y012538D01*
X014097Y012676D01*
X014226Y012806D01*
X014395Y012876D01*
X014578Y012876D01*
X014747Y012806D01*
X014877Y012676D01*
X014947Y012507D01*
X014947Y012324D01*
X014877Y012155D01*
X014747Y012026D01*
X014578Y011956D01*
X014395Y011956D01*
X014226Y012026D01*
X014097Y012155D01*
X014092Y012166D01*
X013701Y012166D01*
X013701Y012066D01*
X013701Y011666D01*
X013971Y011666D01*
X014009Y011676D01*
X014043Y011696D01*
X014071Y011724D01*
X014091Y011758D01*
X014101Y011796D01*
X014101Y012066D01*
X013701Y012066D01*
X013601Y012066D01*
X013601Y011985D02*
X013701Y011985D01*
X013701Y011887D02*
X013601Y011887D01*
X013601Y011788D02*
X013701Y011788D01*
X013701Y011690D02*
X013601Y011690D01*
X014032Y011690D02*
X015565Y011690D01*
X015253Y011788D02*
X014099Y011788D01*
X014101Y011887D02*
X015193Y011887D01*
X015148Y011985D02*
X014649Y011985D01*
X014805Y012084D02*
X015050Y012084D01*
X014997Y012182D02*
X014888Y012182D01*
X014929Y012281D02*
X014997Y012281D01*
X014997Y012379D02*
X014947Y012379D01*
X014947Y012478D02*
X014997Y012478D01*
X014997Y012576D02*
X014918Y012576D01*
X014877Y012675D02*
X014997Y012675D01*
X014960Y012773D02*
X014780Y012773D01*
X014862Y012872D02*
X014588Y012872D01*
X014613Y012970D02*
X014763Y012970D01*
X015005Y013266D02*
X015565Y013266D01*
X015565Y013364D02*
X014947Y013364D01*
X014947Y013463D02*
X015565Y013463D01*
X015565Y013561D02*
X014924Y013561D01*
X014883Y013660D02*
X015565Y013660D01*
X015565Y013758D02*
X014795Y013758D01*
X014624Y013857D02*
X015565Y013857D01*
X015565Y013955D02*
X012181Y013955D01*
X012279Y014054D02*
X015565Y014054D01*
X015565Y014152D02*
X012378Y014152D01*
X012476Y014251D02*
X015565Y014251D01*
X015565Y014349D02*
X012575Y014349D01*
X012673Y014448D02*
X015565Y014448D01*
X015565Y014546D02*
X012772Y014546D01*
X012870Y014645D02*
X015565Y014645D01*
X015565Y014743D02*
X012969Y014743D01*
X013067Y014842D02*
X015565Y014842D01*
X015565Y014940D02*
X015166Y014940D01*
X015264Y015039D02*
X015610Y015039D01*
X015709Y015137D02*
X015363Y015137D01*
X015461Y015236D02*
X015807Y015236D01*
X015694Y015334D02*
X015560Y015334D01*
X015658Y015433D02*
X015661Y015433D01*
X015661Y015436D02*
X015661Y015436D01*
X016297Y015290D02*
X016297Y015131D01*
X015985Y014820D01*
X015985Y010621D01*
X015992Y010612D01*
X016907Y011527D01*
X016907Y011557D01*
X016917Y011567D01*
X016917Y012156D01*
X016910Y012217D01*
X016917Y012225D01*
X016917Y012236D01*
X016960Y012279D01*
X017117Y012475D01*
X017117Y015290D01*
X017002Y015290D01*
X016846Y015355D01*
X016726Y015475D01*
X016661Y015631D01*
X016661Y015800D01*
X016726Y015957D01*
X016765Y015996D01*
X016512Y015996D01*
X016512Y015366D01*
X016436Y015290D01*
X016297Y015290D01*
X016297Y015236D02*
X017117Y015236D01*
X017117Y015137D02*
X016297Y015137D01*
X016204Y015039D02*
X017117Y015039D01*
X017117Y014940D02*
X016106Y014940D01*
X016007Y014842D02*
X017117Y014842D01*
X017117Y014743D02*
X015985Y014743D01*
X015985Y014645D02*
X017117Y014645D01*
X017117Y014546D02*
X015985Y014546D01*
X015985Y014448D02*
X017117Y014448D01*
X017117Y014349D02*
X015985Y014349D01*
X015985Y014251D02*
X017117Y014251D01*
X017117Y014152D02*
X015985Y014152D01*
X015985Y014054D02*
X017117Y014054D01*
X017117Y013955D02*
X015985Y013955D01*
X015985Y013857D02*
X017117Y013857D01*
X017117Y013758D02*
X015985Y013758D01*
X015985Y013660D02*
X017117Y013660D01*
X017117Y013561D02*
X015985Y013561D01*
X015985Y013463D02*
X017117Y013463D01*
X017117Y013364D02*
X015985Y013364D01*
X015985Y013266D02*
X017117Y013266D01*
X017117Y013167D02*
X015985Y013167D01*
X015985Y013069D02*
X017117Y013069D01*
X017117Y012970D02*
X015985Y012970D01*
X015985Y012872D02*
X017117Y012872D01*
X017117Y012773D02*
X015985Y012773D01*
X015985Y012675D02*
X017117Y012675D01*
X017117Y012576D02*
X015985Y012576D01*
X015985Y012478D02*
X017117Y012478D01*
X017040Y012379D02*
X015985Y012379D01*
X015985Y012281D02*
X016961Y012281D01*
X016914Y012182D02*
X015985Y012182D01*
X015985Y012084D02*
X016917Y012084D01*
X016917Y011985D02*
X015985Y011985D01*
X015985Y011887D02*
X016917Y011887D01*
X016917Y011788D02*
X015985Y011788D01*
X015985Y011690D02*
X016917Y011690D01*
X016917Y011591D02*
X015985Y011591D01*
X015985Y011493D02*
X016872Y011493D01*
X016773Y011394D02*
X015985Y011394D01*
X015985Y011296D02*
X016675Y011296D01*
X016576Y011197D02*
X015985Y011197D01*
X015985Y011099D02*
X016478Y011099D01*
X016379Y011000D02*
X015985Y011000D01*
X015985Y010902D02*
X016281Y010902D01*
X016182Y010803D02*
X015985Y010803D01*
X015985Y010705D02*
X016084Y010705D01*
X016396Y010508D02*
X016603Y010508D01*
X016705Y010606D02*
X016494Y010606D01*
X016593Y010705D02*
X016807Y010705D01*
X016909Y010803D02*
X016691Y010803D01*
X016790Y010902D02*
X017011Y010902D01*
X017113Y011000D02*
X016888Y011000D01*
X016987Y011099D02*
X017214Y011099D01*
X017316Y011197D02*
X017085Y011197D01*
X017184Y011296D02*
X017418Y011296D01*
X017520Y011394D02*
X017267Y011394D01*
X017267Y011493D02*
X017381Y011493D01*
X017533Y011493D02*
X017622Y011493D01*
X017671Y011591D02*
X017724Y011591D01*
X017712Y011690D02*
X017757Y011690D01*
X017757Y011788D02*
X017712Y011788D01*
X017668Y011887D02*
X017757Y011887D01*
X017757Y011985D02*
X017648Y011985D01*
X017648Y012084D02*
X017757Y012084D01*
X017757Y012182D02*
X017648Y012182D01*
X017648Y012281D02*
X017757Y012281D01*
X017757Y012379D02*
X017648Y012379D01*
X017648Y012478D02*
X017757Y012478D01*
X017757Y012576D02*
X017648Y012576D01*
X017648Y012675D02*
X017757Y012675D01*
X017757Y012773D02*
X017648Y012773D01*
X017648Y012872D02*
X017757Y012872D01*
X017757Y012970D02*
X017648Y012970D01*
X017648Y013069D02*
X017757Y013069D01*
X017757Y013167D02*
X017648Y013167D01*
X017648Y013266D02*
X017757Y013266D01*
X017757Y013364D02*
X017648Y013364D01*
X017648Y013463D02*
X017757Y013463D01*
X017757Y013561D02*
X017648Y013561D01*
X017648Y013660D02*
X017757Y013660D01*
X017757Y013758D02*
X017648Y013758D01*
X017648Y013857D02*
X017757Y013857D01*
X017757Y013955D02*
X017648Y013955D01*
X017648Y014054D02*
X017757Y014054D01*
X017757Y014152D02*
X017648Y014152D01*
X017648Y014251D02*
X017757Y014251D01*
X017757Y014349D02*
X017648Y014349D01*
X017648Y014448D02*
X017757Y014448D01*
X017757Y014546D02*
X017648Y014546D01*
X017648Y014645D02*
X017761Y014645D01*
X017860Y014743D02*
X017648Y014743D01*
X017648Y014842D02*
X017958Y014842D01*
X018057Y014940D02*
X017648Y014940D01*
X017664Y015039D02*
X018155Y015039D01*
X018254Y015137D02*
X017763Y015137D01*
X017861Y015236D02*
X018352Y015236D01*
X018277Y015334D02*
X018451Y015334D01*
X018405Y015433D02*
X018549Y015433D01*
X018471Y015531D02*
X018648Y015531D01*
X018662Y015630D02*
X018511Y015630D01*
X018512Y015728D02*
X018661Y015728D01*
X018672Y015827D02*
X018501Y015827D01*
X018460Y015925D02*
X018713Y015925D01*
X019087Y015716D02*
X017937Y014566D01*
X017937Y011666D01*
X017937Y011546D01*
X016457Y010117D01*
X016221Y010212D02*
X016207Y010212D01*
X016202Y010114D02*
X016070Y010114D01*
X015912Y010114D02*
X015471Y010114D01*
X015490Y010015D02*
X016223Y010015D01*
X015775Y010212D02*
X015399Y010212D01*
X015991Y010357D02*
X017087Y011453D01*
X017087Y011483D01*
X017468Y011737D02*
X017468Y015097D01*
X017937Y015566D01*
X016896Y015334D02*
X016480Y015334D01*
X016512Y015433D02*
X016768Y015433D01*
X016703Y015531D02*
X016512Y015531D01*
X016512Y015630D02*
X016662Y015630D01*
X016661Y015728D02*
X016512Y015728D01*
X016512Y015827D02*
X016672Y015827D01*
X016713Y015925D02*
X016512Y015925D01*
X015587Y016566D02*
X015587Y016866D01*
X015887Y017166D01*
X018637Y017166D01*
X019087Y016716D01*
X021373Y017698D02*
X025123Y017698D01*
X025123Y017600D02*
X021457Y017600D01*
X021556Y017501D02*
X025123Y017501D01*
X025123Y017403D02*
X021654Y017403D01*
X021753Y017304D02*
X025123Y017304D01*
X025123Y017206D02*
X021851Y017206D01*
X025123Y017797D02*
X007273Y017797D01*
X007273Y017698D02*
X009400Y017698D01*
X009316Y017600D02*
X007273Y017600D01*
X007273Y017501D02*
X009218Y017501D01*
X009119Y017403D02*
X007273Y017403D01*
X007273Y017304D02*
X009021Y017304D01*
X008922Y017206D02*
X007273Y017206D01*
X007273Y017107D02*
X008824Y017107D01*
X008725Y017009D02*
X007273Y017009D01*
X007273Y016910D02*
X008627Y016910D01*
X008528Y016812D02*
X007273Y016812D01*
X007273Y016713D02*
X008430Y016713D01*
X008331Y016615D02*
X007273Y016615D01*
X007273Y016516D02*
X007478Y016516D01*
X007461Y016418D02*
X007274Y016418D01*
X007267Y016319D02*
X007461Y016319D01*
X007461Y016221D02*
X007259Y016221D01*
X007238Y016122D02*
X007461Y016122D01*
X007461Y015925D02*
X007178Y015925D01*
X007141Y015827D02*
X007461Y015827D01*
X007461Y015728D02*
X007087Y015728D01*
X007013Y015630D02*
X007461Y015630D01*
X007513Y015531D02*
X006939Y015531D01*
X006842Y015433D02*
X008557Y015433D01*
X008557Y015531D02*
X008308Y015531D01*
X008361Y015630D02*
X008468Y015630D01*
X008370Y015728D02*
X008361Y015728D01*
X008437Y015916D02*
X008437Y016466D01*
X009537Y017566D01*
X009637Y017366D02*
X008687Y016416D01*
X008687Y016016D01*
X009170Y015532D01*
X009170Y011962D01*
X009187Y011949D01*
X009187Y011716D01*
X009587Y011316D01*
X009587Y011216D01*
X009887Y011216D02*
X009937Y011166D01*
X009762Y010936D02*
X009802Y010896D01*
X009740Y010896D01*
X009433Y010896D01*
X009424Y010887D01*
X009415Y010896D01*
X009108Y010896D01*
X009032Y010819D01*
X009032Y010525D01*
X007724Y011832D01*
X007724Y012148D01*
X007824Y012148D01*
X007824Y011748D01*
X007994Y011748D01*
X008024Y011756D01*
X008024Y011608D01*
X008100Y011532D01*
X008508Y011532D01*
X008521Y011544D01*
X008534Y011532D01*
X008616Y011532D01*
X008662Y011486D01*
X009032Y011116D01*
X009032Y011012D01*
X009108Y010936D01*
X009415Y010936D01*
X009424Y010944D01*
X009433Y010936D01*
X009762Y010936D01*
X009796Y010902D02*
X008655Y010902D01*
X008557Y011000D02*
X009043Y011000D01*
X009032Y011099D02*
X008458Y011099D01*
X008360Y011197D02*
X008951Y011197D01*
X008852Y011296D02*
X008261Y011296D01*
X008163Y011394D02*
X008754Y011394D01*
X008655Y011493D02*
X008064Y011493D01*
X008041Y011591D02*
X007966Y011591D01*
X008024Y011690D02*
X007867Y011690D01*
X007824Y011788D02*
X007769Y011788D01*
X007724Y011887D02*
X007824Y011887D01*
X007824Y011985D02*
X007724Y011985D01*
X007724Y012084D02*
X007824Y012084D01*
X007724Y012182D02*
X007392Y012182D01*
X007424Y012248D02*
X007724Y012248D01*
X007724Y012648D01*
X007555Y012648D01*
X007517Y012638D01*
X007482Y012618D01*
X007454Y012590D01*
X007435Y012556D01*
X007424Y012518D01*
X007424Y012248D01*
X007424Y012281D02*
X007365Y012281D01*
X007424Y012379D02*
X007284Y012379D01*
X007424Y012478D02*
X004537Y012478D01*
X004537Y012576D02*
X007446Y012576D01*
X007724Y012576D02*
X007824Y012576D01*
X007824Y012478D02*
X007724Y012478D01*
X007724Y012379D02*
X007824Y012379D01*
X007824Y012281D02*
X007724Y012281D01*
X008124Y012478D02*
X008557Y012478D01*
X008557Y012576D02*
X008102Y012576D01*
X008521Y012379D02*
X008521Y012379D01*
X008557Y012675D02*
X004537Y012675D01*
X004537Y012773D02*
X008557Y012773D01*
X008557Y012872D02*
X004537Y012872D01*
X004537Y012970D02*
X008557Y012970D01*
X008557Y013069D02*
X004537Y013069D01*
X004537Y013167D02*
X008557Y013167D01*
X008557Y013266D02*
X004537Y013266D01*
X004537Y013364D02*
X008557Y013364D01*
X008557Y013463D02*
X004537Y013463D01*
X004537Y013561D02*
X008557Y013561D01*
X008557Y013660D02*
X004537Y013660D01*
X004537Y013758D02*
X008557Y013758D01*
X008557Y013857D02*
X004537Y013857D01*
X004537Y013955D02*
X008557Y013955D01*
X008557Y014054D02*
X004537Y014054D01*
X004537Y014152D02*
X008557Y014152D01*
X008557Y014251D02*
X004537Y014251D01*
X004537Y014349D02*
X008557Y014349D01*
X008557Y014448D02*
X004537Y014448D01*
X004537Y014546D02*
X008557Y014546D01*
X008557Y014645D02*
X004537Y014645D01*
X004537Y014743D02*
X008557Y014743D01*
X008557Y014842D02*
X004537Y014842D01*
X004537Y014940D02*
X008557Y014940D01*
X008557Y015039D02*
X004537Y015039D01*
X006274Y015137D02*
X006282Y015137D01*
X006298Y015137D02*
X008557Y015137D01*
X008557Y015236D02*
X006550Y015236D01*
X006712Y015334D02*
X008557Y015334D01*
X008737Y015615D02*
X008437Y015916D01*
X008737Y015615D02*
X008737Y011962D01*
X008737Y011965D01*
X008737Y011666D01*
X009187Y011216D01*
X009262Y011216D01*
X009032Y010803D02*
X008754Y010803D01*
X008852Y010705D02*
X009032Y010705D01*
X009032Y010606D02*
X008951Y010606D01*
X008737Y010311D02*
X004537Y010311D01*
X004537Y010409D02*
X008639Y010409D01*
X008540Y010508D02*
X004537Y010508D01*
X004537Y010606D02*
X008442Y010606D01*
X008343Y010705D02*
X004537Y010705D01*
X004537Y010803D02*
X008245Y010803D01*
X008146Y010902D02*
X004537Y010902D01*
X004537Y011000D02*
X008048Y011000D01*
X007949Y011099D02*
X004537Y011099D01*
X004537Y011197D02*
X007851Y011197D01*
X007752Y011296D02*
X004537Y011296D01*
X004537Y011394D02*
X007654Y011394D01*
X007555Y011493D02*
X004537Y011493D01*
X004537Y011591D02*
X007457Y011591D01*
X007358Y011690D02*
X004537Y011690D01*
X004537Y011788D02*
X007260Y011788D01*
X007161Y011887D02*
X004537Y011887D01*
X004537Y011985D02*
X006956Y011985D01*
X006895Y012084D02*
X004537Y012084D01*
X004537Y012182D02*
X006882Y012182D01*
X006908Y012281D02*
X004537Y012281D01*
X004537Y012379D02*
X006990Y012379D01*
X007137Y012166D02*
X009237Y010066D01*
X010037Y010066D01*
X009131Y009917D02*
X004537Y009917D01*
X004537Y010015D02*
X009033Y010015D01*
X008934Y010114D02*
X004537Y010114D01*
X004537Y010212D02*
X008836Y010212D01*
X010487Y011516D02*
X010487Y011949D01*
X010470Y011962D01*
X010037Y011962D02*
X010037Y013316D01*
X010537Y013816D01*
X011187Y013816D01*
X011787Y014466D01*
X012787Y015466D01*
X014287Y015466D01*
X014437Y015616D01*
X014437Y016066D01*
X014687Y016316D01*
X013924Y016096D02*
X013924Y015996D01*
X013524Y015996D01*
X013524Y015646D01*
X012712Y015646D01*
X011709Y014643D01*
X011705Y014642D01*
X011657Y014590D01*
X011607Y014540D01*
X011607Y014536D01*
X011108Y013996D01*
X010462Y013996D01*
X010357Y013890D01*
X009857Y013390D01*
X009857Y012392D01*
X009833Y012392D01*
X009831Y012390D01*
X009811Y012401D01*
X009773Y012412D01*
X009629Y012412D01*
X009629Y011987D01*
X009579Y011987D01*
X009579Y012412D01*
X009434Y012412D01*
X009396Y012401D01*
X009376Y012390D01*
X009374Y012392D01*
X009350Y012392D01*
X009350Y015606D01*
X009349Y015608D01*
X009448Y015608D01*
X009561Y015654D01*
X009648Y015741D01*
X009666Y015785D01*
X010307Y016426D01*
X011882Y016426D01*
X011838Y016318D01*
X011838Y016188D01*
X011887Y016069D01*
X011979Y015977D01*
X012098Y015928D01*
X012227Y015928D01*
X012347Y015977D01*
X012438Y016069D01*
X012488Y016188D01*
X012488Y016318D01*
X012443Y016426D01*
X013524Y016426D01*
X013524Y016096D01*
X013924Y016096D01*
X013924Y016024D02*
X012393Y016024D01*
X012460Y016122D02*
X013524Y016122D01*
X013524Y016221D02*
X012488Y016221D01*
X012487Y016319D02*
X013524Y016319D01*
X013524Y016418D02*
X012446Y016418D01*
X011879Y016418D02*
X010299Y016418D01*
X010200Y016319D02*
X011838Y016319D01*
X011838Y016221D02*
X010102Y016221D01*
X010003Y016122D02*
X011865Y016122D01*
X011932Y016024D02*
X009905Y016024D01*
X009806Y015925D02*
X013524Y015925D01*
X013524Y015827D02*
X009708Y015827D01*
X009635Y015728D02*
X013524Y015728D01*
X012696Y015630D02*
X009501Y015630D01*
X009350Y015531D02*
X012598Y015531D01*
X012499Y015433D02*
X009350Y015433D01*
X009350Y015334D02*
X012401Y015334D01*
X012302Y015236D02*
X009350Y015236D01*
X009350Y015137D02*
X012204Y015137D01*
X012105Y015039D02*
X009350Y015039D01*
X009350Y014940D02*
X012007Y014940D01*
X011908Y014842D02*
X009350Y014842D01*
X009350Y014743D02*
X011810Y014743D01*
X011711Y014645D02*
X009350Y014645D01*
X009350Y014546D02*
X011613Y014546D01*
X011525Y014448D02*
X009350Y014448D01*
X009350Y014349D02*
X011434Y014349D01*
X011343Y014251D02*
X009350Y014251D01*
X009350Y014152D02*
X011252Y014152D01*
X011161Y014054D02*
X009350Y014054D01*
X009350Y013955D02*
X010422Y013955D01*
X010323Y013857D02*
X009350Y013857D01*
X009350Y013758D02*
X010225Y013758D01*
X010126Y013660D02*
X009350Y013660D01*
X009350Y013561D02*
X010028Y013561D01*
X009929Y013463D02*
X009350Y013463D01*
X009350Y013364D02*
X009857Y013364D01*
X009857Y013266D02*
X009350Y013266D01*
X009350Y013167D02*
X009857Y013167D01*
X009857Y013069D02*
X009350Y013069D01*
X009350Y012970D02*
X009857Y012970D01*
X009857Y012872D02*
X009350Y012872D01*
X009350Y012773D02*
X009857Y012773D01*
X009857Y012675D02*
X009350Y012675D01*
X009350Y012576D02*
X009857Y012576D01*
X009857Y012478D02*
X009350Y012478D01*
X009579Y012379D02*
X009629Y012379D01*
X009629Y012281D02*
X009579Y012281D01*
X009579Y012182D02*
X009629Y012182D01*
X009629Y012084D02*
X009579Y012084D01*
X011949Y012478D02*
X013214Y012478D01*
X013201Y012379D02*
X011985Y012379D01*
X012049Y012281D02*
X013201Y012281D01*
X013201Y012182D02*
X012049Y012182D01*
X011949Y012576D02*
X014055Y012576D01*
X014096Y012675D02*
X011949Y012675D01*
X011949Y012773D02*
X014194Y012773D01*
X014386Y012872D02*
X011949Y012872D01*
X011949Y012970D02*
X014360Y012970D01*
X014183Y013069D02*
X011949Y013069D01*
X011949Y013167D02*
X014092Y013167D01*
X014051Y013266D02*
X011949Y013266D01*
X011949Y013364D02*
X014027Y013364D01*
X014027Y013463D02*
X011949Y013463D01*
X011949Y013561D02*
X014049Y013561D01*
X014090Y013660D02*
X011949Y013660D01*
X011984Y013758D02*
X014179Y013758D01*
X014349Y013857D02*
X012082Y013857D01*
X013601Y012478D02*
X013701Y012478D01*
X013701Y012379D02*
X013601Y012379D01*
X013601Y012281D02*
X013701Y012281D01*
X013701Y012182D02*
X013601Y012182D01*
X013701Y012084D02*
X014168Y012084D01*
X014101Y011985D02*
X014324Y011985D01*
X015390Y012281D02*
X015565Y012281D01*
X015565Y012379D02*
X015377Y012379D01*
X015377Y012478D02*
X015565Y012478D01*
X015565Y012576D02*
X015377Y012576D01*
X015377Y012675D02*
X015565Y012675D01*
X015565Y012773D02*
X015377Y012773D01*
X015377Y012872D02*
X015565Y012872D01*
X015565Y012970D02*
X015301Y012970D01*
X015202Y013069D02*
X015565Y013069D01*
X015565Y013167D02*
X015104Y013167D01*
X018317Y013726D02*
X018317Y011126D01*
X018220Y011030D01*
X016501Y010409D02*
X016297Y010409D01*
X016291Y010311D02*
X016246Y010311D01*
X017504Y009110D02*
X017815Y009421D01*
X018407Y008932D02*
X019042Y008932D01*
X019001Y008833D02*
X018309Y008833D01*
X018267Y008735D02*
X019001Y008735D01*
X019045Y008636D02*
X018267Y008636D01*
X016787Y009216D02*
X016787Y007716D01*
X019329Y006075D02*
X019347Y006075D01*
X019827Y006075D02*
X019845Y006075D01*
X019827Y006174D02*
X021907Y006174D01*
X021907Y006272D02*
X019827Y006272D01*
X019827Y006371D02*
X021907Y006371D01*
X021907Y006469D02*
X019827Y006469D01*
X019827Y006568D02*
X021907Y006568D01*
X021907Y006666D02*
X019827Y006666D01*
X019827Y006765D02*
X021907Y006765D01*
X021907Y006863D02*
X019827Y006863D01*
X019827Y006962D02*
X021907Y006962D01*
X021907Y007060D02*
X019827Y007060D01*
X019827Y007159D02*
X021907Y007159D01*
X021907Y007257D02*
X019827Y007257D01*
X019827Y007356D02*
X021907Y007356D01*
X021907Y007454D02*
X019827Y007454D01*
X019827Y007553D02*
X021907Y007553D01*
X021907Y007651D02*
X019827Y007651D01*
X019827Y007750D02*
X021907Y007750D01*
X021907Y007848D02*
X019827Y007848D01*
X019827Y007947D02*
X021907Y007947D01*
X021907Y008045D02*
X019827Y008045D01*
X019854Y008144D02*
X021907Y008144D01*
X021907Y008242D02*
X019953Y008242D01*
X020051Y008341D02*
X021907Y008341D01*
X021907Y008439D02*
X020150Y008439D01*
X020248Y008538D02*
X021907Y008538D01*
X021907Y008636D02*
X020347Y008636D01*
X020445Y008735D02*
X021907Y008735D01*
X021907Y008833D02*
X020544Y008833D01*
X020527Y008817D02*
X020527Y008817D01*
X020627Y008932D02*
X021907Y008932D01*
X021907Y009030D02*
X020627Y009030D01*
X020627Y009129D02*
X021907Y009129D01*
X021907Y009227D02*
X020627Y009227D01*
X020627Y009326D02*
X021907Y009326D01*
X021907Y009424D02*
X020627Y009424D01*
X020627Y009523D02*
X021907Y009523D01*
X021907Y009621D02*
X020627Y009621D01*
X020627Y009720D02*
X021907Y009720D01*
X021907Y009818D02*
X020627Y009818D01*
X020627Y009917D02*
X021907Y009917D01*
X021907Y010015D02*
X020915Y010015D01*
X020989Y010114D02*
X021907Y010114D01*
X021907Y010212D02*
X021010Y010212D01*
X021106Y010311D02*
X021979Y010311D01*
X022078Y010409D02*
X021212Y010409D01*
X021318Y010508D02*
X022124Y010508D01*
X022169Y010606D02*
X021424Y010606D01*
X022087Y010163D02*
X022378Y010455D01*
X022087Y010163D02*
X022087Y005716D01*
X021746Y005977D02*
X021427Y005977D01*
X021480Y005878D02*
X021694Y005878D01*
X021661Y005780D02*
X021512Y005780D01*
X021512Y005681D02*
X021661Y005681D01*
X021681Y005583D02*
X021492Y005583D01*
X021535Y005484D02*
X021722Y005484D01*
X021507Y005246D02*
X023193Y005246D01*
X023522Y005287D02*
X023879Y005287D01*
X023780Y005386D02*
X023639Y005386D01*
X024037Y005386D02*
X024137Y005386D01*
X024137Y005484D02*
X024037Y005484D01*
X024037Y005583D02*
X024137Y005583D01*
X024137Y005287D02*
X024037Y005287D01*
X023711Y005977D02*
X023689Y005977D01*
X023689Y006075D02*
X023810Y006075D01*
X023689Y006174D02*
X025191Y006174D01*
X025290Y006272D02*
X023689Y006272D01*
X023689Y006371D02*
X025388Y006371D01*
X025436Y006469D02*
X023689Y006469D01*
X023689Y006568D02*
X025338Y006568D01*
X025239Y006666D02*
X023689Y006666D01*
X023689Y006765D02*
X025141Y006765D01*
X025042Y006863D02*
X023689Y006863D01*
X023689Y006962D02*
X024944Y006962D01*
X024845Y007060D02*
X023689Y007060D01*
X023689Y007159D02*
X024747Y007159D01*
X024648Y007257D02*
X023864Y007257D01*
X023739Y007257D02*
X023689Y007257D01*
X023957Y007750D02*
X024861Y007750D01*
X024848Y007651D02*
X024861Y007651D01*
X024881Y007848D02*
X023689Y007848D01*
X023689Y007947D02*
X024922Y007947D01*
X025015Y008045D02*
X023689Y008045D01*
X025242Y007257D02*
X026314Y007257D01*
X026209Y007159D02*
X025341Y007159D01*
X025439Y007060D02*
X026105Y007060D01*
X026001Y006962D02*
X025538Y006962D01*
X025636Y006863D02*
X025896Y006863D01*
X025792Y006765D02*
X025735Y006765D01*
X026103Y006371D02*
X027859Y006371D01*
X027859Y006469D02*
X026207Y006469D01*
X026312Y006568D02*
X027859Y006568D01*
X027859Y006666D02*
X026416Y006666D01*
X026520Y006765D02*
X027859Y006765D01*
X027859Y006863D02*
X026625Y006863D01*
X026729Y006962D02*
X027859Y006962D01*
X027859Y007060D02*
X026835Y007060D01*
X026933Y007159D02*
X027859Y007159D01*
X027859Y007257D02*
X027032Y007257D01*
X027082Y007356D02*
X027859Y007356D01*
X027859Y007454D02*
X027087Y007454D01*
X027050Y007553D02*
X027859Y007553D01*
X027859Y007651D02*
X027047Y007651D01*
X027047Y007750D02*
X027859Y007750D01*
X027859Y007848D02*
X027047Y007848D01*
X027047Y007947D02*
X027859Y007947D01*
X027859Y008045D02*
X027047Y008045D01*
X025861Y008045D02*
X025559Y008045D01*
X025651Y007947D02*
X025861Y007947D01*
X025861Y007848D02*
X025692Y007848D01*
X025712Y007750D02*
X025861Y007750D01*
X025861Y007651D02*
X025712Y007651D01*
X025679Y007553D02*
X025861Y007553D01*
X025861Y007454D02*
X025627Y007454D01*
X025528Y007356D02*
X025872Y007356D01*
X025999Y006272D02*
X026172Y006272D01*
X025123Y004105D02*
X019953Y004105D01*
X019867Y004007D02*
X025123Y004007D01*
X025123Y003908D02*
X019781Y003908D01*
X019695Y003810D02*
X025123Y003810D01*
X025123Y003711D02*
X019609Y003711D01*
X019524Y003613D02*
X025123Y003613D01*
X021507Y005246D02*
X021087Y005716D01*
X020746Y005977D02*
X020427Y005977D01*
X020480Y005878D02*
X020694Y005878D01*
X020661Y005780D02*
X020512Y005780D01*
X020512Y005681D02*
X020661Y005681D01*
X020681Y005583D02*
X020492Y005583D01*
X020451Y005484D02*
X020722Y005484D01*
X020815Y005386D02*
X020358Y005386D01*
X020294Y005090D02*
X020879Y005090D01*
X020761Y004992D02*
X020412Y004992D01*
X020473Y004893D02*
X020700Y004893D01*
X020661Y004795D02*
X020512Y004795D01*
X020512Y004696D02*
X020661Y004696D01*
X020675Y004598D02*
X020498Y004598D01*
X020457Y004499D02*
X020716Y004499D01*
X020800Y004401D02*
X020373Y004401D01*
X019234Y004302D02*
X019200Y004302D01*
X019827Y005287D02*
X021228Y005287D01*
X021329Y006075D02*
X021845Y006075D01*
X020845Y006075D02*
X020329Y006075D01*
X024172Y011948D02*
X024919Y012696D01*
X024919Y012716D01*
X025287Y012716D01*
X024348Y012379D02*
X024093Y012379D01*
X024151Y012281D02*
X024250Y012281D01*
X020278Y013561D02*
X020177Y013561D01*
X020179Y013463D02*
X020078Y013463D01*
X008468Y007848D02*
X004537Y007848D01*
X004537Y007750D02*
X008369Y007750D01*
X008271Y007651D02*
X004537Y007651D01*
X004537Y007553D02*
X008261Y007553D01*
X008261Y007454D02*
X004537Y007454D01*
X004537Y007356D02*
X008261Y007356D01*
X008294Y007257D02*
X004537Y007257D01*
X004537Y007159D02*
X008392Y007159D01*
X008996Y006174D02*
X008997Y006174D01*
X009008Y006075D02*
X008898Y006075D01*
X008928Y004499D02*
X008995Y004499D01*
X007961Y015531D02*
X007861Y015531D01*
X007861Y015630D02*
X007961Y015630D01*
X007961Y015728D02*
X007861Y015728D01*
X007861Y015827D02*
X007961Y015827D01*
X007961Y015925D02*
X007861Y015925D01*
X007861Y016024D02*
X007217Y016024D01*
X007861Y016122D02*
X007961Y016122D01*
X007961Y016221D02*
X007861Y016221D01*
X007861Y016319D02*
X007961Y016319D01*
X007961Y016418D02*
X007861Y016418D01*
X007861Y016516D02*
X007961Y016516D01*
D31*
X007387Y016366D03*
X007237Y015696D03*
X007172Y015096D03*
X006537Y015116D03*
X005587Y015016D03*
X004687Y014966D03*
X006752Y011911D03*
X004652Y010691D03*
X007837Y008816D03*
X008287Y008516D03*
X009187Y008516D03*
X010137Y008616D03*
X010487Y008316D03*
X011937Y007466D03*
X012637Y007466D03*
X013337Y007466D03*
X013787Y007066D03*
X015474Y006903D03*
X016687Y005116D03*
X012587Y009216D03*
X011937Y009666D03*
X011387Y010216D03*
X009637Y009716D03*
X008637Y010166D03*
X006952Y008051D03*
X005787Y006416D03*
X004787Y006416D03*
X007437Y004716D03*
X010487Y004716D03*
X013237Y009716D03*
X014687Y010416D03*
X013187Y012916D03*
X012687Y013166D03*
X012087Y012966D03*
X012087Y013616D03*
X012537Y014116D03*
X013287Y013666D03*
X012987Y014566D03*
X012037Y015266D03*
X010387Y016066D03*
X016187Y014616D03*
X016787Y013916D03*
X016837Y012916D03*
X024082Y012566D03*
X024987Y014666D03*
X026387Y014916D03*
X027587Y014816D03*
X024987Y017616D03*
X027187Y010216D03*
X027687Y010216D03*
X027587Y006416D03*
X026487Y006416D03*
X024987Y006316D03*
X024887Y003816D03*
D32*
X023087Y005716D02*
X023087Y009715D01*
X022641Y010161D01*
X021453Y010866D02*
X024129Y010866D01*
X025279Y009716D01*
X025287Y009716D01*
X025287Y010716D02*
X024422Y011581D01*
X021089Y011581D01*
X020482Y010974D01*
X020382Y010974D01*
X020382Y011420D02*
X020591Y011420D01*
X020957Y011786D01*
X025177Y011786D01*
X025287Y011716D01*
X025846Y011157D02*
X025846Y012918D01*
X025622Y013141D01*
X021469Y013141D01*
X021064Y012736D01*
X021187Y013316D02*
X025687Y013316D01*
X026287Y012716D01*
X025846Y011157D02*
X026287Y010716D01*
X024172Y011948D02*
X020800Y011948D01*
X020646Y011794D01*
X020382Y011991D02*
X020382Y012511D01*
X021187Y013316D01*
X020687Y013366D02*
X020687Y015273D01*
X020487Y015316D02*
X020487Y013516D01*
X020242Y013866D02*
X019991Y013616D01*
X019537Y013616D01*
X018537Y012616D01*
X018533Y012616D01*
X018533Y010937D01*
X018319Y010724D01*
X017838Y010724D01*
X016087Y008972D01*
X014297Y007316D02*
X014286Y007316D01*
X013666Y007936D01*
X011566Y007936D01*
X011186Y008315D01*
X011193Y008322D01*
X011087Y008216D02*
X011094Y008209D01*
X011080Y008209D01*
X011094Y008209D02*
X011508Y007796D01*
X013608Y007796D01*
X015517Y005887D01*
X015517Y004337D01*
X015908Y003946D01*
X019316Y003946D01*
X019657Y004287D01*
X019657Y005766D01*
X019657Y008187D01*
X020457Y008987D01*
X020457Y010387D01*
X021236Y011166D01*
X022396Y011166D01*
X022417Y011146D01*
X022597Y011385D02*
X021257Y011385D01*
X020317Y010445D01*
X020317Y009045D01*
X019517Y008245D01*
X019517Y005766D01*
X019517Y004345D01*
X019258Y004086D01*
X015966Y004086D01*
X015657Y004395D01*
X015657Y005945D01*
X014957Y006656D01*
X014297Y007316D01*
X014587Y004616D02*
X014587Y004516D01*
X015387Y003716D01*
X019387Y003716D01*
X020087Y004516D01*
X020087Y004716D01*
X020087Y005716D02*
X020007Y005766D01*
X019657Y005766D01*
X019517Y005766D02*
X019137Y005766D01*
X019087Y005716D01*
X020755Y010216D02*
X021453Y010866D01*
X022597Y011385D02*
X022707Y011275D01*
X023857Y012254D02*
X020646Y012254D01*
X019907Y013926D02*
X019687Y014166D01*
X019687Y014666D01*
X020187Y015166D01*
X019537Y014766D02*
X019537Y014116D01*
X019337Y013916D01*
X019537Y014766D02*
X019437Y014866D01*
X019437Y014916D01*
X019787Y016016D02*
X019887Y016116D01*
X021287Y016116D01*
X021587Y015816D01*
X021587Y015566D01*
X022737Y014416D01*
X023087Y014416D01*
X021087Y016716D02*
X020637Y016266D01*
X019837Y016266D01*
X019737Y016166D01*
X015687Y016166D01*
X015587Y016066D01*
X015587Y016016D01*
X015437Y016116D02*
X015637Y016316D01*
X019687Y016316D01*
X020087Y016716D01*
X017287Y015516D02*
X017087Y015716D01*
X017287Y015516D02*
X017287Y012416D01*
X017087Y012166D01*
X017087Y011483D01*
X023857Y012254D02*
X023906Y012206D01*
X015437Y016116D02*
X014787Y016116D01*
X014687Y016316D02*
X015337Y016316D01*
X015587Y016566D01*
D33*
X018160Y009363D02*
X017659Y008862D01*
X017659Y005143D01*
X018087Y004716D01*
X017504Y005133D02*
X017504Y009110D01*
X017504Y005133D02*
X017087Y004716D01*
D34*
X015987Y005216D03*
X015087Y005216D03*
M02*
