G75*
%MOIN*%
%OFA0B0*%
%FSLAX24Y24*%
%IPPOS*%
%LPD*%
%AMOC8*
5,1,8,0,0,1.08239X$1,22.5*
%
%ADD10C,0.0088*%
%ADD11R,0.0787X0.0591*%
%ADD12R,0.0787X0.1496*%
%ADD13C,0.0100*%
%ADD14OC8,0.0600*%
%ADD15R,0.0472X0.0094*%
%ADD16R,0.0094X0.0472*%
%ADD17OC8,0.0320*%
%ADD18R,0.0591X0.0591*%
%ADD19C,0.0591*%
%ADD20C,0.0000*%
%ADD21R,0.0520X0.0220*%
%ADD22C,0.0660*%
%ADD23OC8,0.0591*%
%ADD24C,0.0075*%
%ADD25R,0.0598X0.0150*%
%ADD26C,0.0180*%
%ADD27R,0.0748X0.0748*%
%ADD28R,0.0550X0.0700*%
%ADD29R,0.0700X0.0400*%
%ADD30C,0.0240*%
%ADD31C,0.0160*%
%ADD32C,0.0280*%
%ADD33C,0.0120*%
%ADD34C,0.0300*%
%ADD35C,0.0317*%
%ADD36C,0.0320*%
%ADD37C,0.0356*%
%ADD38C,0.0250*%
%ADD39C,0.0320*%
%ADD40C,0.0080*%
%ADD41C,0.0277*%
%ADD42C,0.0090*%
D10*
X007106Y007097D02*
X007368Y007097D01*
X007368Y006835D01*
X007106Y006835D01*
X007106Y007097D01*
X007106Y006922D02*
X007368Y006922D01*
X007368Y007009D02*
X007106Y007009D01*
X007106Y007096D02*
X007368Y007096D01*
X007706Y007097D02*
X007968Y007097D01*
X007968Y006835D01*
X007706Y006835D01*
X007706Y007097D01*
X007706Y006922D02*
X007968Y006922D01*
X007968Y007009D02*
X007706Y007009D01*
X007706Y007096D02*
X007968Y007096D01*
X010748Y007197D02*
X010748Y006935D01*
X010486Y006935D01*
X010486Y007197D01*
X010748Y007197D01*
X010748Y007022D02*
X010486Y007022D01*
X010486Y007109D02*
X010748Y007109D01*
X010748Y007196D02*
X010486Y007196D01*
X010748Y007535D02*
X010748Y007797D01*
X010748Y007535D02*
X010486Y007535D01*
X010486Y007797D01*
X010748Y007797D01*
X010748Y007622D02*
X010486Y007622D01*
X010486Y007709D02*
X010748Y007709D01*
X010748Y007796D02*
X010486Y007796D01*
X011581Y007797D02*
X011581Y007535D01*
X011319Y007535D01*
X011319Y007797D01*
X011581Y007797D01*
X011581Y007622D02*
X011319Y007622D01*
X011319Y007709D02*
X011581Y007709D01*
X011581Y007796D02*
X011319Y007796D01*
X011581Y007197D02*
X011581Y006935D01*
X011319Y006935D01*
X011319Y007197D01*
X011581Y007197D01*
X011581Y007022D02*
X011319Y007022D01*
X011319Y007109D02*
X011581Y007109D01*
X011581Y007196D02*
X011319Y007196D01*
X014156Y007405D02*
X014418Y007405D01*
X014156Y007405D02*
X014156Y007667D01*
X014418Y007667D01*
X014418Y007405D01*
X014418Y007492D02*
X014156Y007492D01*
X014156Y007579D02*
X014418Y007579D01*
X014418Y007666D02*
X014156Y007666D01*
X014756Y007405D02*
X015018Y007405D01*
X014756Y007405D02*
X014756Y007667D01*
X015018Y007667D01*
X015018Y007405D01*
X015018Y007492D02*
X014756Y007492D01*
X014756Y007579D02*
X015018Y007579D01*
X015018Y007666D02*
X014756Y007666D01*
X014798Y009125D02*
X014798Y009387D01*
X014798Y009125D02*
X014536Y009125D01*
X014536Y009387D01*
X014798Y009387D01*
X014798Y009212D02*
X014536Y009212D01*
X014536Y009299D02*
X014798Y009299D01*
X014798Y009386D02*
X014536Y009386D01*
X014798Y009725D02*
X014798Y009987D01*
X014798Y009725D02*
X014536Y009725D01*
X014536Y009987D01*
X014798Y009987D01*
X014798Y009812D02*
X014536Y009812D01*
X014536Y009899D02*
X014798Y009899D01*
X014798Y009986D02*
X014536Y009986D01*
X013656Y009847D02*
X013656Y009585D01*
X013656Y009847D02*
X013918Y009847D01*
X013918Y009585D01*
X013656Y009585D01*
X013656Y009672D02*
X013918Y009672D01*
X013918Y009759D02*
X013656Y009759D01*
X013656Y009846D02*
X013918Y009846D01*
X013656Y010185D02*
X013656Y010447D01*
X013918Y010447D01*
X013918Y010185D01*
X013656Y010185D01*
X013656Y010272D02*
X013918Y010272D01*
X013918Y010359D02*
X013656Y010359D01*
X013656Y010446D02*
X013918Y010446D01*
X013918Y010985D02*
X013656Y010985D01*
X013656Y011247D01*
X013918Y011247D01*
X013918Y010985D01*
X013918Y011072D02*
X013656Y011072D01*
X013656Y011159D02*
X013918Y011159D01*
X013918Y011246D02*
X013656Y011246D01*
X013918Y011685D02*
X013918Y011947D01*
X013918Y011685D02*
X013656Y011685D01*
X013656Y011947D01*
X013918Y011947D01*
X013918Y011772D02*
X013656Y011772D01*
X013656Y011859D02*
X013918Y011859D01*
X013918Y011946D02*
X013656Y011946D01*
X013918Y012285D02*
X013918Y012547D01*
X013918Y012285D02*
X013656Y012285D01*
X013656Y012547D01*
X013918Y012547D01*
X013918Y012372D02*
X013656Y012372D01*
X013656Y012459D02*
X013918Y012459D01*
X013918Y012546D02*
X013656Y012546D01*
X013918Y012945D02*
X013918Y013207D01*
X013918Y012945D02*
X013656Y012945D01*
X013656Y013207D01*
X013918Y013207D01*
X013918Y013032D02*
X013656Y013032D01*
X013656Y013119D02*
X013918Y013119D01*
X013918Y013206D02*
X013656Y013206D01*
X013918Y013545D02*
X013918Y013807D01*
X013918Y013545D02*
X013656Y013545D01*
X013656Y013807D01*
X013918Y013807D01*
X013918Y013632D02*
X013656Y013632D01*
X013656Y013719D02*
X013918Y013719D01*
X013918Y013806D02*
X013656Y013806D01*
X014518Y014035D02*
X014518Y014297D01*
X014518Y014035D02*
X014256Y014035D01*
X014256Y014297D01*
X014518Y014297D01*
X014518Y014122D02*
X014256Y014122D01*
X014256Y014209D02*
X014518Y014209D01*
X014518Y014296D02*
X014256Y014296D01*
X014518Y014635D02*
X014518Y014897D01*
X014518Y014635D02*
X014256Y014635D01*
X014256Y014897D01*
X014518Y014897D01*
X014518Y014722D02*
X014256Y014722D01*
X014256Y014809D02*
X014518Y014809D01*
X014518Y014896D02*
X014256Y014896D01*
X015556Y013497D02*
X015818Y013497D01*
X015818Y013235D01*
X015556Y013235D01*
X015556Y013497D01*
X015556Y013322D02*
X015818Y013322D01*
X015818Y013409D02*
X015556Y013409D01*
X015556Y013496D02*
X015818Y013496D01*
X016156Y013497D02*
X016418Y013497D01*
X016418Y013235D01*
X016156Y013235D01*
X016156Y013497D01*
X016156Y013322D02*
X016418Y013322D01*
X016418Y013409D02*
X016156Y013409D01*
X016156Y013496D02*
X016418Y013496D01*
X017718Y013885D02*
X017718Y014147D01*
X017718Y013885D02*
X017456Y013885D01*
X017456Y014147D01*
X017718Y014147D01*
X017718Y013972D02*
X017456Y013972D01*
X017456Y014059D02*
X017718Y014059D01*
X017718Y014146D02*
X017456Y014146D01*
X017718Y014485D02*
X017718Y014747D01*
X017718Y014485D02*
X017456Y014485D01*
X017456Y014747D01*
X017718Y014747D01*
X017718Y014572D02*
X017456Y014572D01*
X017456Y014659D02*
X017718Y014659D01*
X017718Y014746D02*
X017456Y014746D01*
X018256Y013747D02*
X018518Y013747D01*
X018518Y013485D01*
X018256Y013485D01*
X018256Y013747D01*
X018256Y013572D02*
X018518Y013572D01*
X018518Y013659D02*
X018256Y013659D01*
X018256Y013746D02*
X018518Y013746D01*
X018856Y013747D02*
X019118Y013747D01*
X019118Y013485D01*
X018856Y013485D01*
X018856Y013747D01*
X018856Y013572D02*
X019118Y013572D01*
X019118Y013659D02*
X018856Y013659D01*
X018856Y013746D02*
X019118Y013746D01*
X016418Y012647D02*
X016156Y012647D01*
X016418Y012647D02*
X016418Y012385D01*
X016156Y012385D01*
X016156Y012647D01*
X016156Y012472D02*
X016418Y012472D01*
X016418Y012559D02*
X016156Y012559D01*
X016156Y012646D02*
X016418Y012646D01*
X015818Y012647D02*
X015556Y012647D01*
X015818Y012647D02*
X015818Y012385D01*
X015556Y012385D01*
X015556Y012647D01*
X015556Y012472D02*
X015818Y012472D01*
X015818Y012559D02*
X015556Y012559D01*
X015556Y012646D02*
X015818Y012646D01*
X014518Y010985D02*
X014256Y010985D01*
X014256Y011247D01*
X014518Y011247D01*
X014518Y010985D01*
X014518Y011072D02*
X014256Y011072D01*
X014256Y011159D02*
X014518Y011159D01*
X014518Y011246D02*
X014256Y011246D01*
X015226Y009557D02*
X015488Y009557D01*
X015488Y009295D01*
X015226Y009295D01*
X015226Y009557D01*
X015226Y009382D02*
X015488Y009382D01*
X015488Y009469D02*
X015226Y009469D01*
X015226Y009556D02*
X015488Y009556D01*
X015826Y009557D02*
X016088Y009557D01*
X016088Y009295D01*
X015826Y009295D01*
X015826Y009557D01*
X015826Y009382D02*
X016088Y009382D01*
X016088Y009469D02*
X015826Y009469D01*
X015826Y009556D02*
X016088Y009556D01*
X018046Y007507D02*
X018046Y007245D01*
X018046Y007507D02*
X018308Y007507D01*
X018308Y007245D01*
X018046Y007245D01*
X018046Y007332D02*
X018308Y007332D01*
X018308Y007419D02*
X018046Y007419D01*
X018046Y007506D02*
X018308Y007506D01*
X018046Y006907D02*
X018046Y006645D01*
X018046Y006907D02*
X018308Y006907D01*
X018308Y006645D01*
X018046Y006645D01*
X018046Y006732D02*
X018308Y006732D01*
X018308Y006819D02*
X018046Y006819D01*
X018046Y006906D02*
X018308Y006906D01*
X021556Y007347D02*
X021818Y007347D01*
X021818Y007085D01*
X021556Y007085D01*
X021556Y007347D01*
X021556Y007172D02*
X021818Y007172D01*
X021818Y007259D02*
X021556Y007259D01*
X021556Y007346D02*
X021818Y007346D01*
X022156Y007347D02*
X022418Y007347D01*
X022418Y007085D01*
X022156Y007085D01*
X022156Y007347D01*
X022156Y007172D02*
X022418Y007172D01*
X022418Y007259D02*
X022156Y007259D01*
X022156Y007346D02*
X022418Y007346D01*
X022418Y008147D02*
X022156Y008147D01*
X022418Y008147D02*
X022418Y007885D01*
X022156Y007885D01*
X022156Y008147D01*
X022156Y007972D02*
X022418Y007972D01*
X022418Y008059D02*
X022156Y008059D01*
X022156Y008146D02*
X022418Y008146D01*
X021818Y008147D02*
X021556Y008147D01*
X021818Y008147D02*
X021818Y007885D01*
X021556Y007885D01*
X021556Y008147D01*
X021556Y007972D02*
X021818Y007972D01*
X021818Y008059D02*
X021556Y008059D01*
X021556Y008146D02*
X021818Y008146D01*
X022556Y011685D02*
X022818Y011685D01*
X022556Y011685D02*
X022556Y011947D01*
X022818Y011947D01*
X022818Y011685D01*
X022818Y011772D02*
X022556Y011772D01*
X022556Y011859D02*
X022818Y011859D01*
X022818Y011946D02*
X022556Y011946D01*
X022556Y012385D02*
X022818Y012385D01*
X022556Y012385D02*
X022556Y012647D01*
X022818Y012647D01*
X022818Y012385D01*
X022818Y012472D02*
X022556Y012472D01*
X022556Y012559D02*
X022818Y012559D01*
X022818Y012646D02*
X022556Y012646D01*
X023156Y012385D02*
X023418Y012385D01*
X023156Y012385D02*
X023156Y012647D01*
X023418Y012647D01*
X023418Y012385D01*
X023418Y012472D02*
X023156Y012472D01*
X023156Y012559D02*
X023418Y012559D01*
X023418Y012646D02*
X023156Y012646D01*
X023156Y011685D02*
X023418Y011685D01*
X023156Y011685D02*
X023156Y011947D01*
X023418Y011947D01*
X023418Y011685D01*
X023418Y011772D02*
X023156Y011772D01*
X023156Y011859D02*
X023418Y011859D01*
X023418Y011946D02*
X023156Y011946D01*
X013368Y016785D02*
X013106Y016785D01*
X013106Y017047D01*
X013368Y017047D01*
X013368Y016785D01*
X013368Y016872D02*
X013106Y016872D01*
X013106Y016959D02*
X013368Y016959D01*
X013368Y017046D02*
X013106Y017046D01*
X012768Y016785D02*
X012506Y016785D01*
X012506Y017047D01*
X012768Y017047D01*
X012768Y016785D01*
X012768Y016872D02*
X012506Y016872D01*
X012506Y016959D02*
X012768Y016959D01*
X012768Y017046D02*
X012506Y017046D01*
X008718Y016785D02*
X008456Y016785D01*
X008456Y017047D01*
X008718Y017047D01*
X008718Y016785D01*
X008718Y016872D02*
X008456Y016872D01*
X008456Y016959D02*
X008718Y016959D01*
X008718Y017046D02*
X008456Y017046D01*
X008118Y016785D02*
X007856Y016785D01*
X007856Y017047D01*
X008118Y017047D01*
X008118Y016785D01*
X008118Y016872D02*
X007856Y016872D01*
X007856Y016959D02*
X008118Y016959D01*
X008118Y017046D02*
X007856Y017046D01*
X008356Y012885D02*
X008618Y012885D01*
X008356Y012885D02*
X008356Y013147D01*
X008618Y013147D01*
X008618Y012885D01*
X008618Y012972D02*
X008356Y012972D01*
X008356Y013059D02*
X008618Y013059D01*
X008618Y013146D02*
X008356Y013146D01*
X008956Y012885D02*
X009218Y012885D01*
X008956Y012885D02*
X008956Y013147D01*
X009218Y013147D01*
X009218Y012885D01*
X009218Y012972D02*
X008956Y012972D01*
X008956Y013059D02*
X009218Y013059D01*
X009218Y013146D02*
X008956Y013146D01*
X008318Y011435D02*
X008056Y011435D01*
X008056Y011697D01*
X008318Y011697D01*
X008318Y011435D01*
X008318Y011522D02*
X008056Y011522D01*
X008056Y011609D02*
X008318Y011609D01*
X008318Y011696D02*
X008056Y011696D01*
X007718Y011435D02*
X007456Y011435D01*
X007456Y011697D01*
X007718Y011697D01*
X007718Y011435D01*
X007718Y011522D02*
X007456Y011522D01*
X007456Y011609D02*
X007718Y011609D01*
X007718Y011696D02*
X007456Y011696D01*
X008806Y010585D02*
X009068Y010585D01*
X008806Y010585D02*
X008806Y010847D01*
X009068Y010847D01*
X009068Y010585D01*
X009068Y010672D02*
X008806Y010672D01*
X008806Y010759D02*
X009068Y010759D01*
X009068Y010846D02*
X008806Y010846D01*
X009406Y010585D02*
X009668Y010585D01*
X009406Y010585D02*
X009406Y010847D01*
X009668Y010847D01*
X009668Y010585D01*
X009668Y010672D02*
X009406Y010672D01*
X009406Y010759D02*
X009668Y010759D01*
X009668Y010846D02*
X009406Y010846D01*
X009318Y009285D02*
X009056Y009285D01*
X009056Y009547D01*
X009318Y009547D01*
X009318Y009285D01*
X009318Y009372D02*
X009056Y009372D01*
X009056Y009459D02*
X009318Y009459D01*
X009318Y009546D02*
X009056Y009546D01*
X008718Y009285D02*
X008456Y009285D01*
X008456Y009547D01*
X008718Y009547D01*
X008718Y009285D01*
X008718Y009372D02*
X008456Y009372D01*
X008456Y009459D02*
X008718Y009459D01*
X008718Y009546D02*
X008456Y009546D01*
X007968Y009285D02*
X007706Y009285D01*
X007706Y009547D01*
X007968Y009547D01*
X007968Y009285D01*
X007968Y009372D02*
X007706Y009372D01*
X007706Y009459D02*
X007968Y009459D01*
X007968Y009546D02*
X007706Y009546D01*
X007368Y009285D02*
X007106Y009285D01*
X007106Y009547D01*
X007368Y009547D01*
X007368Y009285D01*
X007368Y009372D02*
X007106Y009372D01*
X007106Y009459D02*
X007368Y009459D01*
X007368Y009546D02*
X007106Y009546D01*
D11*
X007946Y014010D03*
X007946Y014916D03*
X007946Y015821D03*
D12*
X010427Y014916D03*
D13*
X010970Y014940D02*
X011012Y014940D01*
X011012Y014966D02*
X011012Y014839D01*
X011025Y014788D01*
X011052Y014743D01*
X011089Y014706D01*
X011134Y014679D01*
X011185Y014666D01*
X011387Y014666D01*
X011387Y014966D01*
X011487Y014966D01*
X011487Y015066D01*
X011387Y015066D01*
X011387Y015366D01*
X011185Y015366D01*
X011134Y015352D01*
X011089Y015326D01*
X011052Y015288D01*
X011025Y015243D01*
X011012Y015192D01*
X011012Y015066D01*
X011387Y015066D01*
X011387Y014966D01*
X011012Y014966D01*
X010970Y015039D02*
X011387Y015039D01*
X011212Y015166D02*
X011212Y014866D01*
X011212Y015166D02*
X011662Y015166D01*
X011662Y014866D01*
X011212Y014866D01*
X011212Y014965D02*
X011662Y014965D01*
X011662Y015064D02*
X011212Y015064D01*
X011212Y015163D02*
X011662Y015163D01*
X011487Y015137D02*
X011387Y015137D01*
X011387Y015236D02*
X011487Y015236D01*
X011487Y015334D02*
X011387Y015334D01*
X011487Y015366D02*
X011487Y015066D01*
X011862Y015066D01*
X011862Y015192D01*
X011848Y015243D01*
X011822Y015288D01*
X011784Y015326D01*
X011739Y015352D01*
X011688Y015366D01*
X011487Y015366D01*
X011744Y015366D02*
X011129Y015366D01*
X011102Y015392D01*
X010970Y015261D01*
X010970Y014105D01*
X010883Y014018D01*
X010717Y014018D01*
X010717Y013400D01*
X010765Y013351D01*
X010815Y013231D01*
X010815Y013100D01*
X010765Y012980D01*
X010672Y012887D01*
X010552Y012838D01*
X010421Y012838D01*
X010301Y012887D01*
X010208Y012980D01*
X010159Y013100D01*
X010159Y013231D01*
X010208Y013351D01*
X010257Y013400D01*
X010257Y014018D01*
X009971Y014018D01*
X009883Y014105D01*
X009883Y015726D01*
X009971Y015814D01*
X010646Y015814D01*
X010724Y015891D01*
X010811Y015978D01*
X010925Y016026D01*
X011089Y016026D01*
X011129Y016066D01*
X011744Y016066D01*
X011784Y016026D01*
X011930Y016026D01*
X011887Y016069D01*
X011838Y016188D01*
X011838Y016318D01*
X011887Y016437D01*
X011979Y016529D01*
X012098Y016578D01*
X012227Y016578D01*
X012347Y016529D01*
X012438Y016437D01*
X012488Y016318D01*
X012488Y016205D01*
X012927Y016644D01*
X012927Y016669D01*
X012848Y016591D01*
X012425Y016591D01*
X012312Y016704D01*
X012312Y016900D01*
X012163Y017036D01*
X011887Y017036D01*
X011887Y016941D01*
X011612Y016941D01*
X011612Y016891D01*
X011887Y016891D01*
X011887Y016753D01*
X011874Y016706D01*
X011849Y016663D01*
X011814Y016628D01*
X011771Y016603D01*
X011724Y016591D01*
X011612Y016591D01*
X011612Y016891D01*
X011562Y016891D01*
X011562Y016591D01*
X011449Y016591D01*
X011402Y016603D01*
X011359Y016628D01*
X011324Y016663D01*
X011299Y016706D01*
X011287Y016753D01*
X011287Y016891D01*
X011562Y016891D01*
X011562Y016941D01*
X011287Y016941D01*
X011287Y016990D01*
X011287Y016990D01*
X011287Y016700D01*
X011177Y016591D01*
X010796Y016591D01*
X010687Y016700D01*
X010687Y017131D01*
X010796Y017241D01*
X010886Y017241D01*
X011007Y017361D01*
X011141Y017496D01*
X012247Y017496D01*
X012336Y017500D01*
X012341Y017496D01*
X012347Y017496D01*
X012411Y017432D01*
X012621Y017241D01*
X012848Y017241D01*
X012937Y017152D01*
X013025Y017241D01*
X013189Y017241D01*
X013584Y017610D01*
X013618Y017645D01*
X013623Y017646D01*
X013626Y017650D01*
X013672Y017667D01*
X013718Y017686D01*
X013722Y017686D01*
X013727Y017687D01*
X013776Y017686D01*
X018340Y017686D01*
X018440Y017645D01*
X018569Y017515D01*
X018606Y017559D01*
X018610Y017569D01*
X018641Y017599D01*
X018670Y017632D01*
X018679Y017637D01*
X018686Y017645D01*
X018727Y017661D01*
X018765Y017681D01*
X018776Y017682D01*
X018786Y017686D01*
X018829Y017686D01*
X018872Y017689D01*
X018882Y017686D01*
X023440Y017686D01*
X023540Y017645D01*
X023616Y017569D01*
X024018Y017166D01*
X024273Y017166D01*
X024537Y016902D01*
X024537Y016529D01*
X024333Y016326D01*
X024760Y016326D01*
X024877Y016208D01*
X025213Y015873D01*
X025198Y015900D01*
X025202Y015911D01*
X025178Y015976D01*
X025167Y015982D01*
X025156Y016033D01*
X025138Y016081D01*
X025143Y016092D01*
X025129Y016159D01*
X025120Y016167D01*
X025116Y016218D01*
X025105Y016268D01*
X025112Y016279D01*
X025107Y016341D01*
X025103Y016346D01*
X025103Y016402D01*
X025099Y016459D01*
X025103Y016464D01*
X025103Y017833D01*
X007293Y017833D01*
X007293Y016464D01*
X007297Y016459D01*
X007293Y016402D01*
X007293Y016346D01*
X007288Y016341D01*
X007284Y016279D01*
X007290Y016268D01*
X007279Y016218D01*
X007276Y016167D01*
X007266Y016159D01*
X007252Y016092D01*
X007257Y016081D01*
X007239Y016033D01*
X007228Y015982D01*
X007218Y015976D01*
X007194Y015911D01*
X007197Y015900D01*
X007173Y015855D01*
X007155Y015806D01*
X007144Y015801D01*
X007111Y015741D01*
X007112Y015729D01*
X007082Y015688D01*
X007057Y015643D01*
X007045Y015639D01*
X007004Y015584D01*
X007004Y015572D01*
X006968Y015536D01*
X006937Y015495D01*
X006925Y015493D01*
X006876Y015444D01*
X006875Y015432D01*
X006833Y015401D01*
X006797Y015365D01*
X006785Y015365D01*
X006730Y015324D01*
X006726Y015312D01*
X006681Y015288D01*
X006640Y015257D01*
X006628Y015259D01*
X006568Y015226D01*
X006563Y015215D01*
X006515Y015197D01*
X006469Y015172D01*
X006458Y015175D01*
X006393Y015151D01*
X006387Y015141D01*
X006337Y015130D01*
X006288Y015112D01*
X006277Y015117D01*
X006210Y015103D01*
X006202Y015093D01*
X006151Y015090D01*
X006101Y015079D01*
X006090Y015085D01*
X006028Y015081D01*
X006024Y015077D01*
X005967Y015077D01*
X005910Y015073D01*
X005905Y015077D01*
X004537Y015077D01*
X004537Y006322D01*
X005905Y006322D01*
X005910Y006326D01*
X005967Y006322D01*
X006024Y006322D01*
X006028Y006317D01*
X006090Y006313D01*
X006101Y006319D01*
X006151Y006308D01*
X006202Y006305D01*
X006210Y006295D01*
X006277Y006281D01*
X006288Y006286D01*
X006337Y006268D01*
X006387Y006257D01*
X006393Y006247D01*
X006458Y006223D01*
X006469Y006226D01*
X006515Y006202D01*
X006563Y006184D01*
X006568Y006173D01*
X006628Y006140D01*
X006640Y006141D01*
X006681Y006111D01*
X006726Y006086D01*
X006730Y006074D01*
X006785Y006033D01*
X006797Y006033D01*
X006833Y005997D01*
X006875Y005966D01*
X006876Y005954D01*
X006925Y005905D01*
X006937Y005904D01*
X006968Y005862D01*
X007004Y005826D01*
X007004Y005814D01*
X007045Y005759D01*
X007057Y005755D01*
X007082Y005710D01*
X007112Y005669D01*
X007111Y005657D01*
X007144Y005597D01*
X007155Y005592D01*
X007173Y005544D01*
X007197Y005498D01*
X007194Y005487D01*
X007218Y005422D01*
X007228Y005416D01*
X007239Y005366D01*
X007257Y005317D01*
X007252Y005306D01*
X007266Y005239D01*
X007276Y005231D01*
X007279Y005180D01*
X007290Y005130D01*
X007284Y005119D01*
X007288Y005057D01*
X007293Y005053D01*
X007293Y004996D01*
X007297Y004939D01*
X007293Y004934D01*
X007293Y004066D01*
X007999Y004066D01*
X008087Y003978D01*
X008087Y003566D01*
X009887Y003566D01*
X009887Y003978D01*
X009974Y004066D01*
X010799Y004066D01*
X010837Y004028D01*
X010874Y004066D01*
X011699Y004066D01*
X011787Y003978D01*
X011787Y003566D01*
X013587Y003566D01*
X013587Y003978D01*
X013674Y004066D01*
X014499Y004066D01*
X014587Y003978D01*
X014587Y003566D01*
X025103Y003566D01*
X025103Y004934D01*
X025099Y004939D01*
X025103Y004996D01*
X025103Y005053D01*
X025107Y005057D01*
X025112Y005119D01*
X025105Y005130D01*
X025116Y005180D01*
X025120Y005231D01*
X025129Y005239D01*
X025143Y005306D01*
X025138Y005317D01*
X025156Y005366D01*
X025167Y005414D01*
X024957Y005204D01*
X024957Y004562D01*
X024916Y004463D01*
X024840Y004387D01*
X024240Y003787D01*
X024140Y003746D01*
X015533Y003746D01*
X015434Y003787D01*
X015358Y003863D01*
X014955Y004266D01*
X014900Y004266D01*
X014637Y004529D01*
X014637Y004784D01*
X014535Y004886D01*
X013962Y004886D01*
X013962Y004616D01*
X013587Y004616D01*
X013587Y004516D01*
X013962Y004516D01*
X013962Y004196D01*
X013951Y004158D01*
X013932Y004124D01*
X013904Y004096D01*
X013870Y004076D01*
X013831Y004066D01*
X013587Y004066D01*
X013587Y004516D01*
X013487Y004516D01*
X013487Y004066D01*
X013442Y004066D01*
X013476Y003983D01*
X013476Y003849D01*
X013425Y003725D01*
X013330Y003630D01*
X013206Y003579D01*
X013072Y003579D01*
X012948Y003630D01*
X012854Y003725D01*
X012802Y003849D01*
X012802Y003983D01*
X012854Y004107D01*
X012948Y004201D01*
X013072Y004253D01*
X013112Y004253D01*
X013112Y004516D01*
X013487Y004516D01*
X013487Y004616D01*
X013112Y004616D01*
X013112Y004886D01*
X012262Y004886D01*
X012262Y004253D01*
X012301Y004253D01*
X012425Y004201D01*
X012520Y004107D01*
X012571Y003983D01*
X012571Y003849D01*
X012520Y003725D01*
X012425Y003630D01*
X012301Y003579D01*
X012167Y003579D01*
X012043Y003630D01*
X011948Y003725D01*
X011897Y003849D01*
X011897Y003983D01*
X011931Y004066D01*
X011499Y004066D01*
X011412Y004153D01*
X011412Y004356D01*
X011300Y004356D01*
X011268Y004388D01*
X011171Y004388D01*
X011051Y004437D01*
X010958Y004530D01*
X010909Y004650D01*
X010909Y004781D01*
X010952Y004886D01*
X010262Y004886D01*
X010262Y004153D01*
X010174Y004066D01*
X009742Y004066D01*
X009776Y003983D01*
X009776Y003849D01*
X009725Y003725D01*
X009630Y003630D01*
X009506Y003579D01*
X009372Y003579D01*
X009248Y003630D01*
X009154Y003725D01*
X009102Y003849D01*
X009102Y003983D01*
X009154Y004107D01*
X009248Y004201D01*
X009372Y004253D01*
X009412Y004253D01*
X009412Y004356D01*
X009350Y004356D01*
X009331Y004343D01*
X009266Y004356D01*
X009200Y004356D01*
X009183Y004372D01*
X009160Y004377D01*
X009140Y004407D01*
X009125Y004407D01*
X009012Y004454D01*
X008962Y004504D01*
X008911Y004454D01*
X008798Y004407D01*
X008725Y004407D01*
X008674Y004356D01*
X008562Y004356D01*
X008562Y004253D01*
X008601Y004253D01*
X008725Y004201D01*
X008820Y004107D01*
X008871Y003983D01*
X008871Y003849D01*
X008820Y003725D01*
X008725Y003630D01*
X008601Y003579D01*
X008467Y003579D01*
X008343Y003630D01*
X008248Y003725D01*
X008197Y003849D01*
X008197Y003983D01*
X008231Y004066D01*
X007799Y004066D01*
X007712Y004153D01*
X007712Y004978D01*
X007799Y005066D01*
X007805Y005066D01*
X005761Y007110D01*
X005761Y006584D01*
X005673Y006496D01*
X004800Y006496D01*
X004713Y006584D01*
X004713Y007457D01*
X004800Y007545D01*
X004927Y007545D01*
X004927Y007747D01*
X004891Y007762D01*
X004823Y007830D01*
X004787Y007918D01*
X004787Y008433D01*
X004823Y008522D01*
X004877Y008576D01*
X004823Y008630D01*
X004787Y008718D01*
X004787Y009233D01*
X004823Y009322D01*
X004891Y009389D01*
X004927Y009404D01*
X004927Y009607D01*
X004800Y009607D01*
X004713Y009695D01*
X004713Y010567D01*
X004800Y010655D01*
X005617Y010655D01*
X005617Y010736D01*
X004800Y010736D01*
X004713Y010824D01*
X004713Y011697D01*
X004800Y011785D01*
X004927Y011785D01*
X004927Y011987D01*
X004891Y012002D01*
X004823Y012070D01*
X004787Y012158D01*
X004787Y012673D01*
X004823Y012762D01*
X004877Y012816D01*
X004823Y012870D01*
X004787Y012958D01*
X004787Y013473D01*
X004823Y013562D01*
X004891Y013629D01*
X004927Y013644D01*
X004927Y013847D01*
X004800Y013847D01*
X004713Y013935D01*
X004713Y014807D01*
X004800Y014895D01*
X005673Y014895D01*
X005761Y014807D01*
X005761Y013935D01*
X005673Y013847D01*
X005547Y013847D01*
X005547Y013644D01*
X005583Y013629D01*
X005650Y013562D01*
X005687Y013473D01*
X005687Y013397D01*
X005734Y013445D01*
X005734Y013445D01*
X005845Y013556D01*
X005945Y013597D01*
X006052Y013597D01*
X006149Y013557D01*
X007169Y013557D01*
X007403Y013792D01*
X007403Y014368D01*
X007491Y014455D01*
X008388Y014455D01*
X009077Y015144D01*
X009077Y015706D01*
X008700Y015706D01*
X008577Y015829D01*
X008490Y015915D01*
X008490Y015871D01*
X007996Y015871D01*
X007896Y015871D01*
X007896Y015771D01*
X007403Y015771D01*
X007403Y015506D01*
X007413Y015468D01*
X007433Y015434D01*
X007461Y015406D01*
X007495Y015386D01*
X007533Y015376D01*
X007896Y015376D01*
X007896Y015771D01*
X007996Y015771D01*
X007996Y015376D01*
X008360Y015376D01*
X008398Y015386D01*
X008432Y015406D01*
X008460Y015434D01*
X008480Y015468D01*
X008490Y015506D01*
X008490Y015771D01*
X007996Y015771D01*
X007996Y015871D01*
X007996Y016266D01*
X008139Y016266D01*
X007848Y016558D01*
X007824Y016563D01*
X007805Y016591D01*
X007775Y016591D01*
X007662Y016704D01*
X007662Y017127D01*
X007775Y017241D01*
X008198Y017241D01*
X008287Y017152D01*
X008375Y017241D01*
X008798Y017241D01*
X008893Y017146D01*
X009201Y017146D01*
X009296Y017241D01*
X009677Y017241D01*
X009787Y017131D01*
X009787Y016700D01*
X009677Y016591D01*
X009296Y016591D01*
X009201Y016686D01*
X008893Y016686D01*
X008798Y016591D01*
X008409Y016591D01*
X008688Y016311D01*
X008688Y016318D01*
X008737Y016437D01*
X008829Y016529D01*
X008948Y016578D01*
X009078Y016578D01*
X009197Y016529D01*
X009289Y016437D01*
X009338Y016318D01*
X009338Y016244D01*
X009452Y016244D01*
X009572Y016194D01*
X009665Y016101D01*
X009715Y015981D01*
X009715Y015850D01*
X009697Y015807D01*
X009697Y014954D01*
X009649Y014840D01*
X009562Y014753D01*
X008749Y013939D01*
X008749Y013938D01*
X008797Y013824D01*
X008797Y013259D01*
X008800Y013266D01*
X008836Y013302D01*
X008881Y013327D01*
X008930Y013341D01*
X009049Y013341D01*
X009049Y013053D01*
X009124Y013053D01*
X009124Y013341D01*
X009243Y013341D01*
X009293Y013327D01*
X009337Y013302D01*
X009373Y013266D01*
X009398Y013222D01*
X009412Y013172D01*
X009412Y013053D01*
X009124Y013053D01*
X009124Y012978D01*
X009124Y012691D01*
X009243Y012691D01*
X009293Y012704D01*
X009337Y012729D01*
X009373Y012765D01*
X009398Y012810D01*
X009412Y012859D01*
X009412Y012978D01*
X009124Y012978D01*
X009049Y012978D01*
X009049Y012691D01*
X008930Y012691D01*
X008881Y012704D01*
X008836Y012729D01*
X008800Y012765D01*
X008790Y012783D01*
X008698Y012691D01*
X008275Y012691D01*
X008162Y012804D01*
X008162Y013227D01*
X008177Y013242D01*
X008177Y013565D01*
X007826Y013565D01*
X007398Y013137D01*
X007969Y012566D01*
X008087Y012448D01*
X008087Y011891D01*
X008398Y011891D01*
X008512Y011777D01*
X008512Y011366D01*
X009819Y011366D01*
X009937Y011248D01*
X009937Y011234D01*
X010090Y011081D01*
X010202Y010969D01*
X010202Y010818D01*
X010287Y010733D01*
X010287Y011327D01*
X010253Y011360D01*
X010212Y011461D01*
X010212Y011570D01*
X010253Y011671D01*
X010331Y011749D01*
X010432Y011791D01*
X010541Y011791D01*
X010642Y011749D01*
X010720Y011671D01*
X010762Y011570D01*
X010762Y011461D01*
X010720Y011360D01*
X010687Y011327D01*
X010687Y011191D01*
X010729Y011191D01*
X010912Y011373D01*
X010912Y011420D01*
X010953Y011521D01*
X011031Y011599D01*
X011132Y011641D01*
X011241Y011641D01*
X011342Y011599D01*
X011420Y011521D01*
X011462Y011420D01*
X011462Y011311D01*
X011420Y011210D01*
X011342Y011132D01*
X011241Y011091D01*
X011194Y011091D01*
X011012Y010908D01*
X011012Y010861D01*
X010970Y010760D01*
X010892Y010682D01*
X010833Y010658D01*
X010870Y010621D01*
X010912Y010520D01*
X010912Y010411D01*
X010870Y010310D01*
X010792Y010232D01*
X010789Y010231D01*
X012144Y008876D01*
X014744Y008876D01*
X014689Y008931D01*
X014455Y008931D01*
X014342Y009044D01*
X014342Y009467D01*
X014434Y009559D01*
X014416Y009569D01*
X014380Y009605D01*
X014355Y009650D01*
X014342Y009699D01*
X014342Y009818D01*
X014629Y009818D01*
X014629Y009893D01*
X014342Y009893D01*
X014342Y010012D01*
X014355Y010062D01*
X014380Y010106D01*
X014416Y010142D01*
X014461Y010167D01*
X014510Y010181D01*
X014629Y010181D01*
X014629Y009893D01*
X014704Y009893D01*
X014704Y010181D01*
X014823Y010181D01*
X014873Y010167D01*
X014917Y010142D01*
X014953Y010106D01*
X014966Y010084D01*
X015002Y010171D01*
X015079Y010249D01*
X015087Y010252D01*
X015087Y010598D01*
X015204Y010716D01*
X015204Y010716D01*
X015296Y010808D01*
X014615Y010808D01*
X014598Y010791D01*
X014175Y010791D01*
X014087Y010879D01*
X014017Y010809D01*
X014017Y010622D01*
X014112Y010527D01*
X014112Y010104D01*
X014019Y010012D01*
X014037Y010002D01*
X014073Y009966D01*
X014098Y009922D01*
X014112Y009872D01*
X014112Y009753D01*
X013824Y009753D01*
X013824Y009678D01*
X013824Y009391D01*
X013943Y009391D01*
X013993Y009404D01*
X014037Y009429D01*
X014073Y009465D01*
X014098Y009510D01*
X014112Y009559D01*
X014112Y009678D01*
X013824Y009678D01*
X013749Y009678D01*
X013749Y009391D01*
X013630Y009391D01*
X013581Y009404D01*
X013536Y009429D01*
X013500Y009465D01*
X013475Y009510D01*
X013462Y009559D01*
X013462Y009678D01*
X013749Y009678D01*
X013749Y009753D01*
X013462Y009753D01*
X013462Y009872D01*
X013475Y009922D01*
X013500Y009966D01*
X013536Y010002D01*
X013554Y010012D01*
X013480Y010086D01*
X013258Y010086D01*
X012866Y009715D01*
X012866Y009610D01*
X012684Y009428D01*
X012427Y009428D01*
X012246Y009610D01*
X012246Y009867D01*
X012427Y010048D01*
X012549Y010048D01*
X013006Y010481D01*
X013071Y010546D01*
X013075Y010546D01*
X013078Y010548D01*
X013170Y010546D01*
X013480Y010546D01*
X013557Y010622D01*
X013557Y010809D01*
X013462Y010904D01*
X013462Y011327D01*
X013575Y011441D01*
X013998Y011441D01*
X014087Y011352D01*
X014175Y011441D01*
X014583Y011441D01*
X014518Y011506D01*
X014013Y011506D01*
X013998Y011491D01*
X013575Y011491D01*
X013480Y011586D01*
X012866Y011586D01*
X012866Y011531D01*
X012684Y011350D01*
X012427Y011350D01*
X012246Y011531D01*
X012246Y011788D01*
X012427Y011970D01*
X012571Y011970D01*
X012591Y011986D01*
X012650Y012046D01*
X012663Y012046D01*
X012673Y012054D01*
X012756Y012046D01*
X013480Y012046D01*
X013554Y012119D01*
X013536Y012129D01*
X013500Y012165D01*
X013475Y012210D01*
X013462Y012259D01*
X013462Y012378D01*
X013749Y012378D01*
X013749Y012453D01*
X013462Y012453D01*
X013462Y012572D01*
X013475Y012622D01*
X013500Y012666D01*
X013536Y012702D01*
X013581Y012727D01*
X013630Y012741D01*
X013749Y012741D01*
X013749Y012453D01*
X013824Y012453D01*
X013824Y012741D01*
X013865Y012741D01*
X013855Y012751D01*
X013575Y012751D01*
X013462Y012864D01*
X013462Y013287D01*
X013554Y013379D01*
X013536Y013389D01*
X013500Y013425D01*
X013475Y013470D01*
X013462Y013519D01*
X013462Y013638D01*
X013749Y013638D01*
X013749Y013713D01*
X013462Y013713D01*
X013462Y013832D01*
X013475Y013882D01*
X013500Y013926D01*
X013536Y013962D01*
X013581Y013987D01*
X013630Y014001D01*
X013749Y014001D01*
X013749Y013713D01*
X013824Y013713D01*
X013824Y014001D01*
X013943Y014001D01*
X013993Y013987D01*
X014037Y013962D01*
X014073Y013926D01*
X014098Y013882D01*
X014112Y013832D01*
X014112Y013719D01*
X014177Y013784D01*
X014177Y013841D01*
X014175Y013841D01*
X014062Y013954D01*
X014062Y014377D01*
X014154Y014469D01*
X014136Y014479D01*
X014100Y014515D01*
X014075Y014560D01*
X014062Y014609D01*
X014062Y014728D01*
X014349Y014728D01*
X014349Y014803D01*
X014062Y014803D01*
X014062Y014922D01*
X014075Y014972D01*
X014100Y015016D01*
X014136Y015052D01*
X014181Y015077D01*
X014230Y015091D01*
X014349Y015091D01*
X014349Y014803D01*
X014424Y014803D01*
X014424Y015091D01*
X014543Y015091D01*
X014593Y015077D01*
X014637Y015052D01*
X014673Y015016D01*
X014698Y014972D01*
X014712Y014922D01*
X014712Y014803D01*
X014424Y014803D01*
X014424Y014728D01*
X014712Y014728D01*
X014712Y014609D01*
X014698Y014560D01*
X014673Y014515D01*
X014637Y014479D01*
X014619Y014469D01*
X014712Y014377D01*
X014712Y013954D01*
X014632Y013875D01*
X014759Y013823D01*
X014792Y013789D01*
X014792Y014414D01*
X014777Y014429D01*
X014777Y014603D01*
X015377Y015203D01*
X015377Y015369D01*
X015273Y015266D01*
X015137Y015266D01*
X015137Y015666D01*
X015037Y015666D01*
X015037Y015266D01*
X014900Y015266D01*
X014637Y015529D01*
X014637Y015666D01*
X015037Y015666D01*
X015037Y015766D01*
X015037Y016166D01*
X014900Y016166D01*
X014637Y015902D01*
X014637Y015766D01*
X015037Y015766D01*
X015137Y015766D01*
X015137Y016166D01*
X015273Y016166D01*
X015377Y016062D01*
X015377Y016303D01*
X015659Y016585D01*
X015641Y016627D01*
X015641Y016804D01*
X015709Y016968D01*
X015834Y017093D01*
X015961Y017146D01*
X015293Y017146D01*
X015537Y016902D01*
X015537Y016529D01*
X015273Y016266D01*
X014900Y016266D01*
X014637Y016529D01*
X014637Y016902D01*
X014880Y017146D01*
X013878Y017146D01*
X013562Y016850D01*
X013562Y016704D01*
X013547Y016689D01*
X013547Y016454D01*
X013499Y016340D01*
X013412Y016253D01*
X013412Y016253D01*
X012612Y015453D01*
X012498Y015406D01*
X011784Y015406D01*
X011744Y015366D01*
X011770Y015334D02*
X014832Y015334D01*
X014733Y015433D02*
X012564Y015433D01*
X012691Y015531D02*
X014637Y015531D01*
X014637Y015630D02*
X012789Y015630D01*
X012888Y015728D02*
X015037Y015728D01*
X015037Y015630D02*
X015137Y015630D01*
X015137Y015531D02*
X015037Y015531D01*
X015037Y015433D02*
X015137Y015433D01*
X015137Y015334D02*
X015037Y015334D01*
X015342Y015334D02*
X015377Y015334D01*
X015377Y015236D02*
X011850Y015236D01*
X011862Y015137D02*
X015311Y015137D01*
X015213Y015039D02*
X014650Y015039D01*
X014707Y014940D02*
X015114Y014940D01*
X015016Y014842D02*
X014712Y014842D01*
X014712Y014645D02*
X014819Y014645D01*
X014777Y014546D02*
X014691Y014546D01*
X014641Y014448D02*
X014777Y014448D01*
X014792Y014349D02*
X014712Y014349D01*
X014712Y014251D02*
X014792Y014251D01*
X014792Y014152D02*
X014712Y014152D01*
X014712Y014054D02*
X014792Y014054D01*
X014792Y013955D02*
X014712Y013955D01*
X014676Y013857D02*
X014792Y013857D01*
X015187Y014016D02*
X016587Y015416D01*
X016797Y015376D02*
X016834Y015338D01*
X016998Y015270D01*
X017144Y015270D01*
X015777Y013903D01*
X015777Y013729D01*
X015797Y013709D01*
X015797Y013691D01*
X015724Y013691D01*
X015724Y013403D01*
X015649Y013403D01*
X015649Y013691D01*
X015530Y013691D01*
X015481Y013677D01*
X015436Y013652D01*
X015400Y013616D01*
X015387Y013592D01*
X015387Y013933D01*
X016659Y015206D01*
X016674Y015206D01*
X016797Y015329D01*
X016797Y015376D01*
X016797Y015334D02*
X016844Y015334D01*
X016704Y015236D02*
X017110Y015236D01*
X017011Y015137D02*
X016591Y015137D01*
X016492Y015039D02*
X016913Y015039D01*
X016814Y014940D02*
X016394Y014940D01*
X016295Y014842D02*
X016716Y014842D01*
X016617Y014743D02*
X016197Y014743D01*
X016098Y014645D02*
X016519Y014645D01*
X016420Y014546D02*
X016000Y014546D01*
X015901Y014448D02*
X016322Y014448D01*
X016223Y014349D02*
X015803Y014349D01*
X015704Y014251D02*
X016125Y014251D01*
X016026Y014152D02*
X015606Y014152D01*
X015507Y014054D02*
X015928Y014054D01*
X015829Y013955D02*
X015409Y013955D01*
X015387Y013857D02*
X015777Y013857D01*
X015777Y013758D02*
X015387Y013758D01*
X015387Y013660D02*
X015450Y013660D01*
X015649Y013660D02*
X015724Y013660D01*
X015724Y013561D02*
X015649Y013561D01*
X015649Y013463D02*
X015724Y013463D01*
X015724Y013328D02*
X015724Y013041D01*
X015797Y013041D01*
X015797Y012841D01*
X015724Y012841D01*
X015724Y012553D01*
X015649Y012553D01*
X015649Y012841D01*
X015530Y012841D01*
X015481Y012827D01*
X015436Y012802D01*
X015400Y012766D01*
X015387Y012742D01*
X015387Y013139D01*
X015400Y013115D01*
X015436Y013079D01*
X015481Y013054D01*
X015530Y013041D01*
X015649Y013041D01*
X015649Y013328D01*
X015724Y013328D01*
X015724Y013266D02*
X015649Y013266D01*
X015649Y013167D02*
X015724Y013167D01*
X015724Y013069D02*
X015649Y013069D01*
X015797Y012970D02*
X015387Y012970D01*
X015387Y012872D02*
X015797Y012872D01*
X015724Y012773D02*
X015649Y012773D01*
X015649Y012675D02*
X015724Y012675D01*
X015724Y012576D02*
X015649Y012576D01*
X015649Y012478D02*
X015724Y012478D01*
X015724Y012191D01*
X015797Y012191D01*
X015797Y012037D01*
X015908Y011926D01*
X016035Y011798D01*
X015887Y011798D01*
X015712Y011973D01*
X015712Y012020D01*
X015670Y012121D01*
X015601Y012191D01*
X015649Y012191D01*
X015649Y012478D01*
X015724Y012478D01*
X015724Y012379D02*
X015649Y012379D01*
X015649Y012281D02*
X015724Y012281D01*
X015797Y012182D02*
X015609Y012182D01*
X015685Y012084D02*
X015797Y012084D01*
X015848Y011985D02*
X015712Y011985D01*
X015798Y011887D02*
X015947Y011887D01*
X015804Y011598D02*
X015437Y011966D01*
X015187Y012216D01*
X015187Y014016D01*
X016177Y013709D02*
X017269Y014801D01*
X017262Y014772D01*
X017262Y014653D01*
X017549Y014653D01*
X017549Y014578D01*
X017262Y014578D01*
X017262Y014459D01*
X017275Y014410D01*
X017300Y014365D01*
X017336Y014329D01*
X017354Y014319D01*
X017262Y014227D01*
X017262Y014016D01*
X016841Y013596D01*
X016593Y013596D01*
X016498Y013691D01*
X016177Y013691D01*
X016177Y013709D01*
X016226Y013758D02*
X017004Y013758D01*
X016905Y013660D02*
X016529Y013660D01*
X016325Y013857D02*
X017102Y013857D01*
X017201Y013955D02*
X016423Y013955D01*
X016522Y014054D02*
X017262Y014054D01*
X017262Y014152D02*
X016620Y014152D01*
X016719Y014251D02*
X017285Y014251D01*
X017317Y014349D02*
X016817Y014349D01*
X016916Y014448D02*
X017265Y014448D01*
X017262Y014546D02*
X017014Y014546D01*
X017113Y014645D02*
X017549Y014645D01*
X017549Y014653D02*
X017549Y014941D01*
X017430Y014941D01*
X017401Y014933D01*
X017797Y015329D01*
X017797Y015376D01*
X017834Y015338D01*
X017998Y015270D01*
X018175Y015270D01*
X018339Y015338D01*
X018341Y015340D01*
X018358Y015300D01*
X018797Y014861D01*
X018729Y014861D01*
X018641Y014773D01*
X018641Y014236D01*
X018563Y014236D01*
X018462Y014194D01*
X018385Y014116D01*
X018343Y014015D01*
X018343Y013941D01*
X018230Y013941D01*
X018181Y013927D01*
X018136Y013902D01*
X018100Y013866D01*
X018075Y013822D01*
X018062Y013772D01*
X018062Y013653D01*
X018349Y013653D01*
X018349Y013578D01*
X018424Y013578D01*
X018424Y013322D01*
X018415Y013313D01*
X018415Y013264D01*
X018321Y013264D01*
X018102Y013264D01*
X018098Y013260D01*
X018081Y013264D01*
X018018Y013264D01*
X018018Y013743D01*
X018023Y013819D01*
X018018Y013825D01*
X018018Y013833D01*
X017964Y013886D01*
X017912Y013947D01*
X017912Y014003D01*
X018271Y014335D01*
X018278Y014525D01*
X018149Y014665D01*
X017959Y014673D01*
X017856Y014578D01*
X017624Y014578D01*
X017624Y014653D01*
X017549Y014653D01*
X017624Y014653D02*
X017624Y014941D01*
X017743Y014941D01*
X017793Y014927D01*
X017837Y014902D01*
X017873Y014866D01*
X017898Y014822D01*
X017912Y014772D01*
X017912Y014653D01*
X017624Y014653D01*
X017624Y014645D02*
X017928Y014645D01*
X017912Y014743D02*
X018641Y014743D01*
X018641Y014645D02*
X018168Y014645D01*
X018259Y014546D02*
X018641Y014546D01*
X018641Y014448D02*
X018275Y014448D01*
X018272Y014349D02*
X018641Y014349D01*
X018641Y014251D02*
X018180Y014251D01*
X018073Y014152D02*
X018420Y014152D01*
X018359Y014054D02*
X017967Y014054D01*
X017912Y013955D02*
X018343Y013955D01*
X018095Y013857D02*
X017994Y013857D01*
X018019Y013758D02*
X018062Y013758D01*
X018062Y013660D02*
X018018Y013660D01*
X018062Y013578D02*
X018062Y013459D01*
X018075Y013410D01*
X018100Y013365D01*
X018136Y013329D01*
X018181Y013304D01*
X018230Y013291D01*
X018349Y013291D01*
X018349Y013578D01*
X018062Y013578D01*
X018062Y013561D02*
X018018Y013561D01*
X018018Y013463D02*
X018062Y013463D01*
X018102Y013364D02*
X018018Y013364D01*
X018014Y013278D02*
X018387Y013616D01*
X018349Y013561D02*
X018424Y013561D01*
X018424Y013463D02*
X018349Y013463D01*
X018349Y013364D02*
X018424Y013364D01*
X018415Y013266D02*
X018018Y013266D01*
X018014Y013278D02*
X018014Y012878D01*
X017818Y012878D02*
X017818Y013750D01*
X017587Y014016D01*
X017687Y014116D01*
X017687Y014016D01*
X017604Y013691D02*
X017618Y013675D01*
X017618Y012795D01*
X017620Y012792D01*
X017620Y012579D01*
X017708Y012492D01*
X017927Y012492D01*
X017931Y012496D01*
X017947Y012492D01*
X018014Y012492D01*
X018014Y012579D01*
X018014Y012579D01*
X018014Y012579D01*
X018014Y012492D01*
X018021Y012492D01*
X018021Y012451D01*
X020336Y010137D01*
X020447Y010026D01*
X020556Y010026D01*
X020599Y009982D01*
X020700Y009941D01*
X020810Y009941D01*
X020911Y009982D01*
X020988Y010060D01*
X021022Y010142D01*
X021134Y010030D01*
X021270Y010030D01*
X021270Y009820D01*
X018923Y009820D01*
X018435Y009331D01*
X018435Y009418D01*
X018393Y009519D01*
X018315Y009596D01*
X018214Y009638D01*
X018105Y009638D01*
X018022Y009603D01*
X017971Y009654D01*
X017870Y009696D01*
X017761Y009696D01*
X017660Y009654D01*
X017621Y009616D01*
X017469Y009616D01*
X017971Y010118D01*
X017986Y010084D01*
X018063Y010006D01*
X018164Y009965D01*
X018273Y009965D01*
X018374Y010006D01*
X018452Y010084D01*
X018494Y010185D01*
X018494Y010294D01*
X018452Y010395D01*
X018409Y010438D01*
X018410Y010779D01*
X018410Y010779D01*
X018410Y010831D01*
X018454Y010874D01*
X018495Y010975D01*
X018495Y011085D01*
X018454Y011186D01*
X018376Y011263D01*
X018275Y011305D01*
X018166Y011305D01*
X018065Y011263D01*
X017987Y011186D01*
X017987Y011184D01*
X017987Y011898D01*
X017869Y012016D01*
X017810Y012075D01*
X017693Y012192D01*
X016707Y012192D01*
X016603Y012296D01*
X016612Y012304D01*
X016612Y012727D01*
X016517Y012822D01*
X016517Y013059D01*
X016593Y013136D01*
X017032Y013136D01*
X017167Y013270D01*
X017587Y013691D01*
X017604Y013691D01*
X017618Y013660D02*
X017556Y013660D01*
X017618Y013561D02*
X017457Y013561D01*
X017359Y013463D02*
X017618Y013463D01*
X017618Y013364D02*
X017260Y013364D01*
X017162Y013266D02*
X017618Y013266D01*
X017618Y013167D02*
X017063Y013167D01*
X016526Y013069D02*
X017618Y013069D01*
X017618Y012970D02*
X016517Y012970D01*
X016517Y012872D02*
X017618Y012872D01*
X017620Y012773D02*
X016566Y012773D01*
X016612Y012675D02*
X017620Y012675D01*
X017624Y012576D02*
X016612Y012576D01*
X016612Y012478D02*
X018021Y012478D01*
X018014Y012576D02*
X018014Y012576D01*
X018093Y012379D02*
X016612Y012379D01*
X016619Y012281D02*
X018192Y012281D01*
X018290Y012182D02*
X017703Y012182D01*
X017801Y012084D02*
X018389Y012084D01*
X018487Y011985D02*
X017900Y011985D01*
X017869Y012016D02*
X017869Y012016D01*
X017810Y012075D02*
X017810Y012075D01*
X017610Y011992D02*
X017787Y011816D01*
X017787Y010216D01*
X017201Y009630D01*
X016932Y009630D01*
X016401Y009630D01*
X016187Y009416D01*
X016001Y009416D01*
X015957Y009426D01*
X015653Y009658D02*
X015643Y009676D01*
X015607Y009712D01*
X015563Y009737D01*
X015513Y009751D01*
X015394Y009751D01*
X015394Y009463D01*
X015319Y009463D01*
X015319Y009388D01*
X015032Y009388D01*
X015032Y009269D01*
X015045Y009220D01*
X015047Y009216D01*
X014992Y009216D01*
X014992Y009467D01*
X014899Y009559D01*
X014917Y009569D01*
X014953Y009605D01*
X014978Y009650D01*
X014992Y009699D01*
X014992Y009818D01*
X014704Y009818D01*
X014704Y009893D01*
X014988Y009893D01*
X015002Y009860D01*
X015079Y009782D01*
X015173Y009744D01*
X015151Y009737D01*
X015106Y009712D01*
X015070Y009676D01*
X015045Y009632D01*
X015032Y009582D01*
X015032Y009463D01*
X015319Y009463D01*
X015319Y009751D01*
X015314Y009751D01*
X015391Y009782D01*
X015468Y009860D01*
X015510Y009961D01*
X015510Y010070D01*
X015487Y010127D01*
X015487Y010131D01*
X015503Y010177D01*
X015487Y010210D01*
X015487Y010261D01*
X015511Y010237D01*
X015612Y010195D01*
X015721Y010195D01*
X015755Y010209D01*
X015758Y010201D01*
X015835Y010124D01*
X015936Y010082D01*
X016046Y010082D01*
X016147Y010124D01*
X016182Y010160D01*
X016182Y010062D01*
X016224Y009961D01*
X016302Y009884D01*
X016403Y009842D01*
X016413Y009842D01*
X016425Y009830D01*
X016318Y009830D01*
X016203Y009715D01*
X016168Y009751D01*
X015745Y009751D01*
X015653Y009658D01*
X015593Y009720D02*
X015714Y009720D01*
X015492Y009917D02*
X016269Y009917D01*
X016298Y009827D02*
X016237Y009766D01*
X015387Y009766D01*
X015357Y009736D01*
X015357Y009426D01*
X015319Y009424D02*
X014992Y009424D01*
X014992Y009326D02*
X015032Y009326D01*
X015043Y009227D02*
X014992Y009227D01*
X014887Y009016D02*
X014681Y009221D01*
X014581Y009221D01*
X014342Y009227D02*
X011793Y009227D01*
X011891Y009129D02*
X014342Y009129D01*
X014356Y009030D02*
X011990Y009030D01*
X012088Y008932D02*
X014454Y008932D01*
X014887Y009016D02*
X015687Y009016D01*
X015717Y008986D01*
X016431Y008946D02*
X016487Y009040D01*
X016487Y009316D01*
X016604Y009433D01*
X016932Y009433D01*
X016932Y009236D02*
X017207Y009236D01*
X017387Y009416D01*
X017810Y009416D01*
X017815Y009421D01*
X017626Y009621D02*
X017475Y009621D01*
X017573Y009720D02*
X018823Y009720D01*
X018921Y009818D02*
X017672Y009818D01*
X017770Y009917D02*
X021270Y009917D01*
X021270Y010015D02*
X020944Y010015D01*
X021010Y010114D02*
X021051Y010114D01*
X020567Y010015D02*
X018383Y010015D01*
X018464Y010114D02*
X020359Y010114D01*
X020260Y010212D02*
X018494Y010212D01*
X018487Y010311D02*
X020162Y010311D01*
X020063Y010409D02*
X018438Y010409D01*
X018409Y010508D02*
X019965Y010508D01*
X019866Y010606D02*
X018410Y010606D01*
X018410Y010705D02*
X019768Y010705D01*
X019669Y010803D02*
X018410Y010803D01*
X018465Y010902D02*
X019571Y010902D01*
X019472Y011000D02*
X018495Y011000D01*
X018490Y011099D02*
X019374Y011099D01*
X019275Y011197D02*
X018442Y011197D01*
X018298Y011296D02*
X019177Y011296D01*
X019078Y011394D02*
X017987Y011394D01*
X017987Y011296D02*
X018143Y011296D01*
X017999Y011197D02*
X017987Y011197D01*
X017987Y011493D02*
X018980Y011493D01*
X018881Y011591D02*
X017987Y011591D01*
X017987Y011690D02*
X018783Y011690D01*
X018684Y011788D02*
X017987Y011788D01*
X017987Y011887D02*
X018586Y011887D01*
X017610Y011992D02*
X016932Y011992D01*
X016610Y011992D01*
X016587Y012016D01*
X016932Y011992D02*
X016949Y011992D01*
X017457Y011737D02*
X017469Y011737D01*
X017472Y011720D01*
X017472Y010441D01*
X017251Y010220D01*
X016932Y010220D01*
X016932Y010023D02*
X016514Y010023D01*
X016457Y010117D01*
X016182Y010114D02*
X016122Y010114D01*
X016202Y010015D02*
X015510Y010015D01*
X015492Y010114D02*
X015860Y010114D01*
X015991Y010357D02*
X016051Y010417D01*
X016932Y010417D01*
X016932Y010614D02*
X015811Y010614D01*
X015666Y010470D01*
X015570Y010212D02*
X015487Y010212D01*
X015287Y010164D02*
X015235Y010016D01*
X015287Y010164D02*
X015287Y010516D01*
X015582Y010811D01*
X016932Y010811D01*
X016932Y011008D02*
X014529Y011008D01*
X014387Y011116D01*
X014129Y011394D02*
X014045Y011394D01*
X014000Y011493D02*
X014531Y011493D01*
X015116Y011205D02*
X016932Y011205D01*
X016932Y011598D02*
X015804Y011598D01*
X015291Y010803D02*
X014611Y010803D01*
X014163Y010803D02*
X014017Y010803D01*
X014017Y010705D02*
X015193Y010705D01*
X015094Y010606D02*
X014033Y010606D01*
X014112Y010508D02*
X015087Y010508D01*
X015087Y010409D02*
X014112Y010409D01*
X014112Y010311D02*
X015087Y010311D01*
X015043Y010212D02*
X014112Y010212D01*
X014112Y010114D02*
X014388Y010114D01*
X014342Y010015D02*
X014023Y010015D01*
X014100Y009917D02*
X014342Y009917D01*
X014342Y009720D02*
X013824Y009720D01*
X013749Y009720D02*
X012871Y009720D01*
X012866Y009621D02*
X013462Y009621D01*
X013471Y009523D02*
X012778Y009523D01*
X012975Y009818D02*
X013462Y009818D01*
X013473Y009917D02*
X013079Y009917D01*
X013183Y010015D02*
X013551Y010015D01*
X013749Y009621D02*
X013824Y009621D01*
X013824Y009523D02*
X013749Y009523D01*
X013749Y009424D02*
X013824Y009424D01*
X014028Y009424D02*
X014342Y009424D01*
X014342Y009326D02*
X011694Y009326D01*
X011596Y009424D02*
X013545Y009424D01*
X014102Y009523D02*
X014397Y009523D01*
X014371Y009621D02*
X014112Y009621D01*
X014112Y009818D02*
X014629Y009818D01*
X014704Y009818D02*
X015044Y009818D01*
X014992Y009720D02*
X015120Y009720D01*
X015042Y009621D02*
X014962Y009621D01*
X014936Y009523D02*
X015032Y009523D01*
X015319Y009523D02*
X015394Y009523D01*
X015394Y009621D02*
X015319Y009621D01*
X015319Y009720D02*
X015394Y009720D01*
X015427Y009818D02*
X016306Y009818D01*
X016298Y009827D02*
X016932Y009827D01*
X017869Y010015D02*
X018054Y010015D01*
X017973Y010114D02*
X017967Y010114D01*
X018004Y009621D02*
X018065Y009621D01*
X018255Y009621D02*
X018724Y009621D01*
X018626Y009523D02*
X018389Y009523D01*
X018432Y009424D02*
X018527Y009424D01*
X018160Y009363D02*
X017982Y009186D01*
X017417Y009186D01*
X017270Y009039D01*
X016932Y009039D01*
X017537Y008356D02*
X017690Y008509D01*
X018193Y008509D01*
X018211Y008491D01*
X018211Y008153D01*
X018211Y007445D01*
X018177Y007376D01*
X018502Y007345D02*
X018502Y007164D01*
X018409Y007072D01*
X018427Y007062D01*
X018463Y007026D01*
X018488Y006982D01*
X018502Y006932D01*
X018502Y006813D01*
X018214Y006813D01*
X018214Y006738D01*
X018214Y006451D01*
X018333Y006451D01*
X018383Y006464D01*
X018427Y006489D01*
X018463Y006525D01*
X018488Y006570D01*
X018502Y006619D01*
X018502Y006738D01*
X018214Y006738D01*
X018139Y006738D01*
X017877Y006738D01*
X017877Y006813D01*
X018139Y006813D01*
X018139Y006738D01*
X018139Y006451D01*
X018020Y006451D01*
X017971Y006464D01*
X017926Y006489D01*
X017890Y006525D01*
X017877Y006549D01*
X017877Y006111D01*
X017998Y006161D01*
X018175Y006161D01*
X018339Y006093D01*
X018464Y005968D01*
X018532Y005804D01*
X018532Y005627D01*
X018464Y005463D01*
X018406Y005406D01*
X018665Y005406D01*
X018936Y005135D01*
X018998Y005161D01*
X019175Y005161D01*
X019339Y005093D01*
X019464Y004968D01*
X019532Y004804D01*
X019532Y004627D01*
X019469Y004476D01*
X019704Y004476D01*
X019641Y004627D01*
X019641Y004804D01*
X019663Y004856D01*
X019287Y005233D01*
X019287Y005316D01*
X019175Y005270D01*
X018998Y005270D01*
X018834Y005338D01*
X018709Y005463D01*
X018641Y005627D01*
X018641Y005804D01*
X018709Y005968D01*
X018834Y006093D01*
X018998Y006161D01*
X019175Y006161D01*
X019297Y006111D01*
X019297Y006564D01*
X018502Y007345D01*
X018502Y007257D02*
X018591Y007257D01*
X018496Y007159D02*
X018691Y007159D01*
X018792Y007060D02*
X018429Y007060D01*
X018494Y006962D02*
X018892Y006962D01*
X018992Y006863D02*
X018502Y006863D01*
X018502Y006666D02*
X019193Y006666D01*
X019293Y006568D02*
X018487Y006568D01*
X018392Y006469D02*
X019297Y006469D01*
X019297Y006371D02*
X017877Y006371D01*
X017877Y006469D02*
X017961Y006469D01*
X018139Y006469D02*
X018214Y006469D01*
X018214Y006568D02*
X018139Y006568D01*
X018139Y006666D02*
X018214Y006666D01*
X018214Y006765D02*
X019093Y006765D01*
X019487Y006658D02*
X018408Y007717D01*
X018408Y008153D01*
X018605Y008153D02*
X018605Y007796D01*
X019648Y006753D01*
X019297Y006272D02*
X017877Y006272D01*
X017877Y006174D02*
X019297Y006174D01*
X018816Y006075D02*
X018357Y006075D01*
X018455Y005977D02*
X018718Y005977D01*
X018672Y005878D02*
X018501Y005878D01*
X018532Y005780D02*
X018641Y005780D01*
X018641Y005681D02*
X018532Y005681D01*
X018513Y005583D02*
X018660Y005583D01*
X018701Y005484D02*
X018473Y005484D01*
X018685Y005386D02*
X018787Y005386D01*
X018784Y005287D02*
X018958Y005287D01*
X018882Y005189D02*
X019331Y005189D01*
X019342Y005090D02*
X019429Y005090D01*
X019440Y004992D02*
X019528Y004992D01*
X019495Y004893D02*
X019626Y004893D01*
X019641Y004795D02*
X019532Y004795D01*
X019532Y004696D02*
X019641Y004696D01*
X019654Y004598D02*
X019520Y004598D01*
X019479Y004499D02*
X019694Y004499D01*
X020087Y004716D02*
X019487Y005316D01*
X019287Y005287D02*
X019216Y005287D01*
X019648Y005532D02*
X020035Y005145D01*
X020658Y005145D01*
X021087Y004716D01*
X021012Y005191D02*
X021611Y005191D01*
X022087Y004716D01*
X021987Y005216D02*
X022587Y005216D01*
X023087Y004716D01*
X023495Y004893D02*
X023638Y004893D01*
X023638Y004904D02*
X023638Y004532D01*
X023639Y004530D01*
X023591Y004476D01*
X023469Y004476D01*
X023532Y004627D01*
X023532Y004804D01*
X023464Y004968D01*
X023339Y005093D01*
X023175Y005161D01*
X022998Y005161D01*
X022946Y005139D01*
X022787Y005298D01*
X022669Y005416D01*
X022416Y005416D01*
X022464Y005463D01*
X022532Y005627D01*
X022532Y005804D01*
X022464Y005968D01*
X022339Y006093D01*
X022175Y006161D01*
X021998Y006161D01*
X021834Y006093D01*
X021739Y005998D01*
X021665Y006072D01*
X021494Y006243D01*
X021494Y006257D01*
X021377Y006375D01*
X020811Y006375D01*
X020615Y006570D01*
X025410Y006570D01*
X026110Y007270D01*
X026260Y007270D01*
X026258Y007269D01*
X024537Y005547D01*
X024537Y005666D01*
X024137Y005666D01*
X024137Y005766D01*
X024037Y005766D01*
X024037Y006166D01*
X023900Y006166D01*
X023637Y005902D01*
X023637Y005766D01*
X024037Y005766D01*
X024037Y005666D01*
X024137Y005666D01*
X024137Y005266D01*
X024273Y005266D01*
X024445Y005437D01*
X024417Y005369D01*
X024417Y005026D01*
X024274Y005168D01*
X023901Y005168D01*
X023638Y004904D01*
X023638Y004795D02*
X023532Y004795D01*
X023532Y004696D02*
X023638Y004696D01*
X023638Y004598D02*
X023520Y004598D01*
X023479Y004499D02*
X023612Y004499D01*
X023725Y004992D02*
X023440Y004992D01*
X023342Y005090D02*
X023824Y005090D01*
X023900Y005266D02*
X024037Y005266D01*
X024037Y005666D01*
X023637Y005666D01*
X023637Y005529D01*
X023900Y005266D01*
X023879Y005287D02*
X023216Y005287D01*
X023175Y005270D02*
X023339Y005338D01*
X023464Y005463D01*
X023532Y005627D01*
X023532Y005804D01*
X023464Y005968D01*
X023339Y006093D01*
X023175Y006161D01*
X022998Y006161D01*
X022834Y006093D01*
X022709Y005968D01*
X022641Y005804D01*
X022641Y005627D01*
X022709Y005463D01*
X022834Y005338D01*
X022998Y005270D01*
X023175Y005270D01*
X022958Y005287D02*
X022798Y005287D01*
X022787Y005386D02*
X022699Y005386D01*
X022701Y005484D02*
X022473Y005484D01*
X022513Y005583D02*
X022660Y005583D01*
X022641Y005681D02*
X022532Y005681D01*
X022532Y005780D02*
X022641Y005780D01*
X022672Y005878D02*
X022501Y005878D01*
X022455Y005977D02*
X022718Y005977D01*
X022816Y006075D02*
X022357Y006075D01*
X021816Y006075D02*
X021662Y006075D01*
X021563Y006174D02*
X025163Y006174D01*
X025261Y006272D02*
X021479Y006272D01*
X021381Y006371D02*
X025360Y006371D01*
X025458Y006469D02*
X020716Y006469D01*
X020617Y006568D02*
X025557Y006568D01*
X025506Y006666D02*
X025655Y006666D01*
X025604Y006765D02*
X025754Y006765D01*
X025703Y006863D02*
X025852Y006863D01*
X025801Y006962D02*
X025951Y006962D01*
X025900Y007060D02*
X026049Y007060D01*
X025998Y007159D02*
X026148Y007159D01*
X026097Y007257D02*
X026246Y007257D01*
X026598Y006846D02*
X026653Y006846D01*
X026672Y006841D01*
X026706Y006846D01*
X026740Y006846D01*
X026758Y006853D01*
X026778Y006856D01*
X026808Y006874D01*
X026840Y006887D01*
X026853Y006901D01*
X026870Y006911D01*
X026891Y006938D01*
X026916Y006963D01*
X026923Y006981D01*
X027041Y007138D01*
X027066Y007163D01*
X027073Y007181D01*
X027085Y007197D01*
X027093Y007230D01*
X027107Y007262D01*
X027107Y007282D01*
X027111Y007301D01*
X027107Y007335D01*
X027107Y008969D01*
X027066Y009069D01*
X026990Y009145D01*
X026990Y009145D01*
X026766Y009369D01*
X026690Y009445D01*
X026658Y009457D01*
X026664Y009463D01*
X026732Y009627D01*
X026732Y009804D01*
X026664Y009968D01*
X026553Y010079D01*
X026921Y010447D01*
X026921Y010447D01*
X027038Y010564D01*
X027038Y014047D01*
X025899Y015187D01*
X025926Y015172D01*
X025938Y015175D01*
X026002Y015151D01*
X026009Y015141D01*
X026059Y015130D01*
X026107Y015112D01*
X026118Y015117D01*
X026185Y015103D01*
X026193Y015093D01*
X026244Y015090D01*
X026295Y015079D01*
X026305Y015085D01*
X026367Y015081D01*
X026372Y015077D01*
X026428Y015077D01*
X026485Y015073D01*
X026490Y015077D01*
X027859Y015077D01*
X027859Y006322D01*
X026490Y006322D01*
X026485Y006326D01*
X026428Y006322D01*
X026372Y006322D01*
X026367Y006317D01*
X026305Y006313D01*
X026295Y006319D01*
X026244Y006308D01*
X026193Y006305D01*
X026185Y006295D01*
X026118Y006281D01*
X026107Y006286D01*
X026059Y006268D01*
X026010Y006257D01*
X026598Y006846D01*
X026517Y006765D02*
X027859Y006765D01*
X027859Y006863D02*
X026790Y006863D01*
X026914Y006962D02*
X027859Y006962D01*
X027859Y007060D02*
X026982Y007060D01*
X027061Y007159D02*
X027859Y007159D01*
X027859Y007257D02*
X027105Y007257D01*
X027107Y007356D02*
X027859Y007356D01*
X027859Y007454D02*
X027107Y007454D01*
X027107Y007553D02*
X027859Y007553D01*
X027859Y007651D02*
X027107Y007651D01*
X027107Y007750D02*
X027859Y007750D01*
X027859Y007848D02*
X027107Y007848D01*
X027107Y007947D02*
X027859Y007947D01*
X027859Y008045D02*
X027107Y008045D01*
X027107Y008144D02*
X027859Y008144D01*
X027859Y008242D02*
X027107Y008242D01*
X027107Y008341D02*
X027859Y008341D01*
X027859Y008439D02*
X027107Y008439D01*
X027107Y008538D02*
X027859Y008538D01*
X027859Y008636D02*
X027107Y008636D01*
X027107Y008735D02*
X027859Y008735D01*
X027859Y008833D02*
X027107Y008833D01*
X027107Y008932D02*
X027859Y008932D01*
X027859Y009030D02*
X027081Y009030D01*
X027005Y009129D02*
X027859Y009129D01*
X027859Y009227D02*
X026907Y009227D01*
X026808Y009326D02*
X027859Y009326D01*
X027859Y009424D02*
X026710Y009424D01*
X026766Y009369D02*
X026766Y009369D01*
X026689Y009523D02*
X027859Y009523D01*
X027859Y009621D02*
X026729Y009621D01*
X026732Y009720D02*
X027859Y009720D01*
X027859Y009818D02*
X026726Y009818D01*
X026685Y009917D02*
X027859Y009917D01*
X027859Y010015D02*
X026617Y010015D01*
X026588Y010114D02*
X027859Y010114D01*
X027859Y010212D02*
X026687Y010212D01*
X026785Y010311D02*
X027859Y010311D01*
X027859Y010409D02*
X026884Y010409D01*
X026982Y010508D02*
X027859Y010508D01*
X027859Y010606D02*
X027038Y010606D01*
X027038Y010705D02*
X027859Y010705D01*
X027859Y010803D02*
X027038Y010803D01*
X027038Y010902D02*
X027859Y010902D01*
X027859Y011000D02*
X027038Y011000D01*
X027038Y011099D02*
X027859Y011099D01*
X027859Y011197D02*
X027038Y011197D01*
X027038Y011296D02*
X027859Y011296D01*
X027859Y011394D02*
X027038Y011394D01*
X027038Y011493D02*
X027859Y011493D01*
X027859Y011591D02*
X027038Y011591D01*
X027038Y011690D02*
X027859Y011690D01*
X027859Y011788D02*
X027038Y011788D01*
X027038Y011887D02*
X027859Y011887D01*
X027859Y011985D02*
X027038Y011985D01*
X027038Y012084D02*
X027859Y012084D01*
X027859Y012182D02*
X027038Y012182D01*
X027038Y012281D02*
X027859Y012281D01*
X027859Y012379D02*
X027038Y012379D01*
X027038Y012478D02*
X027859Y012478D01*
X027859Y012576D02*
X027038Y012576D01*
X027038Y012675D02*
X027859Y012675D01*
X027859Y012773D02*
X027038Y012773D01*
X027038Y012872D02*
X027859Y012872D01*
X027859Y012970D02*
X027038Y012970D01*
X027038Y013069D02*
X027859Y013069D01*
X027859Y013167D02*
X027038Y013167D01*
X027038Y013266D02*
X027859Y013266D01*
X027859Y013364D02*
X027038Y013364D01*
X027038Y013463D02*
X027859Y013463D01*
X027859Y013561D02*
X027038Y013561D01*
X027038Y013660D02*
X027859Y013660D01*
X027859Y013758D02*
X027038Y013758D01*
X027038Y013857D02*
X027859Y013857D01*
X027859Y013955D02*
X027038Y013955D01*
X027032Y014054D02*
X027859Y014054D01*
X027859Y014152D02*
X026934Y014152D01*
X026835Y014251D02*
X027859Y014251D01*
X027859Y014349D02*
X026737Y014349D01*
X026638Y014448D02*
X027859Y014448D01*
X027859Y014546D02*
X026540Y014546D01*
X026441Y014645D02*
X027859Y014645D01*
X027859Y014743D02*
X026343Y014743D01*
X026244Y014842D02*
X027859Y014842D01*
X027859Y014940D02*
X026146Y014940D01*
X026117Y014976D02*
X025167Y015926D01*
X025161Y015925D02*
X025196Y015925D01*
X025158Y016024D02*
X025062Y016024D01*
X025137Y016122D02*
X024964Y016122D01*
X024865Y016221D02*
X025115Y016221D01*
X025109Y016319D02*
X024767Y016319D01*
X024677Y016126D02*
X022497Y016126D01*
X022087Y015716D01*
X022532Y015728D02*
X022641Y015728D01*
X022641Y015804D02*
X022641Y015627D01*
X022709Y015463D01*
X022834Y015338D01*
X022998Y015270D01*
X023175Y015270D01*
X023227Y015292D01*
X023474Y015046D01*
X023541Y014978D01*
X023541Y014978D01*
X023541Y014978D01*
X023620Y014978D01*
X025192Y014978D01*
X025335Y014975D01*
X026144Y014166D01*
X026100Y014166D01*
X025837Y013902D01*
X025837Y013548D01*
X025754Y013466D01*
X025673Y013466D01*
X025737Y013529D01*
X025737Y013666D01*
X025337Y013666D01*
X025337Y013766D01*
X025237Y013766D01*
X025237Y014166D01*
X025100Y014166D01*
X024837Y013902D01*
X024837Y013766D01*
X025237Y013766D01*
X025237Y013666D01*
X024837Y013666D01*
X024837Y013529D01*
X024900Y013466D01*
X022954Y013466D01*
X022604Y013116D01*
X022487Y012998D01*
X022487Y012841D01*
X022475Y012841D01*
X022362Y012727D01*
X022362Y012473D01*
X022080Y012192D01*
X021689Y012192D01*
X022169Y012672D01*
X022169Y012672D01*
X022287Y012789D01*
X022287Y014016D01*
X022339Y014038D01*
X022464Y014163D01*
X022532Y014327D01*
X022532Y014504D01*
X022464Y014668D01*
X022339Y014793D01*
X022175Y014861D01*
X021998Y014861D01*
X021877Y014811D01*
X021877Y015321D01*
X021998Y015270D01*
X022175Y015270D01*
X022339Y015338D01*
X022464Y015463D01*
X022532Y015627D01*
X022532Y015804D01*
X022510Y015856D01*
X022579Y015926D01*
X022692Y015926D01*
X022641Y015804D01*
X022651Y015827D02*
X022523Y015827D01*
X022579Y015925D02*
X022691Y015925D01*
X022641Y015630D02*
X022532Y015630D01*
X022492Y015531D02*
X022681Y015531D01*
X022740Y015433D02*
X022433Y015433D01*
X022329Y015334D02*
X022844Y015334D01*
X023284Y015236D02*
X021877Y015236D01*
X021877Y015137D02*
X023382Y015137D01*
X023481Y015039D02*
X021877Y015039D01*
X021877Y014940D02*
X025369Y014940D01*
X025468Y014842D02*
X024222Y014842D01*
X024175Y014861D02*
X023998Y014861D01*
X023834Y014793D01*
X023709Y014668D01*
X023641Y014504D01*
X023641Y014327D01*
X023709Y014163D01*
X023834Y014038D01*
X023998Y013970D01*
X024175Y013970D01*
X024339Y014038D01*
X024464Y014163D01*
X024532Y014327D01*
X024532Y014504D01*
X024464Y014668D01*
X024339Y014793D01*
X024175Y014861D01*
X023952Y014842D02*
X023222Y014842D01*
X023175Y014861D02*
X022998Y014861D01*
X022834Y014793D01*
X022709Y014668D01*
X022641Y014504D01*
X022641Y014327D01*
X022709Y014163D01*
X022834Y014038D01*
X022998Y013970D01*
X023175Y013970D01*
X023339Y014038D01*
X023464Y014163D01*
X023532Y014327D01*
X023532Y014504D01*
X023464Y014668D01*
X023339Y014793D01*
X023175Y014861D01*
X022952Y014842D02*
X022222Y014842D01*
X022389Y014743D02*
X022784Y014743D01*
X022700Y014645D02*
X022474Y014645D01*
X022515Y014546D02*
X022659Y014546D01*
X022641Y014448D02*
X022532Y014448D01*
X022532Y014349D02*
X022641Y014349D01*
X022673Y014251D02*
X022500Y014251D01*
X022453Y014152D02*
X022720Y014152D01*
X022819Y014054D02*
X022354Y014054D01*
X022287Y013955D02*
X024890Y013955D01*
X024837Y013857D02*
X022287Y013857D01*
X022287Y013758D02*
X025237Y013758D01*
X025237Y013857D02*
X025337Y013857D01*
X025337Y013766D02*
X025337Y014166D01*
X025473Y014166D01*
X025737Y013902D01*
X025737Y013766D01*
X025337Y013766D01*
X025337Y013758D02*
X025837Y013758D01*
X025837Y013660D02*
X025737Y013660D01*
X025737Y013561D02*
X025837Y013561D01*
X025837Y013857D02*
X025737Y013857D01*
X025683Y013955D02*
X025890Y013955D01*
X025988Y014054D02*
X025585Y014054D01*
X025486Y014152D02*
X026087Y014152D01*
X026059Y014251D02*
X024500Y014251D01*
X024532Y014349D02*
X025960Y014349D01*
X025862Y014448D02*
X024532Y014448D01*
X024515Y014546D02*
X025763Y014546D01*
X025665Y014645D02*
X024474Y014645D01*
X024389Y014743D02*
X025566Y014743D01*
X025949Y015137D02*
X026027Y015137D01*
X026047Y015039D02*
X027859Y015039D01*
X026838Y013964D02*
X024677Y016126D01*
X024594Y015926D02*
X024513Y015926D01*
X024537Y015902D01*
X024537Y015766D01*
X024137Y015766D01*
X024137Y015666D01*
X024537Y015666D01*
X024537Y015529D01*
X024385Y015378D01*
X025114Y015378D01*
X025116Y015380D01*
X025141Y015379D01*
X024594Y015926D01*
X024595Y015925D02*
X024513Y015925D01*
X024537Y015827D02*
X024693Y015827D01*
X024792Y015728D02*
X024137Y015728D01*
X024037Y015728D02*
X023532Y015728D01*
X023532Y015804D02*
X023532Y015627D01*
X023510Y015575D01*
X023707Y015378D01*
X023788Y015378D01*
X023637Y015529D01*
X023637Y015666D01*
X024037Y015666D01*
X024037Y015766D01*
X023637Y015766D01*
X023637Y015902D01*
X023660Y015926D01*
X023482Y015926D01*
X023532Y015804D01*
X023523Y015827D02*
X023637Y015827D01*
X023660Y015925D02*
X023482Y015925D01*
X023532Y015630D02*
X023637Y015630D01*
X023637Y015531D02*
X023554Y015531D01*
X023652Y015433D02*
X023733Y015433D01*
X023624Y015178D02*
X025194Y015178D01*
X025297Y015176D01*
X025087Y015433D02*
X024440Y015433D01*
X024537Y015531D02*
X024989Y015531D01*
X024890Y015630D02*
X024537Y015630D01*
X023624Y015178D02*
X023087Y015716D01*
X023389Y014743D02*
X023784Y014743D01*
X023700Y014645D02*
X023474Y014645D01*
X023515Y014546D02*
X023659Y014546D01*
X023641Y014448D02*
X023532Y014448D01*
X023532Y014349D02*
X023641Y014349D01*
X023673Y014251D02*
X023500Y014251D01*
X023453Y014152D02*
X023720Y014152D01*
X023819Y014054D02*
X023354Y014054D01*
X022951Y013463D02*
X022287Y013463D01*
X022287Y013561D02*
X024837Y013561D01*
X024837Y013660D02*
X022287Y013660D01*
X022287Y013364D02*
X022852Y013364D01*
X022754Y013266D02*
X022287Y013266D01*
X022287Y013167D02*
X022655Y013167D01*
X022557Y013069D02*
X022287Y013069D01*
X022287Y012970D02*
X022487Y012970D01*
X022487Y012872D02*
X022287Y012872D01*
X022270Y012773D02*
X022408Y012773D01*
X022362Y012675D02*
X022172Y012675D01*
X022073Y012576D02*
X022362Y012576D01*
X022362Y012478D02*
X021975Y012478D01*
X021876Y012379D02*
X022267Y012379D01*
X022169Y012281D02*
X021778Y012281D01*
X021656Y011992D02*
X022163Y011992D01*
X022687Y012516D01*
X022687Y012916D01*
X023037Y013266D01*
X025837Y013266D01*
X026287Y013716D01*
X026838Y013964D02*
X026838Y010647D01*
X026407Y010216D01*
X023987Y010216D01*
X023517Y009746D01*
X022083Y009746D01*
X022002Y009827D01*
X021656Y009827D01*
X022042Y009546D02*
X022042Y009446D01*
X024128Y009446D01*
X024131Y009449D01*
X024232Y009491D01*
X024341Y009491D01*
X024442Y009449D01*
X024520Y009371D01*
X024562Y009270D01*
X024562Y009161D01*
X024527Y009078D01*
X024595Y009078D01*
X024926Y009409D01*
X024964Y009409D01*
X024909Y009463D01*
X024841Y009627D01*
X024841Y009804D01*
X024909Y009968D01*
X024957Y010016D01*
X024069Y010016D01*
X023717Y009663D01*
X023717Y009663D01*
X023599Y009546D01*
X022042Y009546D01*
X022042Y009523D02*
X024885Y009523D01*
X024844Y009621D02*
X023675Y009621D01*
X023773Y009720D02*
X024841Y009720D01*
X024847Y009818D02*
X023872Y009818D01*
X023970Y009917D02*
X024888Y009917D01*
X024956Y010015D02*
X024069Y010015D01*
X023700Y010212D02*
X023194Y010212D01*
X023194Y010114D02*
X023194Y011491D01*
X023249Y011491D01*
X023249Y011778D01*
X023324Y011778D01*
X023324Y011491D01*
X023443Y011491D01*
X023493Y011504D01*
X023537Y011529D01*
X023573Y011565D01*
X023598Y011610D01*
X023612Y011659D01*
X023612Y011778D01*
X023324Y011778D01*
X023324Y011853D01*
X023249Y011853D01*
X023249Y012141D01*
X023194Y012141D01*
X023194Y012191D01*
X023249Y012191D01*
X023249Y012478D01*
X023324Y012478D01*
X023324Y012191D01*
X023443Y012191D01*
X023493Y012204D01*
X023537Y012229D01*
X023573Y012265D01*
X023598Y012310D01*
X023612Y012359D01*
X023612Y012478D01*
X023324Y012478D01*
X023324Y012553D01*
X023249Y012553D01*
X023249Y012830D01*
X023274Y012854D01*
X024841Y012854D01*
X024841Y012406D01*
X024095Y012406D01*
X024061Y012439D01*
X023960Y012481D01*
X023851Y012481D01*
X023750Y012439D01*
X023672Y012362D01*
X023631Y012261D01*
X023631Y012151D01*
X023672Y012050D01*
X023750Y011973D01*
X023851Y011931D01*
X023960Y011931D01*
X024061Y011973D01*
X024095Y012006D01*
X024947Y012006D01*
X024909Y011968D01*
X024841Y011804D01*
X024841Y011627D01*
X024909Y011463D01*
X025034Y011338D01*
X025198Y011270D01*
X025375Y011270D01*
X025539Y011338D01*
X025664Y011463D01*
X025732Y011627D01*
X025732Y011804D01*
X025664Y011968D01*
X025626Y012006D01*
X025713Y012006D01*
X025863Y011856D01*
X025841Y011804D01*
X025841Y011627D01*
X025909Y011463D01*
X026034Y011338D01*
X026198Y011270D01*
X026375Y011270D01*
X026539Y011338D01*
X026638Y011438D01*
X026638Y010994D01*
X026539Y011093D01*
X026375Y011161D01*
X026198Y011161D01*
X026034Y011093D01*
X025909Y010968D01*
X025841Y010804D01*
X025841Y010627D01*
X025909Y010463D01*
X025957Y010416D01*
X025616Y010416D01*
X025664Y010463D01*
X025732Y010627D01*
X025732Y010804D01*
X025664Y010968D01*
X025539Y011093D01*
X025375Y011161D01*
X025198Y011161D01*
X025034Y011093D01*
X024909Y010968D01*
X024841Y010804D01*
X024841Y010627D01*
X024909Y010463D01*
X024957Y010416D01*
X023904Y010416D01*
X023787Y010298D01*
X023434Y009946D01*
X023026Y009946D01*
X023194Y010114D01*
X023602Y010114D01*
X023503Y010015D02*
X023095Y010015D01*
X023194Y010311D02*
X023799Y010311D01*
X023897Y010409D02*
X023194Y010409D01*
X023194Y010508D02*
X024891Y010508D01*
X024850Y010606D02*
X023194Y010606D01*
X023194Y010705D02*
X024841Y010705D01*
X024841Y010803D02*
X023194Y010803D01*
X023194Y010902D02*
X024882Y010902D01*
X024941Y011000D02*
X023194Y011000D01*
X023194Y011099D02*
X025048Y011099D01*
X025137Y011296D02*
X023194Y011296D01*
X023194Y011394D02*
X024978Y011394D01*
X024897Y011493D02*
X023451Y011493D01*
X023324Y011493D02*
X023249Y011493D01*
X023249Y011591D02*
X023324Y011591D01*
X023324Y011690D02*
X023249Y011690D01*
X023324Y011788D02*
X024841Y011788D01*
X024841Y011690D02*
X023612Y011690D01*
X023588Y011591D02*
X024856Y011591D01*
X024875Y011887D02*
X023612Y011887D01*
X023612Y011853D02*
X023612Y011972D01*
X023598Y012022D01*
X023573Y012066D01*
X023537Y012102D01*
X023493Y012127D01*
X023443Y012141D01*
X023324Y012141D01*
X023324Y011853D01*
X023612Y011853D01*
X023608Y011985D02*
X023738Y011985D01*
X023659Y012084D02*
X023555Y012084D01*
X023631Y012182D02*
X023194Y012182D01*
X023249Y012084D02*
X023324Y012084D01*
X023324Y011985D02*
X023249Y011985D01*
X023249Y011887D02*
X023324Y011887D01*
X023324Y012281D02*
X023249Y012281D01*
X023249Y012379D02*
X023324Y012379D01*
X023324Y012478D02*
X023249Y012478D01*
X023249Y012576D02*
X023324Y012576D01*
X023324Y012553D02*
X023324Y012841D01*
X023443Y012841D01*
X023493Y012827D01*
X023537Y012802D01*
X023573Y012766D01*
X023598Y012722D01*
X023612Y012672D01*
X023612Y012553D01*
X023324Y012553D01*
X023324Y012675D02*
X023249Y012675D01*
X023249Y012773D02*
X023324Y012773D01*
X023566Y012773D02*
X024841Y012773D01*
X024841Y012675D02*
X023611Y012675D01*
X023612Y012576D02*
X024841Y012576D01*
X024841Y012478D02*
X023968Y012478D01*
X023843Y012478D02*
X023612Y012478D01*
X023612Y012379D02*
X023690Y012379D01*
X023639Y012281D02*
X023582Y012281D01*
X023906Y012206D02*
X025796Y012206D01*
X026287Y011716D01*
X025856Y011591D02*
X025717Y011591D01*
X025732Y011690D02*
X025841Y011690D01*
X025841Y011788D02*
X025732Y011788D01*
X025698Y011887D02*
X025833Y011887D01*
X025734Y011985D02*
X025647Y011985D01*
X024926Y011985D02*
X024074Y011985D01*
X023194Y011197D02*
X026638Y011197D01*
X026638Y011099D02*
X026525Y011099D01*
X026632Y011000D02*
X026638Y011000D01*
X026638Y011296D02*
X026436Y011296D01*
X026595Y011394D02*
X026638Y011394D01*
X026137Y011296D02*
X025436Y011296D01*
X025595Y011394D02*
X025978Y011394D01*
X025897Y011493D02*
X025676Y011493D01*
X025525Y011099D02*
X026048Y011099D01*
X025941Y011000D02*
X025632Y011000D01*
X025692Y010902D02*
X025882Y010902D01*
X025841Y010803D02*
X025732Y010803D01*
X025732Y010705D02*
X025841Y010705D01*
X025850Y010606D02*
X025723Y010606D01*
X025682Y010508D02*
X025891Y010508D01*
X026287Y009716D02*
X025780Y009209D01*
X025009Y009209D01*
X024678Y008878D01*
X020375Y008878D01*
X019661Y008786D02*
X019392Y008517D01*
X019392Y008153D01*
X019196Y008153D02*
X019196Y008725D01*
X019256Y008786D01*
X018999Y007903D02*
X020728Y006175D01*
X021294Y006175D01*
X021687Y007216D02*
X021452Y007416D01*
X020987Y007416D01*
X020574Y007829D01*
X020574Y008153D01*
X020770Y008153D02*
X020770Y007932D01*
X020887Y007816D01*
X021452Y007816D01*
X021652Y008016D01*
X021687Y008016D01*
X021652Y007950D01*
X022324Y007978D02*
X022324Y008053D01*
X022612Y008053D01*
X022612Y008172D01*
X022598Y008222D01*
X022573Y008266D01*
X022537Y008302D01*
X022523Y008310D01*
X024410Y008310D01*
X024863Y007856D01*
X024841Y007804D01*
X024841Y007627D01*
X024909Y007463D01*
X025034Y007338D01*
X025198Y007270D01*
X025206Y007270D01*
X025032Y007096D01*
X022612Y007096D01*
X022612Y007178D01*
X022324Y007178D01*
X022324Y007253D01*
X022612Y007253D01*
X022612Y007372D01*
X022603Y007406D01*
X023394Y007406D01*
X023414Y007386D01*
X023545Y007386D01*
X023556Y007359D01*
X023637Y007278D01*
X023744Y007234D01*
X023859Y007234D01*
X023966Y007278D01*
X024047Y007359D01*
X024091Y007466D01*
X024091Y007581D01*
X024047Y007688D01*
X023966Y007769D01*
X023859Y007814D01*
X023837Y007814D01*
X023805Y007846D01*
X023414Y007846D01*
X023394Y007826D01*
X022603Y007826D01*
X022612Y007859D01*
X022612Y007978D01*
X022324Y007978D01*
X022324Y008045D02*
X024674Y008045D01*
X024576Y008144D02*
X022612Y008144D01*
X022587Y008242D02*
X024477Y008242D01*
X024773Y007947D02*
X022612Y007947D01*
X022609Y007848D02*
X024860Y007848D01*
X024841Y007750D02*
X023986Y007750D01*
X024063Y007651D02*
X024841Y007651D01*
X024872Y007553D02*
X024091Y007553D01*
X024087Y007454D02*
X024918Y007454D01*
X025017Y007356D02*
X024044Y007356D01*
X023916Y007257D02*
X025193Y007257D01*
X025094Y007159D02*
X022612Y007159D01*
X022612Y007257D02*
X023687Y007257D01*
X023559Y007356D02*
X022612Y007356D01*
X023357Y006075D02*
X023810Y006075D01*
X023711Y005977D02*
X023455Y005977D01*
X023501Y005878D02*
X023637Y005878D01*
X023637Y005780D02*
X023532Y005780D01*
X023532Y005681D02*
X024037Y005681D01*
X024037Y005583D02*
X024137Y005583D01*
X024137Y005681D02*
X024670Y005681D01*
X024572Y005583D02*
X024537Y005583D01*
X024537Y005766D02*
X024137Y005766D01*
X024137Y006166D01*
X024273Y006166D01*
X024537Y005902D01*
X024537Y005766D01*
X024537Y005780D02*
X024769Y005780D01*
X024867Y005878D02*
X024537Y005878D01*
X024462Y005977D02*
X024966Y005977D01*
X025064Y006075D02*
X024364Y006075D01*
X024137Y006075D02*
X024037Y006075D01*
X024037Y005977D02*
X024137Y005977D01*
X024137Y005878D02*
X024037Y005878D01*
X024037Y005780D02*
X024137Y005780D01*
X024137Y005484D02*
X024037Y005484D01*
X024037Y005386D02*
X024137Y005386D01*
X024137Y005287D02*
X024037Y005287D01*
X024295Y005287D02*
X024417Y005287D01*
X024417Y005189D02*
X022896Y005189D01*
X023386Y005386D02*
X023780Y005386D01*
X023682Y005484D02*
X023473Y005484D01*
X023513Y005583D02*
X023637Y005583D01*
X024393Y005386D02*
X024423Y005386D01*
X024417Y005090D02*
X024352Y005090D01*
X024957Y005090D02*
X025110Y005090D01*
X025102Y004992D02*
X024957Y004992D01*
X024957Y004893D02*
X025103Y004893D01*
X025103Y004795D02*
X024957Y004795D01*
X024957Y004696D02*
X025103Y004696D01*
X025103Y004598D02*
X024957Y004598D01*
X024931Y004499D02*
X025103Y004499D01*
X025103Y004401D02*
X024853Y004401D01*
X024755Y004302D02*
X025103Y004302D01*
X025103Y004204D02*
X024656Y004204D01*
X024558Y004105D02*
X025103Y004105D01*
X025103Y004007D02*
X024459Y004007D01*
X024361Y003908D02*
X025103Y003908D01*
X025037Y003966D02*
X024887Y003816D01*
X025037Y003966D02*
X025037Y005166D01*
X025137Y005266D01*
X025137Y005416D01*
X026137Y006416D01*
X026487Y006416D01*
X026320Y006568D02*
X027859Y006568D01*
X027859Y006666D02*
X026419Y006666D01*
X026222Y006469D02*
X027859Y006469D01*
X027859Y006371D02*
X026123Y006371D01*
X026070Y006272D02*
X026025Y006272D01*
X025161Y005386D02*
X025138Y005386D01*
X025139Y005287D02*
X025040Y005287D01*
X025117Y005189D02*
X024957Y005189D01*
X025103Y003810D02*
X024262Y003810D01*
X025103Y003711D02*
X014587Y003711D01*
X014587Y003613D02*
X025103Y003613D01*
X018704Y004476D02*
X018469Y004476D01*
X018532Y004627D01*
X018532Y004804D01*
X018464Y004968D01*
X018406Y005026D01*
X018508Y005026D01*
X018667Y004866D01*
X018641Y004804D01*
X018641Y004627D01*
X018704Y004476D01*
X018694Y004499D02*
X018479Y004499D01*
X018520Y004598D02*
X018654Y004598D01*
X018641Y004696D02*
X018532Y004696D01*
X018532Y004795D02*
X018641Y004795D01*
X018640Y004893D02*
X018495Y004893D01*
X018542Y004992D02*
X018440Y004992D01*
X017537Y004616D02*
X017537Y007466D01*
X017467Y007436D01*
X017537Y007466D02*
X017537Y008356D01*
X016787Y007716D02*
X015787Y007716D01*
X015058Y007206D02*
X017337Y007206D01*
X017337Y006094D01*
X017175Y006161D01*
X016998Y006161D01*
X016834Y006093D01*
X016709Y005968D01*
X016641Y005804D01*
X016641Y005627D01*
X016709Y005463D01*
X016834Y005338D01*
X016998Y005270D01*
X017175Y005270D01*
X017337Y005337D01*
X017337Y005094D01*
X017175Y005161D01*
X016998Y005161D01*
X016834Y005093D01*
X016709Y004968D01*
X016641Y004804D01*
X016641Y004627D01*
X016709Y004463D01*
X016834Y004338D01*
X016961Y004286D01*
X016459Y004286D01*
X016532Y004358D01*
X016532Y005073D01*
X016444Y005161D01*
X016275Y005161D01*
X016275Y005273D01*
X016262Y005306D01*
X016339Y005338D01*
X016464Y005463D01*
X016532Y005627D01*
X016532Y005804D01*
X016464Y005968D01*
X016339Y006093D01*
X016175Y006161D01*
X015998Y006161D01*
X015834Y006093D01*
X015709Y005968D01*
X015641Y005804D01*
X015641Y005627D01*
X015709Y005463D01*
X015747Y005426D01*
X015433Y005426D01*
X015537Y005529D01*
X015537Y005666D01*
X015137Y005666D01*
X015137Y005766D01*
X015037Y005766D01*
X015037Y006166D01*
X014900Y006166D01*
X014637Y005902D01*
X014637Y005766D01*
X015037Y005766D01*
X015037Y005666D01*
X014637Y005666D01*
X014637Y005529D01*
X014768Y005397D01*
X014700Y005426D01*
X013844Y005426D01*
X013847Y005429D01*
X015058Y006640D01*
X015058Y007206D01*
X015058Y007159D02*
X017337Y007159D01*
X017337Y007060D02*
X015058Y007060D01*
X015058Y006962D02*
X017337Y006962D01*
X017337Y006863D02*
X015058Y006863D01*
X015058Y006765D02*
X017337Y006765D01*
X017337Y006666D02*
X015058Y006666D01*
X014986Y006568D02*
X017337Y006568D01*
X017337Y006469D02*
X014887Y006469D01*
X014789Y006371D02*
X017337Y006371D01*
X017337Y006272D02*
X014690Y006272D01*
X014592Y006174D02*
X017337Y006174D01*
X016816Y006075D02*
X016357Y006075D01*
X016455Y005977D02*
X016718Y005977D01*
X016672Y005878D02*
X016501Y005878D01*
X016532Y005780D02*
X016641Y005780D01*
X016641Y005681D02*
X016532Y005681D01*
X016513Y005583D02*
X016660Y005583D01*
X016701Y005484D02*
X016473Y005484D01*
X016386Y005386D02*
X016787Y005386D01*
X016958Y005287D02*
X016270Y005287D01*
X016275Y005189D02*
X017337Y005189D01*
X017337Y005287D02*
X017216Y005287D01*
X016831Y005090D02*
X016515Y005090D01*
X016532Y004992D02*
X016733Y004992D01*
X016678Y004893D02*
X016532Y004893D01*
X016532Y004795D02*
X016641Y004795D01*
X016641Y004696D02*
X016532Y004696D01*
X016532Y004598D02*
X016654Y004598D01*
X016694Y004499D02*
X016532Y004499D01*
X016532Y004401D02*
X016772Y004401D01*
X016921Y004302D02*
X016476Y004302D01*
X015411Y003810D02*
X014587Y003810D01*
X014587Y003908D02*
X015312Y003908D01*
X015214Y004007D02*
X014558Y004007D01*
X014864Y004302D02*
X013962Y004302D01*
X013962Y004204D02*
X015017Y004204D01*
X015115Y004105D02*
X013913Y004105D01*
X013962Y004401D02*
X014765Y004401D01*
X014667Y004499D02*
X013962Y004499D01*
X013962Y004696D02*
X014637Y004696D01*
X014637Y004598D02*
X013587Y004598D01*
X013587Y004499D02*
X013487Y004499D01*
X013487Y004401D02*
X013587Y004401D01*
X013587Y004302D02*
X013487Y004302D01*
X013487Y004204D02*
X013587Y004204D01*
X013587Y004105D02*
X013487Y004105D01*
X013466Y004007D02*
X013615Y004007D01*
X013587Y003908D02*
X013476Y003908D01*
X013460Y003810D02*
X013587Y003810D01*
X013587Y003711D02*
X013411Y003711D01*
X013289Y003613D02*
X013587Y003613D01*
X012990Y003613D02*
X012383Y003613D01*
X012506Y003711D02*
X012867Y003711D01*
X012819Y003810D02*
X012555Y003810D01*
X012571Y003908D02*
X012802Y003908D01*
X012812Y004007D02*
X012561Y004007D01*
X012520Y004105D02*
X012853Y004105D01*
X012954Y004204D02*
X012419Y004204D01*
X012262Y004302D02*
X013112Y004302D01*
X013112Y004401D02*
X012262Y004401D01*
X012262Y004499D02*
X013112Y004499D01*
X013112Y004696D02*
X012262Y004696D01*
X012262Y004598D02*
X013487Y004598D01*
X013112Y004795D02*
X012262Y004795D01*
X011412Y004302D02*
X010262Y004302D01*
X010262Y004204D02*
X011412Y004204D01*
X011460Y004105D02*
X010213Y004105D01*
X010262Y004401D02*
X011140Y004401D01*
X010989Y004499D02*
X010262Y004499D01*
X010262Y004598D02*
X010930Y004598D01*
X010909Y004696D02*
X010262Y004696D01*
X010262Y004795D02*
X010914Y004795D01*
X011758Y004007D02*
X011907Y004007D01*
X011897Y003908D02*
X011787Y003908D01*
X011787Y003810D02*
X011913Y003810D01*
X011962Y003711D02*
X011787Y003711D01*
X011787Y003613D02*
X012085Y003613D01*
X009915Y004007D02*
X009766Y004007D01*
X009776Y003908D02*
X009887Y003908D01*
X009887Y003810D02*
X009760Y003810D01*
X009711Y003711D02*
X009887Y003711D01*
X009887Y003613D02*
X009589Y003613D01*
X009290Y003613D02*
X008683Y003613D01*
X008806Y003711D02*
X009167Y003711D01*
X009119Y003810D02*
X008855Y003810D01*
X008871Y003908D02*
X009102Y003908D01*
X009112Y004007D02*
X008861Y004007D01*
X008820Y004105D02*
X009153Y004105D01*
X009254Y004204D02*
X008719Y004204D01*
X008562Y004302D02*
X009412Y004302D01*
X009144Y004401D02*
X008719Y004401D01*
X008956Y004499D02*
X008967Y004499D01*
X008207Y004007D02*
X008058Y004007D01*
X008087Y003908D02*
X008197Y003908D01*
X008213Y003810D02*
X008087Y003810D01*
X008087Y003711D02*
X008262Y003711D01*
X008385Y003613D02*
X008087Y003613D01*
X007760Y004105D02*
X007293Y004105D01*
X007293Y004204D02*
X007712Y004204D01*
X007712Y004302D02*
X007293Y004302D01*
X007293Y004401D02*
X007712Y004401D01*
X007712Y004499D02*
X007293Y004499D01*
X007293Y004598D02*
X007712Y004598D01*
X007712Y004696D02*
X007293Y004696D01*
X007293Y004795D02*
X007712Y004795D01*
X007712Y004893D02*
X007293Y004893D01*
X007293Y004992D02*
X007725Y004992D01*
X007780Y005090D02*
X007286Y005090D01*
X007279Y005189D02*
X007682Y005189D01*
X007583Y005287D02*
X007256Y005287D01*
X007235Y005386D02*
X007485Y005386D01*
X007386Y005484D02*
X007195Y005484D01*
X007158Y005583D02*
X007288Y005583D01*
X007189Y005681D02*
X007103Y005681D01*
X007091Y005780D02*
X007030Y005780D01*
X006992Y005878D02*
X006956Y005878D01*
X006894Y005977D02*
X006860Y005977D01*
X006795Y006075D02*
X006730Y006075D01*
X006697Y006174D02*
X006567Y006174D01*
X006598Y006272D02*
X006325Y006272D01*
X006500Y006371D02*
X004537Y006371D01*
X004537Y006469D02*
X006401Y006469D01*
X006303Y006568D02*
X005744Y006568D01*
X005761Y006666D02*
X006204Y006666D01*
X006106Y006765D02*
X005761Y006765D01*
X005761Y006863D02*
X006007Y006863D01*
X005909Y006962D02*
X005761Y006962D01*
X005761Y007060D02*
X005810Y007060D01*
X006377Y007257D02*
X006992Y007257D01*
X007025Y007291D02*
X006912Y007177D01*
X006912Y006754D01*
X007025Y006641D01*
X007448Y006641D01*
X007537Y006729D01*
X007586Y006680D01*
X007576Y006617D01*
X007587Y006602D01*
X007587Y006583D01*
X007633Y006536D01*
X007672Y006482D01*
X007691Y006479D01*
X008287Y005883D01*
X008388Y005782D01*
X008387Y005778D01*
X008387Y005641D01*
X008662Y005641D01*
X008662Y005591D01*
X008387Y005591D01*
X008387Y005453D01*
X008394Y005426D01*
X008208Y005426D01*
X006157Y007477D01*
X006157Y007839D01*
X006387Y007839D01*
X006706Y007839D01*
X006744Y007849D01*
X006778Y007869D01*
X006806Y007897D01*
X006826Y007931D01*
X006836Y007969D01*
X006836Y008064D01*
X006836Y008158D01*
X006831Y008178D01*
X006836Y008183D01*
X006836Y008376D01*
X007129Y008376D01*
X007619Y008866D01*
X007737Y008983D01*
X007737Y009091D01*
X007779Y009091D01*
X008037Y008833D01*
X008154Y008716D01*
X009519Y008716D01*
X009659Y008855D01*
X009681Y008832D01*
X009782Y008791D01*
X009891Y008791D01*
X009992Y008832D01*
X010070Y008910D01*
X010112Y009011D01*
X010112Y009049D01*
X010192Y009082D01*
X010270Y009160D01*
X010312Y009261D01*
X010312Y009370D01*
X010270Y009471D01*
X010192Y009549D01*
X010091Y009591D01*
X009982Y009591D01*
X009881Y009549D01*
X009848Y009516D01*
X009512Y009516D01*
X009512Y009627D01*
X009398Y009741D01*
X008975Y009741D01*
X008887Y009652D01*
X008798Y009741D01*
X008747Y009741D01*
X008745Y009750D01*
X008638Y009827D01*
X008497Y009968D01*
X008497Y010268D01*
X008479Y010285D01*
X008486Y010298D01*
X008497Y010336D01*
X008497Y010461D01*
X008092Y010461D01*
X008092Y010471D01*
X008497Y010471D01*
X008497Y010595D01*
X008486Y010634D01*
X008479Y010646D01*
X008497Y010663D01*
X008497Y010681D01*
X008612Y010681D01*
X008612Y010504D01*
X008725Y010391D01*
X009148Y010391D01*
X009237Y010479D01*
X009325Y010391D01*
X009748Y010391D01*
X009783Y010426D01*
X009809Y010426D01*
X009920Y010315D01*
X009881Y010299D01*
X009803Y010221D01*
X009762Y010120D01*
X009762Y010011D01*
X009803Y009910D01*
X009881Y009832D01*
X009982Y009791D01*
X010043Y009791D01*
X011574Y008260D01*
X011685Y008149D01*
X014121Y008149D01*
X014081Y008053D01*
X014081Y008007D01*
X014057Y007983D01*
X014057Y007954D01*
X014041Y007929D01*
X014057Y007862D01*
X014057Y007842D01*
X013962Y007747D01*
X013962Y007324D01*
X014042Y007244D01*
X014042Y006618D01*
X013500Y006076D01*
X012541Y006076D01*
X012472Y006144D01*
X012352Y006194D01*
X012221Y006194D01*
X012101Y006144D01*
X012008Y006051D01*
X011959Y005931D01*
X011959Y005800D01*
X011989Y005726D01*
X011641Y005726D01*
X011572Y005794D01*
X011452Y005844D01*
X011321Y005844D01*
X011201Y005794D01*
X011127Y005720D01*
X011098Y005790D01*
X011047Y005842D01*
X011047Y006856D01*
X011125Y006856D01*
X011125Y006854D01*
X011238Y006741D01*
X011661Y006741D01*
X011775Y006854D01*
X011775Y007277D01*
X011682Y007369D01*
X011700Y007379D01*
X011736Y007415D01*
X011761Y007460D01*
X011775Y007509D01*
X011775Y007628D01*
X011487Y007628D01*
X011487Y007703D01*
X011412Y007703D01*
X011412Y007628D01*
X011125Y007628D01*
X011125Y007509D01*
X011138Y007460D01*
X011163Y007415D01*
X011199Y007379D01*
X011217Y007369D01*
X011125Y007277D01*
X011125Y007276D01*
X010942Y007276D01*
X010942Y007277D01*
X010853Y007366D01*
X010942Y007454D01*
X010942Y007877D01*
X010828Y007991D01*
X010589Y007991D01*
X010404Y008176D01*
X009450Y008176D01*
X009327Y008053D01*
X009028Y007754D01*
X008871Y007911D01*
X008502Y007911D01*
X008267Y007676D01*
X007754Y007676D01*
X007668Y007677D01*
X007667Y007676D01*
X007665Y007676D01*
X007605Y007615D01*
X007270Y007291D01*
X007025Y007291D01*
X006912Y007159D02*
X006475Y007159D01*
X006574Y007060D02*
X006912Y007060D01*
X006912Y006962D02*
X006672Y006962D01*
X006771Y006863D02*
X006912Y006863D01*
X006912Y006765D02*
X006869Y006765D01*
X006968Y006666D02*
X007000Y006666D01*
X007066Y006568D02*
X007602Y006568D01*
X007584Y006666D02*
X007474Y006666D01*
X007700Y006469D02*
X007165Y006469D01*
X007263Y006371D02*
X007799Y006371D01*
X007897Y006272D02*
X007362Y006272D01*
X007460Y006174D02*
X007996Y006174D01*
X008094Y006075D02*
X007559Y006075D01*
X007657Y005977D02*
X008193Y005977D01*
X008291Y005878D02*
X007756Y005878D01*
X007854Y005780D02*
X008387Y005780D01*
X008387Y005681D02*
X007953Y005681D01*
X008051Y005583D02*
X008387Y005583D01*
X008387Y005484D02*
X008150Y005484D01*
X008712Y005591D02*
X008712Y005641D01*
X008979Y005641D01*
X008987Y005633D01*
X008987Y005426D01*
X008979Y005426D01*
X008987Y005453D01*
X008987Y005591D01*
X008712Y005591D01*
X008987Y005583D02*
X008987Y005583D01*
X008987Y005484D02*
X008987Y005484D01*
X009287Y005616D02*
X008937Y005966D01*
X008487Y005966D01*
X007787Y006666D01*
X007837Y006966D01*
X007439Y007454D02*
X006180Y007454D01*
X006157Y007553D02*
X007540Y007553D01*
X007640Y007651D02*
X006157Y007651D01*
X006157Y007750D02*
X008341Y007750D01*
X008439Y007848D02*
X006740Y007848D01*
X006830Y007947D02*
X009221Y007947D01*
X009319Y008045D02*
X006836Y008045D01*
X006836Y008064D02*
X006387Y008064D01*
X006836Y008064D01*
X006836Y008144D02*
X009418Y008144D01*
X009122Y007848D02*
X008934Y007848D01*
X007390Y008636D02*
X011197Y008636D01*
X011099Y008735D02*
X009538Y008735D01*
X009637Y008833D02*
X009680Y008833D01*
X009587Y009066D02*
X009437Y008916D01*
X008237Y008916D01*
X007821Y009331D01*
X007771Y009331D01*
X007737Y009030D02*
X007839Y009030D01*
X007938Y008932D02*
X007685Y008932D01*
X007587Y008833D02*
X008036Y008833D01*
X008135Y008735D02*
X007488Y008735D01*
X007291Y008538D02*
X011296Y008538D01*
X011394Y008439D02*
X007193Y008439D01*
X007047Y008576D02*
X007537Y009066D01*
X007537Y009766D01*
X007887Y010116D01*
X008087Y010096D02*
X008552Y009630D01*
X008651Y009818D02*
X009915Y009818D01*
X009801Y009917D02*
X008548Y009917D01*
X008497Y010015D02*
X009762Y010015D01*
X009762Y010114D02*
X008497Y010114D01*
X008497Y010212D02*
X009800Y010212D01*
X009910Y010311D02*
X008490Y010311D01*
X008497Y010409D02*
X008707Y010409D01*
X008612Y010508D02*
X008497Y010508D01*
X008494Y010606D02*
X008612Y010606D01*
X008737Y010881D02*
X008232Y010881D01*
X008087Y010836D01*
X007887Y011036D01*
X007887Y012366D01*
X007181Y013072D01*
X006387Y013072D01*
X006387Y012816D02*
X007137Y012816D01*
X007637Y012316D01*
X007637Y011650D01*
X007587Y011566D01*
X007587Y011336D01*
X007087Y010836D01*
X007064Y011096D02*
X006764Y011096D01*
X006677Y011008D01*
X006677Y010666D01*
X006157Y010666D01*
X006157Y011369D01*
X006157Y012079D01*
X006387Y012079D01*
X006706Y012079D01*
X006744Y012089D01*
X006778Y012109D01*
X006806Y012137D01*
X006826Y012171D01*
X006836Y012209D01*
X006836Y012304D01*
X006836Y012360D01*
X006890Y012360D01*
X006916Y012334D01*
X006903Y012321D01*
X006862Y012220D01*
X006862Y012111D01*
X006903Y012010D01*
X006981Y011932D01*
X007082Y011891D01*
X007191Y011891D01*
X007292Y011932D01*
X007370Y012010D01*
X007412Y012111D01*
X007412Y012220D01*
X007385Y012284D01*
X007437Y012233D01*
X007437Y011891D01*
X007375Y011891D01*
X007262Y011777D01*
X007262Y011354D01*
X007292Y011324D01*
X007064Y011096D01*
X007067Y011099D02*
X006157Y011099D01*
X006157Y011197D02*
X007165Y011197D01*
X007264Y011296D02*
X006157Y011296D01*
X006157Y011394D02*
X007262Y011394D01*
X007262Y011493D02*
X006157Y011493D01*
X006157Y011591D02*
X007262Y011591D01*
X007262Y011690D02*
X006157Y011690D01*
X006157Y011788D02*
X007273Y011788D01*
X007371Y011887D02*
X006157Y011887D01*
X006157Y011985D02*
X006928Y011985D01*
X006873Y012084D02*
X006723Y012084D01*
X006829Y012182D02*
X006862Y012182D01*
X006836Y012281D02*
X006887Y012281D01*
X006836Y012304D02*
X006387Y012304D01*
X006836Y012304D01*
X006973Y012560D02*
X007137Y012396D01*
X007137Y012166D01*
X007387Y012281D02*
X007389Y012281D01*
X007412Y012182D02*
X007437Y012182D01*
X007437Y012084D02*
X007400Y012084D01*
X007437Y011985D02*
X007345Y011985D01*
X008087Y011985D02*
X012589Y011985D01*
X012344Y011887D02*
X008402Y011887D01*
X008501Y011788D02*
X010426Y011788D01*
X010547Y011788D02*
X012246Y011788D01*
X012246Y011690D02*
X010701Y011690D01*
X010753Y011591D02*
X011023Y011591D01*
X010942Y011493D02*
X010762Y011493D01*
X010734Y011394D02*
X010912Y011394D01*
X010834Y011296D02*
X010687Y011296D01*
X010687Y011197D02*
X010735Y011197D01*
X010737Y010916D02*
X011187Y011366D01*
X011432Y011493D02*
X012285Y011493D01*
X012246Y011591D02*
X011350Y011591D01*
X011462Y011394D02*
X012383Y011394D01*
X012729Y011394D02*
X013529Y011394D01*
X013573Y011493D02*
X012827Y011493D01*
X013462Y011296D02*
X011455Y011296D01*
X011407Y011197D02*
X013462Y011197D01*
X013462Y011099D02*
X011261Y011099D01*
X011104Y011000D02*
X013462Y011000D01*
X013464Y010902D02*
X011012Y010902D01*
X010988Y010803D02*
X013557Y010803D01*
X013557Y010705D02*
X010915Y010705D01*
X010876Y010606D02*
X013541Y010606D01*
X013033Y010508D02*
X010912Y010508D01*
X010911Y010409D02*
X012931Y010409D01*
X012826Y010311D02*
X010870Y010311D01*
X010808Y010212D02*
X012722Y010212D01*
X012618Y010114D02*
X010906Y010114D01*
X011005Y010015D02*
X012394Y010015D01*
X012296Y009917D02*
X011103Y009917D01*
X011202Y009818D02*
X012246Y009818D01*
X012246Y009720D02*
X011300Y009720D01*
X011399Y009621D02*
X012246Y009621D01*
X012333Y009523D02*
X011497Y009523D01*
X010902Y008932D02*
X010079Y008932D01*
X010112Y009030D02*
X010803Y009030D01*
X010705Y009129D02*
X010239Y009129D01*
X010298Y009227D02*
X010606Y009227D01*
X010508Y009326D02*
X010312Y009326D01*
X010289Y009424D02*
X010409Y009424D01*
X010311Y009523D02*
X010219Y009523D01*
X010212Y009621D02*
X009512Y009621D01*
X009512Y009523D02*
X009855Y009523D01*
X010037Y009316D02*
X009287Y009316D01*
X009187Y009416D01*
X009419Y009720D02*
X010114Y009720D01*
X009825Y010409D02*
X009767Y010409D01*
X009307Y010409D02*
X009167Y010409D01*
X008937Y010716D02*
X008737Y010881D01*
X008387Y011166D02*
X009737Y011166D01*
X009889Y011296D02*
X010287Y011296D01*
X010287Y011197D02*
X009974Y011197D01*
X010072Y011099D02*
X010287Y011099D01*
X010287Y011000D02*
X010171Y011000D01*
X010202Y010902D02*
X010287Y010902D01*
X010287Y010803D02*
X010217Y010803D01*
X010487Y010616D02*
X010637Y010466D01*
X010487Y010616D02*
X010487Y011516D01*
X010239Y011394D02*
X008512Y011394D01*
X008512Y011493D02*
X010212Y011493D01*
X010220Y011591D02*
X008512Y011591D01*
X008512Y011690D02*
X010272Y011690D01*
X010339Y012872D02*
X009412Y012872D01*
X009412Y012970D02*
X010218Y012970D01*
X010172Y013069D02*
X009412Y013069D01*
X009412Y013167D02*
X010159Y013167D01*
X010173Y013266D02*
X009373Y013266D01*
X009124Y013266D02*
X009049Y013266D01*
X009049Y013167D02*
X009124Y013167D01*
X009124Y013069D02*
X009049Y013069D01*
X009049Y012970D02*
X009124Y012970D01*
X009124Y012872D02*
X009049Y012872D01*
X009049Y012773D02*
X009124Y012773D01*
X009377Y012773D02*
X013553Y012773D01*
X013509Y012675D02*
X007860Y012675D01*
X007762Y012773D02*
X008193Y012773D01*
X008162Y012872D02*
X007663Y012872D01*
X007565Y012970D02*
X008162Y012970D01*
X008162Y013069D02*
X007466Y013069D01*
X007429Y013167D02*
X008162Y013167D01*
X008177Y013266D02*
X007527Y013266D01*
X007626Y013364D02*
X008177Y013364D01*
X008177Y013463D02*
X007724Y013463D01*
X007823Y013561D02*
X008177Y013561D01*
X008797Y013561D02*
X010257Y013561D01*
X010257Y013463D02*
X008797Y013463D01*
X008797Y013364D02*
X010221Y013364D01*
X010257Y013660D02*
X008797Y013660D01*
X008797Y013758D02*
X010257Y013758D01*
X010257Y013857D02*
X008783Y013857D01*
X008765Y013955D02*
X010257Y013955D01*
X009935Y014054D02*
X008863Y014054D01*
X008962Y014152D02*
X009883Y014152D01*
X009883Y014251D02*
X009060Y014251D01*
X009159Y014349D02*
X009883Y014349D01*
X009883Y014448D02*
X009257Y014448D01*
X009356Y014546D02*
X009883Y014546D01*
X009883Y014645D02*
X009454Y014645D01*
X009553Y014743D02*
X009883Y014743D01*
X009883Y014842D02*
X009650Y014842D01*
X009691Y014940D02*
X009883Y014940D01*
X009883Y015039D02*
X009697Y015039D01*
X009697Y015137D02*
X009883Y015137D01*
X009883Y015236D02*
X009697Y015236D01*
X009697Y015334D02*
X009883Y015334D01*
X009883Y015433D02*
X009697Y015433D01*
X009697Y015531D02*
X009883Y015531D01*
X009883Y015630D02*
X009697Y015630D01*
X009697Y015728D02*
X009885Y015728D01*
X009705Y015827D02*
X010659Y015827D01*
X010758Y015925D02*
X009715Y015925D01*
X009697Y016024D02*
X010920Y016024D01*
X011212Y015866D02*
X011212Y015566D01*
X011212Y015866D02*
X011662Y015866D01*
X011662Y015566D01*
X011212Y015566D01*
X011212Y015665D02*
X011662Y015665D01*
X011662Y015764D02*
X011212Y015764D01*
X011212Y015863D02*
X011662Y015863D01*
X011865Y016122D02*
X009644Y016122D01*
X009508Y016221D02*
X011838Y016221D01*
X011838Y016319D02*
X009337Y016319D01*
X009297Y016418D02*
X011879Y016418D01*
X011966Y016516D02*
X009209Y016516D01*
X009272Y016615D02*
X008822Y016615D01*
X008817Y016516D02*
X008483Y016516D01*
X008582Y016418D02*
X008729Y016418D01*
X008689Y016319D02*
X008680Y016319D01*
X008579Y015827D02*
X007996Y015827D01*
X007996Y015925D02*
X007896Y015925D01*
X007896Y015871D02*
X007896Y016266D01*
X007533Y016266D01*
X007495Y016256D01*
X007461Y016236D01*
X007433Y016209D01*
X007413Y016174D01*
X007403Y016136D01*
X007403Y015871D01*
X007896Y015871D01*
X007896Y015827D02*
X007162Y015827D01*
X007199Y015925D02*
X007403Y015925D01*
X007403Y016024D02*
X007237Y016024D01*
X007258Y016122D02*
X007403Y016122D01*
X007445Y016221D02*
X007280Y016221D01*
X007287Y016319D02*
X008086Y016319D01*
X007996Y016221D02*
X007896Y016221D01*
X007896Y016122D02*
X007996Y016122D01*
X007996Y016024D02*
X007896Y016024D01*
X007896Y015728D02*
X007996Y015728D01*
X007996Y015630D02*
X007896Y015630D01*
X007896Y015531D02*
X007996Y015531D01*
X007996Y015433D02*
X007896Y015433D01*
X007491Y015361D02*
X007403Y015273D01*
X007403Y014558D01*
X007491Y014470D01*
X008402Y014470D01*
X008490Y014558D01*
X008490Y015273D01*
X008402Y015361D01*
X007491Y015361D01*
X007464Y015334D02*
X006743Y015334D01*
X006875Y015433D02*
X007434Y015433D01*
X007403Y015531D02*
X006964Y015531D01*
X007038Y015630D02*
X007403Y015630D01*
X007403Y015728D02*
X007112Y015728D01*
X007403Y015236D02*
X006586Y015236D01*
X006369Y015137D02*
X007403Y015137D01*
X007403Y015039D02*
X004537Y015039D01*
X004537Y014940D02*
X007403Y014940D01*
X007403Y014842D02*
X005726Y014842D01*
X005761Y014743D02*
X007403Y014743D01*
X007403Y014645D02*
X005761Y014645D01*
X005761Y014546D02*
X007415Y014546D01*
X007483Y014448D02*
X005761Y014448D01*
X005761Y014349D02*
X007403Y014349D01*
X007403Y014251D02*
X005761Y014251D01*
X005761Y014152D02*
X007403Y014152D01*
X007403Y014054D02*
X005761Y014054D01*
X005761Y013955D02*
X007403Y013955D01*
X007403Y013857D02*
X005683Y013857D01*
X005547Y013758D02*
X007369Y013758D01*
X007271Y013660D02*
X005547Y013660D01*
X005650Y013561D02*
X005857Y013561D01*
X005752Y013463D02*
X005687Y013463D01*
X006140Y013561D02*
X007172Y013561D01*
X006973Y012560D02*
X006387Y012560D01*
X006387Y012304D02*
X006387Y012304D01*
X006387Y012079D01*
X006387Y012304D01*
X006387Y012304D01*
X006387Y012281D02*
X006387Y012281D01*
X006387Y012182D02*
X006387Y012182D01*
X006387Y012084D02*
X006387Y012084D01*
X005937Y011266D02*
X005937Y010666D01*
X005887Y010466D02*
X007087Y010466D01*
X007497Y010508D02*
X007677Y010508D01*
X007677Y010471D02*
X007677Y010595D01*
X007687Y010634D01*
X007694Y010646D01*
X007677Y010663D01*
X007677Y011008D01*
X007687Y011018D01*
X007687Y011153D01*
X007497Y010963D01*
X007497Y010663D01*
X007484Y010651D01*
X007497Y010638D01*
X007497Y010293D01*
X007484Y010281D01*
X007497Y010268D01*
X007497Y010008D01*
X007677Y010188D01*
X007677Y010268D01*
X007694Y010285D01*
X007687Y010298D01*
X007677Y010336D01*
X007677Y010461D01*
X008082Y010461D01*
X008082Y010471D01*
X007677Y010471D01*
X007677Y010409D02*
X007497Y010409D01*
X007497Y010311D02*
X007683Y010311D01*
X007677Y010212D02*
X007497Y010212D01*
X007497Y010114D02*
X007602Y010114D01*
X007503Y010015D02*
X007497Y010015D01*
X007102Y010080D02*
X007087Y010096D01*
X007497Y010606D02*
X007680Y010606D01*
X007677Y010705D02*
X007497Y010705D01*
X007497Y010803D02*
X007677Y010803D01*
X007677Y010902D02*
X007497Y010902D01*
X007534Y011000D02*
X007677Y011000D01*
X007687Y011099D02*
X007632Y011099D01*
X008087Y010836D02*
X008132Y010881D01*
X008387Y011166D02*
X008187Y011366D01*
X008187Y011566D01*
X008087Y012084D02*
X013518Y012084D01*
X013491Y012182D02*
X008087Y012182D01*
X008087Y012281D02*
X013462Y012281D01*
X013462Y012478D02*
X008057Y012478D01*
X008087Y012379D02*
X013749Y012379D01*
X013749Y012478D02*
X013824Y012478D01*
X013824Y012576D02*
X013749Y012576D01*
X013749Y012675D02*
X013824Y012675D01*
X013463Y012576D02*
X007959Y012576D01*
X008781Y012773D02*
X008796Y012773D01*
X008797Y013266D02*
X008800Y013266D01*
X010634Y012872D02*
X013462Y012872D01*
X013462Y012970D02*
X010755Y012970D01*
X010802Y013069D02*
X013462Y013069D01*
X013462Y013167D02*
X010815Y013167D01*
X010800Y013266D02*
X013462Y013266D01*
X013539Y013364D02*
X010752Y013364D01*
X010717Y013463D02*
X013479Y013463D01*
X013462Y013561D02*
X010717Y013561D01*
X010717Y013660D02*
X013749Y013660D01*
X013749Y013758D02*
X013824Y013758D01*
X013824Y013857D02*
X013749Y013857D01*
X013749Y013955D02*
X013824Y013955D01*
X014044Y013955D02*
X014062Y013955D01*
X014062Y014054D02*
X010919Y014054D01*
X010970Y014152D02*
X014062Y014152D01*
X014062Y014251D02*
X010970Y014251D01*
X010970Y014349D02*
X014062Y014349D01*
X014132Y014448D02*
X010970Y014448D01*
X010970Y014546D02*
X014083Y014546D01*
X014062Y014645D02*
X010970Y014645D01*
X010970Y014743D02*
X011051Y014743D01*
X011012Y014842D02*
X010970Y014842D01*
X010970Y015137D02*
X011012Y015137D01*
X011023Y015236D02*
X010970Y015236D01*
X011044Y015334D02*
X011104Y015334D01*
X011487Y015039D02*
X014123Y015039D01*
X014066Y014940D02*
X011862Y014940D01*
X011862Y014966D02*
X011862Y014839D01*
X011848Y014788D01*
X011822Y014743D01*
X014349Y014743D01*
X014424Y014743D02*
X014917Y014743D01*
X014424Y014842D02*
X014349Y014842D01*
X014349Y014940D02*
X014424Y014940D01*
X014424Y015039D02*
X014349Y015039D01*
X014062Y014842D02*
X011862Y014842D01*
X011822Y014743D02*
X011784Y014706D01*
X011739Y014679D01*
X011688Y014666D01*
X011487Y014666D01*
X011487Y014966D01*
X011862Y014966D01*
X011487Y014940D02*
X011387Y014940D01*
X011387Y014842D02*
X011487Y014842D01*
X011487Y014743D02*
X011387Y014743D01*
X010717Y013955D02*
X013530Y013955D01*
X013468Y013857D02*
X010717Y013857D01*
X010717Y013758D02*
X013462Y013758D01*
X014112Y013758D02*
X014150Y013758D01*
X014159Y013857D02*
X014105Y013857D01*
X015387Y013069D02*
X015455Y013069D01*
X015408Y012773D02*
X015387Y012773D01*
X016287Y012516D02*
X016408Y012516D01*
X018618Y013961D02*
X018963Y013716D01*
X018963Y013616D01*
X019571Y013316D02*
X019641Y013320D01*
X019786Y013174D01*
X019786Y012878D01*
X020574Y012878D02*
X020574Y013534D01*
X020242Y013866D01*
X020558Y014251D02*
X020672Y014251D01*
X020674Y014245D02*
X020706Y014182D01*
X020747Y014126D01*
X020797Y014076D01*
X020853Y014035D01*
X020916Y014003D01*
X020982Y013981D01*
X021038Y013972D01*
X021038Y014367D01*
X021135Y014367D01*
X021135Y013972D01*
X021191Y013981D01*
X021258Y014003D01*
X021297Y014023D01*
X021297Y012894D01*
X021296Y012893D01*
X021220Y012969D01*
X021119Y013011D01*
X021009Y013011D01*
X020970Y012995D01*
X020970Y013838D01*
X020517Y014292D01*
X020532Y014327D01*
X020532Y014504D01*
X020464Y014668D01*
X020339Y014793D01*
X020175Y014861D01*
X019998Y014861D01*
X019877Y014811D01*
X019877Y015321D01*
X019942Y015294D01*
X019912Y015220D01*
X019912Y015111D01*
X019953Y015010D01*
X020031Y014932D01*
X020132Y014891D01*
X020241Y014891D01*
X020342Y014932D01*
X020420Y015010D01*
X020462Y015111D01*
X020462Y015128D01*
X020742Y015408D01*
X020742Y015431D01*
X020834Y015338D01*
X020998Y015270D01*
X021175Y015270D01*
X021297Y015321D01*
X021297Y014808D01*
X021258Y014828D01*
X021191Y014850D01*
X021135Y014859D01*
X021135Y014464D01*
X021038Y014464D01*
X021038Y014367D01*
X020643Y014367D01*
X020652Y014311D01*
X020674Y014245D01*
X020657Y014152D02*
X020728Y014152D01*
X020755Y014054D02*
X020827Y014054D01*
X020854Y013955D02*
X021297Y013955D01*
X021297Y013857D02*
X020952Y013857D01*
X020970Y013758D02*
X021297Y013758D01*
X021297Y013660D02*
X020970Y013660D01*
X020970Y013561D02*
X021297Y013561D01*
X021297Y013463D02*
X020970Y013463D01*
X020970Y013364D02*
X021297Y013364D01*
X021297Y013266D02*
X020970Y013266D01*
X020970Y013167D02*
X021297Y013167D01*
X021297Y013069D02*
X020970Y013069D01*
X021218Y012970D02*
X021297Y012970D01*
X020770Y012878D02*
X020770Y013755D01*
X020110Y014416D01*
X020087Y014416D01*
X020389Y014743D02*
X020784Y014743D01*
X020797Y014755D02*
X020747Y014706D01*
X020706Y014649D01*
X020674Y014587D01*
X020652Y014520D01*
X020643Y014464D01*
X021038Y014464D01*
X021038Y014859D01*
X020982Y014850D01*
X020916Y014828D01*
X020853Y014796D01*
X020797Y014755D01*
X020704Y014645D02*
X020474Y014645D01*
X020515Y014546D02*
X020661Y014546D01*
X020532Y014448D02*
X021038Y014448D01*
X021038Y014546D02*
X021135Y014546D01*
X021135Y014645D02*
X021038Y014645D01*
X021038Y014743D02*
X021135Y014743D01*
X021135Y014842D02*
X021038Y014842D01*
X020957Y014842D02*
X020222Y014842D01*
X020350Y014940D02*
X021297Y014940D01*
X021297Y014842D02*
X021216Y014842D01*
X021297Y015039D02*
X020432Y015039D01*
X020471Y015137D02*
X021297Y015137D01*
X021297Y015236D02*
X020570Y015236D01*
X020668Y015334D02*
X020844Y015334D01*
X020023Y014940D02*
X019877Y014940D01*
X019877Y014842D02*
X019952Y014842D01*
X019942Y015039D02*
X019877Y015039D01*
X019877Y015137D02*
X019912Y015137D01*
X019918Y015236D02*
X019877Y015236D01*
X020532Y014349D02*
X020646Y014349D01*
X021038Y014349D02*
X021135Y014349D01*
X021135Y014251D02*
X021038Y014251D01*
X021038Y014152D02*
X021135Y014152D01*
X021135Y014054D02*
X021038Y014054D01*
X022087Y014416D02*
X022087Y012872D01*
X021310Y012095D01*
X021310Y011598D01*
X021656Y011598D01*
X021656Y011795D02*
X022631Y011795D01*
X022652Y011816D01*
X022687Y011816D01*
X024354Y014054D02*
X024988Y014054D01*
X025087Y014152D02*
X024453Y014152D01*
X025237Y014152D02*
X025337Y014152D01*
X025337Y014054D02*
X025237Y014054D01*
X025237Y013955D02*
X025337Y013955D01*
X021952Y014842D02*
X021877Y014842D01*
X024425Y016418D02*
X025102Y016418D01*
X025103Y016516D02*
X024524Y016516D01*
X024537Y016615D02*
X025103Y016615D01*
X025103Y016713D02*
X024537Y016713D01*
X024537Y016812D02*
X025103Y016812D01*
X025103Y016910D02*
X024528Y016910D01*
X024430Y017009D02*
X025103Y017009D01*
X025103Y017107D02*
X024331Y017107D01*
X023978Y017206D02*
X025103Y017206D01*
X025103Y017304D02*
X023880Y017304D01*
X023781Y017403D02*
X025103Y017403D01*
X025103Y017501D02*
X023683Y017501D01*
X023584Y017600D02*
X025103Y017600D01*
X025103Y017698D02*
X007293Y017698D01*
X007293Y017600D02*
X013573Y017600D01*
X013467Y017501D02*
X007293Y017501D01*
X007293Y017403D02*
X011048Y017403D01*
X010950Y017304D02*
X007293Y017304D01*
X007293Y017206D02*
X007740Y017206D01*
X007662Y017107D02*
X007293Y017107D01*
X007293Y017009D02*
X007662Y017009D01*
X007662Y016910D02*
X007293Y016910D01*
X007293Y016812D02*
X007662Y016812D01*
X007662Y016713D02*
X007293Y016713D01*
X007293Y016615D02*
X007751Y016615D01*
X007889Y016516D02*
X007293Y016516D01*
X007294Y016418D02*
X007988Y016418D01*
X008233Y017206D02*
X008340Y017206D01*
X008833Y017206D02*
X009261Y017206D01*
X009712Y017206D02*
X009863Y017206D01*
X009859Y017203D02*
X009824Y017168D01*
X009799Y017125D01*
X009787Y017078D01*
X009787Y016941D01*
X010062Y016941D01*
X010062Y017241D01*
X009949Y017241D01*
X009902Y017228D01*
X009859Y017203D01*
X009794Y017107D02*
X009787Y017107D01*
X009787Y017009D02*
X009787Y017009D01*
X009787Y016910D02*
X010062Y016910D01*
X010062Y016891D02*
X009787Y016891D01*
X009787Y016753D01*
X009799Y016706D01*
X009824Y016663D01*
X009859Y016628D01*
X009902Y016603D01*
X009949Y016591D01*
X010062Y016591D01*
X010062Y016891D01*
X010112Y016891D01*
X010112Y016941D01*
X010387Y016941D01*
X010387Y017078D01*
X010374Y017125D01*
X010349Y017168D01*
X010314Y017203D01*
X010271Y017228D01*
X010224Y017241D01*
X010112Y017241D01*
X010112Y016941D01*
X010062Y016941D01*
X010062Y016891D01*
X010112Y016891D02*
X010112Y016591D01*
X010224Y016591D01*
X010271Y016603D01*
X010314Y016628D01*
X010349Y016663D01*
X010374Y016706D01*
X010387Y016753D01*
X010387Y016891D01*
X010112Y016891D01*
X010112Y016910D02*
X010687Y016910D01*
X010687Y016812D02*
X010387Y016812D01*
X010376Y016713D02*
X010687Y016713D01*
X010772Y016615D02*
X010291Y016615D01*
X010112Y016615D02*
X010062Y016615D01*
X010062Y016713D02*
X010112Y016713D01*
X010112Y016812D02*
X010062Y016812D01*
X010062Y017009D02*
X010112Y017009D01*
X010112Y017107D02*
X010062Y017107D01*
X010062Y017206D02*
X010112Y017206D01*
X010310Y017206D02*
X010761Y017206D01*
X010687Y017107D02*
X010379Y017107D01*
X010387Y017009D02*
X010687Y017009D01*
X011287Y016910D02*
X011562Y016910D01*
X011612Y016910D02*
X012301Y016910D01*
X012312Y016812D02*
X011887Y016812D01*
X011876Y016713D02*
X012312Y016713D01*
X012401Y016615D02*
X011791Y016615D01*
X011612Y016615D02*
X011562Y016615D01*
X011562Y016713D02*
X011612Y016713D01*
X011612Y016812D02*
X011562Y016812D01*
X011382Y016615D02*
X011201Y016615D01*
X011287Y016713D02*
X011297Y016713D01*
X011287Y016812D02*
X011287Y016812D01*
X011887Y017009D02*
X012193Y017009D01*
X012551Y017304D02*
X013257Y017304D01*
X013362Y017403D02*
X012443Y017403D01*
X012883Y017206D02*
X012990Y017206D01*
X013562Y016812D02*
X014637Y016812D01*
X014645Y016910D02*
X013626Y016910D01*
X013731Y017009D02*
X014743Y017009D01*
X014842Y017107D02*
X013837Y017107D01*
X013562Y016713D02*
X014637Y016713D01*
X014637Y016615D02*
X013547Y016615D01*
X013547Y016516D02*
X014650Y016516D01*
X014748Y016418D02*
X013532Y016418D01*
X013479Y016319D02*
X014847Y016319D01*
X014857Y016122D02*
X013282Y016122D01*
X013380Y016221D02*
X015377Y016221D01*
X015377Y016122D02*
X015316Y016122D01*
X015137Y016122D02*
X015037Y016122D01*
X015037Y016024D02*
X015137Y016024D01*
X015137Y015925D02*
X015037Y015925D01*
X015037Y015827D02*
X015137Y015827D01*
X014758Y016024D02*
X013183Y016024D01*
X013085Y015925D02*
X014660Y015925D01*
X014637Y015827D02*
X012986Y015827D01*
X012503Y016221D02*
X012488Y016221D01*
X012487Y016319D02*
X012602Y016319D01*
X012700Y016418D02*
X012446Y016418D01*
X012359Y016516D02*
X012799Y016516D01*
X012872Y016615D02*
X012897Y016615D01*
X015327Y016319D02*
X015393Y016319D01*
X015425Y016418D02*
X015492Y016418D01*
X015524Y016516D02*
X015590Y016516D01*
X015537Y016615D02*
X015646Y016615D01*
X015641Y016713D02*
X015537Y016713D01*
X015537Y016812D02*
X015644Y016812D01*
X015685Y016910D02*
X015528Y016910D01*
X015430Y017009D02*
X015750Y017009D01*
X015868Y017107D02*
X015331Y017107D01*
X017704Y015236D02*
X018422Y015236D01*
X018344Y015334D02*
X018329Y015334D01*
X018521Y015137D02*
X017605Y015137D01*
X017507Y015039D02*
X018619Y015039D01*
X018718Y014940D02*
X017745Y014940D01*
X017624Y014940D02*
X017549Y014940D01*
X017549Y014842D02*
X017624Y014842D01*
X017624Y014743D02*
X017549Y014743D01*
X017428Y014940D02*
X017408Y014940D01*
X017262Y014743D02*
X017211Y014743D01*
X017797Y015334D02*
X017844Y015334D01*
X017887Y014842D02*
X018710Y014842D01*
X018641Y017600D02*
X018484Y017600D01*
X025103Y017797D02*
X007293Y017797D01*
X009787Y016812D02*
X009787Y016812D01*
X009787Y016713D02*
X009797Y016713D01*
X009882Y016615D02*
X009701Y016615D01*
X009077Y015630D02*
X008490Y015630D01*
X008490Y015728D02*
X008677Y015728D01*
X008490Y015531D02*
X009077Y015531D01*
X009077Y015433D02*
X008459Y015433D01*
X008429Y015334D02*
X009077Y015334D01*
X009077Y015236D02*
X008490Y015236D01*
X008490Y015137D02*
X009070Y015137D01*
X008971Y015039D02*
X008490Y015039D01*
X008490Y014940D02*
X008873Y014940D01*
X008774Y014842D02*
X008490Y014842D01*
X008490Y014743D02*
X008676Y014743D01*
X008577Y014645D02*
X008490Y014645D01*
X008478Y014546D02*
X008479Y014546D01*
X004927Y013758D02*
X004537Y013758D01*
X004537Y013660D02*
X004927Y013660D01*
X004823Y013561D02*
X004537Y013561D01*
X004537Y013463D02*
X004787Y013463D01*
X004787Y013364D02*
X004537Y013364D01*
X004537Y013266D02*
X004787Y013266D01*
X004787Y013167D02*
X004537Y013167D01*
X004537Y013069D02*
X004787Y013069D01*
X004787Y012970D02*
X004537Y012970D01*
X004537Y012872D02*
X004822Y012872D01*
X004835Y012773D02*
X004537Y012773D01*
X004537Y012675D02*
X004787Y012675D01*
X004787Y012576D02*
X004537Y012576D01*
X004537Y012478D02*
X004787Y012478D01*
X004787Y012379D02*
X004537Y012379D01*
X004537Y012281D02*
X004787Y012281D01*
X004787Y012182D02*
X004537Y012182D01*
X004537Y012084D02*
X004817Y012084D01*
X004927Y011985D02*
X004537Y011985D01*
X004537Y011887D02*
X004927Y011887D01*
X004927Y011788D02*
X004537Y011788D01*
X004537Y011690D02*
X004713Y011690D01*
X004713Y011591D02*
X004537Y011591D01*
X004537Y011493D02*
X004713Y011493D01*
X004713Y011394D02*
X004537Y011394D01*
X004537Y011296D02*
X004713Y011296D01*
X004713Y011197D02*
X004537Y011197D01*
X004537Y011099D02*
X004713Y011099D01*
X004713Y011000D02*
X004537Y011000D01*
X004537Y010902D02*
X004713Y010902D01*
X004734Y010803D02*
X004537Y010803D01*
X004537Y010705D02*
X005617Y010705D01*
X006157Y010705D02*
X006677Y010705D01*
X006677Y010803D02*
X006157Y010803D01*
X006157Y010902D02*
X006677Y010902D01*
X006677Y011000D02*
X006157Y011000D01*
X004752Y010606D02*
X004537Y010606D01*
X004537Y010508D02*
X004713Y010508D01*
X004713Y010409D02*
X004537Y010409D01*
X004537Y010311D02*
X004713Y010311D01*
X004713Y010212D02*
X004537Y010212D01*
X004537Y010114D02*
X004713Y010114D01*
X004713Y010015D02*
X004537Y010015D01*
X004537Y009917D02*
X004713Y009917D01*
X004713Y009818D02*
X004537Y009818D01*
X004537Y009720D02*
X004713Y009720D01*
X004786Y009621D02*
X004537Y009621D01*
X004537Y009523D02*
X004927Y009523D01*
X004927Y009424D02*
X004537Y009424D01*
X004537Y009326D02*
X004827Y009326D01*
X004787Y009227D02*
X004537Y009227D01*
X004537Y009129D02*
X004787Y009129D01*
X004787Y009030D02*
X004537Y009030D01*
X004537Y008932D02*
X004787Y008932D01*
X004787Y008833D02*
X004537Y008833D01*
X004537Y008735D02*
X004787Y008735D01*
X004820Y008636D02*
X004537Y008636D01*
X004537Y008538D02*
X004839Y008538D01*
X004789Y008439D02*
X004537Y008439D01*
X004537Y008341D02*
X004787Y008341D01*
X004787Y008242D02*
X004537Y008242D01*
X004537Y008144D02*
X004787Y008144D01*
X004787Y008045D02*
X004537Y008045D01*
X004537Y007947D02*
X004787Y007947D01*
X004816Y007848D02*
X004537Y007848D01*
X004537Y007750D02*
X004921Y007750D01*
X004927Y007651D02*
X004537Y007651D01*
X004537Y007553D02*
X004927Y007553D01*
X004713Y007454D02*
X004537Y007454D01*
X004537Y007356D02*
X004713Y007356D01*
X004713Y007257D02*
X004537Y007257D01*
X004537Y007159D02*
X004713Y007159D01*
X004713Y007060D02*
X004537Y007060D01*
X004537Y006962D02*
X004713Y006962D01*
X004713Y006863D02*
X004537Y006863D01*
X004537Y006765D02*
X004713Y006765D01*
X004713Y006666D02*
X004537Y006666D01*
X004537Y006568D02*
X004729Y006568D01*
X006278Y007356D02*
X007337Y007356D01*
X006387Y007839D02*
X006387Y008064D01*
X006387Y008064D01*
X006387Y008064D01*
X006387Y007839D01*
X006387Y007848D02*
X006387Y007848D01*
X006387Y007947D02*
X006387Y007947D01*
X006387Y008045D02*
X006387Y008045D01*
X006836Y008242D02*
X011591Y008242D01*
X011574Y008260D02*
X011574Y008260D01*
X011493Y008341D02*
X006836Y008341D01*
X007047Y008576D02*
X006387Y008576D01*
X006387Y008832D02*
X006903Y008832D01*
X007187Y009116D01*
X007187Y009400D01*
X007237Y009416D01*
X008819Y009720D02*
X008954Y009720D01*
X009587Y009066D02*
X009837Y009066D01*
X009993Y008833D02*
X011000Y008833D01*
X010436Y008144D02*
X014119Y008144D01*
X014081Y008045D02*
X010534Y008045D01*
X010872Y007947D02*
X011194Y007947D01*
X011199Y007952D02*
X011163Y007916D01*
X011138Y007872D01*
X011125Y007822D01*
X011125Y007703D01*
X011412Y007703D01*
X011412Y007991D01*
X011293Y007991D01*
X011244Y007977D01*
X011199Y007952D01*
X011132Y007848D02*
X010942Y007848D01*
X010942Y007750D02*
X011125Y007750D01*
X011125Y007553D02*
X010942Y007553D01*
X010942Y007651D02*
X011412Y007651D01*
X011487Y007651D02*
X013962Y007651D01*
X013962Y007553D02*
X011775Y007553D01*
X011758Y007454D02*
X013962Y007454D01*
X013962Y007356D02*
X011696Y007356D01*
X011775Y007257D02*
X014029Y007257D01*
X014042Y007159D02*
X011775Y007159D01*
X011775Y007060D02*
X014042Y007060D01*
X014042Y006962D02*
X011775Y006962D01*
X011775Y006863D02*
X014042Y006863D01*
X014042Y006765D02*
X011685Y006765D01*
X011214Y006765D02*
X011047Y006765D01*
X011047Y006666D02*
X014042Y006666D01*
X013992Y006568D02*
X011047Y006568D01*
X011047Y006469D02*
X013893Y006469D01*
X013795Y006371D02*
X011047Y006371D01*
X011047Y006272D02*
X013696Y006272D01*
X013598Y006174D02*
X012400Y006174D01*
X012173Y006174D02*
X011047Y006174D01*
X011047Y006075D02*
X012032Y006075D01*
X011977Y005977D02*
X011047Y005977D01*
X011047Y005878D02*
X011959Y005878D01*
X011967Y005780D02*
X011587Y005780D01*
X011187Y005780D02*
X011103Y005780D01*
X011203Y007356D02*
X010863Y007356D01*
X010942Y007454D02*
X011141Y007454D01*
X011412Y007750D02*
X011487Y007750D01*
X011487Y007703D02*
X011487Y007991D01*
X011606Y007991D01*
X011656Y007977D01*
X011700Y007952D01*
X011736Y007916D01*
X011761Y007872D01*
X011775Y007822D01*
X011775Y007703D01*
X011487Y007703D01*
X011487Y007848D02*
X011412Y007848D01*
X011412Y007947D02*
X011487Y007947D01*
X011705Y007947D02*
X014052Y007947D01*
X014057Y007848D02*
X011768Y007848D01*
X011775Y007750D02*
X013964Y007750D01*
X014493Y006075D02*
X014810Y006075D01*
X014711Y005977D02*
X014395Y005977D01*
X014296Y005878D02*
X014637Y005878D01*
X014637Y005780D02*
X014198Y005780D01*
X014099Y005681D02*
X015037Y005681D01*
X015037Y005780D02*
X015137Y005780D01*
X015137Y005766D02*
X015137Y006166D01*
X015273Y006166D01*
X015537Y005902D01*
X015537Y005766D01*
X015137Y005766D01*
X015137Y005681D02*
X015641Y005681D01*
X015641Y005780D02*
X015537Y005780D01*
X015537Y005878D02*
X015672Y005878D01*
X015718Y005977D02*
X015462Y005977D01*
X015364Y006075D02*
X015816Y006075D01*
X015137Y006075D02*
X015037Y006075D01*
X015037Y005977D02*
X015137Y005977D01*
X015137Y005878D02*
X015037Y005878D01*
X014637Y005583D02*
X014001Y005583D01*
X013902Y005484D02*
X014682Y005484D01*
X015492Y005484D02*
X015701Y005484D01*
X015660Y005583D02*
X015537Y005583D01*
X014626Y004795D02*
X013962Y004795D01*
X017877Y006765D02*
X018139Y006765D01*
X016208Y009720D02*
X016199Y009720D01*
X014978Y010114D02*
X014945Y010114D01*
X014704Y010114D02*
X014629Y010114D01*
X014629Y010015D02*
X014704Y010015D01*
X014704Y009917D02*
X014629Y009917D01*
X004791Y013857D02*
X004537Y013857D01*
X004537Y013955D02*
X004713Y013955D01*
X004713Y014054D02*
X004537Y014054D01*
X004537Y014152D02*
X004713Y014152D01*
X004713Y014251D02*
X004537Y014251D01*
X004537Y014349D02*
X004713Y014349D01*
X004713Y014448D02*
X004537Y014448D01*
X004537Y014546D02*
X004713Y014546D01*
X004713Y014645D02*
X004537Y014645D01*
X004537Y014743D02*
X004713Y014743D01*
X004747Y014842D02*
X004537Y014842D01*
X024467Y009424D02*
X024948Y009424D01*
X024843Y009326D02*
X024539Y009326D01*
X024562Y009227D02*
X024744Y009227D01*
X024646Y009129D02*
X024548Y009129D01*
X024503Y008500D02*
X025287Y007716D01*
D14*
X024087Y005716D03*
X024088Y004718D03*
X015087Y004716D03*
X015087Y005716D03*
X025287Y013716D03*
X026287Y013716D03*
X024087Y015716D03*
X024087Y016716D03*
X015087Y016716D03*
X015087Y015716D03*
D15*
X016932Y011992D03*
X016932Y011795D03*
X016932Y011598D03*
X016932Y011401D03*
X016932Y011205D03*
X016932Y011008D03*
X016932Y010811D03*
X016932Y010614D03*
X016932Y010417D03*
X016932Y010220D03*
X016932Y010023D03*
X016932Y009827D03*
X016932Y009630D03*
X016932Y009433D03*
X016932Y009236D03*
X016932Y009039D03*
X021656Y009039D03*
X021656Y009236D03*
X021656Y009433D03*
X021656Y009630D03*
X021656Y009827D03*
X021656Y010023D03*
X021656Y010220D03*
X021656Y010417D03*
X021656Y010614D03*
X021656Y010811D03*
X021656Y011008D03*
X021656Y011205D03*
X021656Y011401D03*
X021656Y011598D03*
X021656Y011795D03*
X021656Y011992D03*
D16*
X020770Y012878D03*
X020574Y012878D03*
X020377Y012878D03*
X020180Y012878D03*
X019983Y012878D03*
X019786Y012878D03*
X019589Y012878D03*
X019392Y012878D03*
X019196Y012878D03*
X018999Y012878D03*
X018802Y012878D03*
X018605Y012878D03*
X018408Y012878D03*
X018211Y012878D03*
X018014Y012878D03*
X017818Y012878D03*
X017818Y008153D03*
X018014Y008153D03*
X018211Y008153D03*
X018408Y008153D03*
X018605Y008153D03*
X018802Y008153D03*
X018999Y008153D03*
X019196Y008153D03*
X019392Y008153D03*
X019589Y008153D03*
X019786Y008153D03*
X019983Y008153D03*
X020180Y008153D03*
X020377Y008153D03*
X020574Y008153D03*
X020770Y008153D03*
D17*
X012556Y009738D03*
X012556Y011660D03*
D18*
X016087Y015716D03*
X019087Y014416D03*
X025287Y012716D03*
X026287Y007716D03*
X016087Y004716D03*
D19*
X017087Y004716D03*
X018087Y004716D03*
X019087Y004716D03*
X020087Y004716D03*
X021087Y004716D03*
X022087Y004716D03*
X023087Y004716D03*
X023087Y005716D03*
X022087Y005716D03*
X021087Y005716D03*
X020087Y005716D03*
X019087Y005716D03*
X018087Y005716D03*
X017087Y005716D03*
X016087Y005716D03*
X025287Y007716D03*
X025287Y008716D03*
X026287Y008716D03*
X026287Y009716D03*
X025287Y009716D03*
X025287Y010716D03*
X026287Y010716D03*
X026287Y011716D03*
X025287Y011716D03*
X026287Y012716D03*
X024087Y014416D03*
X023087Y014416D03*
X022087Y014416D03*
X021087Y014416D03*
X020087Y014416D03*
X020087Y015716D03*
X019087Y015716D03*
X018087Y015716D03*
X017087Y015716D03*
X017087Y016716D03*
X018087Y016716D03*
X019087Y016716D03*
X020087Y016716D03*
X021087Y016716D03*
X022087Y016716D03*
X023087Y016716D03*
X023087Y015716D03*
X022087Y015716D03*
X021087Y015716D03*
X016087Y016716D03*
D20*
X005961Y003416D02*
X026434Y003416D01*
X025804Y004990D02*
X025806Y005040D01*
X025812Y005090D01*
X025822Y005139D01*
X025836Y005187D01*
X025853Y005234D01*
X025874Y005279D01*
X025899Y005323D01*
X025927Y005364D01*
X025959Y005403D01*
X025993Y005440D01*
X026030Y005474D01*
X026070Y005504D01*
X026112Y005531D01*
X026156Y005555D01*
X026202Y005576D01*
X026249Y005592D01*
X026297Y005605D01*
X026347Y005614D01*
X026396Y005619D01*
X026447Y005620D01*
X026497Y005617D01*
X026546Y005610D01*
X026595Y005599D01*
X026643Y005584D01*
X026689Y005566D01*
X026734Y005544D01*
X026777Y005518D01*
X026818Y005489D01*
X026857Y005457D01*
X026893Y005422D01*
X026925Y005384D01*
X026955Y005344D01*
X026982Y005301D01*
X027005Y005257D01*
X027024Y005211D01*
X027040Y005163D01*
X027052Y005114D01*
X027060Y005065D01*
X027064Y005015D01*
X027064Y004965D01*
X027060Y004915D01*
X027052Y004866D01*
X027040Y004817D01*
X027024Y004769D01*
X027005Y004723D01*
X026982Y004679D01*
X026955Y004636D01*
X026925Y004596D01*
X026893Y004558D01*
X026857Y004523D01*
X026818Y004491D01*
X026777Y004462D01*
X026734Y004436D01*
X026689Y004414D01*
X026643Y004396D01*
X026595Y004381D01*
X026546Y004370D01*
X026497Y004363D01*
X026447Y004360D01*
X026396Y004361D01*
X026347Y004366D01*
X026297Y004375D01*
X026249Y004388D01*
X026202Y004404D01*
X026156Y004425D01*
X026112Y004449D01*
X026070Y004476D01*
X026030Y004506D01*
X025993Y004540D01*
X025959Y004577D01*
X025927Y004616D01*
X025899Y004657D01*
X025874Y004701D01*
X025853Y004746D01*
X025836Y004793D01*
X025822Y004841D01*
X025812Y004890D01*
X025806Y004940D01*
X025804Y004990D01*
X026434Y003415D02*
X026511Y003417D01*
X026588Y003423D01*
X026665Y003432D01*
X026741Y003445D01*
X026817Y003462D01*
X026891Y003483D01*
X026965Y003507D01*
X027037Y003535D01*
X027107Y003566D01*
X027176Y003601D01*
X027244Y003639D01*
X027309Y003680D01*
X027372Y003725D01*
X027433Y003773D01*
X027492Y003823D01*
X027548Y003876D01*
X027601Y003932D01*
X027651Y003991D01*
X027699Y004052D01*
X027744Y004115D01*
X027785Y004180D01*
X027823Y004248D01*
X027858Y004317D01*
X027889Y004387D01*
X027917Y004459D01*
X027941Y004533D01*
X027962Y004607D01*
X027979Y004683D01*
X027992Y004759D01*
X028001Y004836D01*
X028007Y004913D01*
X028009Y004990D01*
X028009Y016408D01*
X025804Y016408D02*
X025806Y016458D01*
X025812Y016508D01*
X025822Y016557D01*
X025836Y016605D01*
X025853Y016652D01*
X025874Y016697D01*
X025899Y016741D01*
X025927Y016782D01*
X025959Y016821D01*
X025993Y016858D01*
X026030Y016892D01*
X026070Y016922D01*
X026112Y016949D01*
X026156Y016973D01*
X026202Y016994D01*
X026249Y017010D01*
X026297Y017023D01*
X026347Y017032D01*
X026396Y017037D01*
X026447Y017038D01*
X026497Y017035D01*
X026546Y017028D01*
X026595Y017017D01*
X026643Y017002D01*
X026689Y016984D01*
X026734Y016962D01*
X026777Y016936D01*
X026818Y016907D01*
X026857Y016875D01*
X026893Y016840D01*
X026925Y016802D01*
X026955Y016762D01*
X026982Y016719D01*
X027005Y016675D01*
X027024Y016629D01*
X027040Y016581D01*
X027052Y016532D01*
X027060Y016483D01*
X027064Y016433D01*
X027064Y016383D01*
X027060Y016333D01*
X027052Y016284D01*
X027040Y016235D01*
X027024Y016187D01*
X027005Y016141D01*
X026982Y016097D01*
X026955Y016054D01*
X026925Y016014D01*
X026893Y015976D01*
X026857Y015941D01*
X026818Y015909D01*
X026777Y015880D01*
X026734Y015854D01*
X026689Y015832D01*
X026643Y015814D01*
X026595Y015799D01*
X026546Y015788D01*
X026497Y015781D01*
X026447Y015778D01*
X026396Y015779D01*
X026347Y015784D01*
X026297Y015793D01*
X026249Y015806D01*
X026202Y015822D01*
X026156Y015843D01*
X026112Y015867D01*
X026070Y015894D01*
X026030Y015924D01*
X025993Y015958D01*
X025959Y015995D01*
X025927Y016034D01*
X025899Y016075D01*
X025874Y016119D01*
X025853Y016164D01*
X025836Y016211D01*
X025822Y016259D01*
X025812Y016308D01*
X025806Y016358D01*
X025804Y016408D01*
X026434Y017983D02*
X026511Y017981D01*
X026588Y017975D01*
X026665Y017966D01*
X026741Y017953D01*
X026817Y017936D01*
X026891Y017915D01*
X026965Y017891D01*
X027037Y017863D01*
X027107Y017832D01*
X027176Y017797D01*
X027244Y017759D01*
X027309Y017718D01*
X027372Y017673D01*
X027433Y017625D01*
X027492Y017575D01*
X027548Y017522D01*
X027601Y017466D01*
X027651Y017407D01*
X027699Y017346D01*
X027744Y017283D01*
X027785Y017218D01*
X027823Y017150D01*
X027858Y017081D01*
X027889Y017011D01*
X027917Y016939D01*
X027941Y016865D01*
X027962Y016791D01*
X027979Y016715D01*
X027992Y016639D01*
X028001Y016562D01*
X028007Y016485D01*
X028009Y016408D01*
X028007Y016485D01*
X028001Y016562D01*
X027992Y016639D01*
X027979Y016715D01*
X027962Y016791D01*
X027941Y016865D01*
X027917Y016939D01*
X027889Y017011D01*
X027858Y017081D01*
X027823Y017150D01*
X027785Y017218D01*
X027744Y017283D01*
X027699Y017346D01*
X027651Y017407D01*
X027601Y017466D01*
X027548Y017522D01*
X027492Y017575D01*
X027433Y017625D01*
X027372Y017673D01*
X027309Y017718D01*
X027244Y017759D01*
X027176Y017797D01*
X027107Y017832D01*
X027037Y017863D01*
X026965Y017891D01*
X026891Y017915D01*
X026817Y017936D01*
X026741Y017953D01*
X026665Y017966D01*
X026588Y017975D01*
X026511Y017981D01*
X026434Y017983D01*
X005961Y017983D01*
X005331Y016408D02*
X005333Y016458D01*
X005339Y016508D01*
X005349Y016557D01*
X005363Y016605D01*
X005380Y016652D01*
X005401Y016697D01*
X005426Y016741D01*
X005454Y016782D01*
X005486Y016821D01*
X005520Y016858D01*
X005557Y016892D01*
X005597Y016922D01*
X005639Y016949D01*
X005683Y016973D01*
X005729Y016994D01*
X005776Y017010D01*
X005824Y017023D01*
X005874Y017032D01*
X005923Y017037D01*
X005974Y017038D01*
X006024Y017035D01*
X006073Y017028D01*
X006122Y017017D01*
X006170Y017002D01*
X006216Y016984D01*
X006261Y016962D01*
X006304Y016936D01*
X006345Y016907D01*
X006384Y016875D01*
X006420Y016840D01*
X006452Y016802D01*
X006482Y016762D01*
X006509Y016719D01*
X006532Y016675D01*
X006551Y016629D01*
X006567Y016581D01*
X006579Y016532D01*
X006587Y016483D01*
X006591Y016433D01*
X006591Y016383D01*
X006587Y016333D01*
X006579Y016284D01*
X006567Y016235D01*
X006551Y016187D01*
X006532Y016141D01*
X006509Y016097D01*
X006482Y016054D01*
X006452Y016014D01*
X006420Y015976D01*
X006384Y015941D01*
X006345Y015909D01*
X006304Y015880D01*
X006261Y015854D01*
X006216Y015832D01*
X006170Y015814D01*
X006122Y015799D01*
X006073Y015788D01*
X006024Y015781D01*
X005974Y015778D01*
X005923Y015779D01*
X005874Y015784D01*
X005824Y015793D01*
X005776Y015806D01*
X005729Y015822D01*
X005683Y015843D01*
X005639Y015867D01*
X005597Y015894D01*
X005557Y015924D01*
X005520Y015958D01*
X005486Y015995D01*
X005454Y016034D01*
X005426Y016075D01*
X005401Y016119D01*
X005380Y016164D01*
X005363Y016211D01*
X005349Y016259D01*
X005339Y016308D01*
X005333Y016358D01*
X005331Y016408D01*
X004386Y016408D02*
X004388Y016485D01*
X004394Y016562D01*
X004403Y016639D01*
X004416Y016715D01*
X004433Y016791D01*
X004454Y016865D01*
X004478Y016939D01*
X004506Y017011D01*
X004537Y017081D01*
X004572Y017150D01*
X004610Y017218D01*
X004651Y017283D01*
X004696Y017346D01*
X004744Y017407D01*
X004794Y017466D01*
X004847Y017522D01*
X004903Y017575D01*
X004962Y017625D01*
X005023Y017673D01*
X005086Y017718D01*
X005151Y017759D01*
X005219Y017797D01*
X005288Y017832D01*
X005358Y017863D01*
X005430Y017891D01*
X005504Y017915D01*
X005578Y017936D01*
X005654Y017953D01*
X005730Y017966D01*
X005807Y017975D01*
X005884Y017981D01*
X005961Y017983D01*
X005884Y017981D01*
X005807Y017975D01*
X005730Y017966D01*
X005654Y017953D01*
X005578Y017936D01*
X005504Y017915D01*
X005430Y017891D01*
X005358Y017863D01*
X005288Y017832D01*
X005219Y017797D01*
X005151Y017759D01*
X005086Y017718D01*
X005023Y017673D01*
X004962Y017625D01*
X004903Y017575D01*
X004847Y017522D01*
X004794Y017466D01*
X004744Y017407D01*
X004696Y017346D01*
X004651Y017283D01*
X004610Y017218D01*
X004572Y017150D01*
X004537Y017081D01*
X004506Y017011D01*
X004478Y016939D01*
X004454Y016865D01*
X004433Y016791D01*
X004416Y016715D01*
X004403Y016639D01*
X004394Y016562D01*
X004388Y016485D01*
X004386Y016408D01*
X004387Y016408D02*
X004387Y004990D01*
X005331Y004990D02*
X005333Y005040D01*
X005339Y005090D01*
X005349Y005139D01*
X005363Y005187D01*
X005380Y005234D01*
X005401Y005279D01*
X005426Y005323D01*
X005454Y005364D01*
X005486Y005403D01*
X005520Y005440D01*
X005557Y005474D01*
X005597Y005504D01*
X005639Y005531D01*
X005683Y005555D01*
X005729Y005576D01*
X005776Y005592D01*
X005824Y005605D01*
X005874Y005614D01*
X005923Y005619D01*
X005974Y005620D01*
X006024Y005617D01*
X006073Y005610D01*
X006122Y005599D01*
X006170Y005584D01*
X006216Y005566D01*
X006261Y005544D01*
X006304Y005518D01*
X006345Y005489D01*
X006384Y005457D01*
X006420Y005422D01*
X006452Y005384D01*
X006482Y005344D01*
X006509Y005301D01*
X006532Y005257D01*
X006551Y005211D01*
X006567Y005163D01*
X006579Y005114D01*
X006587Y005065D01*
X006591Y005015D01*
X006591Y004965D01*
X006587Y004915D01*
X006579Y004866D01*
X006567Y004817D01*
X006551Y004769D01*
X006532Y004723D01*
X006509Y004679D01*
X006482Y004636D01*
X006452Y004596D01*
X006420Y004558D01*
X006384Y004523D01*
X006345Y004491D01*
X006304Y004462D01*
X006261Y004436D01*
X006216Y004414D01*
X006170Y004396D01*
X006122Y004381D01*
X006073Y004370D01*
X006024Y004363D01*
X005974Y004360D01*
X005923Y004361D01*
X005874Y004366D01*
X005824Y004375D01*
X005776Y004388D01*
X005729Y004404D01*
X005683Y004425D01*
X005639Y004449D01*
X005597Y004476D01*
X005557Y004506D01*
X005520Y004540D01*
X005486Y004577D01*
X005454Y004616D01*
X005426Y004657D01*
X005401Y004701D01*
X005380Y004746D01*
X005363Y004793D01*
X005349Y004841D01*
X005339Y004890D01*
X005333Y004940D01*
X005331Y004990D01*
X004386Y004990D02*
X004388Y004913D01*
X004394Y004836D01*
X004403Y004759D01*
X004416Y004683D01*
X004433Y004607D01*
X004454Y004533D01*
X004478Y004459D01*
X004506Y004387D01*
X004537Y004317D01*
X004572Y004248D01*
X004610Y004180D01*
X004651Y004115D01*
X004696Y004052D01*
X004744Y003991D01*
X004794Y003932D01*
X004847Y003876D01*
X004903Y003823D01*
X004962Y003773D01*
X005023Y003725D01*
X005086Y003680D01*
X005151Y003639D01*
X005219Y003601D01*
X005288Y003566D01*
X005358Y003535D01*
X005430Y003507D01*
X005504Y003483D01*
X005578Y003462D01*
X005654Y003445D01*
X005730Y003432D01*
X005807Y003423D01*
X005884Y003417D01*
X005961Y003415D01*
X005884Y003417D01*
X005807Y003423D01*
X005730Y003432D01*
X005654Y003445D01*
X005578Y003462D01*
X005504Y003483D01*
X005430Y003507D01*
X005358Y003535D01*
X005288Y003566D01*
X005219Y003601D01*
X005151Y003639D01*
X005086Y003680D01*
X005023Y003725D01*
X004962Y003773D01*
X004903Y003823D01*
X004847Y003876D01*
X004794Y003932D01*
X004744Y003991D01*
X004696Y004052D01*
X004651Y004115D01*
X004610Y004180D01*
X004572Y004248D01*
X004537Y004317D01*
X004506Y004387D01*
X004478Y004459D01*
X004454Y004533D01*
X004433Y004607D01*
X004416Y004683D01*
X004403Y004759D01*
X004394Y004836D01*
X004388Y004913D01*
X004386Y004990D01*
X008347Y003916D02*
X008349Y003943D01*
X008355Y003969D01*
X008364Y003994D01*
X008377Y004017D01*
X008393Y004038D01*
X008412Y004057D01*
X008433Y004073D01*
X008456Y004086D01*
X008481Y004095D01*
X008507Y004101D01*
X008534Y004103D01*
X008561Y004101D01*
X008587Y004095D01*
X008612Y004086D01*
X008635Y004073D01*
X008656Y004057D01*
X008675Y004038D01*
X008691Y004017D01*
X008704Y003994D01*
X008713Y003969D01*
X008719Y003943D01*
X008721Y003916D01*
X008719Y003889D01*
X008713Y003863D01*
X008704Y003838D01*
X008691Y003815D01*
X008675Y003794D01*
X008656Y003775D01*
X008635Y003759D01*
X008612Y003746D01*
X008587Y003737D01*
X008561Y003731D01*
X008534Y003729D01*
X008507Y003731D01*
X008481Y003737D01*
X008456Y003746D01*
X008433Y003759D01*
X008412Y003775D01*
X008393Y003794D01*
X008377Y003815D01*
X008364Y003838D01*
X008355Y003863D01*
X008349Y003889D01*
X008347Y003916D01*
X009252Y003916D02*
X009254Y003943D01*
X009260Y003969D01*
X009269Y003994D01*
X009282Y004017D01*
X009298Y004038D01*
X009317Y004057D01*
X009338Y004073D01*
X009361Y004086D01*
X009386Y004095D01*
X009412Y004101D01*
X009439Y004103D01*
X009466Y004101D01*
X009492Y004095D01*
X009517Y004086D01*
X009540Y004073D01*
X009561Y004057D01*
X009580Y004038D01*
X009596Y004017D01*
X009609Y003994D01*
X009618Y003969D01*
X009624Y003943D01*
X009626Y003916D01*
X009624Y003889D01*
X009618Y003863D01*
X009609Y003838D01*
X009596Y003815D01*
X009580Y003794D01*
X009561Y003775D01*
X009540Y003759D01*
X009517Y003746D01*
X009492Y003737D01*
X009466Y003731D01*
X009439Y003729D01*
X009412Y003731D01*
X009386Y003737D01*
X009361Y003746D01*
X009338Y003759D01*
X009317Y003775D01*
X009298Y003794D01*
X009282Y003815D01*
X009269Y003838D01*
X009260Y003863D01*
X009254Y003889D01*
X009252Y003916D01*
X012047Y003916D02*
X012049Y003943D01*
X012055Y003969D01*
X012064Y003994D01*
X012077Y004017D01*
X012093Y004038D01*
X012112Y004057D01*
X012133Y004073D01*
X012156Y004086D01*
X012181Y004095D01*
X012207Y004101D01*
X012234Y004103D01*
X012261Y004101D01*
X012287Y004095D01*
X012312Y004086D01*
X012335Y004073D01*
X012356Y004057D01*
X012375Y004038D01*
X012391Y004017D01*
X012404Y003994D01*
X012413Y003969D01*
X012419Y003943D01*
X012421Y003916D01*
X012419Y003889D01*
X012413Y003863D01*
X012404Y003838D01*
X012391Y003815D01*
X012375Y003794D01*
X012356Y003775D01*
X012335Y003759D01*
X012312Y003746D01*
X012287Y003737D01*
X012261Y003731D01*
X012234Y003729D01*
X012207Y003731D01*
X012181Y003737D01*
X012156Y003746D01*
X012133Y003759D01*
X012112Y003775D01*
X012093Y003794D01*
X012077Y003815D01*
X012064Y003838D01*
X012055Y003863D01*
X012049Y003889D01*
X012047Y003916D01*
X012952Y003916D02*
X012954Y003943D01*
X012960Y003969D01*
X012969Y003994D01*
X012982Y004017D01*
X012998Y004038D01*
X013017Y004057D01*
X013038Y004073D01*
X013061Y004086D01*
X013086Y004095D01*
X013112Y004101D01*
X013139Y004103D01*
X013166Y004101D01*
X013192Y004095D01*
X013217Y004086D01*
X013240Y004073D01*
X013261Y004057D01*
X013280Y004038D01*
X013296Y004017D01*
X013309Y003994D01*
X013318Y003969D01*
X013324Y003943D01*
X013326Y003916D01*
X013324Y003889D01*
X013318Y003863D01*
X013309Y003838D01*
X013296Y003815D01*
X013280Y003794D01*
X013261Y003775D01*
X013240Y003759D01*
X013217Y003746D01*
X013192Y003737D01*
X013166Y003731D01*
X013139Y003729D01*
X013112Y003731D01*
X013086Y003737D01*
X013061Y003746D01*
X013038Y003759D01*
X013017Y003775D01*
X012998Y003794D01*
X012982Y003815D01*
X012969Y003838D01*
X012960Y003863D01*
X012954Y003889D01*
X012952Y003916D01*
X026434Y003415D02*
X026511Y003417D01*
X026588Y003423D01*
X026665Y003432D01*
X026741Y003445D01*
X026817Y003462D01*
X026891Y003483D01*
X026965Y003507D01*
X027037Y003535D01*
X027107Y003566D01*
X027176Y003601D01*
X027244Y003639D01*
X027309Y003680D01*
X027372Y003725D01*
X027433Y003773D01*
X027492Y003823D01*
X027548Y003876D01*
X027601Y003932D01*
X027651Y003991D01*
X027699Y004052D01*
X027744Y004115D01*
X027785Y004180D01*
X027823Y004248D01*
X027858Y004317D01*
X027889Y004387D01*
X027917Y004459D01*
X027941Y004533D01*
X027962Y004607D01*
X027979Y004683D01*
X027992Y004759D01*
X028001Y004836D01*
X028007Y004913D01*
X028009Y004990D01*
X011988Y016253D02*
X011990Y016279D01*
X011996Y016305D01*
X012005Y016329D01*
X012018Y016352D01*
X012035Y016372D01*
X012054Y016390D01*
X012076Y016405D01*
X012099Y016416D01*
X012124Y016424D01*
X012150Y016428D01*
X012176Y016428D01*
X012202Y016424D01*
X012227Y016416D01*
X012251Y016405D01*
X012272Y016390D01*
X012291Y016372D01*
X012308Y016352D01*
X012321Y016329D01*
X012330Y016305D01*
X012336Y016279D01*
X012338Y016253D01*
X012336Y016227D01*
X012330Y016201D01*
X012321Y016177D01*
X012308Y016154D01*
X012291Y016134D01*
X012272Y016116D01*
X012250Y016101D01*
X012227Y016090D01*
X012202Y016082D01*
X012176Y016078D01*
X012150Y016078D01*
X012124Y016082D01*
X012099Y016090D01*
X012075Y016101D01*
X012054Y016116D01*
X012035Y016134D01*
X012018Y016154D01*
X012005Y016177D01*
X011996Y016201D01*
X011990Y016227D01*
X011988Y016253D01*
X008838Y016253D02*
X008840Y016279D01*
X008846Y016305D01*
X008855Y016329D01*
X008868Y016352D01*
X008885Y016372D01*
X008904Y016390D01*
X008926Y016405D01*
X008949Y016416D01*
X008974Y016424D01*
X009000Y016428D01*
X009026Y016428D01*
X009052Y016424D01*
X009077Y016416D01*
X009101Y016405D01*
X009122Y016390D01*
X009141Y016372D01*
X009158Y016352D01*
X009171Y016329D01*
X009180Y016305D01*
X009186Y016279D01*
X009188Y016253D01*
X009186Y016227D01*
X009180Y016201D01*
X009171Y016177D01*
X009158Y016154D01*
X009141Y016134D01*
X009122Y016116D01*
X009100Y016101D01*
X009077Y016090D01*
X009052Y016082D01*
X009026Y016078D01*
X009000Y016078D01*
X008974Y016082D01*
X008949Y016090D01*
X008925Y016101D01*
X008904Y016116D01*
X008885Y016134D01*
X008868Y016154D01*
X008855Y016177D01*
X008846Y016201D01*
X008840Y016227D01*
X008838Y016253D01*
D21*
X008087Y010836D03*
X008087Y010466D03*
X008087Y010096D03*
X007087Y010096D03*
X007087Y010466D03*
X007087Y010836D03*
D22*
X014487Y012416D03*
X014487Y013416D03*
D23*
X009687Y007466D03*
X008687Y007466D03*
X008687Y006466D03*
X009687Y006466D03*
D24*
X009400Y005754D02*
X009174Y005754D01*
X009400Y005754D02*
X009400Y005478D01*
X009174Y005478D01*
X009174Y005754D01*
X009174Y005552D02*
X009400Y005552D01*
X009400Y005626D02*
X009174Y005626D01*
X009174Y005700D02*
X009400Y005700D01*
X008800Y005754D02*
X008574Y005754D01*
X008800Y005754D02*
X008800Y005478D01*
X008574Y005478D01*
X008574Y005754D01*
X008574Y005552D02*
X008800Y005552D01*
X008800Y005626D02*
X008574Y005626D01*
X008574Y005700D02*
X008800Y005700D01*
X009374Y016778D02*
X009600Y016778D01*
X009374Y016778D02*
X009374Y017054D01*
X009600Y017054D01*
X009600Y016778D01*
X009600Y016852D02*
X009374Y016852D01*
X009374Y016926D02*
X009600Y016926D01*
X009600Y017000D02*
X009374Y017000D01*
X009974Y016778D02*
X010200Y016778D01*
X009974Y016778D02*
X009974Y017054D01*
X010200Y017054D01*
X010200Y016778D01*
X010200Y016852D02*
X009974Y016852D01*
X009974Y016926D02*
X010200Y016926D01*
X010200Y017000D02*
X009974Y017000D01*
X010874Y016778D02*
X011100Y016778D01*
X010874Y016778D02*
X010874Y017054D01*
X011100Y017054D01*
X011100Y016778D01*
X011100Y016852D02*
X010874Y016852D01*
X010874Y016926D02*
X011100Y016926D01*
X011100Y017000D02*
X010874Y017000D01*
X011474Y016778D02*
X011700Y016778D01*
X011474Y016778D02*
X011474Y017054D01*
X011700Y017054D01*
X011700Y016778D01*
X011700Y016852D02*
X011474Y016852D01*
X011474Y016926D02*
X011700Y016926D01*
X011700Y017000D02*
X011474Y017000D01*
D25*
X006387Y013327D03*
X006387Y013072D03*
X006387Y012816D03*
X006387Y012560D03*
X006387Y012304D03*
X006387Y009087D03*
X006387Y008832D03*
X006387Y008576D03*
X006387Y008320D03*
X006387Y008064D03*
D26*
X005027Y007966D02*
X005027Y008386D01*
X005447Y008386D01*
X005447Y007966D01*
X005027Y007966D01*
X005027Y008145D02*
X005447Y008145D01*
X005447Y008324D02*
X005027Y008324D01*
X005027Y008766D02*
X005027Y009186D01*
X005447Y009186D01*
X005447Y008766D01*
X005027Y008766D01*
X005027Y008945D02*
X005447Y008945D01*
X005447Y009124D02*
X005027Y009124D01*
X005027Y012206D02*
X005027Y012626D01*
X005447Y012626D01*
X005447Y012206D01*
X005027Y012206D01*
X005027Y012385D02*
X005447Y012385D01*
X005447Y012564D02*
X005027Y012564D01*
X005027Y013006D02*
X005027Y013426D01*
X005447Y013426D01*
X005447Y013006D01*
X005027Y013006D01*
X005027Y013185D02*
X005447Y013185D01*
X005447Y013364D02*
X005027Y013364D01*
D27*
X005237Y014371D03*
X005237Y011260D03*
X005237Y010131D03*
X005237Y007020D03*
D28*
X008137Y004566D03*
X009837Y004566D03*
X011837Y004566D03*
X013537Y004566D03*
D29*
X014087Y003716D03*
X011287Y003716D03*
X010387Y003716D03*
X007587Y003716D03*
D30*
X008097Y005156D02*
X005887Y007366D01*
X005887Y009016D01*
X005998Y009104D02*
X005887Y009216D01*
X005887Y010466D01*
X005887Y011316D01*
X005887Y013216D01*
X005998Y013327D01*
X007946Y014010D02*
X008140Y014109D01*
X008152Y014116D01*
X013237Y016916D02*
X013771Y017416D01*
X018287Y017416D01*
X018580Y017122D01*
X018587Y017122D01*
X018587Y015453D01*
X019087Y014953D01*
X019087Y014416D01*
X018587Y017122D02*
X018839Y017416D01*
X023387Y017416D01*
X024087Y016716D01*
X026387Y009216D02*
X026537Y009216D01*
X026837Y008916D01*
X026837Y007316D01*
X026687Y007116D01*
X026487Y007116D01*
X024687Y005316D01*
X024687Y004616D01*
X024087Y004016D01*
X015587Y004016D01*
X015087Y004516D01*
X015087Y004716D01*
X014647Y005156D01*
X008097Y005156D01*
D31*
X005887Y009016D02*
X005975Y009104D01*
X005998Y009104D01*
X006015Y009087D01*
X006387Y009087D01*
X008087Y010466D02*
X008387Y010466D01*
X008637Y010166D01*
X012556Y009738D02*
X013167Y010316D01*
X013787Y010316D01*
X013787Y011116D01*
X013787Y011816D02*
X012745Y011816D01*
X012556Y011660D01*
X013337Y012816D02*
X013737Y012416D01*
X013787Y012416D01*
X016287Y012516D02*
X016321Y012281D01*
X016287Y012516D02*
X016287Y013366D01*
X016937Y013366D01*
X017587Y014016D01*
X018045Y014439D01*
X016287Y013381D02*
X016287Y013366D01*
X018087Y012316D02*
X018087Y011800D01*
X019168Y010868D01*
X015991Y009260D02*
X015717Y008986D01*
X014898Y007998D02*
X014887Y007960D01*
X014887Y007536D01*
X014848Y007436D01*
X017467Y007436D01*
X014356Y007998D02*
X014287Y007888D01*
X014287Y007536D01*
X010487Y013166D02*
X010487Y015216D01*
X010427Y014916D02*
X010437Y014906D01*
X007946Y014010D02*
X007264Y013327D01*
X006387Y013327D01*
X005998Y013327D01*
X008587Y016916D02*
X009487Y016916D01*
X010987Y016916D02*
X010987Y017016D01*
X011237Y017266D01*
X012252Y017266D01*
X012637Y016916D01*
X023287Y012516D02*
X023287Y011816D01*
X023321Y012481D02*
X023287Y012516D01*
X023510Y007616D02*
X023710Y007616D01*
X023801Y007524D01*
D32*
X023801Y007524D03*
X015717Y008986D03*
X014898Y007998D03*
D33*
X014287Y007536D02*
X014252Y007536D01*
X014252Y006531D01*
X013587Y005866D01*
X012287Y005866D01*
X011387Y005516D02*
X013637Y005516D01*
X014848Y006727D01*
X014848Y007436D01*
X014581Y009221D02*
X014667Y009256D01*
X015957Y009426D02*
X015991Y009260D01*
X015957Y009426D02*
X016021Y009499D01*
X013787Y010316D02*
X013752Y010385D01*
X014605Y011716D02*
X015116Y011205D01*
X014605Y011716D02*
X013887Y011716D01*
X013787Y011816D01*
X013682Y011781D01*
X014487Y012416D02*
X013777Y013126D01*
X013787Y013076D01*
X014387Y013516D02*
X014487Y013416D01*
X014387Y013516D02*
X014387Y014166D01*
X014987Y014516D02*
X015587Y015116D01*
X015587Y016216D01*
X016087Y016716D01*
X016587Y016216D02*
X016587Y015416D01*
X016587Y016216D02*
X017087Y016716D01*
X017587Y016216D02*
X018087Y016716D01*
X017587Y016216D02*
X017587Y015416D01*
X015987Y013816D01*
X016287Y012516D02*
X016321Y012381D01*
X016321Y012281D02*
X016587Y012016D01*
X018963Y013616D02*
X018987Y013616D01*
X021656Y009236D02*
X024266Y009236D01*
X024287Y009216D01*
X023510Y007616D02*
X022052Y007616D01*
X021687Y008016D01*
X021587Y007281D02*
X021687Y007216D01*
X024088Y004718D02*
X023685Y004266D01*
X017887Y004266D01*
X017537Y004616D01*
X015987Y005216D02*
X015087Y005216D01*
X011837Y004566D02*
X011387Y004566D01*
X011237Y004716D01*
X011687Y004716D02*
X011837Y004566D01*
X010837Y005616D02*
X010837Y006846D01*
X010617Y007066D01*
X011450Y007066D01*
X010617Y007666D02*
X010317Y007966D01*
X009537Y007966D01*
X009187Y007616D01*
X009187Y007266D01*
X008687Y006766D01*
X008687Y006466D01*
X008687Y007466D02*
X007752Y007466D01*
X007237Y006966D01*
X008737Y004716D02*
X008587Y004566D01*
X008137Y004566D01*
X009187Y004716D02*
X009287Y004566D01*
X009837Y004566D01*
X008587Y009416D02*
X008552Y009630D01*
X008087Y010096D02*
X007907Y010096D01*
X007887Y010116D01*
X007102Y010080D02*
X007102Y009516D01*
X007237Y009416D01*
X008787Y015916D02*
X009387Y015916D01*
X008787Y015916D02*
X007952Y016750D01*
X007987Y016916D01*
X026243Y013672D02*
X026287Y013716D01*
D34*
X010427Y014916D02*
X010387Y014956D01*
X010387Y015116D01*
D35*
X010837Y005616D03*
X009187Y004716D03*
X008737Y004716D03*
D36*
X005237Y007020D02*
X005237Y008176D01*
X005237Y008976D01*
X005237Y010131D01*
X005237Y011260D02*
X005237Y012416D01*
X005237Y013216D01*
X005237Y014371D01*
X007787Y013916D02*
X007852Y013916D01*
X007946Y014010D01*
X008140Y014109D02*
X008487Y013763D01*
X008487Y013016D01*
X008287Y014016D02*
X008187Y014116D01*
X008487Y014116D01*
X009387Y015016D01*
X009387Y015916D01*
X010387Y015116D02*
X010487Y015216D01*
X010987Y015716D01*
X011437Y015716D01*
X012437Y015716D01*
X013237Y016516D01*
X013237Y016916D01*
X008187Y014116D02*
X008152Y014116D01*
X016787Y005216D02*
X016687Y005116D01*
D37*
X012287Y005866D03*
X011387Y005516D03*
X011237Y004716D03*
X006387Y007696D03*
X006387Y011916D03*
X009587Y013016D03*
X010487Y013166D03*
X009387Y015916D03*
X019168Y010868D03*
X019168Y010118D03*
D38*
X018219Y010240D03*
X018220Y011030D03*
X017457Y011737D03*
X015437Y011966D03*
X015666Y010470D03*
X015991Y010357D03*
X016457Y010117D03*
X015235Y010016D03*
X016431Y008946D03*
X017815Y009421D03*
X018160Y009363D03*
X019256Y008786D03*
X019661Y008786D03*
X020755Y010216D03*
X020382Y010974D03*
X020382Y011420D03*
X020646Y011794D03*
X020382Y011991D03*
X020646Y012254D03*
X021064Y012736D03*
X020242Y013866D03*
X019907Y013926D03*
X019337Y013916D03*
X018618Y013961D03*
X019571Y013316D03*
X019437Y014916D03*
X020187Y015166D03*
X023906Y012206D03*
X022707Y011275D03*
X022417Y011146D03*
X022730Y010509D03*
X022378Y010455D03*
X022641Y010161D03*
X023482Y010569D03*
X023987Y009516D03*
X024287Y009216D03*
X023887Y008116D03*
X024157Y007206D03*
X026387Y009216D03*
X018587Y006016D03*
X018587Y004716D03*
X016787Y007716D03*
X015787Y007716D03*
X014356Y007998D03*
X010637Y010466D03*
X010037Y010066D03*
X010037Y009316D03*
X009837Y009066D03*
X010737Y010916D03*
X011187Y011366D03*
X010487Y011516D03*
X007137Y012166D03*
D39*
X006752Y011911D03*
X004652Y010691D03*
X007837Y008816D03*
X008287Y008516D03*
X009187Y008516D03*
X010137Y008616D03*
X010487Y008316D03*
X011937Y007466D03*
X012637Y007466D03*
X013337Y007466D03*
X013787Y007066D03*
X015474Y006903D03*
X016687Y005116D03*
X012587Y009216D03*
X011937Y009666D03*
X011387Y010216D03*
X009637Y009716D03*
X008637Y010166D03*
X006952Y008051D03*
X005787Y006416D03*
X004787Y006416D03*
X007437Y004716D03*
X010487Y004716D03*
X013237Y009716D03*
X014687Y010416D03*
X013187Y012916D03*
X012687Y013166D03*
X012087Y012966D03*
X012087Y013616D03*
X012537Y014116D03*
X013287Y013666D03*
X012987Y014566D03*
X012037Y015266D03*
X010387Y016066D03*
X007387Y016366D03*
X007237Y015696D03*
X007172Y015096D03*
X006537Y015116D03*
X005587Y015016D03*
X004687Y014966D03*
X016187Y014616D03*
X016787Y013916D03*
X016837Y012916D03*
X024082Y012566D03*
X024987Y014666D03*
X026387Y014916D03*
X027587Y014816D03*
X024987Y017616D03*
X027187Y010216D03*
X027687Y010216D03*
X027587Y006416D03*
X026487Y006416D03*
X024987Y006316D03*
X024887Y003816D03*
D40*
X021987Y005216D02*
X021587Y005616D01*
X021587Y005882D01*
X021294Y006175D01*
X020566Y006047D02*
X020566Y005637D01*
X021012Y005191D01*
X020566Y006047D02*
X018802Y007811D01*
X018802Y008153D01*
X018999Y008153D02*
X018999Y007903D01*
X019589Y007817D02*
X020647Y006760D01*
X025331Y006760D01*
X026287Y007716D01*
X025799Y007595D02*
X025799Y008228D01*
X026287Y008716D01*
X025287Y008716D02*
X020492Y008716D01*
X020180Y008404D01*
X020180Y008153D01*
X020377Y008153D02*
X020377Y008400D01*
X020477Y008500D01*
X024503Y008500D01*
X025799Y007595D02*
X025111Y006906D01*
X020788Y006906D01*
X019786Y007909D01*
X019786Y008153D01*
X019589Y008153D02*
X019589Y007817D01*
X019983Y008153D02*
X019983Y008490D01*
X019987Y008490D01*
X020375Y008878D01*
X021656Y009039D02*
X018968Y009039D01*
X018614Y008686D01*
X017557Y008686D01*
X017210Y008339D01*
X011764Y008339D01*
X010037Y010066D01*
X009888Y010616D02*
X009671Y010616D01*
X009537Y010716D01*
X009888Y010616D02*
X012008Y008496D01*
X017166Y008496D01*
X017516Y008846D01*
X018416Y008846D01*
X019003Y009433D01*
X021656Y009433D01*
X021656Y009630D02*
X019002Y009630D01*
X018358Y008986D01*
X017458Y008986D01*
X017158Y008686D01*
X012066Y008686D01*
X010012Y010740D01*
X010012Y010891D01*
X009737Y011166D01*
X008987Y010881D02*
X008937Y010716D01*
X007837Y009416D02*
X007771Y009331D01*
X005937Y011266D02*
X005887Y011316D01*
X014987Y011816D02*
X014987Y012416D01*
X014987Y011816D02*
X015417Y011386D01*
X016916Y011386D01*
X016932Y011401D01*
X016932Y011795D02*
X016307Y011795D01*
X015987Y012116D01*
X015987Y013816D01*
X018014Y012878D02*
X018014Y012388D01*
X018087Y012316D01*
X018211Y012530D02*
X020526Y010216D01*
X020755Y010216D01*
X020888Y010545D02*
X021213Y010220D01*
X021656Y010220D01*
X021656Y010023D02*
X022179Y010023D01*
X022287Y009916D01*
X022727Y009916D01*
X023004Y010193D01*
X023004Y012853D01*
X023195Y013044D01*
X024765Y013044D01*
X024837Y013116D01*
X026009Y013116D01*
X026192Y013299D01*
X026463Y013299D01*
X026687Y013523D01*
X026687Y013892D01*
X025403Y015176D01*
X025297Y015176D01*
X026117Y014976D02*
X026387Y014916D01*
X025187Y015916D02*
X025137Y015966D01*
X025167Y015926D02*
X025187Y015916D01*
X023087Y016716D02*
X022675Y017127D01*
X021800Y017127D01*
X021487Y016814D01*
X021487Y012816D01*
X020888Y012217D01*
X020888Y010545D01*
X021054Y010584D02*
X021054Y012183D01*
X021687Y012816D01*
X021687Y016366D01*
X022037Y016716D01*
X022087Y016716D01*
X021087Y016716D02*
X020552Y016181D01*
X020552Y015486D01*
X020231Y015166D01*
X020187Y015166D01*
X019687Y014766D02*
X019687Y016316D01*
X020087Y016716D01*
X019537Y016316D02*
X019537Y015016D01*
X019437Y014916D01*
X019589Y014668D02*
X019589Y013913D01*
X020187Y013316D01*
X020180Y013309D01*
X020180Y012878D01*
X020377Y012878D02*
X020377Y013384D01*
X019979Y013781D01*
X019949Y013883D01*
X019907Y013926D01*
X019337Y013916D02*
X019983Y013269D01*
X019983Y012878D01*
X019589Y012878D02*
X019589Y012650D01*
X019720Y012519D01*
X020847Y012519D01*
X021064Y012736D01*
X020646Y012254D02*
X019781Y012254D01*
X019392Y012643D01*
X019392Y012878D01*
X019196Y012878D02*
X019196Y012635D01*
X019839Y011991D01*
X020382Y011991D01*
X020614Y011762D02*
X019862Y011762D01*
X018999Y012626D01*
X018999Y012878D01*
X018802Y012878D02*
X018802Y012542D01*
X019923Y011420D01*
X020382Y011420D01*
X020614Y011762D02*
X020646Y011794D01*
X021656Y011401D02*
X022581Y011401D01*
X022707Y011275D01*
X022417Y011146D02*
X022367Y011196D01*
X021665Y011196D01*
X021656Y011205D01*
X021656Y011008D02*
X022232Y011008D01*
X022730Y010509D01*
X022378Y010455D02*
X022023Y010811D01*
X021656Y010811D01*
X021658Y010616D02*
X021656Y010614D01*
X021842Y010614D01*
X021887Y010616D02*
X021658Y010616D01*
X021656Y010417D02*
X021220Y010417D01*
X021054Y010584D01*
X020382Y010974D02*
X019975Y010974D01*
X018408Y012542D01*
X018408Y012878D01*
X018211Y012878D02*
X018211Y012530D01*
X018605Y012878D02*
X018605Y013234D01*
X018987Y013616D01*
X019589Y014668D02*
X019687Y014766D01*
X019537Y016316D02*
X019087Y016716D01*
X018220Y011030D02*
X018220Y010858D01*
X018219Y010240D01*
X018014Y008153D02*
X018014Y007823D01*
X017847Y007656D01*
X017847Y006956D01*
X018061Y006741D01*
X018177Y006776D01*
X017687Y007722D02*
X017818Y007853D01*
X017818Y008153D01*
X017687Y007722D02*
X017687Y005516D01*
X017987Y005216D01*
X018587Y005216D01*
X019087Y004716D01*
X019487Y005316D02*
X019487Y006658D01*
X019648Y006753D02*
X019648Y005532D01*
X022335Y010167D02*
X021887Y010616D01*
X022335Y010167D02*
X022634Y010167D01*
X022641Y010161D01*
D41*
X015987Y005216D03*
X015087Y005216D03*
D42*
X014987Y012416D02*
X014487Y012416D01*
X014987Y012416D02*
X014987Y014516D01*
M02*
