G75*
%MOIN*%
%OFA0B0*%
%FSLAX24Y24*%
%IPPOS*%
%LPD*%
%AMOC8*
5,1,8,0,0,1.08239X$1,22.5*
%
%ADD10OC8,0.0650*%
%ADD11OC8,0.0390*%
%ADD12R,0.0641X0.0641*%
%ADD13C,0.0641*%
%ADD14C,0.0000*%
%ADD15C,0.1310*%
%ADD16C,0.0710*%
%ADD17OC8,0.0641*%
%ADD18C,0.0424*%
%ADD19R,0.0350X0.0650*%
%ADD20R,0.0450X0.0650*%
%ADD21R,0.0650X0.0850*%
%ADD22R,0.0650X0.0650*%
%ADD23C,0.0400*%
%ADD24R,0.0250X0.0350*%
%ADD25C,0.0350*%
%ADD26C,0.0387*%
%ADD27C,0.0426*%
%ADD28C,0.0320*%
%ADD29C,0.0370*%
%ADD30C,0.0347*%
%ADD31C,0.0330*%
D10*
X015087Y004716D03*
X015087Y005716D03*
X024087Y005716D03*
X024088Y004718D03*
X025287Y013716D03*
X026287Y013716D03*
X024087Y015716D03*
X024087Y016716D03*
X015087Y016716D03*
X015087Y015716D03*
D11*
X012556Y011660D03*
X012556Y009738D03*
D12*
X019087Y014416D03*
X016087Y015716D03*
X026287Y007716D03*
X016087Y004716D03*
D13*
X017087Y004716D03*
X018087Y004716D03*
X019087Y004716D03*
X020087Y004716D03*
X021087Y004716D03*
X022087Y004716D03*
X023087Y004716D03*
X023087Y005716D03*
X022087Y005716D03*
X021087Y005716D03*
X020087Y005716D03*
X019087Y005716D03*
X018087Y005716D03*
X017087Y005716D03*
X016087Y005716D03*
X025287Y007716D03*
X025287Y008716D03*
X026287Y008716D03*
X026287Y009716D03*
X025287Y009716D03*
X025287Y010716D03*
X026287Y010716D03*
X026287Y011716D03*
X025287Y011716D03*
X025287Y012716D03*
X026287Y012716D03*
X024087Y014416D03*
X023087Y014416D03*
X022087Y014416D03*
X021087Y014416D03*
X020087Y014416D03*
X020087Y015716D03*
X021087Y015716D03*
X022087Y015716D03*
X023087Y015716D03*
X023087Y016716D03*
X022087Y016716D03*
X021087Y016716D03*
X020087Y016716D03*
X019087Y016716D03*
X018087Y016716D03*
X017087Y016716D03*
X016087Y016716D03*
X017087Y015716D03*
X018087Y015716D03*
X019087Y015716D03*
D14*
X026434Y003416D02*
X005961Y003416D01*
X005331Y004990D02*
X005333Y005040D01*
X005339Y005090D01*
X005349Y005139D01*
X005363Y005187D01*
X005380Y005234D01*
X005401Y005279D01*
X005426Y005323D01*
X005454Y005364D01*
X005486Y005403D01*
X005520Y005440D01*
X005557Y005474D01*
X005597Y005504D01*
X005639Y005531D01*
X005683Y005555D01*
X005729Y005576D01*
X005776Y005592D01*
X005824Y005605D01*
X005874Y005614D01*
X005923Y005619D01*
X005974Y005620D01*
X006024Y005617D01*
X006073Y005610D01*
X006122Y005599D01*
X006170Y005584D01*
X006216Y005566D01*
X006261Y005544D01*
X006304Y005518D01*
X006345Y005489D01*
X006384Y005457D01*
X006420Y005422D01*
X006452Y005384D01*
X006482Y005344D01*
X006509Y005301D01*
X006532Y005257D01*
X006551Y005211D01*
X006567Y005163D01*
X006579Y005114D01*
X006587Y005065D01*
X006591Y005015D01*
X006591Y004965D01*
X006587Y004915D01*
X006579Y004866D01*
X006567Y004817D01*
X006551Y004769D01*
X006532Y004723D01*
X006509Y004679D01*
X006482Y004636D01*
X006452Y004596D01*
X006420Y004558D01*
X006384Y004523D01*
X006345Y004491D01*
X006304Y004462D01*
X006261Y004436D01*
X006216Y004414D01*
X006170Y004396D01*
X006122Y004381D01*
X006073Y004370D01*
X006024Y004363D01*
X005974Y004360D01*
X005923Y004361D01*
X005874Y004366D01*
X005824Y004375D01*
X005776Y004388D01*
X005729Y004404D01*
X005683Y004425D01*
X005639Y004449D01*
X005597Y004476D01*
X005557Y004506D01*
X005520Y004540D01*
X005486Y004577D01*
X005454Y004616D01*
X005426Y004657D01*
X005401Y004701D01*
X005380Y004746D01*
X005363Y004793D01*
X005349Y004841D01*
X005339Y004890D01*
X005333Y004940D01*
X005331Y004990D01*
X004386Y004990D02*
X004388Y004913D01*
X004394Y004836D01*
X004403Y004759D01*
X004416Y004683D01*
X004433Y004607D01*
X004454Y004533D01*
X004478Y004459D01*
X004506Y004387D01*
X004537Y004317D01*
X004572Y004248D01*
X004610Y004180D01*
X004651Y004115D01*
X004696Y004052D01*
X004744Y003991D01*
X004794Y003932D01*
X004847Y003876D01*
X004903Y003823D01*
X004962Y003773D01*
X005023Y003725D01*
X005086Y003680D01*
X005151Y003639D01*
X005219Y003601D01*
X005288Y003566D01*
X005358Y003535D01*
X005430Y003507D01*
X005504Y003483D01*
X005578Y003462D01*
X005654Y003445D01*
X005730Y003432D01*
X005807Y003423D01*
X005884Y003417D01*
X005961Y003415D01*
X005884Y003417D01*
X005807Y003423D01*
X005730Y003432D01*
X005654Y003445D01*
X005578Y003462D01*
X005504Y003483D01*
X005430Y003507D01*
X005358Y003535D01*
X005288Y003566D01*
X005219Y003601D01*
X005151Y003639D01*
X005086Y003680D01*
X005023Y003725D01*
X004962Y003773D01*
X004903Y003823D01*
X004847Y003876D01*
X004794Y003932D01*
X004744Y003991D01*
X004696Y004052D01*
X004651Y004115D01*
X004610Y004180D01*
X004572Y004248D01*
X004537Y004317D01*
X004506Y004387D01*
X004478Y004459D01*
X004454Y004533D01*
X004433Y004607D01*
X004416Y004683D01*
X004403Y004759D01*
X004394Y004836D01*
X004388Y004913D01*
X004386Y004990D01*
X004387Y004990D02*
X004387Y016408D01*
X005331Y016408D02*
X005333Y016458D01*
X005339Y016508D01*
X005349Y016557D01*
X005363Y016605D01*
X005380Y016652D01*
X005401Y016697D01*
X005426Y016741D01*
X005454Y016782D01*
X005486Y016821D01*
X005520Y016858D01*
X005557Y016892D01*
X005597Y016922D01*
X005639Y016949D01*
X005683Y016973D01*
X005729Y016994D01*
X005776Y017010D01*
X005824Y017023D01*
X005874Y017032D01*
X005923Y017037D01*
X005974Y017038D01*
X006024Y017035D01*
X006073Y017028D01*
X006122Y017017D01*
X006170Y017002D01*
X006216Y016984D01*
X006261Y016962D01*
X006304Y016936D01*
X006345Y016907D01*
X006384Y016875D01*
X006420Y016840D01*
X006452Y016802D01*
X006482Y016762D01*
X006509Y016719D01*
X006532Y016675D01*
X006551Y016629D01*
X006567Y016581D01*
X006579Y016532D01*
X006587Y016483D01*
X006591Y016433D01*
X006591Y016383D01*
X006587Y016333D01*
X006579Y016284D01*
X006567Y016235D01*
X006551Y016187D01*
X006532Y016141D01*
X006509Y016097D01*
X006482Y016054D01*
X006452Y016014D01*
X006420Y015976D01*
X006384Y015941D01*
X006345Y015909D01*
X006304Y015880D01*
X006261Y015854D01*
X006216Y015832D01*
X006170Y015814D01*
X006122Y015799D01*
X006073Y015788D01*
X006024Y015781D01*
X005974Y015778D01*
X005923Y015779D01*
X005874Y015784D01*
X005824Y015793D01*
X005776Y015806D01*
X005729Y015822D01*
X005683Y015843D01*
X005639Y015867D01*
X005597Y015894D01*
X005557Y015924D01*
X005520Y015958D01*
X005486Y015995D01*
X005454Y016034D01*
X005426Y016075D01*
X005401Y016119D01*
X005380Y016164D01*
X005363Y016211D01*
X005349Y016259D01*
X005339Y016308D01*
X005333Y016358D01*
X005331Y016408D01*
X004386Y016408D02*
X004388Y016485D01*
X004394Y016562D01*
X004403Y016639D01*
X004416Y016715D01*
X004433Y016791D01*
X004454Y016865D01*
X004478Y016939D01*
X004506Y017011D01*
X004537Y017081D01*
X004572Y017150D01*
X004610Y017218D01*
X004651Y017283D01*
X004696Y017346D01*
X004744Y017407D01*
X004794Y017466D01*
X004847Y017522D01*
X004903Y017575D01*
X004962Y017625D01*
X005023Y017673D01*
X005086Y017718D01*
X005151Y017759D01*
X005219Y017797D01*
X005288Y017832D01*
X005358Y017863D01*
X005430Y017891D01*
X005504Y017915D01*
X005578Y017936D01*
X005654Y017953D01*
X005730Y017966D01*
X005807Y017975D01*
X005884Y017981D01*
X005961Y017983D01*
X026434Y017983D01*
X025804Y016408D02*
X025806Y016458D01*
X025812Y016508D01*
X025822Y016557D01*
X025836Y016605D01*
X025853Y016652D01*
X025874Y016697D01*
X025899Y016741D01*
X025927Y016782D01*
X025959Y016821D01*
X025993Y016858D01*
X026030Y016892D01*
X026070Y016922D01*
X026112Y016949D01*
X026156Y016973D01*
X026202Y016994D01*
X026249Y017010D01*
X026297Y017023D01*
X026347Y017032D01*
X026396Y017037D01*
X026447Y017038D01*
X026497Y017035D01*
X026546Y017028D01*
X026595Y017017D01*
X026643Y017002D01*
X026689Y016984D01*
X026734Y016962D01*
X026777Y016936D01*
X026818Y016907D01*
X026857Y016875D01*
X026893Y016840D01*
X026925Y016802D01*
X026955Y016762D01*
X026982Y016719D01*
X027005Y016675D01*
X027024Y016629D01*
X027040Y016581D01*
X027052Y016532D01*
X027060Y016483D01*
X027064Y016433D01*
X027064Y016383D01*
X027060Y016333D01*
X027052Y016284D01*
X027040Y016235D01*
X027024Y016187D01*
X027005Y016141D01*
X026982Y016097D01*
X026955Y016054D01*
X026925Y016014D01*
X026893Y015976D01*
X026857Y015941D01*
X026818Y015909D01*
X026777Y015880D01*
X026734Y015854D01*
X026689Y015832D01*
X026643Y015814D01*
X026595Y015799D01*
X026546Y015788D01*
X026497Y015781D01*
X026447Y015778D01*
X026396Y015779D01*
X026347Y015784D01*
X026297Y015793D01*
X026249Y015806D01*
X026202Y015822D01*
X026156Y015843D01*
X026112Y015867D01*
X026070Y015894D01*
X026030Y015924D01*
X025993Y015958D01*
X025959Y015995D01*
X025927Y016034D01*
X025899Y016075D01*
X025874Y016119D01*
X025853Y016164D01*
X025836Y016211D01*
X025822Y016259D01*
X025812Y016308D01*
X025806Y016358D01*
X025804Y016408D01*
X026434Y017983D02*
X026511Y017981D01*
X026588Y017975D01*
X026665Y017966D01*
X026741Y017953D01*
X026817Y017936D01*
X026891Y017915D01*
X026965Y017891D01*
X027037Y017863D01*
X027107Y017832D01*
X027176Y017797D01*
X027244Y017759D01*
X027309Y017718D01*
X027372Y017673D01*
X027433Y017625D01*
X027492Y017575D01*
X027548Y017522D01*
X027601Y017466D01*
X027651Y017407D01*
X027699Y017346D01*
X027744Y017283D01*
X027785Y017218D01*
X027823Y017150D01*
X027858Y017081D01*
X027889Y017011D01*
X027917Y016939D01*
X027941Y016865D01*
X027962Y016791D01*
X027979Y016715D01*
X027992Y016639D01*
X028001Y016562D01*
X028007Y016485D01*
X028009Y016408D01*
X028009Y004990D01*
X025804Y004990D02*
X025806Y005040D01*
X025812Y005090D01*
X025822Y005139D01*
X025836Y005187D01*
X025853Y005234D01*
X025874Y005279D01*
X025899Y005323D01*
X025927Y005364D01*
X025959Y005403D01*
X025993Y005440D01*
X026030Y005474D01*
X026070Y005504D01*
X026112Y005531D01*
X026156Y005555D01*
X026202Y005576D01*
X026249Y005592D01*
X026297Y005605D01*
X026347Y005614D01*
X026396Y005619D01*
X026447Y005620D01*
X026497Y005617D01*
X026546Y005610D01*
X026595Y005599D01*
X026643Y005584D01*
X026689Y005566D01*
X026734Y005544D01*
X026777Y005518D01*
X026818Y005489D01*
X026857Y005457D01*
X026893Y005422D01*
X026925Y005384D01*
X026955Y005344D01*
X026982Y005301D01*
X027005Y005257D01*
X027024Y005211D01*
X027040Y005163D01*
X027052Y005114D01*
X027060Y005065D01*
X027064Y005015D01*
X027064Y004965D01*
X027060Y004915D01*
X027052Y004866D01*
X027040Y004817D01*
X027024Y004769D01*
X027005Y004723D01*
X026982Y004679D01*
X026955Y004636D01*
X026925Y004596D01*
X026893Y004558D01*
X026857Y004523D01*
X026818Y004491D01*
X026777Y004462D01*
X026734Y004436D01*
X026689Y004414D01*
X026643Y004396D01*
X026595Y004381D01*
X026546Y004370D01*
X026497Y004363D01*
X026447Y004360D01*
X026396Y004361D01*
X026347Y004366D01*
X026297Y004375D01*
X026249Y004388D01*
X026202Y004404D01*
X026156Y004425D01*
X026112Y004449D01*
X026070Y004476D01*
X026030Y004506D01*
X025993Y004540D01*
X025959Y004577D01*
X025927Y004616D01*
X025899Y004657D01*
X025874Y004701D01*
X025853Y004746D01*
X025836Y004793D01*
X025822Y004841D01*
X025812Y004890D01*
X025806Y004940D01*
X025804Y004990D01*
X026434Y003415D02*
X026511Y003417D01*
X026588Y003423D01*
X026665Y003432D01*
X026741Y003445D01*
X026817Y003462D01*
X026891Y003483D01*
X026965Y003507D01*
X027037Y003535D01*
X027107Y003566D01*
X027176Y003601D01*
X027244Y003639D01*
X027309Y003680D01*
X027372Y003725D01*
X027433Y003773D01*
X027492Y003823D01*
X027548Y003876D01*
X027601Y003932D01*
X027651Y003991D01*
X027699Y004052D01*
X027744Y004115D01*
X027785Y004180D01*
X027823Y004248D01*
X027858Y004317D01*
X027889Y004387D01*
X027917Y004459D01*
X027941Y004533D01*
X027962Y004607D01*
X027979Y004683D01*
X027992Y004759D01*
X028001Y004836D01*
X028007Y004913D01*
X028009Y004990D01*
X028007Y004913D01*
X028001Y004836D01*
X027992Y004759D01*
X027979Y004683D01*
X027962Y004607D01*
X027941Y004533D01*
X027917Y004459D01*
X027889Y004387D01*
X027858Y004317D01*
X027823Y004248D01*
X027785Y004180D01*
X027744Y004115D01*
X027699Y004052D01*
X027651Y003991D01*
X027601Y003932D01*
X027548Y003876D01*
X027492Y003823D01*
X027433Y003773D01*
X027372Y003725D01*
X027309Y003680D01*
X027244Y003639D01*
X027176Y003601D01*
X027107Y003566D01*
X027037Y003535D01*
X026965Y003507D01*
X026891Y003483D01*
X026817Y003462D01*
X026741Y003445D01*
X026665Y003432D01*
X026588Y003423D01*
X026511Y003417D01*
X026434Y003415D01*
X012952Y003916D02*
X012954Y003943D01*
X012960Y003969D01*
X012969Y003994D01*
X012982Y004017D01*
X012998Y004038D01*
X013017Y004057D01*
X013038Y004073D01*
X013061Y004086D01*
X013086Y004095D01*
X013112Y004101D01*
X013139Y004103D01*
X013166Y004101D01*
X013192Y004095D01*
X013217Y004086D01*
X013240Y004073D01*
X013261Y004057D01*
X013280Y004038D01*
X013296Y004017D01*
X013309Y003994D01*
X013318Y003969D01*
X013324Y003943D01*
X013326Y003916D01*
X013324Y003889D01*
X013318Y003863D01*
X013309Y003838D01*
X013296Y003815D01*
X013280Y003794D01*
X013261Y003775D01*
X013240Y003759D01*
X013217Y003746D01*
X013192Y003737D01*
X013166Y003731D01*
X013139Y003729D01*
X013112Y003731D01*
X013086Y003737D01*
X013061Y003746D01*
X013038Y003759D01*
X013017Y003775D01*
X012998Y003794D01*
X012982Y003815D01*
X012969Y003838D01*
X012960Y003863D01*
X012954Y003889D01*
X012952Y003916D01*
X012047Y003916D02*
X012049Y003943D01*
X012055Y003969D01*
X012064Y003994D01*
X012077Y004017D01*
X012093Y004038D01*
X012112Y004057D01*
X012133Y004073D01*
X012156Y004086D01*
X012181Y004095D01*
X012207Y004101D01*
X012234Y004103D01*
X012261Y004101D01*
X012287Y004095D01*
X012312Y004086D01*
X012335Y004073D01*
X012356Y004057D01*
X012375Y004038D01*
X012391Y004017D01*
X012404Y003994D01*
X012413Y003969D01*
X012419Y003943D01*
X012421Y003916D01*
X012419Y003889D01*
X012413Y003863D01*
X012404Y003838D01*
X012391Y003815D01*
X012375Y003794D01*
X012356Y003775D01*
X012335Y003759D01*
X012312Y003746D01*
X012287Y003737D01*
X012261Y003731D01*
X012234Y003729D01*
X012207Y003731D01*
X012181Y003737D01*
X012156Y003746D01*
X012133Y003759D01*
X012112Y003775D01*
X012093Y003794D01*
X012077Y003815D01*
X012064Y003838D01*
X012055Y003863D01*
X012049Y003889D01*
X012047Y003916D01*
X009252Y003916D02*
X009254Y003943D01*
X009260Y003969D01*
X009269Y003994D01*
X009282Y004017D01*
X009298Y004038D01*
X009317Y004057D01*
X009338Y004073D01*
X009361Y004086D01*
X009386Y004095D01*
X009412Y004101D01*
X009439Y004103D01*
X009466Y004101D01*
X009492Y004095D01*
X009517Y004086D01*
X009540Y004073D01*
X009561Y004057D01*
X009580Y004038D01*
X009596Y004017D01*
X009609Y003994D01*
X009618Y003969D01*
X009624Y003943D01*
X009626Y003916D01*
X009624Y003889D01*
X009618Y003863D01*
X009609Y003838D01*
X009596Y003815D01*
X009580Y003794D01*
X009561Y003775D01*
X009540Y003759D01*
X009517Y003746D01*
X009492Y003737D01*
X009466Y003731D01*
X009439Y003729D01*
X009412Y003731D01*
X009386Y003737D01*
X009361Y003746D01*
X009338Y003759D01*
X009317Y003775D01*
X009298Y003794D01*
X009282Y003815D01*
X009269Y003838D01*
X009260Y003863D01*
X009254Y003889D01*
X009252Y003916D01*
X008347Y003916D02*
X008349Y003943D01*
X008355Y003969D01*
X008364Y003994D01*
X008377Y004017D01*
X008393Y004038D01*
X008412Y004057D01*
X008433Y004073D01*
X008456Y004086D01*
X008481Y004095D01*
X008507Y004101D01*
X008534Y004103D01*
X008561Y004101D01*
X008587Y004095D01*
X008612Y004086D01*
X008635Y004073D01*
X008656Y004057D01*
X008675Y004038D01*
X008691Y004017D01*
X008704Y003994D01*
X008713Y003969D01*
X008719Y003943D01*
X008721Y003916D01*
X008719Y003889D01*
X008713Y003863D01*
X008704Y003838D01*
X008691Y003815D01*
X008675Y003794D01*
X008656Y003775D01*
X008635Y003759D01*
X008612Y003746D01*
X008587Y003737D01*
X008561Y003731D01*
X008534Y003729D01*
X008507Y003731D01*
X008481Y003737D01*
X008456Y003746D01*
X008433Y003759D01*
X008412Y003775D01*
X008393Y003794D01*
X008377Y003815D01*
X008364Y003838D01*
X008355Y003863D01*
X008349Y003889D01*
X008347Y003916D01*
X008838Y016253D02*
X008840Y016279D01*
X008846Y016305D01*
X008855Y016329D01*
X008868Y016352D01*
X008885Y016372D01*
X008904Y016390D01*
X008926Y016405D01*
X008949Y016416D01*
X008974Y016424D01*
X009000Y016428D01*
X009026Y016428D01*
X009052Y016424D01*
X009077Y016416D01*
X009101Y016405D01*
X009122Y016390D01*
X009141Y016372D01*
X009158Y016352D01*
X009171Y016329D01*
X009180Y016305D01*
X009186Y016279D01*
X009188Y016253D01*
X009186Y016227D01*
X009180Y016201D01*
X009171Y016177D01*
X009158Y016154D01*
X009141Y016134D01*
X009122Y016116D01*
X009100Y016101D01*
X009077Y016090D01*
X009052Y016082D01*
X009026Y016078D01*
X009000Y016078D01*
X008974Y016082D01*
X008949Y016090D01*
X008925Y016101D01*
X008904Y016116D01*
X008885Y016134D01*
X008868Y016154D01*
X008855Y016177D01*
X008846Y016201D01*
X008840Y016227D01*
X008838Y016253D01*
X005961Y017983D02*
X005884Y017981D01*
X005807Y017975D01*
X005730Y017966D01*
X005654Y017953D01*
X005578Y017936D01*
X005504Y017915D01*
X005430Y017891D01*
X005358Y017863D01*
X005288Y017832D01*
X005219Y017797D01*
X005151Y017759D01*
X005086Y017718D01*
X005023Y017673D01*
X004962Y017625D01*
X004903Y017575D01*
X004847Y017522D01*
X004794Y017466D01*
X004744Y017407D01*
X004696Y017346D01*
X004651Y017283D01*
X004610Y017218D01*
X004572Y017150D01*
X004537Y017081D01*
X004506Y017011D01*
X004478Y016939D01*
X004454Y016865D01*
X004433Y016791D01*
X004416Y016715D01*
X004403Y016639D01*
X004394Y016562D01*
X004388Y016485D01*
X004386Y016408D01*
X011988Y016253D02*
X011990Y016279D01*
X011996Y016305D01*
X012005Y016329D01*
X012018Y016352D01*
X012035Y016372D01*
X012054Y016390D01*
X012076Y016405D01*
X012099Y016416D01*
X012124Y016424D01*
X012150Y016428D01*
X012176Y016428D01*
X012202Y016424D01*
X012227Y016416D01*
X012251Y016405D01*
X012272Y016390D01*
X012291Y016372D01*
X012308Y016352D01*
X012321Y016329D01*
X012330Y016305D01*
X012336Y016279D01*
X012338Y016253D01*
X012336Y016227D01*
X012330Y016201D01*
X012321Y016177D01*
X012308Y016154D01*
X012291Y016134D01*
X012272Y016116D01*
X012250Y016101D01*
X012227Y016090D01*
X012202Y016082D01*
X012176Y016078D01*
X012150Y016078D01*
X012124Y016082D01*
X012099Y016090D01*
X012075Y016101D01*
X012054Y016116D01*
X012035Y016134D01*
X012018Y016154D01*
X012005Y016177D01*
X011996Y016201D01*
X011990Y016227D01*
X011988Y016253D01*
X026434Y017983D02*
X026511Y017981D01*
X026588Y017975D01*
X026665Y017966D01*
X026741Y017953D01*
X026817Y017936D01*
X026891Y017915D01*
X026965Y017891D01*
X027037Y017863D01*
X027107Y017832D01*
X027176Y017797D01*
X027244Y017759D01*
X027309Y017718D01*
X027372Y017673D01*
X027433Y017625D01*
X027492Y017575D01*
X027548Y017522D01*
X027601Y017466D01*
X027651Y017407D01*
X027699Y017346D01*
X027744Y017283D01*
X027785Y017218D01*
X027823Y017150D01*
X027858Y017081D01*
X027889Y017011D01*
X027917Y016939D01*
X027941Y016865D01*
X027962Y016791D01*
X027979Y016715D01*
X027992Y016639D01*
X028001Y016562D01*
X028007Y016485D01*
X028009Y016408D01*
D15*
X026434Y016408D03*
X026434Y004990D03*
X005961Y004990D03*
X005961Y016408D03*
D16*
X014487Y013416D03*
X014487Y012416D03*
D17*
X009687Y007466D03*
X008687Y007466D03*
X008687Y006466D03*
X009687Y006466D03*
D18*
X009439Y003916D03*
X008534Y003916D03*
X012234Y003916D03*
X013139Y003916D03*
D19*
X011769Y011962D03*
X011336Y011962D03*
X010903Y011962D03*
X010470Y011962D03*
X010037Y011962D03*
X009604Y011962D03*
X009170Y011962D03*
X008737Y011962D03*
X008304Y011962D03*
D20*
X007774Y012198D03*
D21*
X007911Y016046D03*
X013974Y016046D03*
D22*
X013651Y012116D03*
D23*
X012163Y016253D03*
X009013Y016253D03*
D24*
X009262Y011216D03*
X009587Y011216D03*
X009887Y011216D03*
X010212Y011216D03*
X010212Y010616D03*
X009887Y010616D03*
X009587Y010616D03*
X009262Y010616D03*
D25*
X014898Y007998D03*
X015717Y008986D03*
X023851Y007524D03*
D26*
X009187Y004716D03*
X008687Y004716D03*
D27*
X009737Y005616D03*
X011387Y005566D03*
X012287Y005866D03*
X011237Y004716D03*
X014337Y005916D03*
X016887Y006716D03*
X019168Y010118D03*
X019168Y010868D03*
X010487Y013116D03*
X009587Y013016D03*
X006387Y011916D03*
X009387Y015866D03*
X006387Y007696D03*
D28*
X008987Y009866D03*
X010037Y010066D03*
X010637Y010466D03*
X010737Y010916D03*
X010487Y011466D03*
X011187Y011366D03*
X011387Y010966D03*
X010037Y009316D03*
X009737Y009066D03*
X014356Y007998D03*
X015337Y007716D03*
X016787Y007966D03*
X016431Y008946D03*
X017815Y009471D03*
X018160Y009363D03*
X019256Y008786D03*
X019661Y008786D03*
X021137Y008166D03*
X020387Y007666D03*
X018587Y006016D03*
X018587Y004716D03*
X020087Y003696D03*
X024257Y007156D03*
X023887Y008166D03*
X024287Y009216D03*
X023737Y009966D03*
X023482Y010569D03*
X022730Y010559D03*
X022328Y010555D03*
X022591Y010211D03*
X022417Y009496D03*
X020755Y010216D03*
X020382Y010974D03*
X020382Y011420D03*
X020646Y011794D03*
X020332Y011991D03*
X020646Y012254D03*
X021064Y012736D03*
X020242Y013866D03*
X019571Y013316D03*
X019337Y013866D03*
X018468Y013361D03*
X019437Y014916D03*
X015437Y011966D03*
X017457Y011737D03*
X018220Y011030D03*
X018219Y010240D03*
X016457Y010117D03*
X015991Y010357D03*
X015666Y010470D03*
X015335Y010066D03*
X022417Y011146D03*
X022757Y011275D03*
X023887Y011266D03*
X023906Y012206D03*
X026387Y009216D03*
X014737Y005216D03*
X007137Y012166D03*
D29*
X006752Y011911D03*
X007922Y013196D03*
X007237Y013926D03*
X006737Y013876D03*
X006737Y014276D03*
X007222Y014376D03*
X006737Y014676D03*
X007222Y014796D03*
X006737Y015096D03*
X007222Y015246D03*
X007237Y015696D03*
X006172Y014996D03*
X006172Y014546D03*
X005587Y015016D03*
X004737Y014966D03*
X006172Y013996D03*
X009587Y014266D03*
X009587Y013716D03*
X011022Y013146D03*
X012087Y012966D03*
X012687Y013166D03*
X013187Y012916D03*
X013287Y013666D03*
X012537Y014116D03*
X012087Y013616D03*
X012987Y014566D03*
X012037Y015266D03*
X010387Y016066D03*
X007387Y016366D03*
X007422Y016946D03*
X016187Y014616D03*
X016787Y013916D03*
X016837Y012916D03*
X018932Y013566D03*
X023382Y013666D03*
X023682Y012616D03*
X024987Y014666D03*
X026387Y014916D03*
X027587Y014816D03*
X024987Y017616D03*
X014687Y010416D03*
X013237Y009716D03*
X012587Y009216D03*
X011937Y009666D03*
X011387Y010216D03*
X009637Y009716D03*
X008637Y010166D03*
X007837Y008816D03*
X008287Y008516D03*
X009187Y008516D03*
X010137Y008616D03*
X010487Y008316D03*
X012037Y007466D03*
X012637Y007466D03*
X013337Y007466D03*
X013687Y007166D03*
X014474Y006503D03*
X015174Y007003D03*
X017124Y007303D03*
X017174Y008003D03*
X013887Y008966D03*
X011774Y005903D03*
X010424Y005853D03*
X010487Y004716D03*
X007437Y004766D03*
X007444Y004283D03*
X005787Y006416D03*
X004787Y006416D03*
X006952Y008051D03*
X004702Y010691D03*
X013474Y005503D03*
X014757Y003736D03*
X016687Y005116D03*
X024887Y003816D03*
X024987Y006316D03*
X026487Y006416D03*
X027587Y006416D03*
X027687Y010216D03*
X027187Y010216D03*
D30*
X015987Y005216D03*
D31*
X012987Y006766D03*
M02*
