<?xml version="1.0" standalone="no"?>
<!DOCTYPE svg PUBLIC "-//W3C//DTD SVG 1.1//EN" "http://www.w3.org/Graphics/SVG/1.1/DTD/svg11.dtd">
<svg width="61.0mm" height="84.0mm"
 viewBox="0 0 61.0 84.0"
 xmlns="http://www.w3.org/2000/svg" version="1.1"
 xmlns:xlink="http://www.w3.org/1999/xlink">
<desc>Output from Flights of Ideas SVG Sketchup Plugin</desc>

<g id="text_annotations" font-size="10" stroke="rgb(255,0,0)" stroke-width="0">
</g>
  <path id="face0-cut"
 style="fill:none;stroke:rgb(0,0,255);stroke-width:0;stroke-miterlimit:4;stroke-dasharray:none;stroke-linejoin:round;stroke-linecap:round"
        d="M 51.0,70.0 L 51.0,14.0 L 50.9657794454953,13.4778952311198 L 50.8637033051563,12.9647238195899 L 50.6955181300452,12.4692662705396 L 50.4641016151378,12.0 L 50.173413361165,11.5649542839651 L 49.8284271247462,11.1715728752538 L 49.4350457160349,10.8265866388351 L 49.0,10.5358983848622 L 48.5307337294604,10.3044818699549 L 48.0352761804101,10.1362966948437 L 47.5221047688802,10.0342205545048 L 47.0,10.0 L 14.0,10.0 L 13.4778952311198,10.0342205545048 L 12.9647238195899,10.1362966948437 L 12.4692662705397,10.3044818699548 L 12.0,10.5358983848622 L 11.5649542839651,10.8265866388351 L 11.1715728752538,11.1715728752538 L 10.8265866388351,11.5649542839651 L 10.5358983848623,12.0 L 10.3044818699549,12.4692662705397 L 10.1362966948437,12.9647238195899 L 10.0342205545048,13.4778952311198 L 10.0,14.0 L 10.0,70.0 L 10.0342205545048,70.52210476888 L 10.1362966948438,71.03527618041 L 10.3044818699549,71.5307337294603 L 10.5358983848623,72.0 L 10.8265866388351,72.4350457160348 L 11.1715728752538,72.8284271247463 L 11.5649542839651,73.173413361165 L 12.0,73.4641016151378 L 12.4692662705397,73.6955181300452 L 12.9647238195899,73.8637033051563 L 13.4778952311198,73.9657794454953 L 14.0,74.0 L 47.0,74.0 L 47.5221047688802,73.9657794454953 L 48.0352761804101,73.8637033051563 L 48.5307337294604,73.6955181300452 L 49.0,73.4641016151378 L 49.4350457160349,73.173413361165 L 49.8284271247462,72.8284271247462 L 50.173413361165,72.4350457160349 L 50.4641016151378,72.0 L 50.6955181300452,71.5307337294604 L 50.8637033051563,71.0352761804101 L 50.9657794454953,70.5221047688802 L 51.0,70.0 M 45.8365,47.9315214697113 L 43.3045,47.9315214697113 L 42.772766974443,47.894611026006 L 42.516288885392,47.8197107659212 L 42.2731271848556,47.708970319307 L 42.0482609943468,47.5646572724606 L 41.8462948057911,47.3897266639202 L 41.6713641972508,47.1877604753645 L 41.5270511504043,46.9628942848557 L 41.4163107037902,46.7197325843194 L 41.3414104437053,46.4632544952683 L 41.3045,45.9315214697113 L 41.3045,38.7719845607733 L 41.2640551972718,38.2417870157273 L 41.1881151695283,37.9862949351686 L 41.0768171026541,37.7441052752903 L 40.9323968019008,37.5200832500958 L 40.7577554467406,37.3187291140327 L 40.5564013106775,37.1440877588725 L 40.332379285483,36.9996674581193 L 39.5296883232449,36.6956046938142 L 39.3207,36.5643845607733 L 39.1362119417722,36.4004974077096 L 38.9812757236314,36.2084307242995 L 38.8601337444866,35.9934436003667 L 38.7761030634889,35.7614227236788 L 38.7275,35.2719845607733 L 38.7275,23.1210140174816 L 38.6593516525782,22.6033759272766 L 38.5752590650226,22.3556471527514 L 38.4595508075689,22.1210140174816 L 38.3142066805825,21.9034911594642 L 38.1417135623731,21.7068004551085 L 37.9450228580175,21.5343073368991 L 37.7275,21.3889632099127 L 37.4928668647302,21.273254952459 L 37.2451380902051,21.1891623649035 L 36.7275,21.1210140174816 L 21.7426331980672,21.1210140174816 L 21.5748568808095,21.1306240795716 L 21.4092751827963,21.1593285602144 L 21.2480540162786,21.2067519868365 L 21.0933022550261,21.2722740313343 L 20.9470441489384,21.3550376243541 L 20.8111928455891,21.4539601662959 L 20.6875253650582,21.5677476883933 L 20.5776593553972,21.6949117786352 L 20.4830319327797,21.8337890511268 L 20.4048808831229,21.9825629042175 L 20.3442284710728,22.1392872827883 L 20.3018680681424,22.3019121338705 L 20.2776331980672,45.9315214697113 L 20.2346667872728,46.4606144714061 L 20.1579849322283,46.7154025020294 L 20.0462883881936,46.9568997680444 L 19.9017901529917,47.180321583151 L 19.7273531109018,47.3812413825459 L 19.5264333115069,47.5556784246358 L 19.3030114964003,47.7001766598377 L 19.0615142303853,47.8118732038724 L 18.806726199762,47.8885550589168 L 18.2776331980672,47.9315214697113 L 15.6326331980672,47.9315214697113 L 15.1149951078622,47.8633731222894 L 14.867266333337,47.7792805347339 L 14.6326331980672,47.6635722772802 L 14.4151103400498,47.5182281502938 L 14.2184196356941,47.3457350320844 L 14.0459265174847,47.1490443277287 L 13.9005823904983,46.9315214697113 L 13.7848741330446,46.6968883344415 L 13.7007815454891,46.4491595599163 L 13.6326331980672,45.9315214697113 L 13.6326331980672,21.0670140174816 L 13.6941807566312,20.5462973414007 L 13.7763300615236,20.2967129527593 L 13.8909806865802,20.0602893720361 L 14.0360908292341,19.8412370453038 L 14.2090762361365,19.6434570555508 L 14.4068562258894,19.4704716486485 L 14.6259085526217,19.3253615059946 L 14.8623321333449,19.210710880938 L 15.1119165219863,19.1285615760456 L 15.6326331980672,19.0670140174816 L 18.2776331980672,19.0670140174816 L 18.4582832906074,19.0849396693829 L 18.8178456532036,19.041991551341 L 18.9891914593244,18.9820215617155 L 19.1500578371794,18.8978919390686 L 19.29705958917,18.7913730682401 L 19.427103278467,18.6647064830453 L 19.5374523258636,18.5205576964755 L 19.6257845970814,18.361960108876 L 19.6902412686896,18.1922511744733 L 19.7426331980672,17.8339430400762 L 19.7426331980672,15.4778952311198 L 19.8107815454891,14.9602571409147 L 19.8948741330446,14.7125283663896 L 20.0105823904983,14.4778952311198 L 20.1559265174847,14.2603723731024 L 20.3284196356941,14.0636816687467 L 20.5251103400498,13.8911885505373 L 20.7426331980672,13.7458444235509 L 20.977266333337,13.6301361660972 L 21.2249951078622,13.5460435785417 L 21.7426331980672,13.4778952311198 L 39.3045,13.4778952311198 L 39.8221380902051,13.5460435785417 L 40.0698668647302,13.6301361660972 L 40.3045,13.7458444235509 L 40.5220228580175,13.8911885505373 L 40.7187135623731,14.0636816687467 L 40.8912066805825,14.2603723731024 L 41.0365508075689,14.4778952311198 L 41.1522590650226,14.7125283663896 L 41.2363516525782,14.9602571409148 L 41.3045,15.4778952311198 L 41.3045,17.1210140174816 L 41.3664584033276,17.6415406782595 L 41.4487286399748,17.8910096829525 L 41.5634449608466,18.1273216417403 L 41.7085694058741,18.3462784219412 L 41.8815238081347,18.543990209347 L 42.0792355955404,18.7169446116075 L 42.2981923757413,18.862069056635 L 42.5345043345291,18.9767853775068 L 42.7839733392221,19.059055614154 L 43.3045,19.1210140174816 L 45.8365,19.1210140174816 L 46.3540860799079,19.1891671845788 L 46.6017862080649,19.2732653500505 L 46.8363876501306,19.3889805966925 L 47.053874953306,19.534332335183 L 47.2505255914524,19.706832716172 L 47.422973680079,19.9035292124645 L 47.5682675870301,20.121055154659 L 47.6839204528039,20.3556873552688 L 47.7679527557936,20.6034098350299 L 47.8359683026068,21.1210140174816 L 47.8359683026068,45.9315214697113 L 47.8188638084016,46.1925299284194 L 47.7678428894976,46.4490739696159 L 47.6837782328758,46.6967655373898 L 47.5681077219174,46.9313679929051 L 47.4228098421368,47.1488685799629 L 47.2503698401889,47.3455470611637 L 47.0537372149836,47.5180393506843 L 46.8362752680003,47.6633950552626 L 46.6017035757196,47.7791279391798 L 46.3540343681509,47.8632584500635 L 46.0975039016703,47.9143475781287 L 45.8365,47.9315214697113 M 25.6290868580027,57.0982375995806 L 25.6290868580027,62.7482375995806 L 25.6119765807504,63.0092899840207 L 25.5609385105809,63.2658756897856 L 25.4768459230253,63.5136044643108 L 25.3611376655716,63.7482375995806 L 25.2157935385852,63.9657604575981 L 25.0433004203758,64.1624511619537 L 24.8466097160202,64.3349442801631 L 24.6290868580027,64.4802884071495 L 24.3944537227329,64.5959966646032 L 24.1467249482078,64.6800892521587 L 23.8901392424428,64.7311273223282 L 23.6290868580027,64.7482375995806 L 19.0290868580027,64.7482375995806 L 18.7680344735626,64.7311273223282 L 18.5114487677977,64.6800892521587 L 18.2637199932726,64.5959966646032 L 18.0290868580027,64.4802884071495 L 17.8115639999853,64.3349442801631 L 17.6148732956297,64.1624511619537 L 17.4423801774203,63.9657604575981 L 17.2970360504339,63.7482375995806 L 17.1813277929802,63.5136044643108 L 17.0972352054246,63.2658756897857 L 17.0461971352551,63.0092899840207 L 17.0290868580027,62.7482375995806 L 17.0290868580028,57.0982375995806 L 17.0461971352551,56.8371852151405 L 17.0972352054246,56.5805995093755 L 17.1813277929802,56.3328707348504 L 17.2970360504339,56.0982375995806 L 17.4423801774203,55.8807147415632 L 17.6148732956297,55.6840240372075 L 17.8115639999853,55.5115309189981 L 18.0290868580028,55.3661867920117 L 18.2637199932726,55.250478534558 L 18.5114487677977,55.1663859470025 L 18.7680344735626,55.115347876833 L 19.0290868580027,55.0982375995806 L 23.6290868580027,55.0982375995806 L 23.8901392424428,55.115347876833 L 24.1467249482078,55.1663859470025 L 24.3944537227329,55.250478534558 L 24.6290868580027,55.3661867920117 L 24.8466097160202,55.5115309189981 L 25.0433004203758,55.6840240372075 L 25.2157935385852,55.8807147415632 L 25.3611376655716,56.0982375995806 L 25.4768459230253,56.3328707348504 L 25.5609385105809,56.5805995093756 L 25.6119765807504,56.8371852151405 L 25.6290868580027,57.0982375995806 M 45.3016207200096,69.5713131264204 L 45.1357214637293,69.5942332590569 L 44.9683352146908,69.5996866384925 L 44.8012958916665,69.5876135163608 L 44.7184789372181,69.5750383776944 L 44.6364336124345,69.5581461683144 L 44.4755546426259,69.5116074447848 L 44.3204216058999,69.448507233766 L 44.1727341722707,69.3695368743744 L 44.0341104361665,69.2755615823932 L 43.9686764190833,69.2232627156278 L 43.906069188249,69.1676109707869 L 43.7900132752249,69.0468677690463 L 43.6872142299633,68.9146548649568 L 43.5987983403164,68.7724208107631 L 43.5257343092733,68.6217239525272 L 43.4952162215903,68.5437147967777 L 43.4688226416477,68.4642153565633 L 43.4286868735797,68.3016207200096 L 43.4057667409431,68.1357214637293 L 43.4003133615076,67.9683352146908 L 43.4123864836393,67.8012958916665 L 43.4249616223057,67.7184789372181 L 43.4418538316857,67.6364336124345 L 43.4883925552153,67.4755546426259 L 43.5514927662341,67.3204216058999 L 43.6304631256256,67.1727341722706 L 43.7244384176069,67.0341104361664 L 43.7767372843722,66.9686764190833 L 43.8323890292132,66.906069188249 L 43.9531322309538,66.7900132752249 L 44.0853451350432,66.6872142299633 L 44.2275791892369,66.5987983403164 L 44.3782760474729,66.5257343092733 L 44.4562852032224,66.4952162215903 L 44.5357846434367,66.4688226416477 L 44.6983792799904,66.4286868735797 L 44.8642785362708,66.4057667409431 L 45.0316647853092,66.4003133615076 L 45.1987041083336,66.4123864836393 L 45.281521062782,66.4249616223056 L 45.3635663875655,66.4418538316857 L 45.5244453573741,66.4883925552153 L 45.6795783941001,66.551492766234 L 45.8272658277294,66.6304631256256 L 45.9658895638336,66.7244384176068 L 46.0313235809168,66.7767372843722 L 46.093930811751,66.8323890292132 L 46.2099867247752,66.9531322309538 L 46.3127857700367,67.0853451350432 L 46.4012016596837,67.2275791892369 L 46.4742656907268,67.3782760474728 L 46.5047837784098,67.4562852032224 L 46.5311773583524,67.5357846434367 L 46.5713131264204,67.6983792799904 L 46.5942332590569,67.8642785362707 L 46.5996866384925,68.0316647853092 L 46.5876135163608,68.1987041083336 L 46.5750383776944,68.281521062782 L 46.5581461683143,68.3635663875655 L 46.5116074447848,68.5244453573741 L 46.448507233766,68.6795783941001 L 46.3695368743744,68.8272658277294 L 46.2755615823932,68.9658895638336 L 46.2232627156278,69.0313235809168 L 46.1676109707869,69.093930811751 L 46.0468677690463,69.2099867247752 L 45.9146548649568,69.3127857700367 L 45.7724208107631,69.4012016596836 L 45.6217239525272,69.4742656907268 L 45.5437147967777,69.5047837784097 L 45.4642153565633,69.5311773583524 L 45.3016207200096,69.5713131264204 M 17.1507865167371,66.8883838824054 L 17.2073868963004,66.9501348264458 L 17.3105134977814,67.0820923945555 L 17.399281839138,67.224106750475 L 17.4727193558466,67.3746219552023 L 17.5300214511061,67.5319889326573 L 17.5524184166243,67.6127054612754 L 17.5705603111697,67.6944835373037 L 17.5938917838033,67.8603254442488 L 17.5997602445103,68.0276976548555 L 17.588101397207,68.1947664041595 L 17.5590429786644,68.3597012519821 L 17.5380810554617,68.4408022990296 L 17.5129033589968,68.5206951376154 L 17.4501880535326,68.6759841783588 L 17.3715841842826,68.8238669949851 L 17.2779529516871,68.9627233524093 L 17.1703201991241,69.0910319113217 L 17.1116161175946,69.150786516737 L 17.0498651735543,69.2073868963004 L 16.9179076054445,69.3105134977813 L 16.7758932495251,69.3992818391379 L 16.6253780447977,69.4727193558467 L 16.4680110673427,69.5300214511063 L 16.3872945387246,69.5524184166242 L 16.3055164626964,69.5705603111697 L 16.1396745557512,69.5938917838033 L 15.9723023451446,69.5997602445103 L 15.8052335958406,69.5881013972069 L 15.640298748018,69.5590429786644 L 15.5591977009704,69.538081055462 L 15.4793048623845,69.5129033589966 L 15.3240158216412,69.4501880535325 L 15.1761330050148,69.3715841842828 L 15.0372766475907,69.2779529516874 L 14.9089680886784,69.170320199124 L 14.8492134832629,69.1116161175945 L 14.7926131036996,69.0498651735543 L 14.6894865022187,68.9179076054445 L 14.600718160862,68.775893249525 L 14.5272806441535,68.6253780447978 L 14.4699785488939,68.4680110673427 L 14.4475815833758,68.3872945387246 L 14.4294396888303,68.3055164626964 L 14.4061082161967,68.1396745557513 L 14.4002397554898,67.9723023451446 L 14.411898602793,67.8052335958405 L 14.4409570213357,67.6402987480181 L 14.4619189445383,67.5591977009704 L 14.4870966410033,67.4793048623846 L 14.5498119464674,67.3240158216412 L 14.6284158157175,67.1761330050148 L 14.7220470483129,67.0372766475907 L 14.8296798008759,66.9089680886784 L 14.8883838824054,66.8492134832629 L 14.9501348264458,66.7926131036996 L 15.0820923945555,66.6894865022187 L 15.224106750475,66.6007181608619 L 15.3746219552024,66.5272806441535 L 15.5319889326573,66.4699785488939 L 15.6127054612754,66.4475815833758 L 15.6944835373037,66.4294396888303 L 15.8603254442488,66.4061082161967 L 16.0276976548555,66.4002397554898 L 16.1947664041595,66.411898602793 L 16.359701251982,66.4409570213357 L 16.4408022990297,66.4619189445383 L 16.5206951376155,66.4870966410033 L 16.6759841783588,66.5498119464674 L 16.8238669949852,66.6284158157175 L 16.9627233524094,66.7220470483129 L 17.0910319113217,66.8296798008759 L 17.1507865167371,66.8883838824054 M 14.7055728090001,16.940456403668 L 14.6581270912873,16.8714224560241 L 14.6143593539449,16.8 L 14.5383272677719,16.6507786289213 L 14.4783095739278,16.4944271909999 L 14.4349638388259,16.3326587053084 L 14.4087649674108,16.1672455412282 L 14.4021927443927,16.0837375299887 L 14.4,16.0 L 14.4087649674108,15.8327544587718 L 14.4349638388259,15.6673412946916 L 14.4783095739278,15.5055728090001 L 14.5383272677719,15.3492213710787 L 14.5743895612986,15.2736152004167 L 14.6143593539449,15.2 L 14.7055728090001,15.059543596332 L 14.8109682792362,14.9293910298258 L 14.9293910298259,14.8109682792362 L 15.0595435963321,14.7055728090001 L 15.128577543976,14.6581270912873 L 15.2,14.6143593539449 L 15.3492213710787,14.5383272677718 L 15.5055728090001,14.4783095739278 L 15.6673412946916,14.4349638388259 L 15.8327544587718,14.4087649674108 L 15.9162624700113,14.4021927443927 L 16.0,14.4 L 16.1672455412283,14.4087649674108 L 16.3326587053084,14.4349638388259 L 16.4944271909999,14.4783095739277 L 16.6507786289213,14.5383272677719 L 16.7263847995833,14.5743895612986 L 16.8,14.6143593539449 L 16.940456403668,14.7055728090001 L 17.0706089701742,14.8109682792362 L 17.1890317207639,14.9293910298258 L 17.2944271909999,15.059543596332 L 17.3418729087127,15.1285775439759 L 17.3856406460551,15.2 L 17.4616727322282,15.3492213710787 L 17.5216904260723,15.5055728090001 L 17.5650361611741,15.6673412946916 L 17.5912350325893,15.8327544587717 L 17.5978072556073,15.9162624700113 L 17.6,16.0 L 17.5912350325893,16.1672455412282 L 17.5650361611741,16.3326587053084 L 17.5216904260723,16.4944271909999 L 17.4616727322282,16.6507786289213 L 17.4256104387014,16.7263847995833 L 17.3856406460551,16.8 L 17.2944271909999,16.940456403668 L 17.1890317207638,17.0706089701742 L 17.0706089701742,17.1890317207638 L 16.940456403668,17.2944271909999 L 16.8714224560241,17.3418729087127 L 16.8,17.3856406460551 L 16.6507786289213,17.4616727322282 L 16.4944271909999,17.5216904260722 L 16.3326587053084,17.5650361611741 L 16.1672455412283,17.5912350325892 L 16.0837375299887,17.5978072556073 L 16.0,17.6 L 15.8327544587718,17.5912350325892 L 15.6673412946916,17.5650361611741 L 15.5055728090001,17.5216904260722 L 15.3492213710787,17.4616727322281 L 15.2736152004167,17.4256104387014 L 15.2,17.3856406460551 L 15.0595435963321,17.2944271909999 L 14.9293910298259,17.1890317207638 L 14.8109682792362,17.0706089701742 L 14.7055728090001,16.940456403668 M 45.7591545821809,17.4084332857306 L 45.6077744869756,17.4800710026825 L 45.449735487306,17.5354927520043 L 45.2867690915243,17.5740913214126 L 45.1206607935656,17.5954438169037 L 45.036996354352,17.5995722146139 L 44.9532305107027,17.5993162960687 L 44.7863126441517,17.5856663312155 L 44.6217359809883,17.5546434742156 L 44.461303657574,17.506587617982 L 44.3067734040168,17.4420252725322 L 44.2322536754093,17.4037683502193 L 44.1598382861122,17.3616637964333 L 44.0221081557601,17.2663836468341 L 43.8950920130904,17.1572287329925 L 43.7801814735423,17.0353949789865 L 43.6786355210334,16.9022172209204 L 43.6332280041327,16.8318258900232 L 43.5915667142694,16.7591545821808 L 43.5199289973175,16.6077744869756 L 43.4645072479958,16.449735487306 L 43.4259086785875,16.2867690915243 L 43.4045561830964,16.1206607935656 L 43.4004277853862,16.036996354352 L 43.4006837039314,15.9532305107027 L 43.4143336687845,15.7863126441516 L 43.4453565257845,15.6217359809882 L 43.493412382018,15.461303657574 L 43.5579747274679,15.3067734040168 L 43.5962316497807,15.2322536754093 L 43.6383362035668,15.1598382861121 L 43.7336163531659,15.02210815576 L 43.8427712670075,14.8950920130904 L 43.9646050210135,14.7801814735423 L 44.0977827790796,14.6786355210334 L 44.1681741099769,14.6332280041327 L 44.2408454178192,14.5915667142694 L 44.3922255130245,14.5199289973175 L 44.550264512694,14.4645072479957 L 44.7132309084757,14.4259086785874 L 44.8793392064344,14.4045561830963 L 44.9630036456481,14.4004277853862 L 45.0467694892974,14.4006837039313 L 45.2136873558484,14.4143336687845 L 45.3782640190118,14.4453565257844 L 45.5386963424261,14.4934123820179 L 45.6932265959833,14.5579747274678 L 45.7677463245907,14.5962316497807 L 45.8401617138879,14.6383362035667 L 45.97789184424,14.7336163531659 L 46.1049079869096,14.8427712670075 L 46.2198185264578,14.9646050210135 L 46.3213644789666,15.0977827790796 L 46.3667719958674,15.1681741099768 L 46.4084332857306,15.2408454178192 L 46.4800710026825,15.3922255130244 L 46.5354927520043,15.550264512694 L 46.5740913214126,15.7132309084757 L 46.5954438169037,15.8793392064344 L 46.5995722146139,15.963003645648 L 46.5993162960687,16.0467694892973 L 46.5856663312156,16.2136873558484 L 46.5546434742156,16.3782640190118 L 46.5065876179821,16.538696342426 L 46.4420252725322,16.6932265959832 L 46.4037683502193,16.7677463245907 L 46.3616637964333,16.8401617138879 L 46.2663836468342,16.97789184424 L 46.1572287329925,17.1049079869096 L 46.0353949789865,17.2198185264577 L 45.9022172209204,17.3213644789666 L 45.8318258900232,17.3667719958673 L 45.7591545821809,17.4084332857306 "
  />
</svg>
