  0
SECTION
  2
BLOCKS
  0
ENDSEC
  0
SECTION
  2
ENTITIES
  0
LINE
  8
0
 10
47.5221
 20
10.0342
 11
48.0353
 21
10.1363
  0
LINE
  8
0
 10
48.0353
 20
10.1363
 11
48.5307
 21
10.3045
  0
LINE
  8
0
 10
48.5307
 20
10.3045
 11
49
 21
10.5359
  0
LINE
  8
0
 10
49
 20
10.5359
 11
49.435
 21
10.8266
  0
LINE
  8
0
 10
49.435
 20
10.8266
 11
49.8284
 21
11.1716
  0
LINE
  8
0
 10
49.8284
 20
11.1716
 11
50.1734
 21
11.5649
  0
LINE
  8
0
 10
50.1734
 20
11.5649
 11
50.4641
 21
12
  0
LINE
  8
0
 10
50.4641
 20
12
 11
50.6955
 21
12.4693
  0
LINE
  8
0
 10
50.6955
 20
12.4693
 11
50.8637
 21
12.9647
  0
LINE
  8
0
 10
50.8637
 20
12.9647
 11
50.9658
 21
13.4779
  0
LINE
  8
0
 10
50.9658
 20
13.4779
 11
51
 21
14
  0
LINE
  8
0
 10
51
 20
14
 11
51
 21
70
  0
LINE
  8
0
 10
51
 20
70
 11
50.9658
 21
70.5221
  0
LINE
  8
0
 10
50.9658
 20
70.5221
 11
50.8637
 21
71.0353
  0
LINE
  8
0
 10
50.8637
 20
71.0353
 11
50.6955
 21
71.5307
  0
LINE
  8
0
 10
50.6955
 20
71.5307
 11
50.4641
 21
72
  0
LINE
  8
0
 10
50.4641
 20
72
 11
50.1734
 21
72.435
  0
LINE
  8
0
 10
50.1734
 20
72.435
 11
49.8284
 21
72.8284
  0
LINE
  8
0
 10
49.8284
 20
72.8284
 11
49.435
 21
73.1734
  0
LINE
  8
0
 10
49.435
 20
73.1734
 11
49
 21
73.4641
  0
LINE
  8
0
 10
49
 20
73.4641
 11
48.5307
 21
73.6955
  0
LINE
  8
0
 10
48.5307
 20
73.6955
 11
48.0353
 21
73.8637
  0
LINE
  8
0
 10
48.0353
 20
73.8637
 11
47.5221
 21
73.9658
  0
LINE
  8
0
 10
47.5221
 20
73.9658
 11
47
 21
74
  0
LINE
  8
0
 10
47
 20
74
 11
14
 21
74
  0
LINE
  8
0
 10
14
 20
74
 11
13.4779
 21
73.9658
  0
LINE
  8
0
 10
13.4779
 20
73.9658
 11
12.9647
 21
73.8637
  0
LINE
  8
0
 10
12.9647
 20
73.8637
 11
12.4693
 21
73.6955
  0
LINE
  8
0
 10
12.4693
 20
73.6955
 11
12
 21
73.4641
  0
LINE
  8
0
 10
12
 20
73.4641
 11
11.5649
 21
73.1734
  0
LINE
  8
0
 10
11.5649
 20
73.1734
 11
11.1716
 21
72.8284
  0
LINE
  8
0
 10
11.1716
 20
72.8284
 11
10.8266
 21
72.435
  0
LINE
  8
0
 10
10.8266
 20
72.435
 11
10.5359
 21
72
  0
LINE
  8
0
 10
10.5359
 20
72
 11
10.3045
 21
71.5307
  0
LINE
  8
0
 10
10.3045
 20
71.5307
 11
10.1363
 21
71.0353
  0
LINE
  8
0
 10
10.1363
 20
71.0353
 11
10.0342
 21
70.5221
  0
LINE
  8
0
 10
10.0342
 20
70.5221
 11
10
 21
70
  0
LINE
  8
0
 10
10
 20
70
 11
10
 21
14
  0
LINE
  8
0
 10
10
 20
14
 11
10.0342
 21
13.4779
  0
LINE
  8
0
 10
10.0342
 20
13.4779
 11
10.1363
 21
12.9647
  0
LINE
  8
0
 10
10.1363
 20
12.9647
 11
10.3045
 21
12.4693
  0
LINE
  8
0
 10
10.3045
 20
12.4693
 11
10.5359
 21
12
  0
LINE
  8
0
 10
10.5359
 20
12
 11
10.8266
 21
11.5649
  0
LINE
  8
0
 10
10.8266
 20
11.5649
 11
11.1716
 21
11.1716
  0
LINE
  8
0
 10
11.1716
 20
11.1716
 11
11.5649
 21
10.8266
  0
LINE
  8
0
 10
11.5649
 20
10.8266
 11
12
 21
10.5359
  0
LINE
  8
0
 10
12
 20
10.5359
 11
12.4693
 21
10.3045
  0
LINE
  8
0
 10
12.4693
 20
10.3045
 11
12.9647
 21
10.1363
  0
LINE
  8
0
 10
12.9647
 20
10.1363
 11
13.4779
 21
10.0342
  0
LINE
  8
0
 10
13.4779
 20
10.0342
 11
14
 21
10
  0
LINE
  8
0
 10
14
 20
10
 11
47
 21
10
  0
LINE
  8
0
 10
47
 20
10
 11
47.5221
 21
10.0342
  0
LINE
  8
0
 10
15.6326
 20
36.0685
 11
15.115
 21
36.1366
  0
LINE
  8
0
 10
15.115
 20
36.1366
 11
14.8673
 21
36.2207
  0
LINE
  8
0
 10
14.8673
 20
36.2207
 11
14.6326
 21
36.3364
  0
LINE
  8
0
 10
14.6326
 20
36.3364
 11
14.4151
 21
36.4818
  0
LINE
  8
0
 10
14.4151
 20
36.4818
 11
14.2184
 21
36.6543
  0
LINE
  8
0
 10
14.2184
 20
36.6543
 11
14.0459
 21
36.851
  0
LINE
  8
0
 10
14.0459
 20
36.851
 11
13.9006
 21
37.0685
  0
LINE
  8
0
 10
13.9006
 20
37.0685
 11
13.7849
 21
37.3031
  0
LINE
  8
0
 10
13.7849
 20
37.3031
 11
13.7008
 21
37.5508
  0
LINE
  8
0
 10
13.7008
 20
37.5508
 11
13.6326
 21
38.0685
  0
LINE
  8
0
 10
13.6326
 20
38.0685
 11
13.6326
 21
62.933
  0
LINE
  8
0
 10
13.6326
 20
62.933
 11
13.6942
 21
63.4537
  0
LINE
  8
0
 10
13.6942
 20
63.4537
 11
13.7763
 21
63.7033
  0
LINE
  8
0
 10
13.7763
 20
63.7033
 11
13.891
 21
63.9397
  0
LINE
  8
0
 10
13.891
 20
63.9397
 11
14.0361
 21
64.1588
  0
LINE
  8
0
 10
14.0361
 20
64.1588
 11
14.2091
 21
64.3565
  0
LINE
  8
0
 10
14.2091
 20
64.3565
 11
14.4068
 21
64.5295
  0
LINE
  8
0
 10
14.4068
 20
64.5295
 11
14.6259
 21
64.6746
  0
LINE
  8
0
 10
14.6259
 20
64.6746
 11
14.8623
 21
64.7893
  0
LINE
  8
0
 10
14.8623
 20
64.7893
 11
15.1119
 21
64.8714
  0
LINE
  8
0
 10
15.1119
 20
64.8714
 11
15.6326
 21
64.933
  0
LINE
  8
0
 10
15.6326
 20
64.933
 11
18.2776
 21
64.933
  0
LINE
  8
0
 10
18.2776
 20
64.933
 11
18.4583
 21
64.9151
  0
LINE
  8
0
 10
18.4583
 20
64.9151
 11
18.8178
 21
64.958
  0
LINE
  8
0
 10
18.8178
 20
64.958
 11
18.9892
 21
65.018
  0
LINE
  8
0
 10
18.9892
 20
65.018
 11
19.1501
 21
65.1021
  0
LINE
  8
0
 10
19.1501
 20
65.1021
 11
19.2971
 21
65.2086
  0
LINE
  8
0
 10
19.2971
 20
65.2086
 11
19.4271
 21
65.3353
  0
LINE
  8
0
 10
19.4271
 20
65.3353
 11
19.5374
 21
65.4794
  0
LINE
  8
0
 10
19.5374
 20
65.4794
 11
19.6258
 21
65.638
  0
LINE
  8
0
 10
19.6258
 20
65.638
 11
19.6902
 21
65.8077
  0
LINE
  8
0
 10
19.6902
 20
65.8077
 11
19.7426
 21
66.166
  0
LINE
  8
0
 10
19.7426
 20
66.166
 11
19.7426
 21
68.5221
  0
LINE
  8
0
 10
19.7426
 20
68.5221
 11
19.8108
 21
69.0397
  0
LINE
  8
0
 10
19.8108
 20
69.0397
 11
19.8949
 21
69.2875
  0
LINE
  8
0
 10
19.8949
 20
69.2875
 11
20.0106
 21
69.5221
  0
LINE
  8
0
 10
20.0106
 20
69.5221
 11
20.1559
 21
69.7396
  0
LINE
  8
0
 10
20.1559
 20
69.7396
 11
20.3284
 21
69.9363
  0
LINE
  8
0
 10
20.3284
 20
69.9363
 11
20.5251
 21
70.1088
  0
LINE
  8
0
 10
20.5251
 20
70.1088
 11
20.7426
 21
70.2542
  0
LINE
  8
0
 10
20.7426
 20
70.2542
 11
20.9773
 21
70.3699
  0
LINE
  8
0
 10
20.9773
 20
70.3699
 11
21.225
 21
70.4539
  0
LINE
  8
0
 10
21.225
 20
70.4539
 11
21.7426
 21
70.5221
  0
LINE
  8
0
 10
21.7426
 20
70.5221
 11
39.3045
 21
70.5221
  0
LINE
  8
0
 10
39.3045
 20
70.5221
 11
39.8221
 21
70.4539
  0
LINE
  8
0
 10
39.8221
 20
70.4539
 11
40.0699
 21
70.3699
  0
LINE
  8
0
 10
40.0699
 20
70.3699
 11
40.3045
 21
70.2542
  0
LINE
  8
0
 10
40.3045
 20
70.2542
 11
40.522
 21
70.1088
  0
LINE
  8
0
 10
40.522
 20
70.1088
 11
40.7187
 21
69.9363
  0
LINE
  8
0
 10
40.7187
 20
69.9363
 11
40.8912
 21
69.7396
  0
LINE
  8
0
 10
40.8912
 20
69.7396
 11
41.0365
 21
69.5221
  0
LINE
  8
0
 10
41.0365
 20
69.5221
 11
41.1523
 21
69.2875
  0
LINE
  8
0
 10
41.1523
 20
69.2875
 11
41.2363
 21
69.0397
  0
LINE
  8
0
 10
41.2363
 20
69.0397
 11
41.3045
 21
68.5221
  0
LINE
  8
0
 10
41.3045
 20
68.5221
 11
41.3045
 21
66.879
  0
LINE
  8
0
 10
41.3045
 20
66.879
 11
41.3665
 21
66.3584
  0
LINE
  8
0
 10
41.3665
 20
66.3584
 11
41.4487
 21
66.109
  0
LINE
  8
0
 10
41.4487
 20
66.109
 11
41.5634
 21
65.8727
  0
LINE
  8
0
 10
41.5634
 20
65.8727
 11
41.7086
 21
65.6537
  0
LINE
  8
0
 10
41.7086
 20
65.6537
 11
41.8815
 21
65.456
  0
LINE
  8
0
 10
41.8815
 20
65.456
 11
42.0792
 21
65.2831
  0
LINE
  8
0
 10
42.0792
 20
65.2831
 11
42.2982
 21
65.1379
  0
LINE
  8
0
 10
42.2982
 20
65.1379
 11
42.5345
 21
65.0232
  0
LINE
  8
0
 10
42.5345
 20
65.0232
 11
42.784
 21
64.9409
  0
LINE
  8
0
 10
42.784
 20
64.9409
 11
43.3045
 21
64.879
  0
LINE
  8
0
 10
43.3045
 20
64.879
 11
45.8365
 21
64.879
  0
LINE
  8
0
 10
45.8365
 20
64.879
 11
46.3541
 21
64.8108
  0
LINE
  8
0
 10
46.3541
 20
64.8108
 11
46.6018
 21
64.7267
  0
LINE
  8
0
 10
46.6018
 20
64.7267
 11
46.8364
 21
64.611
  0
LINE
  8
0
 10
46.8364
 20
64.611
 11
47.0539
 21
64.4657
  0
LINE
  8
0
 10
47.0539
 20
64.4657
 11
47.2505
 21
64.2932
  0
LINE
  8
0
 10
47.2505
 20
64.2932
 11
47.423
 21
64.0965
  0
LINE
  8
0
 10
47.423
 20
64.0965
 11
47.5683
 21
63.8789
  0
LINE
  8
0
 10
47.5683
 20
63.8789
 11
47.6839
 21
63.6443
  0
LINE
  8
0
 10
47.6839
 20
63.6443
 11
47.7679
 21
63.3966
  0
LINE
  8
0
 10
47.7679
 20
63.3966
 11
47.836
 21
62.879
  0
LINE
  8
0
 10
47.836
 20
62.879
 11
47.836
 21
38.0685
  0
LINE
  8
0
 10
47.836
 20
38.0685
 11
47.8189
 21
37.8075
  0
LINE
  8
0
 10
47.8189
 20
37.8075
 11
47.7678
 21
37.5509
  0
LINE
  8
0
 10
47.7678
 20
37.5509
 11
47.6838
 21
37.3032
  0
LINE
  8
0
 10
47.6838
 20
37.3032
 11
47.5681
 21
37.0686
  0
LINE
  8
0
 10
47.5681
 20
37.0686
 11
47.4228
 21
36.8511
  0
LINE
  8
0
 10
47.4228
 20
36.8511
 11
47.2504
 21
36.6544
  0
LINE
  8
0
 10
47.2504
 20
36.6544
 11
47.0537
 21
36.4819
  0
LINE
  8
0
 10
47.0537
 20
36.4819
 11
46.8363
 21
36.3366
  0
LINE
  8
0
 10
46.8363
 20
36.3366
 11
46.6017
 21
36.2209
  0
LINE
  8
0
 10
46.6017
 20
36.2209
 11
46.354
 21
36.1367
  0
LINE
  8
0
 10
46.354
 20
36.1367
 11
46.0975
 21
36.0856
  0
LINE
  8
0
 10
46.0975
 20
36.0856
 11
45.8365
 21
36.0685
  0
LINE
  8
0
 10
45.8365
 20
36.0685
 11
43.3045
 21
36.0685
  0
LINE
  8
0
 10
43.3045
 20
36.0685
 11
42.7728
 21
36.1054
  0
LINE
  8
0
 10
42.7728
 20
36.1054
 11
42.5163
 21
36.1803
  0
LINE
  8
0
 10
42.5163
 20
36.1803
 11
42.2731
 21
36.291
  0
LINE
  8
0
 10
42.2731
 20
36.291
 11
42.0482
 21
36.4353
  0
LINE
  8
0
 10
42.0482
 20
36.4353
 11
41.8463
 21
36.6103
  0
LINE
  8
0
 10
41.8463
 20
36.6103
 11
41.6714
 21
36.8122
  0
LINE
  8
0
 10
41.6714
 20
36.8122
 11
41.527
 21
37.0371
  0
LINE
  8
0
 10
41.527
 20
37.0371
 11
41.4163
 21
37.2803
  0
LINE
  8
0
 10
41.4163
 20
37.2803
 11
41.3414
 21
37.5367
  0
LINE
  8
0
 10
41.3414
 20
37.5367
 11
41.3045
 21
38.0685
  0
LINE
  8
0
 10
41.3045
 20
38.0685
 11
41.3045
 21
45.228
  0
LINE
  8
0
 10
41.3045
 20
45.228
 11
41.2641
 21
45.7582
  0
LINE
  8
0
 10
41.2641
 20
45.7582
 11
41.1881
 21
46.0137
  0
LINE
  8
0
 10
41.1881
 20
46.0137
 11
41.0768
 21
46.2559
  0
LINE
  8
0
 10
41.0768
 20
46.2559
 11
40.9324
 21
46.4799
  0
LINE
  8
0
 10
40.9324
 20
46.4799
 11
40.7578
 21
46.6813
  0
LINE
  8
0
 10
40.7578
 20
46.6813
 11
40.5564
 21
46.8559
  0
LINE
  8
0
 10
40.5564
 20
46.8559
 11
40.3324
 21
47.0003
  0
LINE
  8
0
 10
40.3324
 20
47.0003
 11
39.5297
 21
47.3044
  0
LINE
  8
0
 10
39.5297
 20
47.3044
 11
39.3207
 21
47.4356
  0
LINE
  8
0
 10
39.3207
 20
47.4356
 11
39.1362
 21
47.5995
  0
LINE
  8
0
 10
39.1362
 20
47.5995
 11
38.9813
 21
47.7916
  0
LINE
  8
0
 10
38.9813
 20
47.7916
 11
38.8601
 21
48.0065
  0
LINE
  8
0
 10
38.8601
 20
48.0065
 11
38.7761
 21
48.2386
  0
LINE
  8
0
 10
38.7761
 20
48.2386
 11
38.7275
 21
48.728
  0
LINE
  8
0
 10
38.7275
 20
48.728
 11
38.7275
 21
60.879
  0
LINE
  8
0
 10
38.7275
 20
60.879
 11
38.6593
 21
61.3966
  0
LINE
  8
0
 10
38.6593
 20
61.3966
 11
38.5753
 21
61.6443
  0
LINE
  8
0
 10
38.5753
 20
61.6443
 11
38.4595
 21
61.879
  0
LINE
  8
0
 10
38.4595
 20
61.879
 11
38.3142
 21
62.0965
  0
LINE
  8
0
 10
38.3142
 20
62.0965
 11
38.1417
 21
62.2932
  0
LINE
  8
0
 10
38.1417
 20
62.2932
 11
37.945
 21
62.4657
  0
LINE
  8
0
 10
37.945
 20
62.4657
 11
37.7275
 21
62.611
  0
LINE
  8
0
 10
37.7275
 20
62.611
 11
37.4929
 21
62.7267
  0
LINE
  8
0
 10
37.4929
 20
62.7267
 11
37.2451
 21
62.8108
  0
LINE
  8
0
 10
37.2451
 20
62.8108
 11
36.7275
 21
62.879
  0
LINE
  8
0
 10
36.7275
 20
62.879
 11
21.7426
 21
62.879
  0
LINE
  8
0
 10
21.7426
 20
62.879
 11
21.5748
 21
62.8694
  0
LINE
  8
0
 10
21.5748
 20
62.8694
 11
21.4093
 21
62.8407
  0
LINE
  8
0
 10
21.4093
 20
62.8407
 11
21.248
 21
62.7932
  0
LINE
  8
0
 10
21.248
 20
62.7932
 11
21.0933
 21
62.7277
  0
LINE
  8
0
 10
21.0933
 20
62.7277
 11
20.947
 21
62.645
  0
LINE
  8
0
 10
20.947
 20
62.645
 11
20.8112
 21
62.546
  0
LINE
  8
0
 10
20.8112
 20
62.546
 11
20.6875
 21
62.4323
  0
LINE
  8
0
 10
20.6875
 20
62.4323
 11
20.5777
 21
62.3051
  0
LINE
  8
0
 10
20.5777
 20
62.3051
 11
20.483
 21
62.1662
  0
LINE
  8
0
 10
20.483
 20
62.1662
 11
20.4049
 21
62.0174
  0
LINE
  8
0
 10
20.4049
 20
62.0174
 11
20.3442
 21
61.8607
  0
LINE
  8
0
 10
20.3442
 20
61.8607
 11
20.3019
 21
61.6981
  0
LINE
  8
0
 10
20.3019
 20
61.6981
 11
20.2776
 21
38.0685
  0
LINE
  8
0
 10
20.2776
 20
38.0685
 11
20.2347
 21
37.5394
  0
LINE
  8
0
 10
20.2347
 20
37.5394
 11
20.158
 21
37.2846
  0
LINE
  8
0
 10
20.158
 20
37.2846
 11
20.0463
 21
37.0431
  0
LINE
  8
0
 10
20.0463
 20
37.0431
 11
19.9018
 21
36.8197
  0
LINE
  8
0
 10
19.9018
 20
36.8197
 11
19.7273
 21
36.6187
  0
LINE
  8
0
 10
19.7273
 20
36.6187
 11
19.5264
 21
36.4443
  0
LINE
  8
0
 10
19.5264
 20
36.4443
 11
19.303
 21
36.2998
  0
LINE
  8
0
 10
19.303
 20
36.2998
 11
19.0615
 21
36.1881
  0
LINE
  8
0
 10
19.0615
 20
36.1881
 11
18.8067
 21
36.1114
  0
LINE
  8
0
 10
18.8067
 20
36.1114
 11
18.2776
 21
36.0685
  0
LINE
  8
0
 10
18.2776
 20
36.0685
 11
15.6326
 21
36.0685
  0
LINE
  8
0
 10
15.8327
 20
66.4088
 11
15.6673
 21
66.435
  0
LINE
  8
0
 10
15.6673
 20
66.435
 11
15.5056
 21
66.4783
  0
LINE
  8
0
 10
15.5056
 20
66.4783
 11
15.3492
 21
66.5383
  0
LINE
  8
0
 10
15.3492
 20
66.5383
 11
15.2736
 21
66.5744
  0
LINE
  8
0
 10
15.2736
 20
66.5744
 11
15.2
 21
66.6143
  0
LINE
  8
0
 10
15.2
 20
66.6143
 11
15.0595
 21
66.7056
  0
LINE
  8
0
 10
15.0595
 20
66.7056
 11
14.9294
 21
66.811
  0
LINE
  8
0
 10
14.9294
 20
66.811
 11
14.811
 21
66.9294
  0
LINE
  8
0
 10
14.811
 20
66.9294
 11
14.7056
 21
67.0595
  0
LINE
  8
0
 10
14.7056
 20
67.0595
 11
14.6581
 21
67.1286
  0
LINE
  8
0
 10
14.6581
 20
67.1286
 11
14.6143
 21
67.2
  0
LINE
  8
0
 10
14.6143
 20
67.2
 11
14.5383
 21
67.3492
  0
LINE
  8
0
 10
14.5383
 20
67.3492
 11
14.4783
 21
67.5056
  0
LINE
  8
0
 10
14.4783
 20
67.5056
 11
14.435
 21
67.6673
  0
LINE
  8
0
 10
14.435
 20
67.6673
 11
14.4088
 21
67.8327
  0
LINE
  8
0
 10
14.4088
 20
67.8327
 11
14.4022
 21
67.9163
  0
LINE
  8
0
 10
14.4022
 20
67.9163
 11
14.4
 21
68
  0
LINE
  8
0
 10
14.4
 20
68
 11
14.4088
 21
68.1672
  0
LINE
  8
0
 10
14.4088
 20
68.1672
 11
14.435
 21
68.3327
  0
LINE
  8
0
 10
14.435
 20
68.3327
 11
14.4783
 21
68.4944
  0
LINE
  8
0
 10
14.4783
 20
68.4944
 11
14.5383
 21
68.6508
  0
LINE
  8
0
 10
14.5383
 20
68.6508
 11
14.5744
 21
68.7264
  0
LINE
  8
0
 10
14.5744
 20
68.7264
 11
14.6143
 21
68.8
  0
LINE
  8
0
 10
14.6143
 20
68.8
 11
14.7056
 21
68.9404
  0
LINE
  8
0
 10
14.7056
 20
68.9404
 11
14.811
 21
69.0706
  0
LINE
  8
0
 10
14.811
 20
69.0706
 11
14.9294
 21
69.189
  0
LINE
  8
0
 10
14.9294
 20
69.189
 11
15.0595
 21
69.2944
  0
LINE
  8
0
 10
15.0595
 20
69.2944
 11
15.1286
 21
69.3419
  0
LINE
  8
0
 10
15.1286
 20
69.3419
 11
15.2
 21
69.3856
  0
LINE
  8
0
 10
15.2
 20
69.3856
 11
15.3492
 21
69.4617
  0
LINE
  8
0
 10
15.3492
 20
69.4617
 11
15.5056
 21
69.5217
  0
LINE
  8
0
 10
15.5056
 20
69.5217
 11
15.6673
 21
69.565
  0
LINE
  8
0
 10
15.6673
 20
69.565
 11
15.8327
 21
69.5912
  0
LINE
  8
0
 10
15.8327
 20
69.5912
 11
15.9163
 21
69.5978
  0
LINE
  8
0
 10
15.9163
 20
69.5978
 11
16
 21
69.6
  0
LINE
  8
0
 10
16
 20
69.6
 11
16.1672
 21
69.5912
  0
LINE
  8
0
 10
16.1672
 20
69.5912
 11
16.3327
 21
69.565
  0
LINE
  8
0
 10
16.3327
 20
69.565
 11
16.4944
 21
69.5217
  0
LINE
  8
0
 10
16.4944
 20
69.5217
 11
16.6508
 21
69.4617
  0
LINE
  8
0
 10
16.6508
 20
69.4617
 11
16.7264
 21
69.4256
  0
LINE
  8
0
 10
16.7264
 20
69.4256
 11
16.8
 21
69.3856
  0
LINE
  8
0
 10
16.8
 20
69.3856
 11
16.9404
 21
69.2944
  0
LINE
  8
0
 10
16.9404
 20
69.2944
 11
17.0706
 21
69.189
  0
LINE
  8
0
 10
17.0706
 20
69.189
 11
17.189
 21
69.0706
  0
LINE
  8
0
 10
17.189
 20
69.0706
 11
17.2944
 21
68.9404
  0
LINE
  8
0
 10
17.2944
 20
68.9404
 11
17.3419
 21
68.8714
  0
LINE
  8
0
 10
17.3419
 20
68.8714
 11
17.3856
 21
68.8
  0
LINE
  8
0
 10
17.3856
 20
68.8
 11
17.4617
 21
68.6508
  0
LINE
  8
0
 10
17.4617
 20
68.6508
 11
17.5217
 21
68.4944
  0
LINE
  8
0
 10
17.5217
 20
68.4944
 11
17.565
 21
68.3327
  0
LINE
  8
0
 10
17.565
 20
68.3327
 11
17.5912
 21
68.1672
  0
LINE
  8
0
 10
17.5912
 20
68.1672
 11
17.5978
 21
68.0837
  0
LINE
  8
0
 10
17.5978
 20
68.0837
 11
17.6
 21
68
  0
LINE
  8
0
 10
17.6
 20
68
 11
17.5912
 21
67.8327
  0
LINE
  8
0
 10
17.5912
 20
67.8327
 11
17.565
 21
67.6673
  0
LINE
  8
0
 10
17.565
 20
67.6673
 11
17.5217
 21
67.5056
  0
LINE
  8
0
 10
17.5217
 20
67.5056
 11
17.4617
 21
67.3492
  0
LINE
  8
0
 10
17.4617
 20
67.3492
 11
17.4256
 21
67.2736
  0
LINE
  8
0
 10
17.4256
 20
67.2736
 11
17.3856
 21
67.2
  0
LINE
  8
0
 10
17.3856
 20
67.2
 11
17.2944
 21
67.0595
  0
LINE
  8
0
 10
17.2944
 20
67.0595
 11
17.189
 21
66.9294
  0
LINE
  8
0
 10
17.189
 20
66.9294
 11
17.0706
 21
66.811
  0
LINE
  8
0
 10
17.0706
 20
66.811
 11
16.9404
 21
66.7056
  0
LINE
  8
0
 10
16.9404
 20
66.7056
 11
16.8714
 21
66.6581
  0
LINE
  8
0
 10
16.8714
 20
66.6581
 11
16.8
 21
66.6143
  0
LINE
  8
0
 10
16.8
 20
66.6143
 11
16.6508
 21
66.5383
  0
LINE
  8
0
 10
16.6508
 20
66.5383
 11
16.4944
 21
66.4783
  0
LINE
  8
0
 10
16.4944
 20
66.4783
 11
16.3327
 21
66.435
  0
LINE
  8
0
 10
16.3327
 20
66.435
 11
16.1672
 21
66.4088
  0
LINE
  8
0
 10
16.1672
 20
66.4088
 11
16.0837
 21
66.4022
  0
LINE
  8
0
 10
16.0837
 20
66.4022
 11
16
 21
66.4
  0
LINE
  8
0
 10
16
 20
66.4
 11
15.8327
 21
66.4088
  0
LINE
  8
0
 10
44.9532
 20
66.4007
 11
44.7863
 21
66.4143
  0
LINE
  8
0
 10
44.7863
 20
66.4143
 11
44.6217
 21
66.4453
  0
LINE
  8
0
 10
44.6217
 20
66.4453
 11
44.4613
 21
66.4934
  0
LINE
  8
0
 10
44.4613
 20
66.4934
 11
44.3068
 21
66.558
  0
LINE
  8
0
 10
44.3068
 20
66.558
 11
44.2322
 21
66.5962
  0
LINE
  8
0
 10
44.2322
 20
66.5962
 11
44.1598
 21
66.6383
  0
LINE
  8
0
 10
44.1598
 20
66.6383
 11
44.0221
 21
66.7336
  0
LINE
  8
0
 10
44.0221
 20
66.7336
 11
43.8951
 21
66.8428
  0
LINE
  8
0
 10
43.8951
 20
66.8428
 11
43.7802
 21
66.9646
  0
LINE
  8
0
 10
43.7802
 20
66.9646
 11
43.6786
 21
67.0978
  0
LINE
  8
0
 10
43.6786
 20
67.0978
 11
43.6332
 21
67.1682
  0
LINE
  8
0
 10
43.6332
 20
67.1682
 11
43.5916
 21
67.2408
  0
LINE
  8
0
 10
43.5916
 20
67.2408
 11
43.5199
 21
67.3922
  0
LINE
  8
0
 10
43.5199
 20
67.3922
 11
43.4645
 21
67.5503
  0
LINE
  8
0
 10
43.4645
 20
67.5503
 11
43.4259
 21
67.7132
  0
LINE
  8
0
 10
43.4259
 20
67.7132
 11
43.4045
 21
67.8793
  0
LINE
  8
0
 10
43.4045
 20
67.8793
 11
43.4004
 21
67.963
  0
LINE
  8
0
 10
43.4004
 20
67.963
 11
43.4007
 21
68.0468
  0
LINE
  8
0
 10
43.4007
 20
68.0468
 11
43.4143
 21
68.2137
  0
LINE
  8
0
 10
43.4143
 20
68.2137
 11
43.4453
 21
68.3783
  0
LINE
  8
0
 10
43.4453
 20
68.3783
 11
43.4934
 21
68.5387
  0
LINE
  8
0
 10
43.4934
 20
68.5387
 11
43.558
 21
68.6932
  0
LINE
  8
0
 10
43.558
 20
68.6932
 11
43.5962
 21
68.7677
  0
LINE
  8
0
 10
43.5962
 20
68.7677
 11
43.6383
 21
68.8401
  0
LINE
  8
0
 10
43.6383
 20
68.8401
 11
43.7336
 21
68.9779
  0
LINE
  8
0
 10
43.7336
 20
68.9779
 11
43.8428
 21
69.1049
  0
LINE
  8
0
 10
43.8428
 20
69.1049
 11
43.9646
 21
69.2198
  0
LINE
  8
0
 10
43.9646
 20
69.2198
 11
44.0978
 21
69.3214
  0
LINE
  8
0
 10
44.0978
 20
69.3214
 11
44.1682
 21
69.3668
  0
LINE
  8
0
 10
44.1682
 20
69.3668
 11
44.2408
 21
69.4084
  0
LINE
  8
0
 10
44.2408
 20
69.4084
 11
44.3922
 21
69.4801
  0
LINE
  8
0
 10
44.3922
 20
69.4801
 11
44.5503
 21
69.5355
  0
LINE
  8
0
 10
44.5503
 20
69.5355
 11
44.7132
 21
69.5741
  0
LINE
  8
0
 10
44.7132
 20
69.5741
 11
44.8793
 21
69.5954
  0
LINE
  8
0
 10
44.8793
 20
69.5954
 11
44.963
 21
69.5996
  0
LINE
  8
0
 10
44.963
 20
69.5996
 11
45.0468
 21
69.5993
  0
LINE
  8
0
 10
45.0468
 20
69.5993
 11
45.2137
 21
69.5857
  0
LINE
  8
0
 10
45.2137
 20
69.5857
 11
45.3783
 21
69.5546
  0
LINE
  8
0
 10
45.3783
 20
69.5546
 11
45.5387
 21
69.5066
  0
LINE
  8
0
 10
45.5387
 20
69.5066
 11
45.6932
 21
69.442
  0
LINE
  8
0
 10
45.6932
 20
69.442
 11
45.7677
 21
69.4038
  0
LINE
  8
0
 10
45.7677
 20
69.4038
 11
45.8401
 21
69.3616
  0
LINE
  8
0
 10
45.8401
 20
69.3616
 11
45.9779
 21
69.2664
  0
LINE
  8
0
 10
45.9779
 20
69.2664
 11
46.1049
 21
69.1572
  0
LINE
  8
0
 10
46.1049
 20
69.1572
 11
46.2198
 21
69.0354
  0
LINE
  8
0
 10
46.2198
 20
69.0354
 11
46.3214
 21
68.9022
  0
LINE
  8
0
 10
46.3214
 20
68.9022
 11
46.3668
 21
68.8318
  0
LINE
  8
0
 10
46.3668
 20
68.8318
 11
46.4084
 21
68.7591
  0
LINE
  8
0
 10
46.4084
 20
68.7591
 11
46.4801
 21
68.6078
  0
LINE
  8
0
 10
46.4801
 20
68.6078
 11
46.5355
 21
68.4497
  0
LINE
  8
0
 10
46.5355
 20
68.4497
 11
46.5741
 21
68.2868
  0
LINE
  8
0
 10
46.5741
 20
68.2868
 11
46.5954
 21
68.1207
  0
LINE
  8
0
 10
46.5954
 20
68.1207
 11
46.5996
 21
68.037
  0
LINE
  8
0
 10
46.5996
 20
68.037
 11
46.5993
 21
67.9532
  0
LINE
  8
0
 10
46.5993
 20
67.9532
 11
46.5857
 21
67.7863
  0
LINE
  8
0
 10
46.5857
 20
67.7863
 11
46.5546
 21
67.6217
  0
LINE
  8
0
 10
46.5546
 20
67.6217
 11
46.5066
 21
67.4613
  0
LINE
  8
0
 10
46.5066
 20
67.4613
 11
46.442
 21
67.3068
  0
LINE
  8
0
 10
46.442
 20
67.3068
 11
46.4038
 21
67.2322
  0
LINE
  8
0
 10
46.4038
 20
67.2322
 11
46.3616
 21
67.1598
  0
LINE
  8
0
 10
46.3616
 20
67.1598
 11
46.2664
 21
67.0221
  0
LINE
  8
0
 10
46.2664
 20
67.0221
 11
46.1572
 21
66.8951
  0
LINE
  8
0
 10
46.1572
 20
66.8951
 11
46.0354
 21
66.7802
  0
LINE
  8
0
 10
46.0354
 20
66.7802
 11
45.9022
 21
66.6786
  0
LINE
  8
0
 10
45.9022
 20
66.6786
 11
45.8318
 21
66.6332
  0
LINE
  8
0
 10
45.8318
 20
66.6332
 11
45.7591
 21
66.5916
  0
LINE
  8
0
 10
45.7591
 20
66.5916
 11
45.6078
 21
66.5199
  0
LINE
  8
0
 10
45.6078
 20
66.5199
 11
45.4497
 21
66.4645
  0
LINE
  8
0
 10
45.4497
 20
66.4645
 11
45.2868
 21
66.4259
  0
LINE
  8
0
 10
45.2868
 20
66.4259
 11
45.1207
 21
66.4045
  0
LINE
  8
0
 10
45.1207
 20
66.4045
 11
45.037
 21
66.4004
  0
LINE
  8
0
 10
45.037
 20
66.4004
 11
44.9532
 21
66.4007
  0
LINE
  8
0
 10
19.0291
 20
19.2518
 11
18.768
 21
19.2689
  0
LINE
  8
0
 10
18.768
 20
19.2689
 11
18.5114
 21
19.3199
  0
LINE
  8
0
 10
18.5114
 20
19.3199
 11
18.2637
 21
19.404
  0
LINE
  8
0
 10
18.2637
 20
19.404
 11
18.0291
 21
19.5197
  0
LINE
  8
0
 10
18.0291
 20
19.5197
 11
17.8116
 21
19.6651
  0
LINE
  8
0
 10
17.8116
 20
19.6651
 11
17.6149
 21
19.8375
  0
LINE
  8
0
 10
17.6149
 20
19.8375
 11
17.4424
 21
20.0342
  0
LINE
  8
0
 10
17.4424
 20
20.0342
 11
17.297
 21
20.2518
  0
LINE
  8
0
 10
17.297
 20
20.2518
 11
17.1813
 21
20.4864
  0
LINE
  8
0
 10
17.1813
 20
20.4864
 11
17.0972
 21
20.7341
  0
LINE
  8
0
 10
17.0972
 20
20.7341
 11
17.0462
 21
20.9907
  0
LINE
  8
0
 10
17.0462
 20
20.9907
 11
17.0291
 21
21.2518
  0
LINE
  8
0
 10
17.0291
 20
21.2518
 11
17.0291
 21
26.9017
  0
LINE
  8
0
 10
17.0291
 20
26.9017
 11
17.0462
 21
27.1628
  0
LINE
  8
0
 10
17.0462
 20
27.1628
 11
17.0972
 21
27.4194
  0
LINE
  8
0
 10
17.0972
 20
27.4194
 11
17.1813
 21
27.6671
  0
LINE
  8
0
 10
17.1813
 20
27.6671
 11
17.297
 21
27.9017
  0
LINE
  8
0
 10
17.297
 20
27.9017
 11
17.4424
 21
28.1193
  0
LINE
  8
0
 10
17.4424
 20
28.1193
 11
17.6149
 21
28.316
  0
LINE
  8
0
 10
17.6149
 20
28.316
 11
17.8116
 21
28.4885
  0
LINE
  8
0
 10
17.8116
 20
28.4885
 11
18.0291
 21
28.6338
  0
LINE
  8
0
 10
18.0291
 20
28.6338
 11
18.2637
 21
28.7495
  0
LINE
  8
0
 10
18.2637
 20
28.7495
 11
18.5114
 21
28.8336
  0
LINE
  8
0
 10
18.5114
 20
28.8336
 11
18.768
 21
28.8846
  0
LINE
  8
0
 10
18.768
 20
28.8846
 11
19.0291
 21
28.9017
  0
LINE
  8
0
 10
19.0291
 20
28.9017
 11
23.6291
 21
28.9017
  0
LINE
  8
0
 10
23.6291
 20
28.9017
 11
23.8901
 21
28.8846
  0
LINE
  8
0
 10
23.8901
 20
28.8846
 11
24.1467
 21
28.8336
  0
LINE
  8
0
 10
24.1467
 20
28.8336
 11
24.3944
 21
28.7495
  0
LINE
  8
0
 10
24.3944
 20
28.7495
 11
24.6291
 21
28.6338
  0
LINE
  8
0
 10
24.6291
 20
28.6338
 11
24.8466
 21
28.4885
  0
LINE
  8
0
 10
24.8466
 20
28.4885
 11
25.0433
 21
28.316
  0
LINE
  8
0
 10
25.0433
 20
28.316
 11
25.2158
 21
28.1193
  0
LINE
  8
0
 10
25.2158
 20
28.1193
 11
25.3611
 21
27.9017
  0
LINE
  8
0
 10
25.3611
 20
27.9017
 11
25.4768
 21
27.6671
  0
LINE
  8
0
 10
25.4768
 20
27.6671
 11
25.5609
 21
27.4194
  0
LINE
  8
0
 10
25.5609
 20
27.4194
 11
25.612
 21
27.1628
  0
LINE
  8
0
 10
25.612
 20
27.1628
 11
25.6291
 21
26.9017
  0
LINE
  8
0
 10
25.6291
 20
26.9017
 11
25.6291
 21
21.2518
  0
LINE
  8
0
 10
25.6291
 20
21.2518
 11
25.612
 21
20.9907
  0
LINE
  8
0
 10
25.612
 20
20.9907
 11
25.5609
 21
20.7341
  0
LINE
  8
0
 10
25.5609
 20
20.7341
 11
25.4768
 21
20.4864
  0
LINE
  8
0
 10
25.4768
 20
20.4864
 11
25.3611
 21
20.2518
  0
LINE
  8
0
 10
25.3611
 20
20.2518
 11
25.2158
 21
20.0342
  0
LINE
  8
0
 10
25.2158
 20
20.0342
 11
25.0433
 21
19.8375
  0
LINE
  8
0
 10
25.0433
 20
19.8375
 11
24.8466
 21
19.6651
  0
LINE
  8
0
 10
24.8466
 20
19.6651
 11
24.6291
 21
19.5197
  0
LINE
  8
0
 10
24.6291
 20
19.5197
 11
24.3944
 21
19.404
  0
LINE
  8
0
 10
24.3944
 20
19.404
 11
24.1467
 21
19.3199
  0
LINE
  8
0
 10
24.1467
 20
19.3199
 11
23.8901
 21
19.2689
  0
LINE
  8
0
 10
23.8901
 20
19.2689
 11
23.6291
 21
19.2518
  0
LINE
  8
0
 10
23.6291
 20
19.2518
 11
19.0291
 21
19.2518
  0
LINE
  8
0
 10
15.8052
 20
14.4119
 11
15.6403
 21
14.4409
  0
LINE
  8
0
 10
15.6403
 20
14.4409
 11
15.5592
 21
14.4619
  0
LINE
  8
0
 10
15.5592
 20
14.4619
 11
15.4793
 21
14.4871
  0
LINE
  8
0
 10
15.4793
 20
14.4871
 11
15.324
 21
14.5498
  0
LINE
  8
0
 10
15.324
 20
14.5498
 11
15.1761
 21
14.6284
  0
LINE
  8
0
 10
15.1761
 20
14.6284
 11
15.0373
 21
14.722
  0
LINE
  8
0
 10
15.0373
 20
14.722
 11
14.909
 21
14.8297
  0
LINE
  8
0
 10
14.909
 20
14.8297
 11
14.8492
 21
14.8884
  0
LINE
  8
0
 10
14.8492
 20
14.8884
 11
14.7926
 21
14.9501
  0
LINE
  8
0
 10
14.7926
 20
14.9501
 11
14.6895
 21
15.0821
  0
LINE
  8
0
 10
14.6895
 20
15.0821
 11
14.6007
 21
15.2241
  0
LINE
  8
0
 10
14.6007
 20
15.2241
 11
14.5273
 21
15.3746
  0
LINE
  8
0
 10
14.5273
 20
15.3746
 11
14.47
 21
15.532
  0
LINE
  8
0
 10
14.47
 20
15.532
 11
14.4476
 21
15.6127
  0
LINE
  8
0
 10
14.4476
 20
15.6127
 11
14.4294
 21
15.6945
  0
LINE
  8
0
 10
14.4294
 20
15.6945
 11
14.4061
 21
15.8603
  0
LINE
  8
0
 10
14.4061
 20
15.8603
 11
14.4002
 21
16.0277
  0
LINE
  8
0
 10
14.4002
 20
16.0277
 11
14.4119
 21
16.1948
  0
LINE
  8
0
 10
14.4119
 20
16.1948
 11
14.4409
 21
16.3597
  0
LINE
  8
0
 10
14.4409
 20
16.3597
 11
14.4619
 21
16.4408
  0
LINE
  8
0
 10
14.4619
 20
16.4408
 11
14.4871
 21
16.5207
  0
LINE
  8
0
 10
14.4871
 20
16.5207
 11
14.5498
 21
16.676
  0
LINE
  8
0
 10
14.5498
 20
16.676
 11
14.6284
 21
16.8239
  0
LINE
  8
0
 10
14.6284
 20
16.8239
 11
14.722
 21
16.9627
  0
LINE
  8
0
 10
14.722
 20
16.9627
 11
14.8297
 21
17.091
  0
LINE
  8
0
 10
14.8297
 20
17.091
 11
14.8884
 21
17.1508
  0
LINE
  8
0
 10
14.8884
 20
17.1508
 11
14.9501
 21
17.2074
  0
LINE
  8
0
 10
14.9501
 20
17.2074
 11
15.0821
 21
17.3105
  0
LINE
  8
0
 10
15.0821
 20
17.3105
 11
15.2241
 21
17.3993
  0
LINE
  8
0
 10
15.2241
 20
17.3993
 11
15.3746
 21
17.4727
  0
LINE
  8
0
 10
15.3746
 20
17.4727
 11
15.532
 21
17.53
  0
LINE
  8
0
 10
15.532
 20
17.53
 11
15.6127
 21
17.5524
  0
LINE
  8
0
 10
15.6127
 20
17.5524
 11
15.6945
 21
17.5706
  0
LINE
  8
0
 10
15.6945
 20
17.5706
 11
15.8603
 21
17.5939
  0
LINE
  8
0
 10
15.8603
 20
17.5939
 11
16.0277
 21
17.5997
  0
LINE
  8
0
 10
16.0277
 20
17.5997
 11
16.1948
 21
17.5881
  0
LINE
  8
0
 10
16.1948
 20
17.5881
 11
16.3597
 21
17.559
  0
LINE
  8
0
 10
16.3597
 20
17.559
 11
16.4408
 21
17.5381
  0
LINE
  8
0
 10
16.4408
 20
17.5381
 11
16.5207
 21
17.5129
  0
LINE
  8
0
 10
16.5207
 20
17.5129
 11
16.676
 21
17.4502
  0
LINE
  8
0
 10
16.676
 20
17.4502
 11
16.8239
 21
17.3716
  0
LINE
  8
0
 10
16.8239
 20
17.3716
 11
16.9627
 21
17.2779
  0
LINE
  8
0
 10
16.9627
 20
17.2779
 11
17.091
 21
17.1703
  0
LINE
  8
0
 10
17.091
 20
17.1703
 11
17.1508
 21
17.1116
  0
LINE
  8
0
 10
17.1508
 20
17.1116
 11
17.2074
 21
17.0499
  0
LINE
  8
0
 10
17.2074
 20
17.0499
 11
17.3105
 21
16.9179
  0
LINE
  8
0
 10
17.3105
 20
16.9179
 11
17.3993
 21
16.7759
  0
LINE
  8
0
 10
17.3993
 20
16.7759
 11
17.4727
 21
16.6254
  0
LINE
  8
0
 10
17.4727
 20
16.6254
 11
17.53
 21
16.468
  0
LINE
  8
0
 10
17.53
 20
16.468
 11
17.5524
 21
16.3873
  0
LINE
  8
0
 10
17.5524
 20
16.3873
 11
17.5706
 21
16.3055
  0
LINE
  8
0
 10
17.5706
 20
16.3055
 11
17.5939
 21
16.1397
  0
LINE
  8
0
 10
17.5939
 20
16.1397
 11
17.5997
 21
15.9723
  0
LINE
  8
0
 10
17.5997
 20
15.9723
 11
17.5881
 21
15.8052
  0
LINE
  8
0
 10
17.5881
 20
15.8052
 11
17.559
 21
15.6403
  0
LINE
  8
0
 10
17.559
 20
15.6403
 11
17.5381
 21
15.5592
  0
LINE
  8
0
 10
17.5381
 20
15.5592
 11
17.5129
 21
15.4793
  0
LINE
  8
0
 10
17.5129
 20
15.4793
 11
17.4502
 21
15.324
  0
LINE
  8
0
 10
17.4502
 20
15.324
 11
17.3716
 21
15.1761
  0
LINE
  8
0
 10
17.3716
 20
15.1761
 11
17.2779
 21
15.0373
  0
LINE
  8
0
 10
17.2779
 20
15.0373
 11
17.1703
 21
14.909
  0
LINE
  8
0
 10
17.1703
 20
14.909
 11
17.1116
 21
14.8492
  0
LINE
  8
0
 10
17.1116
 20
14.8492
 11
17.0499
 21
14.7926
  0
LINE
  8
0
 10
17.0499
 20
14.7926
 11
16.9179
 21
14.6895
  0
LINE
  8
0
 10
16.9179
 20
14.6895
 11
16.7759
 21
14.6007
  0
LINE
  8
0
 10
16.7759
 20
14.6007
 11
16.6254
 21
14.5273
  0
LINE
  8
0
 10
16.6254
 20
14.5273
 11
16.468
 21
14.47
  0
LINE
  8
0
 10
16.468
 20
14.47
 11
16.3873
 21
14.4476
  0
LINE
  8
0
 10
16.3873
 20
14.4476
 11
16.3055
 21
14.4294
  0
LINE
  8
0
 10
16.3055
 20
14.4294
 11
16.1397
 21
14.4061
  0
LINE
  8
0
 10
16.1397
 20
14.4061
 11
15.9723
 21
14.4002
  0
LINE
  8
0
 10
15.9723
 20
14.4002
 11
15.8052
 21
14.4119
  0
LINE
  8
0
 10
44.8013
 20
14.4124
 11
44.7185
 21
14.425
  0
LINE
  8
0
 10
44.7185
 20
14.425
 11
44.6364
 21
14.4418
  0
LINE
  8
0
 10
44.6364
 20
14.4418
 11
44.4755
 21
14.4884
  0
LINE
  8
0
 10
44.4755
 20
14.4884
 11
44.3204
 21
14.5515
  0
LINE
  8
0
 10
44.3204
 20
14.5515
 11
44.1727
 21
14.6305
  0
LINE
  8
0
 10
44.1727
 20
14.6305
 11
44.0341
 21
14.7244
  0
LINE
  8
0
 10
44.0341
 20
14.7244
 11
43.9687
 21
14.7767
  0
LINE
  8
0
 10
43.9687
 20
14.7767
 11
43.9061
 21
14.8324
  0
LINE
  8
0
 10
43.9061
 20
14.8324
 11
43.79
 21
14.9531
  0
LINE
  8
0
 10
43.79
 20
14.9531
 11
43.6872
 21
15.0853
  0
LINE
  8
0
 10
43.6872
 20
15.0853
 11
43.5988
 21
15.2276
  0
LINE
  8
0
 10
43.5988
 20
15.2276
 11
43.5257
 21
15.3783
  0
LINE
  8
0
 10
43.5257
 20
15.3783
 11
43.4952
 21
15.4563
  0
LINE
  8
0
 10
43.4952
 20
15.4563
 11
43.4688
 21
15.5358
  0
LINE
  8
0
 10
43.4688
 20
15.5358
 11
43.4287
 21
15.6984
  0
LINE
  8
0
 10
43.4287
 20
15.6984
 11
43.4058
 21
15.8643
  0
LINE
  8
0
 10
43.4058
 20
15.8643
 11
43.4003
 21
16.0317
  0
LINE
  8
0
 10
43.4003
 20
16.0317
 11
43.4124
 21
16.1987
  0
LINE
  8
0
 10
43.4124
 20
16.1987
 11
43.425
 21
16.2815
  0
LINE
  8
0
 10
43.425
 20
16.2815
 11
43.4418
 21
16.3636
  0
LINE
  8
0
 10
43.4418
 20
16.3636
 11
43.4884
 21
16.5244
  0
LINE
  8
0
 10
43.4884
 20
16.5244
 11
43.5515
 21
16.6796
  0
LINE
  8
0
 10
43.5515
 20
16.6796
 11
43.6305
 21
16.8273
  0
LINE
  8
0
 10
43.6305
 20
16.8273
 11
43.7244
 21
16.9659
  0
LINE
  8
0
 10
43.7244
 20
16.9659
 11
43.7767
 21
17.0313
  0
LINE
  8
0
 10
43.7767
 20
17.0313
 11
43.8324
 21
17.0939
  0
LINE
  8
0
 10
43.8324
 20
17.0939
 11
43.9531
 21
17.21
  0
LINE
  8
0
 10
43.9531
 20
17.21
 11
44.0853
 21
17.3128
  0
LINE
  8
0
 10
44.0853
 20
17.3128
 11
44.2276
 21
17.4012
  0
LINE
  8
0
 10
44.2276
 20
17.4012
 11
44.3783
 21
17.4743
  0
LINE
  8
0
 10
44.3783
 20
17.4743
 11
44.4563
 21
17.5048
  0
LINE
  8
0
 10
44.4563
 20
17.5048
 11
44.5358
 21
17.5312
  0
LINE
  8
0
 10
44.5358
 20
17.5312
 11
44.6984
 21
17.5713
  0
LINE
  8
0
 10
44.6984
 20
17.5713
 11
44.8643
 21
17.5942
  0
LINE
  8
0
 10
44.8643
 20
17.5942
 11
45.0317
 21
17.5997
  0
LINE
  8
0
 10
45.0317
 20
17.5997
 11
45.1987
 21
17.5876
  0
LINE
  8
0
 10
45.1987
 20
17.5876
 11
45.2815
 21
17.575
  0
LINE
  8
0
 10
45.2815
 20
17.575
 11
45.3636
 21
17.5581
  0
LINE
  8
0
 10
45.3636
 20
17.5581
 11
45.5244
 21
17.5116
  0
LINE
  8
0
 10
45.5244
 20
17.5116
 11
45.6796
 21
17.4485
  0
LINE
  8
0
 10
45.6796
 20
17.4485
 11
45.8273
 21
17.3695
  0
LINE
  8
0
 10
45.8273
 20
17.3695
 11
45.9659
 21
17.2756
  0
LINE
  8
0
 10
45.9659
 20
17.2756
 11
46.0313
 21
17.2233
  0
LINE
  8
0
 10
46.0313
 20
17.2233
 11
46.0939
 21
17.1676
  0
LINE
  8
0
 10
46.0939
 20
17.1676
 11
46.21
 21
17.0469
  0
LINE
  8
0
 10
46.21
 20
17.0469
 11
46.3128
 21
16.9146
  0
LINE
  8
0
 10
46.3128
 20
16.9146
 11
46.4012
 21
16.7724
  0
LINE
  8
0
 10
46.4012
 20
16.7724
 11
46.4743
 21
16.6217
  0
LINE
  8
0
 10
46.4743
 20
16.6217
 11
46.5048
 21
16.5437
  0
LINE
  8
0
 10
46.5048
 20
16.5437
 11
46.5312
 21
16.4642
  0
LINE
  8
0
 10
46.5312
 20
16.4642
 11
46.5713
 21
16.3016
  0
LINE
  8
0
 10
46.5713
 20
16.3016
 11
46.5942
 21
16.1357
  0
LINE
  8
0
 10
46.5942
 20
16.1357
 11
46.5997
 21
15.9683
  0
LINE
  8
0
 10
46.5997
 20
15.9683
 11
46.5876
 21
15.8013
  0
LINE
  8
0
 10
46.5876
 20
15.8013
 11
46.575
 21
15.7185
  0
LINE
  8
0
 10
46.575
 20
15.7185
 11
46.5581
 21
15.6364
  0
LINE
  8
0
 10
46.5581
 20
15.6364
 11
46.5116
 21
15.4755
  0
LINE
  8
0
 10
46.5116
 20
15.4755
 11
46.4485
 21
15.3204
  0
LINE
  8
0
 10
46.4485
 20
15.3204
 11
46.3695
 21
15.1727
  0
LINE
  8
0
 10
46.3695
 20
15.1727
 11
46.2756
 21
15.0341
  0
LINE
  8
0
 10
46.2756
 20
15.0341
 11
46.2233
 21
14.9687
  0
LINE
  8
0
 10
46.2233
 20
14.9687
 11
46.1676
 21
14.9061
  0
LINE
  8
0
 10
46.1676
 20
14.9061
 11
46.0469
 21
14.79
  0
LINE
  8
0
 10
46.0469
 20
14.79
 11
45.9146
 21
14.6872
  0
LINE
  8
0
 10
45.9146
 20
14.6872
 11
45.7724
 21
14.5988
  0
LINE
  8
0
 10
45.7724
 20
14.5988
 11
45.6217
 21
14.5257
  0
LINE
  8
0
 10
45.6217
 20
14.5257
 11
45.5437
 21
14.4952
  0
LINE
  8
0
 10
45.5437
 20
14.4952
 11
45.4642
 21
14.4688
  0
LINE
  8
0
 10
45.4642
 20
14.4688
 11
45.3016
 21
14.4287
  0
LINE
  8
0
 10
45.3016
 20
14.4287
 11
45.1357
 21
14.4058
  0
LINE
  8
0
 10
45.1357
 20
14.4058
 11
44.9683
 21
14.4003
  0
LINE
  8
0
 10
44.9683
 20
14.4003
 11
44.8013
 21
14.4124
  0
ENDSEC
  0
SECTION
  2
OBJECTS
  0
DICTIONARY
  0
ENDSEC
  0
EOF
